<svg width="89" height="89" viewBox="0 0 89 89" fill="none" xmlns="http://www.w3.org/2000/svg">
<rect width="88.9809" height="88.9809" rx="20.0925" fill="#7C3AED"/>
<path d="M23.3236 25.0473C25.5998 24.9923 28.1602 25.0631 30.4661 25.0639L45.6912 25.067L52.5573 25.0672C55.467 25.064 57.8201 24.6995 60.1132 27.0375C62.4226 29.3925 62.1245 32.0133 62.1144 35.1558C62.095 36.9849 62.0991 38.814 62.1276 40.6429L70.2715 31.8528C71.7894 30.2111 73.4171 28.3779 74.9839 26.829C75.0764 28.7151 75.0337 30.835 75.0327 32.7485V42.2969C75.0327 49.6589 75.1527 57.4753 75.0032 64.8011C73.6949 63.5177 72.2004 61.8545 70.9043 60.4945L62.1378 51.1109C62.0157 54.4494 62.3422 58.0252 61.916 61.3062C61.5762 63.9215 59.0186 66.4458 56.5555 66.589C54.2309 66.7243 51.7689 66.6724 49.4035 66.6731L35.8907 66.6693L27.7451 66.6725C26.8582 66.6799 25.489 66.6268 24.6406 66.7017C20.6974 67.05 17.0458 64.7451 16.782 60.2202C16.665 58.2134 16.7185 56.0778 16.7219 53.9919L16.7297 43.14L16.703 35.5546C16.6975 34.3415 16.6317 32.156 16.7877 31.0475C16.9725 29.7597 17.4863 28.5519 18.2721 27.5577C19.6258 25.8674 21.3053 25.2021 23.3236 25.0473Z" fill="white"/>
</svg>
