<svg width="553" height="280" viewBox="0 0 553 280" fill="none" xmlns="http://www.w3.org/2000/svg">
<g clip-path="url(#clip0_4175_13531)">
<rect x="0.5" y="0.5" width="552" height="279" rx="9.5" stroke="#E4E4E4"/>
<g clip-path="url(#clip1_4175_13531)">
<rect width="553" height="280" fill="#FAFAFA"/>
<g filter="url(#filter0_d_4175_13531)">
<g clip-path="url(#clip2_4175_13531)">
<mask id="path-3-inside-1_4175_13531" fill="white">
<path d="M30.5 66.2786C30.5 57.2882 37.7882 50 46.7786 50H506.067C515.057 50 522.345 57.2882 522.345 66.2786V338.363C522.345 347.354 515.057 354.642 506.067 354.642H46.7786C37.7882 354.642 30.5 347.354 30.5 338.363V66.2786Z"/>
</mask>
<path d="M30.5 66.2786C30.5 57.2882 37.7882 50 46.7786 50H506.067C515.057 50 522.345 57.2882 522.345 66.2786V338.363C522.345 347.354 515.057 354.642 506.067 354.642H46.7786C37.7882 354.642 30.5 347.354 30.5 338.363V66.2786Z" fill="#F9FAFB"/>
<mask id="path-5-inside-2_4175_13531" fill="white">
<path d="M31.2734 50.7754H619.627V87.596H31.2734V50.7754Z"/>
</mask>
<path d="M31.2734 50.7754H619.627V87.596H31.2734V50.7754Z" fill="white"/>
<path d="M619.627 87.596V86.8208H31.2734V87.596V88.3711H619.627V87.596Z" fill="#F3F4F6" mask="url(#path-5-inside-2_4175_13531)"/>
<path d="M45.2266 68.798C45.2266 66.2293 47.3089 64.147 49.8776 64.147C52.4463 64.147 54.5286 66.2293 54.5286 68.798C54.5286 71.3667 52.4463 73.449 49.8776 73.449C47.3089 73.449 45.2266 71.3667 45.2266 68.798Z" fill="#FF5F57" fill-opacity="0.6"/>
<path d="M61.5 68.798C61.5 66.2293 63.5823 64.147 66.151 64.147C68.7197 64.147 70.802 66.2293 70.802 68.798C70.802 71.3667 68.7197 73.449 66.151 73.449C63.5823 73.449 61.5 71.3667 61.5 68.798Z" fill="#FFBD2E" fill-opacity="0.6"/>
<path d="M77.7812 68.798C77.7812 66.2293 79.8636 64.147 82.4323 64.147C85.001 64.147 87.0833 66.2293 87.0833 68.798C87.0833 71.3667 85.001 73.449 82.4323 73.449C79.8636 73.449 77.7812 71.3667 77.7812 68.798Z" fill="#28C840" fill-opacity="0.6"/>
<path d="M106.549 70.7787C105.984 70.7787 105.475 70.7056 105.023 70.5593C104.571 70.413 104.178 70.2069 103.846 69.9409L104.165 69.2029C104.398 69.3758 104.634 69.522 104.873 69.6417C105.113 69.7548 105.369 69.8412 105.641 69.901C105.92 69.9542 106.223 69.9808 106.549 69.9808C107.127 69.9808 107.553 69.8778 107.825 69.6716C108.105 69.4589 108.244 69.1796 108.244 68.8338C108.244 68.5346 108.148 68.3052 107.955 68.1457C107.762 67.9861 107.426 67.8597 106.948 67.7667L105.881 67.5472C105.236 67.4143 104.754 67.1982 104.434 66.8989C104.122 66.5931 103.966 66.1808 103.966 65.6622C103.966 65.2433 104.075 64.8776 104.295 64.5651C104.521 64.2459 104.83 63.9999 105.222 63.827C105.621 63.6542 106.087 63.5677 106.619 63.5677C107.111 63.5677 107.566 63.6409 107.985 63.7871C108.404 63.9334 108.756 64.1495 109.042 64.4354L108.723 65.1436C108.424 64.8709 108.101 64.6748 107.756 64.5551C107.417 64.4288 107.031 64.3656 106.599 64.3656C106.073 64.3656 105.658 64.4786 105.352 64.7047C105.046 64.9308 104.893 65.2367 104.893 65.6223C104.893 65.9282 104.99 66.1709 105.182 66.3504C105.375 66.5233 105.694 66.6562 106.14 66.7493L107.207 66.9588C107.885 67.0918 108.381 67.3012 108.693 67.5871C109.012 67.873 109.172 68.2687 109.172 68.774C109.172 69.173 109.066 69.5254 108.853 69.8312C108.64 70.1304 108.337 70.3632 107.945 70.5294C107.553 70.6956 107.087 70.7787 106.549 70.7787ZM110.388 70.689V66.859C110.388 66.6662 110.381 66.4701 110.368 66.2706C110.355 66.0711 110.335 65.8716 110.308 65.6722H111.186L111.286 66.7493H111.166C111.319 66.3703 111.555 66.0811 111.874 65.8816C112.193 65.6821 112.566 65.5824 112.991 65.5824C113.583 65.5824 114.028 65.7453 114.328 66.0711C114.627 66.3903 114.776 66.889 114.776 67.5672V70.689H113.869V67.6171C113.869 67.1583 113.779 66.8291 113.6 66.6297C113.42 66.4235 113.141 66.3205 112.762 66.3205C112.31 66.3205 111.951 66.4568 111.685 66.7294C111.425 67.002 111.296 67.371 111.296 67.8365V70.689H110.388ZM118.176 70.7787C117.737 70.7787 117.352 70.6757 117.019 70.4695C116.687 70.2634 116.427 69.9642 116.241 69.5719C116.055 69.1796 115.962 68.7142 115.962 68.1756C115.962 67.637 116.055 67.1749 116.241 66.7892C116.427 66.3969 116.687 66.0977 117.019 65.8916C117.352 65.6855 117.737 65.5824 118.176 65.5824C118.622 65.5824 119.007 65.6954 119.333 65.9215C119.666 66.1409 119.885 66.4435 119.991 66.8291H119.872L119.981 65.6722H120.859C120.839 65.8716 120.819 66.0711 120.799 66.2706C120.786 66.4701 120.779 66.6662 120.779 66.859V70.689H119.872V69.542H119.981C119.875 69.921 119.656 70.2235 119.323 70.4496C118.997 70.669 118.615 70.7787 118.176 70.7787ZM118.386 70.0606C118.838 70.0606 119.2 69.901 119.473 69.5819C119.745 69.2627 119.882 68.794 119.882 68.1756C119.882 67.5572 119.745 67.0918 119.473 66.7793C119.2 66.4667 118.838 66.3105 118.386 66.3105C117.933 66.3105 117.568 66.4667 117.289 66.7793C117.016 67.0918 116.88 67.5572 116.88 68.1756C116.88 68.794 117.016 69.2627 117.289 69.5819C117.561 69.901 117.927 70.0606 118.386 70.0606ZM124.215 70.7787C123.776 70.7787 123.39 70.6757 123.058 70.4695C122.726 70.2634 122.466 69.9642 122.28 69.5719C122.094 69.1796 122.001 68.7142 122.001 68.1756C122.001 67.637 122.094 67.1749 122.28 66.7892C122.466 66.3969 122.726 66.0977 123.058 65.8916C123.39 65.6855 123.776 65.5824 124.215 65.5824C124.66 65.5824 125.046 65.6954 125.372 65.9215C125.704 66.1409 125.924 66.4435 126.03 66.8291H125.91L126.02 65.6722H126.898C126.878 65.8716 126.858 66.0711 126.838 66.2706C126.825 66.4701 126.818 66.6662 126.818 66.859V70.689H125.91V69.542H126.02C125.914 69.921 125.694 70.2235 125.362 70.4496C125.036 70.669 124.654 70.7787 124.215 70.7787ZM124.424 70.0606C124.877 70.0606 125.239 69.901 125.512 69.5819C125.784 69.2627 125.92 68.794 125.92 68.1756C125.92 67.5572 125.784 67.0918 125.512 66.7793C125.239 66.4667 124.877 66.3105 124.424 66.3105C123.972 66.3105 123.607 66.4667 123.327 66.7793C123.055 67.0918 122.918 67.5572 122.918 68.1756C122.918 68.794 123.055 69.2627 123.327 69.5819C123.6 69.901 123.966 70.0606 124.424 70.0606ZM128.329 70.689V66.8989C128.329 66.6995 128.322 66.4967 128.309 66.2905C128.302 66.0778 128.286 65.8716 128.259 65.6722H129.137L129.246 66.9289L129.097 66.9388C129.163 66.633 129.276 66.3803 129.436 66.1808C129.602 65.9747 129.798 65.8251 130.024 65.732C130.257 65.6323 130.496 65.5824 130.742 65.5824C130.849 65.5824 130.939 65.5857 131.012 65.5924C131.085 65.599 131.158 65.6157 131.231 65.6423L131.211 66.4501C131.111 66.4102 131.018 66.387 130.932 66.3803C130.852 66.367 130.752 66.3604 130.633 66.3604C130.34 66.3604 130.088 66.4269 129.875 66.5598C129.669 66.6928 129.509 66.869 129.396 67.0884C129.29 67.3079 129.236 67.5439 129.236 67.7966V70.689H128.329ZM132.03 72.8433V66.859C132.03 66.6662 132.024 66.4701 132.01 66.2706C131.997 66.0711 131.977 65.8716 131.95 65.6722H132.828L132.938 66.8291H132.828C132.928 66.4435 133.141 66.1409 133.466 65.9215C133.792 65.6954 134.181 65.5824 134.633 65.5824C135.079 65.5824 135.468 65.6855 135.8 65.8916C136.133 66.0977 136.389 66.3969 136.568 66.7892C136.754 67.1749 136.848 67.637 136.848 68.1756C136.848 68.7142 136.754 69.1796 136.568 69.5719C136.389 69.9642 136.133 70.2634 135.8 70.4695C135.468 70.6757 135.079 70.7787 134.633 70.7787C134.188 70.7787 133.802 70.669 133.476 70.4496C133.157 70.2235 132.941 69.921 132.828 69.542H132.938V72.8433H132.03ZM134.424 70.0606C134.883 70.0606 135.248 69.901 135.521 69.5819C135.794 69.2627 135.93 68.794 135.93 68.1756C135.93 67.5572 135.794 67.0918 135.521 66.7793C135.248 66.4667 134.883 66.3105 134.424 66.3105C133.965 66.3105 133.599 66.4667 133.327 66.7793C133.061 67.0918 132.928 67.5572 132.928 68.1756C132.928 68.794 133.061 69.2627 133.327 69.5819C133.599 69.901 133.965 70.0606 134.424 70.0606Z" fill="#9CA3AF"/>
<mask id="path-11-inside-3_4175_13531" fill="white">
<path d="M50.2656 117.44C50.2656 111.018 55.4715 105.812 61.8932 105.812H492.112C498.534 105.812 503.74 111.018 503.74 117.44V135.268C503.74 141.69 498.534 146.896 492.112 146.896H61.8931C55.4714 146.896 50.2656 141.69 50.2656 135.268V117.44Z"/>
</mask>
<path d="M50.2656 117.44C50.2656 111.018 55.4715 105.812 61.8932 105.812H492.112C498.534 105.812 503.74 111.018 503.74 117.44V135.268C503.74 141.69 498.534 146.896 492.112 146.896H61.8931C55.4714 146.896 50.2656 141.69 50.2656 135.268V117.44Z" fill="white"/>
<path d="M61.8932 105.812V106.587H492.112V105.812V105.037H61.8932V105.812ZM503.74 117.44H502.965V135.268H503.74H504.515V117.44H503.74ZM492.112 146.896V146.121H61.8931V146.896V147.671H492.112V146.896ZM50.2656 135.268H51.0408V117.44H50.2656H49.4905V135.268H50.2656ZM61.8931 146.896V146.121C55.8995 146.121 51.0408 141.262 51.0408 135.268H50.2656H49.4905C49.4905 142.118 55.0433 147.671 61.8931 147.671V146.896ZM503.74 135.268H502.965C502.965 141.262 498.106 146.121 492.112 146.121V146.896V147.671C498.962 147.671 504.515 142.118 504.515 135.268H503.74ZM492.112 105.812V106.587C498.106 106.587 502.965 111.446 502.965 117.44H503.74H504.515C504.515 110.59 498.962 105.037 492.112 105.037V105.812ZM61.8932 105.812V105.037C55.0433 105.037 49.4905 110.59 49.4905 117.44H50.2656H51.0408C51.0408 111.446 55.8996 106.587 61.8932 106.587V105.812Z" fill="#F3F4F6" mask="url(#path-11-inside-3_4175_13531)"/>
<path d="M64.9922 126.354C64.9922 123.785 67.0745 121.703 69.6432 121.703C72.2119 121.703 74.2942 123.785 74.2942 126.354C74.2942 128.923 72.2119 131.005 69.6432 131.005C67.0745 131.005 64.9922 128.923 64.9922 126.354Z" fill="#4338CA"/>
<path d="M87.08 131.114V121.277H91.2519C92.3031 121.277 93.1077 121.533 93.6658 122.045C94.2332 122.547 94.517 123.245 94.517 124.138C94.517 125.031 94.2332 125.733 93.6658 126.245C93.1077 126.756 92.3031 127.012 91.2519 127.012H88.5311V131.114H87.08ZM88.5311 125.854H91.0985C91.7589 125.854 92.2566 125.705 92.5914 125.407C92.9263 125.11 93.0937 124.687 93.0937 124.138C93.0937 123.598 92.9263 123.18 92.5914 122.882C92.2566 122.584 91.7589 122.435 91.0985 122.435H88.5311V125.854ZM95.9742 131.114V125.826C95.9742 125.538 95.9649 125.249 95.9463 124.961C95.937 124.663 95.9184 124.37 95.8905 124.082H97.2579L97.4113 125.896H97.1881C97.2811 125.459 97.4392 125.096 97.6625 124.807C97.8857 124.519 98.1555 124.305 98.4718 124.166C98.7973 124.026 99.1369 123.956 99.4903 123.956C99.6392 123.956 99.7648 123.966 99.8671 123.984C99.9694 123.994 100.072 124.012 100.174 124.04L100.16 125.296C100.002 125.231 99.8624 125.194 99.7415 125.184C99.6299 125.166 99.4903 125.156 99.3229 125.156C98.9136 125.156 98.5648 125.249 98.2764 125.435C97.9881 125.612 97.7695 125.854 97.6206 126.161C97.4718 126.468 97.3974 126.798 97.3974 127.152V131.114H95.9742ZM101.262 131.114V124.082H102.671V131.114H101.262ZM101.15 122.617V121.152H102.783V122.617H101.15ZM104.736 131.114V125.77C104.736 125.5 104.722 125.226 104.695 124.947C104.676 124.659 104.653 124.37 104.625 124.082H105.992L106.118 125.561H105.95C106.146 125.049 106.443 124.654 106.843 124.375C107.253 124.096 107.741 123.956 108.308 123.956C108.885 123.956 109.355 124.096 109.718 124.375C110.09 124.645 110.345 125.063 110.485 125.631H110.262C110.448 125.119 110.764 124.714 111.211 124.417C111.657 124.11 112.173 123.956 112.759 123.956C113.541 123.956 114.127 124.184 114.517 124.64C114.908 125.096 115.103 125.803 115.103 126.761V131.114H113.694V126.831C113.694 126.217 113.587 125.775 113.373 125.505C113.169 125.226 112.834 125.087 112.369 125.087C111.829 125.087 111.401 125.273 111.085 125.645C110.769 126.017 110.611 126.519 110.611 127.152V131.114H109.201V126.831C109.201 126.217 109.094 125.775 108.88 125.505C108.676 125.226 108.341 125.087 107.876 125.087C107.336 125.087 106.913 125.273 106.606 125.645C106.299 126.017 106.146 126.519 106.146 127.152V131.114H104.736ZM119.815 131.24C119.192 131.24 118.648 131.096 118.183 130.807C117.718 130.519 117.355 130.1 117.095 129.552C116.843 129.003 116.718 128.352 116.718 127.598C116.718 126.835 116.843 126.184 117.095 125.645C117.355 125.105 117.718 124.691 118.183 124.403C118.648 124.105 119.192 123.956 119.815 123.956C120.429 123.956 120.964 124.11 121.42 124.417C121.876 124.724 122.178 125.142 122.327 125.673H122.173L122.313 124.082H123.68C123.652 124.37 123.625 124.659 123.597 124.947C123.578 125.226 123.569 125.5 123.569 125.77V131.114H122.159V129.552H122.313C122.164 130.072 121.857 130.486 121.392 130.793C120.936 131.091 120.411 131.24 119.815 131.24ZM120.164 130.138C120.769 130.138 121.253 129.924 121.615 129.496C121.987 129.068 122.173 128.435 122.173 127.598C122.173 126.761 121.987 126.133 121.615 125.714C121.253 125.287 120.769 125.073 120.164 125.073C119.55 125.073 119.057 125.287 118.685 125.714C118.322 126.133 118.141 126.761 118.141 127.598C118.141 128.435 118.322 129.068 118.685 129.496C119.048 129.924 119.541 130.138 120.164 130.138ZM125.597 131.114V125.826C125.597 125.538 125.588 125.249 125.569 124.961C125.56 124.663 125.541 124.37 125.513 124.082H126.881L127.034 125.896H126.811C126.904 125.459 127.062 125.096 127.285 124.807C127.509 124.519 127.778 124.305 128.095 124.166C128.42 124.026 128.76 123.956 129.113 123.956C129.262 123.956 129.388 123.966 129.49 123.984C129.592 123.994 129.695 124.012 129.797 124.04L129.783 125.296C129.625 125.231 129.485 125.194 129.364 125.184C129.253 125.166 129.113 125.156 128.946 125.156C128.537 125.156 128.188 125.249 127.899 125.435C127.611 125.612 127.392 125.854 127.244 126.161C127.095 126.468 127.02 126.798 127.02 127.152V131.114H125.597ZM131.098 134.282L130.763 133.137C131.2 133.044 131.563 132.933 131.851 132.803C132.149 132.672 132.395 132.5 132.591 132.286C132.786 132.082 132.954 131.817 133.093 131.491L133.442 130.668L133.414 131.24L130.358 124.082H131.865L134.237 129.942H133.861L136.233 124.082H137.684L134.461 131.617C134.256 132.082 134.037 132.472 133.805 132.789C133.572 133.105 133.321 133.361 133.051 133.556C132.781 133.751 132.484 133.905 132.158 134.016C131.833 134.128 131.479 134.216 131.098 134.282Z" fill="#374151"/>
<path d="M399.916 131.24C399.293 131.24 398.748 131.096 398.283 130.807C397.818 130.51 397.455 130.091 397.195 129.552C396.944 129.012 396.818 128.366 396.818 127.612C396.818 126.849 396.944 126.198 397.195 125.659C397.455 125.119 397.818 124.705 398.283 124.417C398.748 124.128 399.293 123.984 399.916 123.984C400.548 123.984 401.092 124.147 401.548 124.473C402.013 124.789 402.32 125.221 402.469 125.77H402.302L402.455 124.11H403.544C403.516 124.38 403.488 124.654 403.46 124.933C403.441 125.203 403.432 125.468 403.432 125.728V131.114H402.302V129.468H402.455C402.306 130.017 401.999 130.449 401.534 130.765C401.069 131.082 400.53 131.24 399.916 131.24ZM400.139 130.319C400.809 130.319 401.339 130.091 401.73 129.635C402.12 129.17 402.316 128.496 402.316 127.612C402.316 126.719 402.12 126.045 401.73 125.589C401.339 125.124 400.809 124.891 400.139 124.891C399.479 124.891 398.948 125.124 398.548 125.589C398.158 126.045 397.962 126.719 397.962 127.612C397.962 128.496 398.158 129.17 398.548 129.635C398.948 130.091 399.479 130.319 400.139 130.319ZM408.561 131.24C407.873 131.24 407.273 131.091 406.761 130.793C406.259 130.496 405.868 130.072 405.589 129.524C405.319 128.975 405.185 128.324 405.185 127.57C405.185 126.807 405.324 126.161 405.603 125.631C405.882 125.091 406.273 124.682 406.775 124.403C407.287 124.124 407.882 123.984 408.561 123.984C409.008 123.984 409.44 124.063 409.859 124.221C410.287 124.38 410.64 124.603 410.919 124.891L410.515 125.7C410.236 125.431 409.929 125.231 409.594 125.1C409.268 124.97 408.947 124.905 408.631 124.905C407.905 124.905 407.343 125.133 406.943 125.589C406.543 126.045 406.343 126.71 406.343 127.584C406.343 128.449 406.543 129.119 406.943 129.593C407.343 130.068 407.905 130.305 408.631 130.305C408.938 130.305 409.254 130.245 409.58 130.124C409.915 130.003 410.226 129.803 410.515 129.524L410.919 130.319C410.631 130.617 410.273 130.844 409.845 131.003C409.417 131.161 408.989 131.24 408.561 131.24ZM412.526 131.114V125.728C412.526 125.468 412.512 125.203 412.484 124.933C412.465 124.654 412.442 124.38 412.414 124.11H413.502L413.642 125.645H413.474C413.66 125.114 413.953 124.705 414.353 124.417C414.763 124.128 415.256 123.984 415.832 123.984C416.418 123.984 416.893 124.124 417.256 124.403C417.628 124.682 417.879 125.114 418.009 125.7H417.8C417.977 125.17 418.288 124.752 418.735 124.445C419.181 124.138 419.702 123.984 420.297 123.984C421.069 123.984 421.651 124.207 422.041 124.654C422.432 125.091 422.628 125.784 422.628 126.733V131.114H421.497V126.803C421.497 126.142 421.381 125.663 421.148 125.366C420.916 125.059 420.544 124.905 420.032 124.905C419.446 124.905 418.981 125.11 418.637 125.519C418.302 125.919 418.135 126.459 418.135 127.138V131.114H417.004V126.803C417.004 126.142 416.888 125.663 416.656 125.366C416.423 125.059 416.051 124.905 415.539 124.905C414.953 124.905 414.493 125.11 414.158 125.519C413.823 125.919 413.656 126.459 413.656 127.138V131.114H412.526ZM427.887 131.24C426.789 131.24 425.924 130.924 425.292 130.291C424.659 129.649 424.343 128.761 424.343 127.626C424.343 126.891 424.482 126.254 424.761 125.714C425.04 125.166 425.431 124.742 425.933 124.445C426.436 124.138 427.012 123.984 427.664 123.984C428.305 123.984 428.845 124.119 429.282 124.389C429.719 124.659 430.054 125.045 430.287 125.547C430.519 126.04 430.636 126.626 430.636 127.305V127.724H425.208V127.012H429.896L429.659 127.193C429.659 126.449 429.491 125.868 429.157 125.449C428.822 125.031 428.324 124.821 427.664 124.821C426.966 124.821 426.422 125.068 426.031 125.561C425.64 126.045 425.445 126.7 425.445 127.528V127.654C425.445 128.528 425.659 129.193 426.087 129.649C426.524 130.096 427.133 130.319 427.915 130.319C428.333 130.319 428.724 130.258 429.087 130.138C429.459 130.007 429.812 129.798 430.147 129.51L430.538 130.305C430.231 130.603 429.84 130.835 429.366 131.003C428.901 131.161 428.408 131.24 427.887 131.24ZM435.309 131.24C434.621 131.24 434.021 131.091 433.509 130.793C433.007 130.496 432.616 130.072 432.337 129.524C432.067 128.975 431.932 128.324 431.932 127.57C431.932 126.807 432.072 126.161 432.351 125.631C432.63 125.091 433.021 124.682 433.523 124.403C434.035 124.124 434.63 123.984 435.309 123.984C435.756 123.984 436.188 124.063 436.607 124.221C437.035 124.38 437.388 124.603 437.667 124.891L437.263 125.7C436.983 125.431 436.677 125.231 436.342 125.1C436.016 124.97 435.695 124.905 435.379 124.905C434.653 124.905 434.091 125.133 433.691 125.589C433.291 126.045 433.091 126.71 433.091 127.584C433.091 128.449 433.291 129.119 433.691 129.593C434.091 130.068 434.653 130.305 435.379 130.305C435.686 130.305 436.002 130.245 436.328 130.124C436.663 130.003 436.974 129.803 437.263 129.524L437.667 130.319C437.379 130.617 437.021 130.844 436.593 131.003C436.165 131.161 435.737 131.24 435.309 131.24ZM442.011 131.24C441.342 131.24 440.756 131.096 440.253 130.807C439.76 130.51 439.379 130.091 439.109 129.552C438.839 129.003 438.705 128.356 438.705 127.612C438.705 126.859 438.839 126.212 439.109 125.673C439.379 125.133 439.76 124.719 440.253 124.431C440.756 124.133 441.342 123.984 442.011 123.984C442.691 123.984 443.277 124.133 443.77 124.431C444.272 124.719 444.658 125.133 444.928 125.673C445.207 126.212 445.346 126.859 445.346 127.612C445.346 128.356 445.207 129.003 444.928 129.552C444.658 130.091 444.272 130.51 443.77 130.807C443.277 131.096 442.691 131.24 442.011 131.24ZM442.011 130.319C442.681 130.319 443.211 130.091 443.602 129.635C443.993 129.17 444.188 128.496 444.188 127.612C444.188 126.719 443.988 126.045 443.588 125.589C443.197 125.124 442.672 124.891 442.011 124.891C441.351 124.891 440.825 125.124 440.435 125.589C440.044 126.045 439.849 126.719 439.849 127.612C439.849 128.496 440.044 129.17 440.435 129.635C440.825 130.091 441.351 130.319 442.011 130.319ZM447.08 131.114V125.798C447.08 125.519 447.071 125.235 447.053 124.947C447.043 124.659 447.025 124.38 446.997 124.11H448.085L448.225 125.812L448.029 125.826C448.122 125.407 448.285 125.063 448.518 124.794C448.75 124.524 449.025 124.324 449.341 124.194C449.657 124.054 449.987 123.984 450.332 123.984C450.471 123.984 450.592 123.989 450.694 123.998C450.806 124.008 450.908 124.031 451.001 124.068L450.987 125.073C450.848 125.026 450.718 124.998 450.597 124.989C450.485 124.97 450.355 124.961 450.206 124.961C449.797 124.961 449.439 125.059 449.132 125.254C448.834 125.449 448.606 125.7 448.448 126.007C448.299 126.314 448.225 126.64 448.225 126.984V131.114H447.08ZM452.177 134.128V125.728C452.177 125.468 452.163 125.203 452.135 124.933C452.117 124.654 452.094 124.38 452.066 124.11H453.154L453.307 125.77H453.14C453.289 125.221 453.591 124.789 454.047 124.473C454.503 124.147 455.047 123.984 455.679 123.984C456.312 123.984 456.856 124.128 457.312 124.417C457.777 124.705 458.14 125.119 458.4 125.659C458.661 126.198 458.791 126.849 458.791 127.612C458.791 128.366 458.661 129.012 458.4 129.552C458.149 130.091 457.791 130.51 457.326 130.807C456.861 131.096 456.312 131.24 455.679 131.24C455.056 131.24 454.517 131.082 454.061 130.765C453.605 130.449 453.303 130.017 453.154 129.468H453.307V134.128H452.177ZM455.456 130.319C456.126 130.319 456.656 130.091 457.047 129.635C457.447 129.17 457.647 128.496 457.647 127.612C457.647 126.719 457.447 126.045 457.047 125.589C456.656 125.124 456.126 124.891 455.456 124.891C454.796 124.891 454.266 125.124 453.866 125.589C453.475 126.045 453.28 126.719 453.28 127.612C453.28 128.496 453.475 129.17 453.866 129.635C454.266 130.091 454.796 130.319 455.456 130.319ZM460.007 131.114V129.691H461.43V131.114H460.007ZM466.036 131.24C465.347 131.24 464.747 131.091 464.236 130.793C463.734 130.496 463.343 130.072 463.064 129.524C462.794 128.975 462.659 128.324 462.659 127.57C462.659 126.807 462.799 126.161 463.078 125.631C463.357 125.091 463.747 124.682 464.25 124.403C464.761 124.124 465.357 123.984 466.036 123.984C466.482 123.984 466.915 124.063 467.333 124.221C467.761 124.38 468.115 124.603 468.394 124.891L467.989 125.7C467.71 125.431 467.403 125.231 467.068 125.1C466.743 124.97 466.422 124.905 466.106 124.905C465.38 124.905 464.817 125.133 464.417 125.589C464.017 126.045 463.817 126.71 463.817 127.584C463.817 128.449 464.017 129.119 464.417 129.593C464.817 130.068 465.38 130.305 466.106 130.305C466.413 130.305 466.729 130.245 467.054 130.124C467.389 130.003 467.701 129.803 467.989 129.524L468.394 130.319C468.105 130.617 467.747 130.844 467.319 131.003C466.892 131.161 466.464 131.24 466.036 131.24ZM472.738 131.24C472.068 131.24 471.482 131.096 470.98 130.807C470.487 130.51 470.106 130.091 469.836 129.552C469.566 129.003 469.431 128.356 469.431 127.612C469.431 126.859 469.566 126.212 469.836 125.673C470.106 125.133 470.487 124.719 470.98 124.431C471.482 124.133 472.068 123.984 472.738 123.984C473.417 123.984 474.003 124.133 474.496 124.431C474.999 124.719 475.385 125.133 475.654 125.673C475.933 126.212 476.073 126.859 476.073 127.612C476.073 128.356 475.933 129.003 475.654 129.552C475.385 130.091 474.999 130.51 474.496 130.807C474.003 131.096 473.417 131.24 472.738 131.24ZM472.738 130.319C473.408 130.319 473.938 130.091 474.329 129.635C474.72 129.17 474.915 128.496 474.915 127.612C474.915 126.719 474.715 126.045 474.315 125.589C473.924 125.124 473.399 124.891 472.738 124.891C472.078 124.891 471.552 125.124 471.161 125.589C470.771 126.045 470.575 126.719 470.575 127.612C470.575 128.496 470.771 129.17 471.161 129.635C471.552 130.091 472.078 130.319 472.738 130.319ZM477.835 131.114V125.728C477.835 125.468 477.821 125.203 477.793 124.933C477.775 124.654 477.751 124.38 477.723 124.11H478.812L478.951 125.645H478.784C478.97 125.114 479.263 124.705 479.663 124.417C480.072 124.128 480.565 123.984 481.142 123.984C481.728 123.984 482.202 124.124 482.565 124.403C482.937 124.682 483.188 125.114 483.319 125.7H483.109C483.286 125.17 483.598 124.752 484.044 124.445C484.491 124.138 485.012 123.984 485.607 123.984C486.379 123.984 486.96 124.207 487.351 124.654C487.742 125.091 487.937 125.784 487.937 126.733V131.114H486.807V126.803C486.807 126.142 486.691 125.663 486.458 125.366C486.226 125.059 485.853 124.905 485.342 124.905C484.756 124.905 484.291 125.11 483.947 125.519C483.612 125.919 483.444 126.459 483.444 127.138V131.114H482.314V126.803C482.314 126.142 482.198 125.663 481.965 125.366C481.733 125.059 481.361 124.905 480.849 124.905C480.263 124.905 479.802 125.11 479.468 125.519C479.133 125.919 478.965 126.459 478.965 127.138V131.114H477.835Z" fill="#6B7280"/>
<mask id="path-16-inside-4_4175_13531" fill="white">
<path d="M50.2656 172.477C50.2656 166.055 55.4715 160.849 61.8932 160.849H492.112C498.534 160.849 503.74 166.055 503.74 172.477V190.306C503.74 196.727 498.534 201.933 492.112 201.933H61.8931C55.4714 201.933 50.2656 196.727 50.2656 190.306V172.477Z"/>
</mask>
<path d="M50.2656 172.477C50.2656 166.055 55.4715 160.849 61.8932 160.849H492.112C498.534 160.849 503.74 166.055 503.74 172.477V190.306C503.74 196.727 498.534 201.933 492.112 201.933H61.8931C55.4714 201.933 50.2656 196.727 50.2656 190.306V172.477Z" fill="white"/>
<path d="M61.8932 160.849V161.624H492.112V160.849V160.074H61.8932V160.849ZM503.74 172.477H502.965V190.306H503.74H504.515V172.477H503.74ZM492.112 201.933V201.158H61.8931V201.933V202.708H492.112V201.933ZM50.2656 190.306H51.0408V172.477H50.2656H49.4905V190.306H50.2656ZM61.8931 201.933V201.158C55.8995 201.158 51.0408 196.299 51.0408 190.306H50.2656H49.4905C49.4905 197.155 55.0433 202.708 61.8931 202.708V201.933ZM503.74 190.306H502.965C502.965 196.299 498.106 201.158 492.112 201.158V201.933V202.708C498.962 202.708 504.515 197.155 504.515 190.306H503.74ZM492.112 160.849V161.624C498.106 161.624 502.965 166.483 502.965 172.477H503.74H504.515C504.515 165.627 498.962 160.074 492.112 160.074V160.849ZM61.8932 160.849V160.074C55.0433 160.074 49.4905 165.627 49.4905 172.477H50.2656H51.0408C51.0408 166.483 55.8996 161.624 61.8932 161.624V160.849Z" fill="#F3F4F6" mask="url(#path-16-inside-4_4175_13531)"/>
<path d="M64.9922 181.391C64.9922 178.823 67.0745 176.74 69.6432 176.74C72.2119 176.74 74.2942 178.823 74.2942 181.391C74.2942 183.96 72.2119 186.042 69.6432 186.042C67.0745 186.042 64.9922 183.96 64.9922 181.391Z" fill="#22C55E"/>
<path d="M90.4008 186.277C89.6101 186.277 88.8939 186.179 88.252 185.984C87.6102 185.779 87.0521 185.491 86.5777 185.119L87.066 183.975C87.3823 184.217 87.7079 184.417 88.0427 184.575C88.3869 184.733 88.7497 184.854 89.1311 184.937C89.5218 185.012 89.945 185.049 90.4008 185.049C91.1822 185.049 91.7543 184.91 92.117 184.63C92.4891 184.351 92.6752 183.984 92.6752 183.528C92.6752 183.138 92.5449 182.835 92.2845 182.621C92.0333 182.407 91.5868 182.235 90.945 182.105L89.4241 181.798C88.5218 181.612 87.8474 181.31 87.4009 180.891C86.9637 180.463 86.7451 179.882 86.7451 179.147C86.7451 178.552 86.9032 178.031 87.2195 177.584C87.5358 177.138 87.973 176.794 88.5311 176.552C89.0985 176.31 89.759 176.189 90.5124 176.189C91.2101 176.189 91.8519 176.291 92.438 176.496C93.024 176.691 93.517 176.984 93.917 177.375L93.4426 178.477C93.024 178.114 92.5775 177.849 92.1031 177.682C91.6287 177.505 91.0892 177.417 90.4845 177.417C89.7683 177.417 89.2055 177.566 88.7962 177.863C88.3962 178.161 88.1962 178.566 88.1962 179.077C88.1962 179.486 88.3218 179.807 88.573 180.04C88.8334 180.272 89.2613 180.449 89.8566 180.57L91.3775 180.863C92.317 181.059 93.01 181.361 93.4565 181.77C93.903 182.17 94.1263 182.724 94.1263 183.431C94.1263 183.998 93.9728 184.496 93.6658 184.923C93.3682 185.351 92.9403 185.686 92.3821 185.928C91.824 186.161 91.1636 186.277 90.4008 186.277ZM95.9096 186.151V176.314H100.082C101.133 176.314 101.937 176.57 102.495 177.082C103.063 177.584 103.347 178.282 103.347 179.175C103.347 180.068 103.063 180.77 102.495 181.282C101.937 181.793 101.133 182.049 100.082 182.049H97.3608V186.151H95.9096ZM97.3608 180.891H99.9281C100.589 180.891 101.086 180.742 101.421 180.445C101.756 180.147 101.923 179.724 101.923 179.175C101.923 178.635 101.756 178.217 101.421 177.919C101.086 177.621 100.589 177.473 99.9281 177.473H97.3608V180.891ZM105.094 186.151V176.314H111.4V177.473H106.545V180.626H111.079V181.784H106.545V186.151H105.094Z" fill="#374151"/>
<path d="M423.91 186.277C422.924 186.277 422.087 186.072 421.398 185.663C420.71 185.254 420.18 184.672 419.808 183.919C419.445 183.165 419.264 182.268 419.264 181.226C419.264 180.184 419.445 179.291 419.808 178.547C420.18 177.793 420.71 177.212 421.398 176.803C422.087 176.394 422.924 176.189 423.91 176.189C424.608 176.189 425.231 176.296 425.78 176.51C426.328 176.724 426.807 177.035 427.217 177.445L426.784 178.366C426.338 177.975 425.896 177.691 425.459 177.514C425.021 177.328 424.51 177.235 423.924 177.235C422.798 177.235 421.943 177.584 421.356 178.282C420.77 178.979 420.477 179.961 420.477 181.226C420.477 182.491 420.77 183.477 421.356 184.184C421.943 184.882 422.798 185.23 423.924 185.23C424.51 185.23 425.021 185.142 425.459 184.965C425.896 184.779 426.338 184.486 426.784 184.086L427.217 185.021C426.807 185.421 426.328 185.733 425.78 185.956C425.231 186.17 424.608 186.277 423.91 186.277ZM431.423 186.277C430.753 186.277 430.167 186.133 429.665 185.844C429.172 185.547 428.79 185.128 428.521 184.589C428.251 184.04 428.116 183.393 428.116 182.649C428.116 181.896 428.251 181.249 428.521 180.71C428.79 180.17 429.172 179.756 429.665 179.468C430.167 179.17 430.753 179.021 431.423 179.021C432.102 179.021 432.688 179.17 433.181 179.468C433.683 179.756 434.069 180.17 434.339 180.71C434.618 181.249 434.758 181.896 434.758 182.649C434.758 183.393 434.618 184.04 434.339 184.589C434.069 185.128 433.683 185.547 433.181 185.844C432.688 186.133 432.102 186.277 431.423 186.277ZM431.423 185.356C432.092 185.356 432.623 185.128 433.013 184.672C433.404 184.207 433.599 183.533 433.599 182.649C433.599 181.756 433.399 181.082 432.999 180.626C432.609 180.161 432.083 179.928 431.423 179.928C430.762 179.928 430.237 180.161 429.846 180.626C429.455 181.082 429.26 181.756 429.26 182.649C429.26 183.533 429.455 184.207 429.846 184.672C430.237 185.128 430.762 185.356 431.423 185.356ZM436.52 186.151V180.765C436.52 180.505 436.506 180.24 436.478 179.97C436.459 179.691 436.436 179.417 436.408 179.147H437.496L437.636 180.682H437.468C437.673 180.142 437.999 179.733 438.445 179.454C438.901 179.166 439.427 179.021 440.022 179.021C440.85 179.021 441.473 179.245 441.892 179.691C442.319 180.128 442.533 180.821 442.533 181.77V186.151H441.403V181.84C441.403 181.179 441.268 180.7 440.999 180.403C440.738 180.096 440.329 179.942 439.771 179.942C439.12 179.942 438.603 180.142 438.222 180.542C437.841 180.942 437.65 181.477 437.65 182.147V186.151H436.52ZM445.058 186.151V180.026H443.691V179.147H445.365L445.058 179.44V178.268C445.058 177.477 445.253 176.873 445.644 176.454C446.044 176.035 446.611 175.826 447.346 175.826C447.523 175.826 447.709 175.845 447.904 175.882C448.109 175.91 448.281 175.952 448.421 176.007V176.942C448.309 176.896 448.17 176.859 448.002 176.831C447.844 176.794 447.681 176.775 447.514 176.775C447.077 176.775 446.746 176.905 446.523 177.166C446.3 177.426 446.188 177.826 446.188 178.366V179.384L446.007 179.147H450.5V186.151H449.37V180.026H446.188V186.151H445.058ZM449.244 177.556V176.287H450.639V177.556H449.244ZM455.791 189.263C455.186 189.263 454.628 189.188 454.117 189.04C453.605 188.891 453.145 188.663 452.735 188.356L453.07 187.505C453.359 187.709 453.642 187.872 453.921 187.993C454.2 188.114 454.489 188.202 454.786 188.258C455.084 188.323 455.4 188.356 455.735 188.356C456.424 188.356 456.944 188.175 457.298 187.812C457.651 187.449 457.828 186.933 457.828 186.263V184.212H457.968C457.819 184.761 457.512 185.198 457.047 185.523C456.582 185.84 456.037 185.998 455.414 185.998C454.772 185.998 454.214 185.858 453.74 185.579C453.275 185.291 452.912 184.886 452.652 184.365C452.4 183.835 452.275 183.212 452.275 182.496C452.275 181.789 452.4 181.175 452.652 180.654C452.912 180.133 453.275 179.733 453.74 179.454C454.214 179.166 454.772 179.021 455.414 179.021C456.047 179.021 456.591 179.179 457.047 179.496C457.512 179.812 457.819 180.249 457.968 180.807L457.828 180.668L457.954 179.147H459.056C459.019 179.417 458.991 179.691 458.972 179.97C458.954 180.24 458.944 180.505 458.944 180.765V186.11C458.944 187.151 458.675 187.937 458.135 188.468C457.605 188.998 456.824 189.263 455.791 189.263ZM455.624 185.077C456.303 185.077 456.837 184.854 457.228 184.407C457.619 183.951 457.814 183.314 457.814 182.496C457.814 181.677 457.619 181.045 457.228 180.598C456.837 180.152 456.303 179.928 455.624 179.928C454.954 179.928 454.419 180.152 454.019 180.598C453.619 181.045 453.419 181.677 453.419 182.496C453.419 183.314 453.619 183.951 454.019 184.407C454.419 184.854 454.954 185.077 455.624 185.077ZM463.584 186.277C462.756 186.277 462.129 186.049 461.701 185.593C461.282 185.137 461.073 184.44 461.073 183.5V179.147H462.203V183.472C462.203 184.114 462.333 184.589 462.594 184.896C462.854 185.193 463.259 185.342 463.808 185.342C464.421 185.342 464.915 185.142 465.287 184.742C465.659 184.342 465.845 183.807 465.845 183.138V179.147H466.975V186.151H465.873V184.575H466.054C465.859 185.114 465.542 185.533 465.105 185.83C464.677 186.128 464.17 186.277 463.584 186.277ZM469.14 186.151V180.835C469.14 180.556 469.13 180.272 469.112 179.984C469.102 179.696 469.084 179.417 469.056 179.147H470.144L470.284 180.849L470.089 180.863C470.182 180.445 470.344 180.1 470.577 179.831C470.809 179.561 471.084 179.361 471.4 179.231C471.716 179.091 472.047 179.021 472.391 179.021C472.53 179.021 472.651 179.026 472.754 179.035C472.865 179.045 472.967 179.068 473.061 179.105L473.047 180.11C472.907 180.063 472.777 180.035 472.656 180.026C472.544 180.007 472.414 179.998 472.265 179.998C471.856 179.998 471.498 180.096 471.191 180.291C470.893 180.486 470.665 180.738 470.507 181.045C470.358 181.352 470.284 181.677 470.284 182.021V186.151H469.14ZM477.266 186.277C476.169 186.277 475.304 185.961 474.671 185.328C474.038 184.686 473.722 183.798 473.722 182.663C473.722 181.928 473.862 181.291 474.141 180.752C474.42 180.203 474.811 179.779 475.313 179.482C475.815 179.175 476.392 179.021 477.043 179.021C477.685 179.021 478.224 179.156 478.662 179.426C479.099 179.696 479.434 180.082 479.666 180.584C479.899 181.077 480.015 181.663 480.015 182.342V182.761H474.587V182.049H479.276L479.038 182.231C479.038 181.486 478.871 180.905 478.536 180.486C478.201 180.068 477.703 179.859 477.043 179.859C476.345 179.859 475.801 180.105 475.411 180.598C475.02 181.082 474.824 181.738 474.824 182.565V182.691C474.824 183.565 475.038 184.23 475.466 184.686C475.904 185.133 476.513 185.356 477.294 185.356C477.713 185.356 478.103 185.296 478.466 185.175C478.838 185.044 479.192 184.835 479.527 184.547L479.917 185.342C479.61 185.64 479.22 185.872 478.745 186.04C478.28 186.198 477.787 186.277 477.266 186.277ZM484.396 186.277C483.782 186.277 483.242 186.133 482.777 185.844C482.312 185.547 481.949 185.128 481.689 184.589C481.437 184.049 481.312 183.403 481.312 182.649C481.312 181.886 481.437 181.235 481.689 180.696C481.949 180.156 482.312 179.742 482.777 179.454C483.242 179.166 483.782 179.021 484.396 179.021C485.028 179.021 485.572 179.179 486.028 179.496C486.493 179.812 486.805 180.24 486.963 180.779H486.795V175.882H487.926V186.151H486.809V184.477H486.963C486.814 185.035 486.507 185.477 486.042 185.803C485.577 186.119 485.028 186.277 484.396 186.277ZM484.633 185.356C485.293 185.356 485.823 185.128 486.223 184.672C486.623 184.207 486.823 183.533 486.823 182.649C486.823 181.756 486.623 181.082 486.223 180.626C485.823 180.161 485.293 179.928 484.633 179.928C483.972 179.928 483.442 180.161 483.042 180.626C482.651 181.082 482.456 181.756 482.456 182.649C482.456 183.533 482.651 184.207 483.042 184.672C483.442 185.128 483.972 185.356 484.633 185.356Z" fill="#6B7280"/>
<mask id="path-21-inside-5_4175_13531" fill="white">
<path d="M50.2656 227.514C50.2656 221.093 55.4715 215.887 61.8932 215.887H492.112C498.534 215.887 503.74 221.093 503.74 227.514V245.343C503.74 251.765 498.534 256.971 492.112 256.971H61.8931C55.4714 256.971 50.2656 251.765 50.2656 245.343V227.514Z"/>
</mask>
<path d="M50.2656 227.514C50.2656 221.093 55.4715 215.887 61.8932 215.887H492.112C498.534 215.887 503.74 221.093 503.74 227.514V245.343C503.74 251.765 498.534 256.971 492.112 256.971H61.8931C55.4714 256.971 50.2656 251.765 50.2656 245.343V227.514Z" fill="white"/>
<path d="M61.8932 215.887V216.662H492.112V215.887V215.112H61.8932V215.887ZM503.74 227.514H502.965V245.343H503.74H504.515V227.514H503.74ZM492.112 256.971V256.196H61.8931V256.971V257.746H492.112V256.971ZM50.2656 245.343H51.0408V227.514H50.2656H49.4905V245.343H50.2656ZM61.8931 256.971V256.196C55.8995 256.196 51.0408 251.337 51.0408 245.343H50.2656H49.4905C49.4905 252.193 55.0433 257.746 61.8931 257.746V256.971ZM503.74 245.343H502.965C502.965 251.337 498.106 256.196 492.112 256.196V256.971V257.746C498.962 257.746 504.515 252.193 504.515 245.343H503.74ZM492.112 215.887V216.662C498.106 216.662 502.965 221.521 502.965 227.514H503.74H504.515C504.515 220.664 498.962 215.112 492.112 215.112V215.887ZM61.8932 215.887V215.112C55.0433 215.112 49.4905 220.664 49.4905 227.514H50.2656H51.0408C51.0408 221.521 55.8996 216.662 61.8932 216.662V215.887Z" fill="#F3F4F6" mask="url(#path-21-inside-5_4175_13531)"/>
<path d="M64.9922 236.429C64.9922 233.86 67.0745 231.778 69.6432 231.778C72.2119 231.778 74.2942 233.86 74.2942 236.429C74.2942 238.998 72.2119 241.08 69.6432 241.08C67.0745 241.08 64.9922 238.998 64.9922 236.429Z" fill="#22C55E"/>
<path d="M87.08 241.188V231.352H90.4845C91.5915 231.352 92.5263 231.542 93.2891 231.924C94.0612 232.305 94.6425 232.863 95.0332 233.598C95.4332 234.324 95.6332 235.212 95.6332 236.263C95.6332 237.305 95.4332 238.193 95.0332 238.928C94.6425 239.663 94.0612 240.226 93.2891 240.616C92.5263 240.998 91.5915 241.188 90.4845 241.188H87.08ZM88.5311 239.975H90.4008C91.6659 239.975 92.6054 239.668 93.2193 239.054C93.8426 238.44 94.1542 237.51 94.1542 236.263C94.1542 235.017 93.8426 234.091 93.2193 233.486C92.6054 232.872 91.6659 232.565 90.4008 232.565H88.5311V239.975ZM97.5993 241.188V231.352H99.0504V235.775H99.0783L103.599 231.352H105.399L100.097 236.458L100.111 235.775L105.762 241.188H103.906L99.0783 236.598H99.0504V241.188H97.5993ZM106.647 241.188V231.352H108.098V241.188H106.647ZM110.422 241.188V231.352H111.691L115.487 239.905H115.068L118.863 231.352H120.119V241.188H118.807V233.319H119.268L115.724 241.188H114.817L111.273 233.319H111.747V241.188H110.422Z" fill="#374151"/>
<path d="M444.466 241.188L440.182 231.352H441.424L445.233 240.268H444.801L448.638 231.352H449.838L445.527 241.188H444.466ZM453.279 241.314C452.182 241.314 451.317 240.998 450.684 240.365C450.052 239.723 449.735 238.835 449.735 237.7C449.735 236.965 449.875 236.328 450.154 235.789C450.433 235.24 450.824 234.817 451.326 234.519C451.828 234.212 452.405 234.058 453.056 234.058C453.698 234.058 454.238 234.193 454.675 234.463C455.112 234.733 455.447 235.119 455.679 235.621C455.912 236.114 456.028 236.7 456.028 237.379V237.798H450.601V237.086H455.289L455.052 237.268C455.052 236.524 454.884 235.942 454.549 235.524C454.214 235.105 453.717 234.896 453.056 234.896C452.359 234.896 451.814 235.142 451.424 235.635C451.033 236.119 450.838 236.775 450.838 237.603V237.728C450.838 238.603 451.052 239.268 451.48 239.723C451.917 240.17 452.526 240.393 453.307 240.393C453.726 240.393 454.117 240.333 454.479 240.212C454.852 240.082 455.205 239.872 455.54 239.584L455.931 240.379C455.624 240.677 455.233 240.909 454.759 241.077C454.293 241.235 453.8 241.314 453.279 241.314ZM457.73 241.188V235.872C457.73 235.593 457.72 235.31 457.702 235.021C457.693 234.733 457.674 234.454 457.646 234.184H458.734L458.874 235.886L458.679 235.9C458.772 235.482 458.934 235.138 459.167 234.868C459.399 234.598 459.674 234.398 459.99 234.268C460.306 234.128 460.637 234.058 460.981 234.058C461.12 234.058 461.241 234.063 461.344 234.072C461.455 234.082 461.558 234.105 461.651 234.142L461.637 235.147C461.497 235.1 461.367 235.072 461.246 235.063C461.134 235.044 461.004 235.035 460.855 235.035C460.446 235.035 460.088 235.133 459.781 235.328C459.483 235.524 459.255 235.775 459.097 236.082C458.948 236.389 458.874 236.714 458.874 237.058V241.188H457.73ZM462.827 241.188V234.184H463.957V241.188H462.827ZM462.687 232.593V231.324H464.082V232.593H462.687ZM466.514 241.188V235.063H465.147V234.184H466.821L466.514 234.477V233.305C466.514 232.514 466.709 231.91 467.1 231.491C467.5 231.073 468.068 230.863 468.802 230.863C468.979 230.863 469.165 230.882 469.361 230.919C469.565 230.947 469.737 230.989 469.877 231.045V231.979C469.765 231.933 469.626 231.896 469.458 231.868C469.3 231.831 469.137 231.812 468.97 231.812C468.533 231.812 468.202 231.942 467.979 232.203C467.756 232.463 467.644 232.863 467.644 233.403V234.421L467.463 234.184H471.956V241.188H470.826V235.063H467.644V241.188H466.514ZM470.7 232.593V231.324H472.095V232.593H470.7ZM477.275 241.314C476.177 241.314 475.312 240.998 474.68 240.365C474.047 239.723 473.731 238.835 473.731 237.7C473.731 236.965 473.87 236.328 474.149 235.789C474.429 235.24 474.819 234.817 475.322 234.519C475.824 234.212 476.401 234.058 477.052 234.058C477.694 234.058 478.233 234.193 478.67 234.463C479.107 234.733 479.442 235.119 479.675 235.621C479.907 236.114 480.024 236.7 480.024 237.379V237.798H474.596V237.086H479.284L479.047 237.268C479.047 236.524 478.88 235.942 478.545 235.524C478.21 235.105 477.712 234.896 477.052 234.896C476.354 234.896 475.81 235.142 475.419 235.635C475.028 236.119 474.833 236.775 474.833 237.603V237.728C474.833 238.603 475.047 239.268 475.475 239.723C475.912 240.17 476.521 240.393 477.303 240.393C477.721 240.393 478.112 240.333 478.475 240.212C478.847 240.082 479.2 239.872 479.535 239.584L479.926 240.379C479.619 240.677 479.228 240.909 478.754 241.077C478.289 241.235 477.796 241.314 477.275 241.314ZM484.404 241.314C483.79 241.314 483.251 241.17 482.786 240.882C482.321 240.584 481.958 240.165 481.697 239.626C481.446 239.086 481.321 238.44 481.321 237.686C481.321 236.923 481.446 236.272 481.697 235.733C481.958 235.193 482.321 234.779 482.786 234.491C483.251 234.203 483.79 234.058 484.404 234.058C485.037 234.058 485.581 234.217 486.037 234.533C486.502 234.849 486.813 235.277 486.972 235.817H486.804V230.919H487.934V241.188H486.818V239.514H486.972C486.823 240.072 486.516 240.514 486.051 240.84C485.586 241.156 485.037 241.314 484.404 241.314ZM484.641 240.393C485.302 240.393 485.832 240.165 486.232 239.709C486.632 239.244 486.832 238.57 486.832 237.686C486.832 236.793 486.632 236.119 486.232 235.663C485.832 235.198 485.302 234.965 484.641 234.965C483.981 234.965 483.451 235.198 483.051 235.663C482.66 236.119 482.465 236.793 482.465 237.686C482.465 238.57 482.66 239.244 483.051 239.709C483.451 240.165 483.981 240.393 484.641 240.393Z" fill="#6B7280"/>
<mask id="path-26-inside-6_4175_13531" fill="white">
<path d="M50.2656 282.551C50.2656 276.13 55.4715 270.924 61.8932 270.924H492.112C498.534 270.924 503.74 276.13 503.74 282.551V300.38C503.74 306.802 498.534 312.008 492.112 312.008H61.8931C55.4714 312.008 50.2656 306.802 50.2656 300.38V282.551Z"/>
</mask>
<path d="M50.2656 282.551C50.2656 276.13 55.4715 270.924 61.8932 270.924H492.112C498.534 270.924 503.74 276.13 503.74 282.551V300.38C503.74 306.802 498.534 312.008 492.112 312.008H61.8931C55.4714 312.008 50.2656 306.802 50.2656 300.38V282.551Z" fill="white"/>
<path d="M61.8932 270.924V271.699H492.112V270.924V270.149H61.8932V270.924ZM503.74 282.551H502.965V300.38H503.74H504.515V282.551H503.74ZM492.112 312.008V311.233H61.8931V312.008V312.783H492.112V312.008ZM50.2656 300.38H51.0408V282.551H50.2656H49.4905V300.38H50.2656ZM61.8931 312.008V311.233C55.8995 311.233 51.0408 306.374 51.0408 300.38H50.2656H49.4905C49.4905 307.23 55.0433 312.783 61.8931 312.783V312.008ZM503.74 300.38H502.965C502.965 306.374 498.106 311.233 492.112 311.233V312.008V312.783C498.962 312.783 504.515 307.23 504.515 300.38H503.74ZM492.112 270.924V271.699C498.106 271.699 502.965 276.558 502.965 282.551H503.74H504.515C504.515 275.702 498.962 270.149 492.112 270.149V270.924ZM61.8932 270.924V270.149C55.0433 270.149 49.4905 275.702 49.4905 282.551H50.2656H51.0408C51.0408 276.558 55.8996 271.699 61.8932 271.699V270.924Z" fill="#F3F4F6" mask="url(#path-26-inside-6_4175_13531)"/>
</g>
<path d="M46.7786 50V50.7752H506.067V50V49.2248H46.7786V50ZM522.345 66.2786H521.57V338.363H522.345H523.12V66.2786H522.345ZM506.067 354.642V353.867H46.7786V354.642V355.417H506.067V354.642ZM30.5 338.363H31.2752V66.2786H30.5H29.7248V338.363H30.5ZM46.7786 354.642V353.867C38.2163 353.867 31.2752 346.925 31.2752 338.363H30.5H29.7248C29.7248 347.782 37.36 355.417 46.7786 355.417V354.642ZM522.345 338.363H521.57C521.57 346.925 514.629 353.867 506.067 353.867V354.642V355.417C515.485 355.417 523.12 347.782 523.12 338.363H522.345ZM506.067 50V50.7752C514.629 50.7752 521.57 57.7163 521.57 66.2786H522.345H523.12C523.12 56.86 515.485 49.2248 506.067 49.2248V50ZM46.7786 50V49.2248C37.36 49.2248 29.7248 56.8601 29.7248 66.2786H30.5H31.2752C31.2752 57.7163 38.2163 50.7752 46.7786 50.7752V50Z" fill="#E5E7EB" mask="url(#path-3-inside-1_4175_13531)"/>
</g>
</g>
</g>
<defs>
<filter id="filter0_d_4175_13531" x="11.8959" y="39.5352" width="531.377" height="344.175" filterUnits="userSpaceOnUse" color-interpolation-filters="sRGB">
<feFlood flood-opacity="0" result="BackgroundImageFix"/>
<feColorMatrix in="SourceAlpha" type="matrix" values="0 0 0 0 0 0 0 0 0 0 0 0 0 0 0 0 0 0 127 0" result="hardAlpha"/>
<feOffset dx="1.16275" dy="9.30204"/>
<feGaussianBlur stdDeviation="9.88341"/>
<feColorMatrix type="matrix" values="0 0 0 0 0 0 0 0 0 0 0 0 0 0 0 0 0 0 0.05 0"/>
<feBlend mode="normal" in2="BackgroundImageFix" result="effect1_dropShadow_4175_13531"/>
<feBlend mode="normal" in="SourceGraphic" in2="effect1_dropShadow_4175_13531" result="shape"/>
</filter>
<clipPath id="clip0_4175_13531">
<rect width="552.5" height="280" rx="10" fill="white"/>
</clipPath>
<clipPath id="clip1_4175_13531">
<rect width="553" height="280" fill="white"/>
</clipPath>
<clipPath id="clip2_4175_13531">
<path d="M30.5 66.2786C30.5 57.2882 37.7882 50 46.7786 50H506.067C515.057 50 522.345 57.2882 522.345 66.2786V338.363C522.345 347.354 515.057 354.642 506.067 354.642H46.7786C37.7882 354.642 30.5 347.354 30.5 338.363V66.2786Z" fill="white"/>
</clipPath>
</defs>
</svg>
