<svg xmlns="http://www.w3.org/2000/svg" shape-rendering="geometricPrecision" text-rendering="geometricPrecision" image-rendering="optimizeQuality" fill-rule="evenodd" clip-rule="evenodd" viewBox="0 0 512 512"><path fill="#EF4136" d="M145.305 0h221.392C446.615 0 512 65.384 512 145.305v221.392C512 446.615 446.615 512 366.697 512H145.305C65.384 512 0 446.615 0 366.697V145.305C0 65.384 65.384 0 145.305 0z"/><path fill="#FF7C73" d="M145.306 0h221.39c71.688 0 131.67 52.626 143.268 121.139-21.612-57.816-77.518-99.278-142.629-99.278H135.471c-48.991 0-92.773 23.472-120.653 59.721C38.534 33.378 88.206 0 145.306 0z"/><path fill="#fff" fill-rule="nonzero" d="M147.026 189.242c-6.83 0-12.368-5.538-12.368-12.368s5.538-12.368 12.368-12.368h130.722c6.829 0 12.367 5.538 12.367 12.368s-5.538 12.368-12.367 12.368H147.026zm0 66.323c-6.83 0-12.368-5.538-12.368-12.368s5.538-12.368 12.368-12.368h130.722c6.829 0 12.367 5.538 12.367 12.368s-5.538 12.368-12.367 12.368H147.026zm170.903 23.021v-92.483c0-16.263 9.869-26.284 29.037-26.284h25.415c8.063 0 14.601 6.537 14.601 14.601 0 8.063-9.634 11.848-17.698 11.848h-22.153v127.127c0 2.666.021 4.896-.162 6.747-1.156 21.678-19.106 38.909-41.071 38.909-22.684 0-41.13-18.464-41.13-41.13 0-22.661 18.47-41.13 41.13-41.13 4.185 0 8.224.629 12.031 1.795zm-170.903 41.893c-6.83 0-12.368-5.538-12.368-12.368s5.538-12.368 12.368-12.368h79.218c6.83 0 12.368 5.538 12.368 12.368s-5.538 12.368-12.368 12.368h-79.218z"/></svg>