<svg width="360" height="150" viewBox="0 0 360 150" fill="none" xmlns="http://www.w3.org/2000/svg">
<path d="M1.05469 4.80301C1.05469 2.15038 3.20507 0 5.8577 0H172.252C174.904 0 177.055 2.15038 177.055 4.80301V69.6437C177.055 72.2963 174.904 74.4467 172.252 74.4467H5.85769C3.20506 74.4467 1.05469 72.2963 1.05469 69.6437V4.80301Z" fill="white"/>
<path d="M5.85742 0.299805H172.252C174.739 0.299952 176.755 2.31611 176.755 4.80273V69.6436C176.755 72.1303 174.739 74.1463 172.252 74.1465H5.85742C3.37071 74.1463 1.35449 72.1303 1.35449 69.6436V4.80273C1.35464 2.31611 3.3708 0.299956 5.85742 0.299805Z" stroke="black" stroke-opacity="0.1" stroke-width="0.600377"/>
<path d="M12.44 30.1642C11.537 29.6839 11.0855 28.9298 11.0855 27.9019C11.0855 27.3832 11.22 26.9125 11.489 26.4898C11.758 26.0576 12.1662 25.7166 12.7138 25.4668C13.2613 25.2074 13.9337 25.0778 14.731 25.0778C15.5283 25.0778 16.196 25.2074 16.7339 25.4668C17.2814 25.7166 17.6897 26.0576 17.9587 26.4898C18.2276 26.9125 18.3621 27.3832 18.3621 27.9019C18.3621 28.4207 18.2372 28.8721 17.9875 29.2564C17.7473 29.6406 17.4207 29.9432 17.0077 30.1642C17.5264 30.4139 17.925 30.7597 18.2036 31.2016C18.4822 31.6339 18.6215 32.143 18.6215 32.729C18.6215 33.411 18.4486 34.0018 18.1027 34.5013C17.7569 34.9912 17.2862 35.3658 16.6907 35.6252C16.1047 35.8845 15.4515 36.0142 14.731 36.0142C14.0106 36.0142 13.3526 35.8845 12.757 35.6252C12.171 35.3658 11.7051 34.9912 11.3593 34.5013C11.0135 34.0018 10.8406 33.411 10.8406 32.729C10.8406 32.1334 10.9799 31.6195 11.2585 31.1872C11.537 30.7453 11.9309 30.4043 12.44 30.1642ZM15.9702 28.2766C15.9702 27.8827 15.8549 27.5801 15.6244 27.3688C15.4035 27.1479 15.1057 27.0374 14.731 27.0374C14.3564 27.0374 14.0538 27.1479 13.8233 27.3688C13.6023 27.5897 13.4919 27.8971 13.4919 28.291C13.4919 28.6656 13.6071 28.9634 13.8377 29.1843C14.0682 29.3957 14.366 29.5013 14.731 29.5013C15.0961 29.5013 15.3938 29.3909 15.6244 29.1699C15.8549 28.949 15.9702 28.6512 15.9702 28.2766ZM14.731 31.2304C14.2795 31.2304 13.9145 31.3553 13.6359 31.6051C13.3574 31.8452 13.2181 32.1814 13.2181 32.6137C13.2181 33.0171 13.3526 33.3486 13.6215 33.6079C13.9001 33.8673 14.2699 33.997 14.731 33.997C15.1921 33.997 15.5523 33.8673 15.8117 33.6079C16.0807 33.3486 16.2152 33.0171 16.2152 32.6137C16.2152 32.191 16.0759 31.8548 15.7973 31.6051C15.5283 31.3553 15.1729 31.2304 14.731 31.2304Z" fill="black"/>
<path d="M12.6009 45.1857C13.2229 45.1857 13.7664 45.3062 14.2315 45.5471C14.7022 45.7825 15.0636 46.1243 15.3158 46.5725C15.5736 47.0152 15.7024 47.5336 15.7024 48.1275C15.7024 48.7215 15.5736 49.237 15.3158 49.6741C15.0636 50.1112 14.7022 50.4474 14.2315 50.6827C13.7664 50.9125 13.2229 51.0273 12.6009 51.0273H10.6929V45.1857H12.6009ZM12.6009 50.2457C13.2845 50.2457 13.8085 50.0607 14.1727 49.6909C14.5369 49.3211 14.719 48.7999 14.719 48.1275C14.719 47.4495 14.5369 46.92 14.1727 46.5389C13.8085 46.1579 13.2845 45.9674 12.6009 45.9674H11.6511V50.2457H12.6009ZM18.661 51.103C18.2239 51.103 17.8288 51.0049 17.4758 50.8088C17.1228 50.6071 16.8454 50.3269 16.6437 49.9683C16.442 49.6041 16.3411 49.1838 16.3411 48.7075C16.3411 48.2368 16.4448 47.8193 16.6521 47.4551C16.8594 47.0909 17.1424 46.8107 17.501 46.6146C17.8597 46.4185 18.2603 46.3204 18.703 46.3204C19.1457 46.3204 19.5463 46.4185 19.9049 46.6146C20.2636 46.8107 20.5465 47.0909 20.7539 47.4551C20.9612 47.8193 21.0649 48.2368 21.0649 48.7075C21.0649 49.1782 20.9584 49.5956 20.7455 49.9599C20.5325 50.3241 20.2412 50.6071 19.8713 50.8088C19.5071 51.0049 19.1036 51.103 18.661 51.103ZM18.661 50.2709C18.9075 50.2709 19.1373 50.212 19.3502 50.0944C19.5687 49.9767 19.7452 49.8002 19.8797 49.5648C20.0142 49.3295 20.0815 49.0437 20.0815 48.7075C20.0815 48.3713 20.017 48.0883 19.8881 47.8586C19.7593 47.6232 19.5883 47.4467 19.3754 47.329C19.1625 47.2113 18.9327 47.1525 18.6862 47.1525C18.4396 47.1525 18.2099 47.2113 17.9969 47.329C17.7896 47.4467 17.6243 47.6232 17.501 47.8586C17.3778 48.0883 17.3161 48.3713 17.3161 48.7075C17.3161 49.2062 17.4422 49.5928 17.6944 49.8674C17.9521 50.1364 18.2743 50.2709 18.661 50.2709ZM27.6184 46.3204C27.9827 46.3204 28.3077 46.396 28.5934 46.5473C28.8848 46.6986 29.1118 46.9228 29.2743 47.2198C29.4424 47.5167 29.5264 47.8754 29.5264 48.2956V51.0273H28.5766V48.4385C28.5766 48.0239 28.473 47.7073 28.2656 47.4887C28.0583 47.2646 27.7753 47.1525 27.4167 47.1525C27.0581 47.1525 26.7723 47.2646 26.5594 47.4887C26.352 47.7073 26.2484 48.0239 26.2484 48.4385V51.0273H25.2986V48.4385C25.2986 48.0239 25.1949 47.7073 24.9876 47.4887C24.7802 47.2646 24.4973 47.1525 24.1386 47.1525C23.78 47.1525 23.4942 47.2646 23.2813 47.4887C23.074 47.7073 22.9703 48.0239 22.9703 48.4385V51.0273H22.0121V46.396H22.9703V46.9256C23.1272 46.735 23.3261 46.5866 23.5671 46.4801C23.808 46.3736 24.0658 46.3204 24.3404 46.3204C24.7102 46.3204 25.0408 46.3988 25.3322 46.5557C25.6236 46.7126 25.8477 46.9396 26.0046 47.2366C26.1447 46.9564 26.3632 46.735 26.6602 46.5725C26.9572 46.4044 27.2766 46.3204 27.6184 46.3204ZM30.4263 48.6907C30.4263 48.2256 30.5216 47.8137 30.7121 47.4551C30.9082 47.0965 31.1716 46.8191 31.5022 46.623C31.8384 46.4213 32.2082 46.3204 32.6117 46.3204C32.9759 46.3204 33.2925 46.3932 33.5615 46.5389C33.8361 46.679 34.0546 46.8555 34.2171 47.0685V46.396H35.1837V51.0273H34.2171V50.3381C34.0546 50.5566 33.8333 50.7388 33.5531 50.8845C33.2729 51.0301 32.9535 51.103 32.5949 51.103C32.197 51.103 31.8328 51.0021 31.5022 50.8004C31.1716 50.5931 30.9082 50.3073 30.7121 49.9431C30.5216 49.5732 30.4263 49.1558 30.4263 48.6907ZM34.2171 48.7075C34.2171 48.3881 34.1499 48.1107 34.0154 47.8754C33.8865 47.64 33.7156 47.4607 33.5026 47.3374C33.2897 47.2142 33.06 47.1525 32.8134 47.1525C32.5669 47.1525 32.3371 47.2142 32.1242 47.3374C31.9112 47.4551 31.7375 47.6316 31.6031 47.867C31.4742 48.0967 31.4097 48.3713 31.4097 48.6907C31.4097 49.0101 31.4742 49.2903 31.6031 49.5312C31.7375 49.7722 31.9112 49.9571 32.1242 50.086C32.3427 50.2092 32.5725 50.2709 32.8134 50.2709C33.06 50.2709 33.2897 50.2092 33.5026 50.086C33.7156 49.9627 33.8865 49.7834 34.0154 49.548C34.1499 49.3071 34.2171 49.0269 34.2171 48.7075ZM36.9298 45.7825C36.7561 45.7825 36.6104 45.7236 36.4927 45.6059C36.375 45.4883 36.3162 45.3426 36.3162 45.1689C36.3162 44.9952 36.375 44.8495 36.4927 44.7318C36.6104 44.6141 36.7561 44.5553 36.9298 44.5553C37.0979 44.5553 37.2408 44.6141 37.3584 44.7318C37.4761 44.8495 37.5349 44.9952 37.5349 45.1689C37.5349 45.3426 37.4761 45.4883 37.3584 45.6059C37.2408 45.7236 37.0979 45.7825 36.9298 45.7825ZM37.4005 46.396V51.0273H36.4423V46.396H37.4005ZM40.9952 46.3204C41.3594 46.3204 41.6844 46.396 41.9702 46.5473C42.2616 46.6986 42.4885 46.9228 42.651 47.2198C42.8135 47.5167 42.8948 47.8754 42.8948 48.2956V51.0273H41.945V48.4385C41.945 48.0239 41.8413 47.7073 41.634 47.4887C41.4266 47.2646 41.1437 47.1525 40.785 47.1525C40.4264 47.1525 40.1406 47.2646 39.9277 47.4887C39.7204 47.7073 39.6167 48.0239 39.6167 48.4385V51.0273H38.6585V46.396H39.6167V46.9256C39.7736 46.735 39.9725 46.5866 40.2135 46.4801C40.46 46.3736 40.7206 46.3204 40.9952 46.3204ZM45.7981 51.103C45.4338 51.103 45.106 51.0386 44.8146 50.9097C44.5289 50.7752 44.3019 50.5959 44.1338 50.3717C43.9657 50.142 43.876 49.887 43.8648 49.6069H44.8567C44.8735 49.803 44.9659 49.9683 45.134 50.1028C45.3077 50.2316 45.5235 50.2961 45.7812 50.2961C46.0502 50.2961 46.2575 50.2457 46.4032 50.1448C46.5545 50.0383 46.6302 49.9038 46.6302 49.7413C46.6302 49.5676 46.5461 49.4387 46.378 49.3547C46.2155 49.2706 45.955 49.1782 45.5963 49.0773C45.2489 48.9821 44.9659 48.8896 44.7474 48.7999C44.5289 48.7103 44.3383 48.573 44.1758 48.3881C44.0189 48.2032 43.9405 47.9594 43.9405 47.6568C43.9405 47.4103 44.0133 47.1861 44.159 46.9844C44.3047 46.7771 44.512 46.6146 44.781 46.4969C45.0556 46.3792 45.3694 46.3204 45.7224 46.3204C46.2491 46.3204 46.6722 46.4549 46.9916 46.7238C47.3166 46.9872 47.4903 47.3486 47.5127 47.8081H46.5545C46.5377 47.6008 46.4537 47.4355 46.3024 47.3122C46.1511 47.1889 45.9465 47.1273 45.6888 47.1273C45.4366 47.1273 45.2433 47.1749 45.1088 47.2702C44.9743 47.3654 44.9071 47.4915 44.9071 47.6484C44.9071 47.7717 44.9519 47.8754 45.0416 47.9594C45.1312 48.0435 45.2405 48.1107 45.3694 48.1611C45.4983 48.206 45.6888 48.2648 45.9409 48.3377C46.2772 48.4273 46.5517 48.5198 46.7647 48.615C46.9832 48.7047 47.1709 48.8392 47.3278 49.0185C47.4847 49.1978 47.566 49.4359 47.5716 49.7329C47.5716 49.9963 47.4987 50.2316 47.353 50.439C47.2073 50.6463 47 50.8088 46.731 50.9265C46.4677 51.0442 46.1567 51.103 45.7981 51.103Z" fill="black"/>
<rect x="116.926" y="22.2148" width="29.4185" height="29.4185" rx="4.80301" fill="#E9EFFD"/>
<g clip-path="url(#clip0_4206_7794)">
<path d="M131.633 42.9255C134.948 42.9255 137.636 40.2375 137.636 36.9217C137.636 33.6059 134.948 30.918 131.633 30.918C128.317 30.918 125.629 33.6059 125.629 36.9217C125.629 40.2375 128.317 42.9255 131.633 42.9255Z" stroke="#2563EB" stroke-width="1.20075" stroke-linecap="round" stroke-linejoin="round"/>
<path d="M131.632 30.918C130.09 32.5367 129.23 34.6864 129.23 36.9217C129.23 39.1571 130.09 41.3068 131.632 42.9255C133.174 41.3068 134.033 39.1571 134.033 36.9217C134.033 34.6864 133.174 32.5367 131.632 30.918Z" stroke="#2563EB" stroke-width="1.20075" stroke-linecap="round" stroke-linejoin="round"/>
<path d="M125.629 36.9219H137.636" stroke="#2563EB" stroke-width="1.20075" stroke-linecap="round" stroke-linejoin="round"/>
</g>
<path d="M182.055 4.80301C182.055 2.15038 184.205 0 186.858 0H353.252C355.904 0 358.055 2.15038 358.055 4.80301V69.6437C358.055 72.2963 355.904 74.4467 353.252 74.4467H186.858C184.205 74.4467 182.055 72.2963 182.055 69.6437V4.80301Z" fill="white"/>
<path d="M186.857 0.299805H353.252C355.739 0.299952 357.755 2.31611 357.755 4.80273V69.6436C357.755 72.1303 355.739 74.1463 353.252 74.1465H186.857C184.371 74.1463 182.354 72.1303 182.354 69.6436V4.80273C182.355 2.31611 184.371 0.299956 186.857 0.299805Z" stroke="black" stroke-opacity="0.1" stroke-width="0.600377"/>
<path d="M191.452 27.5849V25.2939H195.443V35.8125H192.878V27.5849H191.452ZM200.025 33.5359L198.425 37.6713H196.855L197.69 33.5359H200.025ZM201.179 33.8385C201.505 33.5791 201.654 33.459 201.626 33.4782C202.567 32.7001 203.307 32.0613 203.845 31.5618C204.392 31.0623 204.853 30.5388 205.228 29.9912C205.602 29.4437 205.79 28.9106 205.79 28.3918C205.79 27.998 205.699 27.6906 205.516 27.4697C205.333 27.2487 205.06 27.1383 204.695 27.1383C204.33 27.1383 204.041 27.2775 203.83 27.5561C203.628 27.8251 203.528 28.2093 203.528 28.7088H201.15C201.169 27.8923 201.342 27.2103 201.669 26.6628C202.005 26.1152 202.442 25.7118 202.98 25.4524C203.528 25.193 204.133 25.0634 204.796 25.0634C205.939 25.0634 206.798 25.3563 207.375 25.9423C207.961 26.5283 208.254 27.292 208.254 28.2333C208.254 29.2612 207.903 30.217 207.202 31.1007C206.501 31.9749 205.607 32.8298 204.522 33.6656H208.412V35.6684H201.179V33.8385ZM209.555 33.9393V31.9509L214.108 25.438H216.86V31.8068H218.042V33.9393H216.86V35.8125H214.396V33.9393H209.555ZM214.569 28.1469L212.148 31.8068H214.569V28.1469ZM219.335 28.2622C219.373 27.2343 219.71 26.4418 220.344 25.8847C220.978 25.3275 221.837 25.0489 222.923 25.0489C223.643 25.0489 224.258 25.1738 224.767 25.4236C225.286 25.6733 225.675 26.0143 225.934 26.4466C226.203 26.8789 226.338 27.364 226.338 27.9019C226.338 28.5359 226.179 29.0547 225.862 29.4581C225.545 29.852 225.175 30.1209 224.753 30.265V30.3227C225.3 30.5052 225.733 30.8078 226.05 31.2304C226.367 31.6531 226.525 32.1958 226.525 32.8586C226.525 33.4542 226.386 33.9826 226.107 34.4436C225.838 34.8951 225.44 35.2505 224.911 35.5099C224.393 35.7693 223.773 35.899 223.052 35.899C221.9 35.899 220.978 35.6156 220.286 35.0488C219.604 34.4821 219.244 33.6271 219.205 32.484H221.597C221.607 32.9067 221.727 33.2429 221.957 33.4926C222.188 33.7328 222.524 33.8529 222.966 33.8529C223.341 33.8529 223.629 33.7472 223.831 33.5359C224.042 33.3149 224.148 33.0268 224.148 32.6713C224.148 32.2102 223.999 31.8788 223.701 31.6771C223.413 31.4658 222.947 31.3601 222.303 31.3601H221.842V29.3572H222.303C222.793 29.3572 223.187 29.2756 223.485 29.1123C223.792 28.9394 223.946 28.6368 223.946 28.2045C223.946 27.8587 223.85 27.5897 223.658 27.3976C223.466 27.2055 223.201 27.1094 222.865 27.1094C222.5 27.1094 222.226 27.2199 222.044 27.4408C221.871 27.6618 221.77 27.9356 221.741 28.2622H219.335Z" fill="black"/>
<path d="M194.357 51.0862C193.814 51.0862 193.312 50.9601 192.853 50.7079C192.399 50.4502 192.038 50.0944 191.769 49.6405C191.505 49.181 191.373 48.6655 191.373 48.0939C191.373 47.5223 191.505 47.0096 191.769 46.5557C192.038 46.1019 192.399 45.7488 192.853 45.4967C193.312 45.2389 193.814 45.11 194.357 45.11C194.907 45.11 195.408 45.2389 195.862 45.4967C196.321 45.7488 196.683 46.1019 196.946 46.5557C197.21 47.0096 197.341 47.5223 197.341 48.0939C197.341 48.6655 197.21 49.181 196.946 49.6405C196.683 50.0944 196.321 50.4502 195.862 50.7079C195.408 50.9601 194.907 51.0862 194.357 51.0862ZM194.357 50.2541C194.744 50.2541 195.089 50.1672 195.391 49.9935C195.694 49.8142 195.929 49.562 196.097 49.237C196.271 48.9064 196.358 48.5254 196.358 48.0939C196.358 47.6624 196.271 47.2842 196.097 46.9592C195.929 46.6342 195.694 46.3848 195.391 46.2111C195.089 46.0374 194.744 45.9506 194.357 45.9506C193.971 45.9506 193.626 46.0374 193.324 46.2111C193.021 46.3848 192.783 46.6342 192.609 46.9592C192.441 47.2842 192.357 47.6624 192.357 48.0939C192.357 48.5254 192.441 48.9064 192.609 49.237C192.783 49.562 193.021 49.8142 193.324 49.9935C193.626 50.1672 193.971 50.2541 194.357 50.2541ZM199.242 47.0685C199.382 46.8331 199.567 46.651 199.797 46.5221C200.032 46.3876 200.31 46.3204 200.629 46.3204V47.3122H200.385C200.01 47.3122 199.724 47.4075 199.528 47.598C199.338 47.7885 199.242 48.1191 199.242 48.5898V51.0273H198.284V46.396H199.242V47.0685ZM203.376 46.3204C203.735 46.3204 204.051 46.3932 204.326 46.5389C204.606 46.679 204.824 46.8555 204.981 47.0685V46.396H205.948V51.103C205.948 51.5289 205.858 51.9071 205.679 52.2377C205.5 52.5739 205.239 52.8373 204.897 53.0278C204.561 53.2183 204.158 53.3136 203.687 53.3136C203.059 53.3136 202.538 53.1651 202.124 52.8681C201.709 52.5767 201.474 52.1789 201.418 51.6746H202.367C202.44 51.9155 202.594 52.1088 202.83 52.2545C203.071 52.4058 203.356 52.4815 203.687 52.4815C204.074 52.4815 204.385 52.3638 204.62 52.1284C204.861 51.8931 204.981 51.5513 204.981 51.103V50.3297C204.819 50.5482 204.598 50.7332 204.317 50.8845C204.043 51.0301 203.729 51.103 203.376 51.103C202.973 51.103 202.603 51.0021 202.266 50.8004C201.936 50.5931 201.672 50.3073 201.476 49.9431C201.286 49.5732 201.191 49.1558 201.191 48.6907C201.191 48.2256 201.286 47.8137 201.476 47.4551C201.672 47.0965 201.936 46.8191 202.266 46.623C202.603 46.4213 202.973 46.3204 203.376 46.3204ZM204.981 48.7075C204.981 48.3881 204.914 48.1107 204.78 47.8754C204.651 47.64 204.48 47.4607 204.267 47.3374C204.054 47.2142 203.824 47.1525 203.578 47.1525C203.331 47.1525 203.101 47.2142 202.888 47.3374C202.676 47.4551 202.502 47.6316 202.367 47.867C202.238 48.0967 202.174 48.3713 202.174 48.6907C202.174 49.0101 202.238 49.2903 202.367 49.5312C202.502 49.7722 202.676 49.9571 202.888 50.086C203.107 50.2092 203.337 50.2709 203.578 50.2709C203.824 50.2709 204.054 50.2092 204.267 50.086C204.48 49.9627 204.651 49.7834 204.78 49.548C204.914 49.3071 204.981 49.0269 204.981 48.7075ZM206.887 48.6907C206.887 48.2256 206.982 47.8137 207.173 47.4551C207.369 47.0965 207.632 46.8191 207.963 46.623C208.299 46.4213 208.669 46.3204 209.073 46.3204C209.437 46.3204 209.753 46.3932 210.022 46.5389C210.297 46.679 210.515 46.8555 210.678 47.0685V46.396H211.645V51.0273H210.678V50.3381C210.515 50.5566 210.294 50.7388 210.014 50.8845C209.734 51.0301 209.414 51.103 209.056 51.103C208.658 51.103 208.294 51.0021 207.963 50.8004C207.632 50.5931 207.369 50.3073 207.173 49.9431C206.982 49.5732 206.887 49.1558 206.887 48.6907ZM210.678 48.7075C210.678 48.3881 210.611 48.1107 210.476 47.8754C210.347 47.64 210.176 47.4607 209.963 47.3374C209.751 47.2142 209.521 47.1525 209.274 47.1525C209.028 47.1525 208.798 47.2142 208.585 47.3374C208.372 47.4551 208.198 47.6316 208.064 47.867C207.935 48.0967 207.871 48.3713 207.871 48.6907C207.871 49.0101 207.935 49.2903 208.064 49.5312C208.198 49.7722 208.372 49.9571 208.585 50.086C208.804 50.2092 209.033 50.2709 209.274 50.2709C209.521 50.2709 209.751 50.2092 209.963 50.086C210.176 49.9627 210.347 49.7834 210.476 49.548C210.611 49.3071 210.678 49.0269 210.678 48.7075ZM215.24 46.3204C215.604 46.3204 215.929 46.396 216.215 46.5473C216.506 46.6986 216.733 46.9228 216.896 47.2198C217.058 47.5167 217.139 47.8754 217.139 48.2956V51.0273H216.19V48.4385C216.19 48.0239 216.086 47.7073 215.879 47.4887C215.671 47.2646 215.388 47.1525 215.03 47.1525C214.671 47.1525 214.385 47.2646 214.172 47.4887C213.965 47.7073 213.861 48.0239 213.861 48.4385V51.0273H212.903V46.396H213.861V46.9256C214.018 46.735 214.217 46.5866 214.458 46.4801C214.705 46.3736 214.965 46.3204 215.24 46.3204ZM218.849 45.7825C218.675 45.7825 218.53 45.7236 218.412 45.6059C218.294 45.4883 218.236 45.3426 218.236 45.1689C218.236 44.9952 218.294 44.8495 218.412 44.7318C218.53 44.6141 218.675 44.5553 218.849 44.5553C219.017 44.5553 219.16 44.6141 219.278 44.7318C219.395 44.8495 219.454 44.9952 219.454 45.1689C219.454 45.3426 219.395 45.4883 219.278 45.6059C219.16 45.7236 219.017 45.7825 218.849 45.7825ZM219.32 46.396V51.0273H218.362V46.396H219.32ZM221.427 50.2457H223.528V51.0273H220.317V50.2457L222.427 47.1777H220.317V46.396H223.528V47.1777L221.427 50.2457ZM224.215 48.6907C224.215 48.2256 224.31 47.8137 224.501 47.4551C224.697 47.0965 224.96 46.8191 225.291 46.623C225.627 46.4213 225.997 46.3204 226.4 46.3204C226.764 46.3204 227.081 46.3932 227.35 46.5389C227.625 46.679 227.843 46.8555 228.006 47.0685V46.396H228.972V51.0273H228.006V50.3381C227.843 50.5566 227.622 50.7388 227.342 50.8845C227.061 51.0301 226.742 51.103 226.383 51.103C225.986 51.103 225.621 51.0021 225.291 50.8004C224.96 50.5931 224.697 50.3073 224.501 49.9431C224.31 49.5732 224.215 49.1558 224.215 48.6907ZM228.006 48.7075C228.006 48.3881 227.938 48.1107 227.804 47.8754C227.675 47.64 227.504 47.4607 227.291 47.3374C227.078 47.2142 226.848 47.1525 226.602 47.1525C226.355 47.1525 226.126 47.2142 225.913 47.3374C225.7 47.4551 225.526 47.6316 225.392 47.867C225.263 48.0967 225.198 48.3713 225.198 48.6907C225.198 49.0101 225.263 49.2903 225.392 49.5312C225.526 49.7722 225.7 49.9571 225.913 50.086C226.131 50.2092 226.361 50.2709 226.602 50.2709C226.848 50.2709 227.078 50.2092 227.291 50.086C227.504 49.9627 227.675 49.7834 227.804 49.548C227.938 49.3071 228.006 49.0269 228.006 48.7075ZM231.349 47.1777V49.7413C231.349 49.915 231.388 50.0411 231.466 50.1196C231.55 50.1924 231.69 50.2288 231.887 50.2288H232.475V51.0273H231.718C231.287 51.0273 230.956 50.9265 230.727 50.7248C230.497 50.523 230.382 50.1952 230.382 49.7413V47.1777H229.836V46.396H230.382V45.2445H231.349V46.396H232.475V47.1777H231.349ZM233.846 45.7825C233.672 45.7825 233.526 45.7236 233.409 45.6059C233.291 45.4883 233.232 45.3426 233.232 45.1689C233.232 44.9952 233.291 44.8495 233.409 44.7318C233.526 44.6141 233.672 44.5553 233.846 44.5553C234.014 44.5553 234.157 44.6141 234.274 44.7318C234.392 44.8495 234.451 44.9952 234.451 45.1689C234.451 45.3426 234.392 45.4883 234.274 45.6059C234.157 45.7236 234.014 45.7825 233.846 45.7825ZM234.316 46.396V51.0273H233.358V46.396H234.316ZM237.583 51.103C237.146 51.103 236.751 51.0049 236.398 50.8088C236.045 50.6071 235.768 50.3269 235.566 49.9683C235.364 49.6041 235.263 49.1838 235.263 48.7075C235.263 48.2368 235.367 47.8193 235.574 47.4551C235.782 47.0909 236.065 46.8107 236.423 46.6146C236.782 46.4185 237.183 46.3204 237.625 46.3204C238.068 46.3204 238.469 46.4185 238.827 46.6146C239.186 46.8107 239.469 47.0909 239.676 47.4551C239.883 47.8193 239.987 48.2368 239.987 48.7075C239.987 49.1782 239.881 49.5956 239.668 49.9599C239.455 50.3241 239.163 50.6071 238.794 50.8088C238.429 51.0049 238.026 51.103 237.583 51.103ZM237.583 50.2709C237.83 50.2709 238.06 50.212 238.272 50.0944C238.491 49.9767 238.667 49.8002 238.802 49.5648C238.936 49.3295 239.004 49.0437 239.004 48.7075C239.004 48.3713 238.939 48.0883 238.81 47.8586C238.681 47.6232 238.511 47.4467 238.298 47.329C238.085 47.2113 237.855 47.1525 237.608 47.1525C237.362 47.1525 237.132 47.2113 236.919 47.329C236.712 47.4467 236.547 47.6232 236.423 47.8586C236.3 48.0883 236.238 48.3713 236.238 48.7075C236.238 49.2062 236.364 49.5928 236.617 49.8674C236.874 50.1364 237.197 50.2709 237.583 50.2709ZM243.271 46.3204C243.635 46.3204 243.96 46.396 244.246 46.5473C244.537 46.6986 244.764 46.9228 244.927 47.2198C245.089 47.5167 245.171 47.8754 245.171 48.2956V51.0273H244.221V48.4385C244.221 48.0239 244.117 47.7073 243.91 47.4887C243.702 47.2646 243.42 47.1525 243.061 47.1525C242.702 47.1525 242.416 47.2646 242.204 47.4887C241.996 47.7073 241.893 48.0239 241.893 48.4385V51.0273H240.934V46.396H241.893V46.9256C242.049 46.735 242.248 46.5866 242.489 46.4801C242.736 46.3736 242.996 46.3204 243.271 46.3204ZM249.526 45.1857V48.9092C249.526 49.3519 249.641 49.6853 249.871 49.9094C250.106 50.1336 250.431 50.2457 250.846 50.2457C251.266 50.2457 251.591 50.1336 251.821 49.9094C252.056 49.6853 252.174 49.3519 252.174 48.9092V45.1857H253.132V48.8924C253.132 49.3687 253.028 49.7722 252.821 50.1028C252.614 50.4334 252.336 50.6799 251.989 50.8424C251.641 51.0049 251.258 51.0862 250.837 51.0862C250.417 51.0862 250.033 51.0049 249.686 50.8424C249.344 50.6799 249.072 50.4334 248.87 50.1028C248.669 49.7722 248.568 49.3687 248.568 48.8924V45.1857H249.526ZM256.061 51.103C255.696 51.103 255.369 51.0386 255.077 50.9097C254.791 50.7752 254.564 50.5959 254.396 50.3717C254.228 50.142 254.139 49.887 254.127 49.6069H255.119C255.136 49.803 255.228 49.9683 255.397 50.1028C255.57 50.2316 255.786 50.2961 256.044 50.2961C256.313 50.2961 256.52 50.2457 256.666 50.1448C256.817 50.0383 256.893 49.9038 256.893 49.7413C256.893 49.5676 256.809 49.4387 256.641 49.3547C256.478 49.2706 256.217 49.1782 255.859 49.0773C255.511 48.9821 255.228 48.8896 255.01 48.7999C254.791 48.7103 254.601 48.573 254.438 48.3881C254.281 48.2032 254.203 47.9594 254.203 47.6568C254.203 47.4103 254.276 47.1861 254.422 46.9844C254.567 46.7771 254.775 46.6146 255.044 46.4969C255.318 46.3792 255.632 46.3204 255.985 46.3204C256.512 46.3204 256.935 46.4549 257.254 46.7238C257.579 46.9872 257.753 47.3486 257.775 47.8081H256.817C256.8 47.6008 256.716 47.4355 256.565 47.3122C256.414 47.1889 256.209 47.1273 255.951 47.1273C255.699 47.1273 255.506 47.1749 255.371 47.2702C255.237 47.3654 255.17 47.4915 255.17 47.6484C255.17 47.7717 255.214 47.8754 255.304 47.9594C255.394 48.0435 255.503 48.1107 255.632 48.1611C255.761 48.206 255.951 48.2648 256.203 48.3377C256.54 48.4273 256.814 48.5198 257.027 48.615C257.246 48.7047 257.433 48.8392 257.59 49.0185C257.747 49.1978 257.828 49.4359 257.834 49.7329C257.834 49.9963 257.761 50.2316 257.616 50.439C257.47 50.6463 257.263 50.8088 256.994 50.9265C256.73 51.0442 256.419 51.103 256.061 51.103ZM263.114 48.5982C263.114 48.7719 263.103 48.9288 263.08 49.0689H259.542C259.57 49.4387 259.707 49.7357 259.954 49.9599C260.2 50.184 260.503 50.2961 260.861 50.2961C261.377 50.2961 261.741 50.0803 261.954 49.6489H262.988C262.848 50.0747 262.593 50.425 262.223 50.6995C261.859 50.9685 261.405 51.103 260.861 51.103C260.419 51.103 260.021 51.0049 259.668 50.8088C259.321 50.6071 259.046 50.3269 258.844 49.9683C258.648 49.6041 258.55 49.1838 258.55 48.7075C258.55 48.2312 258.645 47.8137 258.836 47.4551C259.032 47.0909 259.304 46.8107 259.651 46.6146C260.004 46.4185 260.408 46.3204 260.861 46.3204C261.299 46.3204 261.688 46.4156 262.03 46.6062C262.372 46.7967 262.638 47.0657 262.828 47.4131C263.019 47.7549 263.114 48.1499 263.114 48.5982ZM262.114 48.2956C262.108 47.9426 261.982 47.6596 261.736 47.4467C261.489 47.2338 261.184 47.1273 260.819 47.1273C260.489 47.1273 260.206 47.2338 259.971 47.4467C259.735 47.654 259.595 47.937 259.55 48.2956H262.114ZM265.015 47.0685C265.155 46.8331 265.34 46.651 265.57 46.5221C265.805 46.3876 266.083 46.3204 266.402 46.3204V47.3122H266.158C265.783 47.3122 265.497 47.4075 265.301 47.598C265.111 47.7885 265.015 48.1191 265.015 48.5898V51.0273H264.057V46.396H265.015V47.0685ZM268.964 51.103C268.6 51.103 268.272 51.0386 267.981 50.9097C267.695 50.7752 267.468 50.5959 267.3 50.3717C267.132 50.142 267.042 49.887 267.031 49.6069H268.023C268.039 49.803 268.132 49.9683 268.3 50.1028C268.474 50.2316 268.689 50.2961 268.947 50.2961C269.216 50.2961 269.423 50.2457 269.569 50.1448C269.72 50.0383 269.796 49.9038 269.796 49.7413C269.796 49.5676 269.712 49.4387 269.544 49.3547C269.381 49.2706 269.121 49.1782 268.762 49.0773C268.415 48.9821 268.132 48.8896 267.913 48.7999C267.695 48.7103 267.504 48.573 267.342 48.3881C267.185 48.2032 267.106 47.9594 267.106 47.6568C267.106 47.4103 267.179 47.1861 267.325 46.9844C267.471 46.7771 267.678 46.6146 267.947 46.4969C268.222 46.3792 268.535 46.3204 268.888 46.3204C269.415 46.3204 269.838 46.4549 270.158 46.7238C270.483 46.9872 270.656 47.3486 270.679 47.8081H269.72C269.704 47.6008 269.62 47.4355 269.468 47.3122C269.317 47.1889 269.112 47.1273 268.855 47.1273C268.603 47.1273 268.409 47.1749 268.275 47.2702C268.14 47.3654 268.073 47.4915 268.073 47.6484C268.073 47.7717 268.118 47.8754 268.207 47.9594C268.297 48.0435 268.406 48.1107 268.535 48.1611C268.664 48.206 268.855 48.2648 269.107 48.3377C269.443 48.4273 269.718 48.5198 269.931 48.615C270.149 48.7047 270.337 48.8392 270.494 49.0185C270.651 49.1978 270.732 49.4359 270.737 49.7329C270.737 49.9963 270.665 50.2316 270.519 50.439C270.373 50.6463 270.166 50.8088 269.897 50.9265C269.634 51.0442 269.323 51.103 268.964 51.103Z" fill="black"/>
<rect x="297.93" y="22.2148" width="29.4185" height="29.4185" rx="4.80301" fill="#E7F8F2"/>
<g clip-path="url(#clip1_4206_7794)">
<path d="M315.042 42.3249V41.1242C315.042 40.4872 314.789 39.8764 314.339 39.426C313.888 38.9757 313.277 38.7227 312.64 38.7227H309.038C308.401 38.7227 307.79 38.9757 307.34 39.426C306.89 39.8764 306.637 40.4872 306.637 41.1242V42.3249" stroke="#10B981" stroke-width="1.20075" stroke-linecap="round" stroke-linejoin="round"/>
<path d="M315.039 31.5977C315.554 31.7312 316.01 32.0319 316.336 32.4526C316.661 32.8734 316.838 33.3903 316.838 33.9223C316.838 34.4543 316.661 34.9713 316.336 35.392C316.01 35.8127 315.554 36.1135 315.039 36.247" stroke="#10B981" stroke-width="1.20075" stroke-linecap="round" stroke-linejoin="round"/>
<path d="M318.645 42.325V41.1242C318.644 40.5921 318.467 40.0752 318.141 39.6547C317.815 39.2342 317.359 38.9338 316.844 38.8008" stroke="#10B981" stroke-width="1.20075" stroke-linecap="round" stroke-linejoin="round"/>
<path d="M310.835 36.3225C312.161 36.3225 313.237 35.2474 313.237 33.921C313.237 32.5947 312.161 31.5195 310.835 31.5195C309.509 31.5195 308.434 32.5947 308.434 33.921C308.434 35.2474 309.509 36.3225 310.835 36.3225Z" stroke="#10B981" stroke-width="1.20075" stroke-linecap="round" stroke-linejoin="round"/>
</g>
<g filter="url(#filter0_d_4206_7794)">
<rect x="1.05469" y="78.4453" width="357" height="69.0662" rx="12.6358" fill="white" shape-rendering="crispEdges"/>
<rect x="1.31793" y="78.7086" width="356.474" height="68.5397" rx="12.3725" stroke="#E2E8F0" stroke-width="0.52649" shape-rendering="crispEdges"/>
<path d="M17.4219 103.723C16.9733 103.723 16.5564 103.641 16.171 103.477C15.7919 103.312 15.4634 103.085 15.1854 102.794C14.9137 102.497 14.7147 102.153 14.5883 101.761L15.6592 101.297C15.8298 101.701 16.0762 102.02 16.3984 102.254C16.7206 102.482 17.0839 102.595 17.4883 102.595C17.7157 102.595 17.9116 102.561 18.0758 102.491C18.2464 102.415 18.3759 102.314 18.4644 102.188C18.5591 102.061 18.6065 101.91 18.6065 101.733C18.6065 101.524 18.5433 101.354 18.417 101.221C18.2969 101.082 18.1137 100.975 17.8673 100.899L16.5121 100.463C15.9625 100.292 15.5487 100.037 15.2707 99.6954C14.9927 99.3543 14.8537 98.9531 14.8537 98.4919C14.8537 98.0875 14.9516 97.7306 15.1475 97.421C15.3497 97.1114 15.6276 96.8714 15.9814 96.7008C16.3416 96.5239 16.7522 96.4354 17.2134 96.4354C17.6367 96.4354 18.0253 96.5112 18.3791 96.6629C18.7329 96.8082 19.0361 97.0135 19.2888 97.2789C19.5479 97.5379 19.7406 97.8443 19.8669 98.1981L18.8055 98.672C18.6665 98.3181 18.458 98.0465 18.1801 97.8569C17.9021 97.6611 17.5799 97.5632 17.2134 97.5632C16.9986 97.5632 16.8091 97.6011 16.6448 97.6769C16.4806 97.7464 16.351 97.8475 16.2563 97.9801C16.1678 98.1065 16.1236 98.2581 16.1236 98.435C16.1236 98.6309 16.1868 98.8046 16.3131 98.9563C16.4395 99.1016 16.6322 99.2153 16.8912 99.2974L18.1895 99.7049C18.7518 99.8881 19.172 100.141 19.45 100.463C19.7343 100.785 19.8764 101.183 19.8764 101.657C19.8764 102.061 19.7722 102.418 19.5637 102.728C19.3552 103.038 19.0677 103.281 18.7013 103.458C18.3348 103.635 17.9084 103.723 17.4219 103.723ZM23.283 103.666C22.7017 103.666 22.25 103.508 21.9278 103.192C21.6119 102.87 21.4539 102.418 21.4539 101.837V99.5628H20.5631V98.454H20.6579C20.9106 98.454 21.1064 98.3876 21.2454 98.255C21.3844 98.1223 21.4539 97.9296 21.4539 97.6769V97.2789H22.6954V98.454H23.88V99.5628H22.6954V101.771C22.6954 101.941 22.7238 102.087 22.7807 102.207C22.8439 102.327 22.9386 102.418 23.065 102.482C23.1977 102.545 23.3651 102.576 23.5673 102.576C23.6115 102.576 23.662 102.573 23.7189 102.567C23.7821 102.561 23.8421 102.554 23.899 102.548V103.609C23.8105 103.622 23.7094 103.635 23.5957 103.647C23.482 103.66 23.3777 103.666 23.283 103.666ZM27.322 103.723C26.8166 103.723 26.3554 103.606 25.9384 103.372C25.5277 103.139 25.1992 102.82 24.9528 102.415C24.7127 102.011 24.5927 101.55 24.5927 101.032C24.5927 100.514 24.7127 100.052 24.9528 99.6481C25.1992 99.2437 25.5277 98.9247 25.9384 98.6909C26.3491 98.4571 26.8103 98.3403 27.322 98.3403C27.8274 98.3403 28.2855 98.4571 28.6962 98.6909C29.1068 98.9247 29.4322 99.2437 29.6723 99.6481C29.9187 100.046 30.0419 100.507 30.0419 101.032C30.0419 101.55 29.9187 102.011 29.6723 102.415C29.4259 102.82 29.0973 103.139 28.6867 103.372C28.276 103.606 27.8211 103.723 27.322 103.723ZM27.322 102.586C27.6 102.586 27.8432 102.52 28.0517 102.387C28.2665 102.254 28.434 102.071 28.554 101.837C28.6804 101.597 28.7435 101.329 28.7435 101.032C28.7435 100.728 28.6804 100.463 28.554 100.236C28.434 100.002 28.2665 99.8186 28.0517 99.686C27.8432 99.547 27.6 99.4775 27.322 99.4775C27.0377 99.4775 26.7882 99.547 26.5733 99.686C26.3585 99.8186 26.188 100.002 26.0616 100.236C25.9416 100.463 25.8815 100.728 25.8815 101.032C25.8815 101.329 25.9416 101.597 26.0616 101.837C26.188 102.071 26.3585 102.254 26.5733 102.387C26.7882 102.52 27.0377 102.586 27.322 102.586ZM30.9833 103.609V98.454H32.149V99.6007L32.0542 99.4301C32.1742 99.0447 32.3606 98.7762 32.6133 98.6246C32.8724 98.4729 33.1819 98.3971 33.5421 98.3971H33.8453V99.4964H33.3999C33.0461 99.4964 32.7618 99.607 32.547 99.8281C32.3322 100.043 32.2248 100.346 32.2248 100.738V103.609H30.9833ZM36.0916 103.723C35.7314 103.723 35.4187 103.663 35.1533 103.543C34.888 103.423 34.6827 103.252 34.5374 103.031C34.392 102.804 34.3194 102.542 34.3194 102.245C34.3194 101.96 34.3826 101.708 34.5089 101.487C34.6353 101.259 34.8311 101.07 35.0965 100.918C35.3618 100.766 35.6967 100.659 36.101 100.596L37.7879 100.321V101.269L36.3379 101.515C36.0916 101.559 35.9083 101.638 35.7883 101.752C35.6683 101.866 35.6082 102.014 35.6082 102.197C35.6082 102.374 35.6746 102.516 35.8072 102.624C35.9462 102.725 36.1168 102.775 36.319 102.775C36.578 102.775 36.8055 102.722 37.0013 102.614C37.2035 102.501 37.3583 102.346 37.4657 102.15C37.5794 101.954 37.6363 101.739 37.6363 101.506V100.179C37.6363 99.9576 37.5478 99.7744 37.3709 99.6291C37.2003 99.4775 36.9729 99.4017 36.6886 99.4017C36.4232 99.4017 36.1863 99.4743 35.9778 99.6196C35.7757 99.7586 35.6272 99.945 35.5324 100.179L34.5184 99.686C34.6195 99.4143 34.7774 99.1805 34.9922 98.9847C35.2134 98.7825 35.4724 98.6246 35.7693 98.5108C36.0663 98.3971 36.3885 98.3403 36.736 98.3403C37.1593 98.3403 37.532 98.4192 37.8542 98.5772C38.1765 98.7288 38.426 98.9436 38.6029 99.2216C38.7861 99.4933 38.8777 99.8123 38.8777 100.179V103.609H37.7026V102.728L37.968 102.709C37.8353 102.93 37.6773 103.117 37.4941 103.268C37.3109 103.414 37.1024 103.527 36.8687 103.609C36.6349 103.685 36.3759 103.723 36.0916 103.723ZM42.5271 105.694C42.1417 105.694 41.7847 105.631 41.4562 105.505C41.1276 105.378 40.8433 105.201 40.6033 104.974C40.3695 104.753 40.1989 104.491 40.0915 104.187L41.2477 103.752C41.3235 103.992 41.472 104.184 41.6931 104.33C41.9205 104.481 42.1985 104.557 42.5271 104.557C42.7798 104.557 43.0009 104.51 43.1904 104.415C43.3863 104.32 43.5379 104.181 43.6453 103.998C43.7527 103.821 43.8064 103.606 43.8064 103.354V102.178L44.0433 102.463C43.8664 102.772 43.6295 103.006 43.3326 103.164C43.0356 103.322 42.6976 103.401 42.3186 103.401C41.8384 103.401 41.4088 103.29 41.0297 103.069C40.6506 102.848 40.3537 102.545 40.1389 102.159C39.9241 101.774 39.8167 101.341 39.8167 100.861C39.8167 100.375 39.9241 99.9418 40.1389 99.5628C40.3537 99.1837 40.6475 98.8868 41.0202 98.672C41.393 98.4508 41.8163 98.3403 42.2901 98.3403C42.6755 98.3403 43.0135 98.4224 43.3042 98.5867C43.6011 98.7446 43.8475 98.9752 44.0433 99.2785L43.8728 99.5912V98.454H45.0479V103.354C45.0479 103.802 44.9373 104.203 44.7162 104.557C44.5014 104.911 44.2045 105.189 43.8254 105.391C43.4526 105.593 43.0198 105.694 42.5271 105.694ZM42.4702 102.254C42.7355 102.254 42.9661 102.197 43.162 102.084C43.3642 101.964 43.5221 101.799 43.6358 101.591C43.7496 101.382 43.8064 101.142 43.8064 100.871C43.8064 100.605 43.7464 100.368 43.6264 100.16C43.5126 99.945 43.3547 99.7776 43.1525 99.6575C42.9567 99.5375 42.7292 99.4775 42.4702 99.4775C42.2112 99.4775 41.9774 99.5375 41.7689 99.6575C41.5604 99.7776 41.3962 99.945 41.2761 100.16C41.1624 100.368 41.1055 100.605 41.1055 100.871C41.1055 101.136 41.1624 101.373 41.2761 101.581C41.3962 101.79 41.5573 101.954 41.7594 102.074C41.9679 102.194 42.2048 102.254 42.4702 102.254ZM48.6523 103.723C48.1216 103.723 47.6573 103.603 47.2592 103.363C46.8612 103.123 46.5516 102.798 46.3305 102.387C46.1094 101.976 45.9988 101.521 45.9988 101.022C45.9988 100.504 46.1094 100.046 46.3305 99.6481C46.558 99.2437 46.8644 98.9247 47.2498 98.6909C47.6415 98.4571 48.0774 98.3403 48.5576 98.3403C48.9619 98.3403 49.3157 98.4066 49.619 98.5393C49.9286 98.672 50.1907 98.8552 50.4056 99.0889C50.6204 99.3227 50.7846 99.5912 50.8983 99.8945C51.0121 100.191 51.0689 100.514 51.0689 100.861C51.0689 100.95 51.0626 101.041 51.05 101.136C51.0437 101.231 51.0279 101.313 51.0026 101.382H47.0223V100.435H50.3013L49.7137 100.88C49.7706 100.589 49.7548 100.33 49.6664 100.103C49.5842 99.8755 49.4452 99.6954 49.2494 99.5628C49.0598 99.4301 48.8292 99.3638 48.5576 99.3638C48.2985 99.3638 48.0679 99.4301 47.8658 99.5628C47.6636 99.6891 47.5088 99.8787 47.4014 100.131C47.3003 100.378 47.2624 100.678 47.2877 101.032C47.2624 101.348 47.3035 101.629 47.4109 101.875C47.5246 102.115 47.6889 102.302 47.9037 102.434C48.1248 102.567 48.3775 102.633 48.6618 102.633C48.9461 102.633 49.1862 102.573 49.3821 102.453C49.5842 102.333 49.7422 102.172 49.8559 101.97L50.8604 102.463C50.7594 102.709 50.6014 102.927 50.3866 103.117C50.1718 103.306 49.9159 103.455 49.619 103.562C49.3284 103.669 49.0061 103.723 48.6523 103.723ZM57.2766 103.723C56.7585 103.723 56.2752 103.631 55.8267 103.448C55.3781 103.265 54.9864 103.009 54.6515 102.681C54.3167 102.352 54.0545 101.967 53.865 101.524C53.6817 101.076 53.5901 100.593 53.5901 100.075C53.5901 99.5501 53.6817 99.0668 53.865 98.6246C54.0482 98.1823 54.3072 97.7969 54.6421 97.4684C54.9769 97.1399 55.3686 96.8871 55.8172 96.7102C56.2658 96.527 56.7522 96.4354 57.2766 96.4354C57.801 96.4354 58.2875 96.527 58.736 96.7102C59.1846 96.8935 59.5763 97.1493 59.9112 97.4779C60.246 97.8001 60.5051 98.1823 60.6883 98.6246C60.8778 99.0668 60.9726 99.5501 60.9726 100.075C60.9726 100.593 60.8778 101.076 60.6883 101.524C60.4987 101.967 60.2365 102.352 59.9017 102.681C59.5668 103.009 59.1751 103.265 58.7266 103.448C58.2843 103.631 57.801 103.723 57.2766 103.723ZM57.2766 102.548C57.6241 102.548 57.9432 102.488 58.2338 102.368C58.5244 102.242 58.7771 102.068 58.9919 101.847C59.213 101.626 59.3805 101.363 59.4942 101.06C59.6142 100.757 59.6743 100.428 59.6743 100.075C59.6743 99.7207 59.6142 99.3953 59.4942 99.0984C59.3805 98.7951 59.213 98.533 58.9919 98.3118C58.7771 98.0844 58.5244 97.9106 58.2338 97.7906C57.9432 97.6706 57.6241 97.6105 57.2766 97.6105C56.9355 97.6105 56.6196 97.6706 56.3289 97.7906C56.0383 97.9106 55.7824 98.0844 55.5613 98.3118C55.3465 98.533 55.1791 98.7951 55.059 99.0984C54.939 99.3953 54.879 99.7207 54.879 100.075C54.879 100.428 54.939 100.757 55.059 101.06C55.1791 101.363 55.3465 101.626 55.5613 101.847C55.7824 102.068 56.0383 102.242 56.3289 102.368C56.6196 102.488 56.9355 102.548 57.2766 102.548ZM63.5686 103.609L61.5405 98.454H62.8957L64.3646 102.51H63.8623L65.3407 98.454H66.6959L64.6679 103.609H63.5686ZM69.7346 103.723C69.2039 103.723 68.7395 103.603 68.3415 103.363C67.9434 103.123 67.6339 102.798 67.4127 102.387C67.1916 101.976 67.0811 101.521 67.0811 101.022C67.0811 100.504 67.1916 100.046 67.4127 99.6481C67.6402 99.2437 67.9466 98.9247 68.332 98.6909C68.7237 98.4571 69.1596 98.3403 69.6398 98.3403C70.0441 98.3403 70.3979 98.4066 70.7012 98.5393C71.0108 98.672 71.273 98.8552 71.4878 99.0889C71.7026 99.3227 71.8669 99.5912 71.9806 99.8945C72.0943 100.191 72.1512 100.514 72.1512 100.861C72.1512 100.95 72.1448 101.041 72.1322 101.136C72.1259 101.231 72.1101 101.313 72.0848 101.382H68.1046V100.435H71.3835L70.796 100.88C70.8528 100.589 70.837 100.33 70.7486 100.103C70.6665 99.8755 70.5275 99.6954 70.3316 99.5628C70.1421 99.4301 69.9115 99.3638 69.6398 99.3638C69.3808 99.3638 69.1502 99.4301 68.948 99.5628C68.7458 99.6891 68.591 99.8787 68.4836 100.131C68.3825 100.378 68.3446 100.678 68.3699 101.032C68.3446 101.348 68.3857 101.629 68.4931 101.875C68.6068 102.115 68.7711 102.302 68.9859 102.434C69.207 102.567 69.4597 102.633 69.744 102.633C70.0283 102.633 70.2684 102.573 70.4643 102.453C70.6665 102.333 70.8244 102.172 70.9381 101.97L71.9427 102.463C71.8416 102.709 71.6836 102.927 71.4688 103.117C71.254 103.306 70.9981 103.455 70.7012 103.562C70.4106 103.669 70.0884 103.723 69.7346 103.723ZM73.0922 103.609V98.454H74.2579V99.6007L74.1631 99.4301C74.2832 99.0447 74.4695 98.7762 74.7223 98.6246C74.9813 98.4729 75.2909 98.3971 75.651 98.3971H75.9542V99.4964H75.5088C75.155 99.4964 74.8707 99.607 74.6559 99.8281C74.4411 100.043 74.3337 100.346 74.3337 100.738V103.609H73.0922ZM78.191 103.609L76.163 98.454H77.5181L78.9871 102.51H78.4848L79.9632 98.454H81.3184L79.2903 103.609H78.191ZM82.0045 103.609V98.454H83.246V103.609H82.0045ZM82.0045 97.8759V96.5491H83.246V97.8759H82.0045ZM86.8373 103.723C86.3066 103.723 85.8422 103.603 85.4442 103.363C85.0462 103.123 84.7366 102.798 84.5154 102.387C84.2943 101.976 84.1838 101.521 84.1838 101.022C84.1838 100.504 84.2943 100.046 84.5154 99.6481C84.7429 99.2437 85.0493 98.9247 85.4347 98.6909C85.8264 98.4571 86.2623 98.3403 86.7425 98.3403C87.1468 98.3403 87.5006 98.4066 87.8039 98.5393C88.1135 98.672 88.3757 98.8552 88.5905 99.0889C88.8053 99.3227 88.9696 99.5912 89.0833 99.8945C89.197 100.191 89.2539 100.514 89.2539 100.861C89.2539 100.95 89.2475 101.041 89.2349 101.136C89.2286 101.231 89.2128 101.313 89.1875 101.382H85.2073V100.435H88.4862L87.8987 100.88C87.9555 100.589 87.9397 100.33 87.8513 100.103C87.7692 99.8755 87.6302 99.6954 87.4343 99.5628C87.2448 99.4301 87.0142 99.3638 86.7425 99.3638C86.4835 99.3638 86.2529 99.4301 86.0507 99.5628C85.8485 99.6891 85.6937 99.8787 85.5863 100.131C85.4852 100.378 85.4473 100.678 85.4726 101.032C85.4473 101.348 85.4884 101.629 85.5958 101.875C85.7095 102.115 85.8738 102.302 86.0886 102.434C86.3097 102.567 86.5624 102.633 86.8467 102.633C87.1311 102.633 87.3711 102.573 87.567 102.453C87.7692 102.333 87.9271 102.172 88.0408 101.97L89.0454 102.463C88.9443 102.709 88.7863 102.927 88.5715 103.117C88.3567 103.306 88.1008 103.455 87.8039 103.562C87.5133 103.669 87.1911 103.723 86.8373 103.723ZM91.4933 103.609L89.7211 98.454H91.0289L92.3272 102.368L91.8724 102.358L93.256 98.454H94.3553L95.7294 102.358L95.2745 102.368L96.5729 98.454H97.8807L96.1085 103.609H94.9997L93.5971 99.5249H94.0141L92.5926 103.609H91.4933Z" fill="#1E293B"/>
<path d="M17.2334 115.609V114.342H14.5357V113.745L17.2187 110.118H17.9116V113.745H18.6265V114.342H17.9116V115.609H17.2334ZM15.0811 114.003L14.9779 113.745H17.2334V110.722L17.4472 110.781L15.0811 114.003ZM21.5947 115.698C21.1574 115.698 20.7741 115.58 20.4449 115.344C20.1206 115.103 19.8675 114.772 19.6857 114.349C19.5039 113.921 19.413 113.425 19.413 112.86C19.413 112.295 19.5039 111.801 19.6857 111.379C19.8675 110.951 20.1206 110.619 20.4449 110.383C20.7692 110.148 21.15 110.03 21.5874 110.03C22.0247 110.03 22.4055 110.148 22.7298 110.383C23.0542 110.619 23.3072 110.951 23.489 111.379C23.6758 111.801 23.7691 112.295 23.7691 112.86C23.7691 113.425 23.6782 113.921 23.4964 114.349C23.3146 114.776 23.0591 115.108 22.7298 115.344C22.4055 115.58 22.0272 115.698 21.5947 115.698ZM21.5947 115.027C21.8896 115.027 22.1451 114.939 22.3613 114.762C22.5775 114.58 22.7446 114.327 22.8625 114.003C22.9854 113.678 23.0468 113.297 23.0468 112.86C23.0468 112.423 22.9854 112.042 22.8625 111.718C22.7446 111.393 22.5751 111.143 22.3539 110.966C22.1377 110.789 21.8822 110.7 21.5874 110.7C21.2925 110.7 21.037 110.789 20.8208 110.966C20.6046 111.143 20.4351 111.393 20.3122 111.718C20.1943 112.042 20.1353 112.423 20.1353 112.86C20.1353 113.292 20.1943 113.671 20.3122 113.995C20.4351 114.319 20.6046 114.573 20.8208 114.754C21.0419 114.936 21.2999 115.027 21.5947 115.027ZM25.0637 115.609V114.725H25.7787V115.609H25.0637ZM28.7593 115.698C28.4694 115.698 28.1991 115.646 27.9485 115.543C27.6979 115.44 27.4817 115.295 27.2999 115.108C27.1181 114.917 26.983 114.69 26.8945 114.43L27.5063 114.179C27.6095 114.455 27.7716 114.668 27.9928 114.821C28.2139 114.973 28.4694 115.049 28.7593 115.049C28.9854 115.049 29.1868 115.005 29.3637 114.917C29.5406 114.828 29.6782 114.7 29.7765 114.533C29.8797 114.366 29.9313 114.165 29.9313 113.929C29.9313 113.688 29.8797 113.487 29.7765 113.324C29.6782 113.157 29.5406 113.03 29.3637 112.941C29.1868 112.853 28.9829 112.808 28.752 112.808C28.6782 112.808 28.5972 112.813 28.5087 112.823C28.4252 112.833 28.3539 112.848 28.295 112.867L28.1402 112.536L29.607 110.745H27.1746V110.118H30.4251V110.722L29.0247 112.447L28.9805 112.256C29.3097 112.265 29.5996 112.342 29.8502 112.484C30.1008 112.627 30.2974 112.821 30.4399 113.066C30.5824 113.307 30.6536 113.59 30.6536 113.914C30.6536 114.248 30.5726 114.55 30.4104 114.821C30.2482 115.091 30.0247 115.305 29.7397 115.462C29.4546 115.619 29.1279 115.698 28.7593 115.698ZM33.4129 115.698C33.0444 115.698 32.7176 115.624 32.4326 115.477C32.1525 115.329 31.9314 115.13 31.7692 114.88C31.612 114.624 31.5334 114.339 31.5334 114.025C31.5334 113.671 31.6316 113.361 31.8282 113.096C32.0248 112.831 32.295 112.641 32.639 112.528L32.6243 112.713C32.3638 112.609 32.1599 112.445 32.0125 112.219C31.87 111.988 31.7987 111.74 31.7987 111.474C31.7987 111.194 31.8675 110.946 32.0051 110.73C32.1476 110.514 32.3392 110.344 32.58 110.221C32.8257 110.094 33.1034 110.03 33.4129 110.03C33.7225 110.03 33.9977 110.091 34.2385 110.214C34.4793 110.337 34.6684 110.509 34.806 110.73C34.9485 110.946 35.0198 111.194 35.0198 111.474C35.0198 111.754 34.9436 112.005 34.7913 112.226C34.6439 112.447 34.4473 112.612 34.2016 112.72L34.1795 112.528C34.5284 112.641 34.8011 112.833 34.9977 113.103C35.1942 113.369 35.2925 113.676 35.2925 114.025C35.2925 114.339 35.2114 114.624 35.0493 114.88C34.892 115.13 34.6709 115.329 34.3859 115.477C34.1058 115.624 33.7815 115.698 33.4129 115.698ZM33.4129 115.071C33.6439 115.071 33.8454 115.027 34.0173 114.939C34.1893 114.85 34.322 114.727 34.4154 114.57C34.5136 114.408 34.5628 114.224 34.5628 114.017C34.5628 113.806 34.5136 113.622 34.4154 113.464C34.322 113.302 34.1893 113.179 34.0173 113.096C33.8454 113.007 33.6439 112.963 33.4129 112.963C33.182 112.963 32.9781 113.007 32.8012 113.096C32.6292 113.179 32.4965 113.302 32.4031 113.464C32.3098 113.622 32.2631 113.806 32.2631 114.017C32.2631 114.224 32.3098 114.408 32.4031 114.57C32.4965 114.727 32.6292 114.85 32.8012 114.939C32.9781 115.027 33.182 115.071 33.4129 115.071ZM33.4129 112.337C33.58 112.337 33.7274 112.3 33.8552 112.226C33.9879 112.152 34.0935 112.054 34.1721 111.931C34.2508 111.804 34.2901 111.656 34.2901 111.489C34.2901 111.322 34.2508 111.177 34.1721 111.054C34.0935 110.931 33.9879 110.836 33.8552 110.767C33.7274 110.693 33.58 110.656 33.4129 110.656C33.2409 110.656 33.0886 110.693 32.9559 110.767C32.8233 110.836 32.7176 110.931 32.639 111.054C32.5604 111.177 32.5211 111.322 32.5211 111.489C32.5211 111.656 32.5604 111.804 32.639 111.931C32.7176 112.054 32.8233 112.152 32.9559 112.226C33.0886 112.3 33.2409 112.337 33.4129 112.337ZM40.1481 115.698C39.7599 115.698 39.4012 115.629 39.072 115.491C38.7427 115.349 38.4577 115.15 38.2169 114.894C37.9762 114.639 37.787 114.339 37.6494 113.995C37.5167 113.651 37.4504 113.275 37.4504 112.867C37.4504 112.455 37.5167 112.076 37.6494 111.732C37.7821 111.388 37.9688 111.089 38.2096 110.833C38.4504 110.578 38.7354 110.381 39.0646 110.243C39.3938 110.101 39.7525 110.03 40.1407 110.03C40.5191 110.03 40.8582 110.096 41.1579 110.229C41.4626 110.361 41.7181 110.533 41.9245 110.745C42.1358 110.956 42.2857 111.182 42.3741 111.423L41.7255 111.74C41.5977 111.42 41.3987 111.167 41.1284 110.98C40.8582 110.794 40.5289 110.7 40.1407 110.7C39.7575 110.7 39.4159 110.791 39.1162 110.973C38.8214 111.155 38.5904 111.408 38.4233 111.732C38.2563 112.057 38.1727 112.435 38.1727 112.867C38.1727 113.295 38.2563 113.671 38.4233 113.995C38.5953 114.319 38.8287 114.573 39.1236 114.754C39.4233 114.936 39.7648 115.027 40.1481 115.027C40.4823 115.027 40.7845 114.956 41.0547 114.813C41.325 114.671 41.5388 114.474 41.696 114.224C41.8532 113.973 41.9319 113.683 41.9319 113.354V113.015L42.2636 113.324H40.1407V112.698H42.6616V113.184C42.6616 113.568 42.5952 113.914 42.4626 114.224C42.3299 114.533 42.1481 114.799 41.9171 115.02C41.6862 115.236 41.4184 115.403 41.1137 115.521C40.809 115.639 40.4872 115.698 40.1481 115.698ZM43.6374 115.609V110.118H45.9444C46.2737 110.118 46.5562 110.177 46.7921 110.295C47.0329 110.413 47.2171 110.58 47.3449 110.796C47.4776 111.008 47.5439 111.261 47.5439 111.555C47.5439 111.826 47.4727 112.071 47.3302 112.292C47.1926 112.509 46.9886 112.678 46.7184 112.801L46.711 112.528C46.9469 112.617 47.141 112.735 47.2933 112.882C47.4505 113.025 47.5685 113.192 47.6471 113.383C47.7257 113.57 47.765 113.769 47.765 113.98C47.765 114.487 47.6029 114.885 47.2786 115.174C46.9542 115.464 46.512 115.609 45.9518 115.609H43.6374ZM44.3597 114.946H45.9813C46.3007 114.946 46.5562 114.86 46.7479 114.688C46.9395 114.516 47.0353 114.283 47.0353 113.988C47.0353 113.693 46.9395 113.46 46.7479 113.288C46.5562 113.111 46.3007 113.022 45.9813 113.022H44.3597V114.946ZM44.3597 112.374H45.9297C46.195 112.374 46.4088 112.297 46.571 112.145C46.7331 111.988 46.8142 111.789 46.8142 111.548C46.8142 111.297 46.7331 111.106 46.571 110.973C46.4088 110.84 46.195 110.774 45.9297 110.774H44.3597V112.374ZM51.3416 115.698C51.0566 115.698 50.7986 115.631 50.5677 115.499C50.3417 115.366 50.1648 115.182 50.037 114.946C49.9141 114.705 49.8527 114.43 49.8527 114.12V111.636H50.5382V114.047C50.5382 114.243 50.5775 114.415 50.6561 114.563C50.7397 114.71 50.8527 114.826 50.9952 114.909C51.1426 114.993 51.3097 115.034 51.4964 115.034C51.6831 115.034 51.8478 114.993 51.9903 114.909C52.1377 114.826 52.2507 114.705 52.3293 114.548C52.4129 114.391 52.4546 114.204 52.4546 113.988V111.636H53.1475V115.609H52.4767V114.835L52.5873 114.902C52.4939 115.152 52.3342 115.349 52.1082 115.491C51.8871 115.629 51.6316 115.698 51.3416 115.698ZM55.632 115.698C55.234 115.698 54.8876 115.6 54.5928 115.403C54.2979 115.206 54.0891 114.941 53.9662 114.607L54.5117 114.342C54.6247 114.577 54.7795 114.764 54.976 114.902C55.1726 115.039 55.3913 115.108 55.632 115.108C55.8483 115.108 56.0276 115.057 56.1701 114.953C56.3126 114.85 56.3839 114.715 56.3839 114.548C56.3839 114.43 56.3495 114.337 56.2807 114.268C56.2168 114.194 56.1382 114.138 56.0448 114.098C55.9515 114.054 55.8655 114.022 55.7868 114.003L55.1898 113.833C54.8311 113.73 54.5682 113.582 54.4011 113.391C54.239 113.199 54.1579 112.976 54.1579 112.72C54.1579 112.484 54.2168 112.28 54.3348 112.108C54.4576 111.931 54.6222 111.794 54.8286 111.695C55.0399 111.597 55.2758 111.548 55.5362 111.548C55.8851 111.548 56.1971 111.636 56.4723 111.813C56.7524 111.99 56.9514 112.238 57.0694 112.558L56.5092 112.816C56.4207 112.609 56.2881 112.447 56.1112 112.329C55.9343 112.206 55.7352 112.145 55.5141 112.145C55.3126 112.145 55.1529 112.197 55.035 112.3C54.9171 112.398 54.8581 112.523 54.8581 112.676C54.8581 112.789 54.8876 112.882 54.9466 112.956C55.0055 113.025 55.0768 113.079 55.1603 113.118C55.2438 113.152 55.3249 113.182 55.4035 113.206L56.0522 113.398C56.3765 113.491 56.6271 113.636 56.804 113.833C56.9858 114.03 57.0767 114.265 57.0767 114.541C57.0767 114.762 57.0153 114.961 56.8925 115.138C56.7696 115.315 56.6001 115.452 56.3839 115.55C56.1677 115.649 55.9171 115.698 55.632 115.698ZM59.8021 115.698C59.4188 115.698 59.0773 115.607 58.7775 115.425C58.4778 115.243 58.2419 114.995 58.0699 114.681C57.8979 114.361 57.8119 114.005 57.8119 113.612C57.8119 113.214 57.8955 112.86 58.0625 112.55C58.2345 112.241 58.4655 111.998 58.7554 111.821C59.0502 111.639 59.3795 111.548 59.7431 111.548C60.0379 111.548 60.2984 111.602 60.5244 111.71C60.7554 111.813 60.9495 111.956 61.1067 112.138C61.2689 112.315 61.3917 112.519 61.4752 112.749C61.5637 112.976 61.6079 113.211 61.6079 113.457C61.6079 113.511 61.603 113.573 61.5932 113.641C61.5883 113.705 61.5809 113.767 61.5711 113.826H58.3131V113.236H61.173L60.8487 113.501C60.8929 113.246 60.8684 113.017 60.775 112.816C60.6816 112.614 60.5441 112.455 60.3622 112.337C60.1804 112.219 59.974 112.16 59.7431 112.16C59.5121 112.16 59.3008 112.219 59.1092 112.337C58.9176 112.455 58.7677 112.624 58.6596 112.845C58.5564 113.062 58.5146 113.319 58.5343 113.619C58.5146 113.909 58.5588 114.165 58.6669 114.386C58.78 114.602 58.9372 114.772 59.1387 114.894C59.3451 115.012 59.5686 115.071 59.8094 115.071C60.0748 115.071 60.2984 115.01 60.4802 114.887C60.662 114.764 60.8094 114.607 60.9224 114.415L61.4974 114.71C61.4187 114.892 61.2959 115.059 61.1288 115.211C60.9667 115.359 60.7726 115.477 60.5465 115.565C60.3254 115.654 60.0772 115.698 59.8021 115.698ZM64.3076 115.698C63.9341 115.698 63.5975 115.607 63.2977 115.425C63.0029 115.243 62.7695 114.995 62.5975 114.681C62.4255 114.366 62.3395 114.015 62.3395 113.627C62.3395 113.229 62.4255 112.875 62.5975 112.565C62.7695 112.251 63.0029 112.003 63.2977 111.821C63.5975 111.639 63.9341 111.548 64.3076 111.548C64.6368 111.548 64.9292 111.619 65.1847 111.762C65.4402 111.899 65.6417 112.086 65.7891 112.322L65.6785 112.492V110.03H66.3714V115.609H65.7006V114.762L65.7891 114.88C65.6515 115.14 65.45 115.342 65.1847 115.484C64.9242 115.627 64.6319 115.698 64.3076 115.698ZM64.3665 115.034C64.6171 115.034 64.8407 114.973 65.0373 114.85C65.2338 114.727 65.3886 114.56 65.5016 114.349C65.6196 114.133 65.6785 113.892 65.6785 113.627C65.6785 113.356 65.6196 113.116 65.5016 112.904C65.3886 112.688 65.2338 112.519 65.0373 112.396C64.8407 112.273 64.6171 112.211 64.3665 112.211C64.1208 112.211 63.8972 112.275 63.6958 112.403C63.4992 112.526 63.3444 112.693 63.2314 112.904C63.1184 113.111 63.0619 113.351 63.0619 113.627C63.0619 113.892 63.1184 114.133 63.2314 114.349C63.3444 114.56 63.4992 114.727 63.6958 114.85C63.8923 114.973 64.1159 115.034 64.3665 115.034ZM70.5934 115.698C70.2101 115.698 69.8637 115.609 69.5541 115.432C69.2445 115.251 68.9988 115.003 68.817 114.688C68.6352 114.374 68.5443 114.017 68.5443 113.619C68.5443 113.221 68.6328 112.867 68.8097 112.558C68.9915 112.248 69.2372 112.003 69.5467 111.821C69.8563 111.639 70.2052 111.548 70.5934 111.548C70.9767 111.548 71.3231 111.639 71.6327 111.821C71.9423 111.998 72.1855 112.241 72.3624 112.55C72.5442 112.86 72.6351 113.216 72.6351 113.619C72.6351 114.022 72.5418 114.381 72.355 114.695C72.1683 115.005 71.9202 115.251 71.6106 115.432C71.3059 115.609 70.9669 115.698 70.5934 115.698ZM70.5934 115.034C70.8391 115.034 71.0602 114.973 71.2568 114.85C71.4582 114.727 71.6155 114.558 71.7285 114.342C71.8464 114.125 71.9054 113.885 71.9054 113.619C71.9054 113.349 71.8464 113.111 71.7285 112.904C71.6155 112.693 71.4582 112.526 71.2568 112.403C71.0602 112.275 70.8391 112.211 70.5934 112.211C70.3428 112.211 70.1168 112.275 69.9153 112.403C69.7187 112.526 69.5615 112.693 69.4435 112.904C69.3256 113.111 69.2666 113.349 69.2666 113.619C69.2666 113.885 69.3256 114.125 69.4435 114.342C69.5615 114.558 69.7187 114.727 69.9153 114.85C70.1168 114.973 70.3428 115.034 70.5934 115.034ZM73.827 115.609V112.292H73.0678V111.636H73.827V111.356C73.827 111.071 73.8884 110.831 74.0112 110.634C74.139 110.437 74.3061 110.288 74.5125 110.184C74.7238 110.081 74.9572 110.03 75.2127 110.03C75.2667 110.03 75.3257 110.035 75.3896 110.044C75.4584 110.049 75.5149 110.057 75.5591 110.066V110.678C75.5198 110.668 75.4731 110.664 75.4191 110.664C75.365 110.659 75.3232 110.656 75.2938 110.656C75.0677 110.656 74.881 110.71 74.7336 110.818C74.5911 110.926 74.5198 111.106 74.5198 111.356V111.636H75.4633V112.292H74.5198V115.609H73.827ZM79.2911 115.698C79.0061 115.698 78.7383 115.649 78.4876 115.55C78.237 115.447 78.0184 115.302 77.8316 115.116C77.6498 114.924 77.5172 114.7 77.4336 114.445L78.0233 114.194C78.1265 114.464 78.2936 114.676 78.5245 114.828C78.7604 114.975 79.0159 115.049 79.2911 115.049C79.5171 115.049 79.7161 115 79.8881 114.902C80.065 114.799 80.2026 114.659 80.3009 114.482C80.3992 114.3 80.4483 114.098 80.4483 113.877C80.4483 113.646 80.3967 113.442 80.2935 113.265C80.1952 113.089 80.0601 112.951 79.8881 112.853C79.7161 112.749 79.5196 112.698 79.2984 112.698C79.0724 112.698 78.866 112.749 78.6793 112.853C78.4926 112.956 78.3574 113.086 78.2739 113.243L77.6916 113.118L78.1117 110.118H80.9569V110.745H78.3845L78.6646 110.465L78.3402 112.794L78.0896 112.646C78.2518 112.44 78.441 112.292 78.6572 112.204C78.8783 112.111 79.1166 112.064 79.3722 112.064C79.7309 112.064 80.0454 112.145 80.3156 112.307C80.5859 112.469 80.7972 112.686 80.9495 112.956C81.1018 113.226 81.178 113.533 81.178 113.877C81.178 114.221 81.0945 114.531 80.9274 114.806C80.7652 115.081 80.5417 115.3 80.2567 115.462C79.9766 115.619 79.6547 115.698 79.2911 115.698ZM84.2974 115.698C83.8601 115.698 83.4768 115.58 83.1476 115.344C82.8233 115.103 82.5702 114.772 82.3884 114.349C82.2066 113.921 82.1157 113.425 82.1157 112.86C82.1157 112.295 82.2066 111.801 82.3884 111.379C82.5702 110.951 82.8233 110.619 83.1476 110.383C83.4719 110.148 83.8527 110.03 84.2901 110.03C84.7274 110.03 85.1082 110.148 85.4326 110.383C85.7569 110.619 86.0099 110.951 86.1918 111.379C86.3785 111.801 86.4718 112.295 86.4718 112.86C86.4718 113.425 86.3809 113.921 86.1991 114.349C86.0173 114.776 85.7618 115.108 85.4326 115.344C85.1082 115.58 84.7299 115.698 84.2974 115.698ZM84.2974 115.027C84.5923 115.027 84.8478 114.939 85.064 114.762C85.2802 114.58 85.4473 114.327 85.5652 114.003C85.6881 113.678 85.7495 113.297 85.7495 112.86C85.7495 112.423 85.6881 112.042 85.5652 111.718C85.4473 111.393 85.2778 111.143 85.0566 110.966C84.8404 110.789 84.5849 110.7 84.2901 110.7C83.9952 110.7 83.7397 110.789 83.5235 110.966C83.3073 111.143 83.1378 111.393 83.0149 111.718C82.897 112.042 82.838 112.423 82.838 112.86C82.838 113.292 82.897 113.671 83.0149 113.995C83.1378 114.319 83.3073 114.573 83.5235 114.754C83.7446 114.936 84.0026 115.027 84.2974 115.027ZM87.7664 115.609V114.725H88.4814V115.609H87.7664ZM91.9706 115.698C91.5333 115.698 91.15 115.58 90.8208 115.344C90.4964 115.103 90.2434 114.772 90.0616 114.349C89.8798 113.921 89.7888 113.425 89.7888 112.86C89.7888 112.295 89.8798 111.801 90.0616 111.379C90.2434 110.951 90.4964 110.619 90.8208 110.383C91.1451 110.148 91.5259 110.03 91.9633 110.03C92.4006 110.03 92.7814 110.148 93.1057 110.383C93.4301 110.619 93.6831 110.951 93.8649 111.379C94.0517 111.801 94.145 112.295 94.145 112.86C94.145 113.425 94.0541 113.921 93.8723 114.349C93.6905 114.776 93.435 115.108 93.1057 115.344C92.7814 115.58 92.403 115.698 91.9706 115.698ZM91.9706 115.027C92.2655 115.027 92.521 114.939 92.7372 114.762C92.9534 114.58 93.1205 114.327 93.2384 114.003C93.3613 113.678 93.4227 113.297 93.4227 112.86C93.4227 112.423 93.3613 112.042 93.2384 111.718C93.1205 111.393 92.9509 111.143 92.7298 110.966C92.5136 110.789 92.2581 110.7 91.9633 110.7C91.6684 110.7 91.4129 110.789 91.1967 110.966C90.9805 111.143 90.8109 111.393 90.6881 111.718C90.5702 112.042 90.5112 112.423 90.5112 112.86C90.5112 113.292 90.5702 113.671 90.6881 113.995C90.8109 114.319 90.9805 114.573 91.1967 114.754C91.4178 114.936 91.6758 115.027 91.9706 115.027ZM97.3044 115.698C96.8671 115.698 96.4838 115.58 96.1546 115.344C95.8302 115.103 95.5772 114.772 95.3954 114.349C95.2136 113.921 95.1226 113.425 95.1226 112.86C95.1226 112.295 95.2136 111.801 95.3954 111.379C95.5772 110.951 95.8302 110.619 96.1546 110.383C96.4789 110.148 96.8597 110.03 97.2971 110.03C97.7344 110.03 98.1152 110.148 98.4395 110.383C98.7639 110.619 99.0169 110.951 99.1987 111.379C99.3855 111.801 99.4788 112.295 99.4788 112.86C99.4788 113.425 99.3879 113.921 99.2061 114.349C99.0243 114.776 98.7688 115.108 98.4395 115.344C98.1152 115.58 97.7368 115.698 97.3044 115.698ZM97.3044 115.027C97.5993 115.027 97.8548 114.939 98.071 114.762C98.2872 114.58 98.4543 114.327 98.5722 114.003C98.6951 113.678 98.7565 113.297 98.7565 112.86C98.7565 112.423 98.6951 112.042 98.5722 111.718C98.4543 111.393 98.2847 111.143 98.0636 110.966C97.8474 110.789 97.5919 110.7 97.2971 110.7C97.0022 110.7 96.7467 110.789 96.5305 110.966C96.3143 111.143 96.1447 111.393 96.0219 111.718C95.904 112.042 95.845 112.423 95.845 112.86C95.845 113.292 95.904 113.671 96.0219 113.995C96.1447 114.319 96.3143 114.573 96.5305 114.754C96.7516 114.936 97.0096 115.027 97.3044 115.027ZM104.384 115.698C103.996 115.698 103.637 115.629 103.308 115.491C102.979 115.349 102.694 115.15 102.453 114.894C102.212 114.639 102.023 114.339 101.885 113.995C101.753 113.651 101.686 113.275 101.686 112.867C101.686 112.455 101.753 112.076 101.885 111.732C102.018 111.388 102.205 111.089 102.445 110.833C102.686 110.578 102.971 110.381 103.3 110.243C103.63 110.101 103.988 110.03 104.377 110.03C104.755 110.03 105.094 110.096 105.394 110.229C105.698 110.361 105.954 110.533 106.16 110.745C106.372 110.956 106.522 111.182 106.61 111.423L105.961 111.74C105.834 111.42 105.635 111.167 105.364 110.98C105.094 110.794 104.765 110.7 104.377 110.7C103.993 110.7 103.652 110.791 103.352 110.973C103.057 111.155 102.826 111.408 102.659 111.732C102.492 112.057 102.409 112.435 102.409 112.867C102.409 113.295 102.492 113.671 102.659 113.995C102.831 114.319 103.065 114.573 103.359 114.754C103.659 114.936 104.001 115.027 104.384 115.027C104.718 115.027 105.02 114.956 105.291 114.813C105.561 114.671 105.775 114.474 105.932 114.224C106.089 113.973 106.168 113.683 106.168 113.354V113.015L106.499 113.324H104.377V112.698H106.897V113.184C106.897 113.568 106.831 113.914 106.698 114.224C106.566 114.533 106.384 114.799 106.153 115.02C105.922 115.236 105.654 115.403 105.35 115.521C105.045 115.639 104.723 115.698 104.384 115.698ZM107.873 115.609V110.118H110.18C110.51 110.118 110.792 110.177 111.028 110.295C111.269 110.413 111.453 110.58 111.581 110.796C111.713 111.008 111.78 111.261 111.78 111.555C111.78 111.826 111.709 112.071 111.566 112.292C111.428 112.509 111.225 112.678 110.954 112.801L110.947 112.528C111.183 112.617 111.377 112.735 111.529 112.882C111.686 113.025 111.804 113.192 111.883 113.383C111.962 113.57 112.001 113.769 112.001 113.98C112.001 114.487 111.839 114.885 111.514 115.174C111.19 115.464 110.748 115.609 110.188 115.609H107.873ZM108.596 114.946H110.217C110.537 114.946 110.792 114.86 110.984 114.688C111.175 114.516 111.271 114.283 111.271 113.988C111.271 113.693 111.175 113.46 110.984 113.288C110.792 113.111 110.537 113.022 110.217 113.022H108.596V114.946ZM108.596 112.374H110.166C110.431 112.374 110.645 112.297 110.807 112.145C110.969 111.988 111.05 111.789 111.05 111.548C111.05 111.297 110.969 111.106 110.807 110.973C110.645 110.84 110.431 110.774 110.166 110.774H108.596V112.374Z" fill="#64748B"/>
<path d="M291.527 107.799C290.643 107.799 289.88 107.636 289.237 107.309C288.605 106.983 288.121 106.546 287.784 105.998C287.447 105.451 287.279 104.856 287.279 104.214C287.279 103.445 287.479 102.803 287.879 102.287C288.29 101.771 288.89 101.381 289.68 101.118L289.522 101.718C288.963 101.549 288.516 101.202 288.179 100.676C287.853 100.149 287.689 99.5646 287.689 98.9223C287.689 98.2905 287.853 97.7272 288.179 97.2323C288.505 96.7374 288.958 96.353 289.537 96.0792C290.116 95.7949 290.78 95.6528 291.527 95.6528C292.275 95.6528 292.933 95.7949 293.502 96.0792C294.081 96.353 294.534 96.7374 294.86 97.2323C295.197 97.7272 295.366 98.2905 295.366 98.9223C295.366 99.5646 295.202 100.149 294.876 100.676C294.55 101.202 294.102 101.555 293.533 101.734L293.391 101.102C294.181 101.397 294.781 101.802 295.192 102.318C295.603 102.824 295.808 103.461 295.808 104.229C295.808 104.872 295.634 105.467 295.287 106.014C294.95 106.551 294.46 106.983 293.818 107.309C293.175 107.636 292.412 107.799 291.527 107.799ZM291.527 105.746C291.896 105.746 292.217 105.677 292.491 105.54C292.765 105.403 292.975 105.214 293.123 104.972C293.281 104.729 293.36 104.45 293.36 104.135C293.36 103.808 293.281 103.529 293.123 103.297C292.975 103.055 292.765 102.871 292.491 102.745C292.217 102.608 291.896 102.539 291.527 102.539C291.169 102.539 290.854 102.608 290.58 102.745C290.317 102.871 290.106 103.055 289.948 103.297C289.801 103.529 289.727 103.808 289.727 104.135C289.727 104.45 289.801 104.729 289.948 104.972C290.106 105.214 290.317 105.403 290.58 105.54C290.854 105.677 291.169 105.746 291.527 105.746ZM291.527 100.486C291.812 100.486 292.054 100.423 292.254 100.296C292.465 100.17 292.628 100.002 292.744 99.791C292.86 99.5804 292.917 99.3487 292.917 99.096C292.917 98.8328 292.86 98.5959 292.744 98.3853C292.628 98.1747 292.465 98.0115 292.254 97.8956C292.054 97.7693 291.812 97.7061 291.527 97.7061C291.254 97.7061 291.012 97.7693 290.801 97.8956C290.59 98.0115 290.427 98.1747 290.311 98.3853C290.195 98.5959 290.138 98.8328 290.138 99.096C290.138 99.3487 290.195 99.5804 290.311 99.791C290.427 100.002 290.59 100.17 290.801 100.296C291.012 100.423 291.254 100.486 291.527 100.486ZM302.249 107.609V105.082H297.037V103.029L302.091 95.8423H304.697V103.029H306.514V105.082H304.697V107.609H302.249ZM298.822 103.913L298.364 103.029H302.249V97.7377L302.865 97.9272L298.822 103.913ZM309.485 107.609L318.993 95.8423H321.426L311.917 107.609H309.485ZM311.364 101.813C310.775 101.813 310.243 101.676 309.769 101.402C309.306 101.118 308.937 100.744 308.664 100.281C308.39 99.8173 308.253 99.3014 308.253 98.7328C308.253 98.1641 308.39 97.6482 308.664 97.1849C308.937 96.711 309.306 96.3372 309.769 96.0634C310.243 95.7897 310.775 95.6528 311.364 95.6528C311.954 95.6528 312.481 95.7897 312.944 96.0634C313.407 96.3372 313.776 96.711 314.049 97.1849C314.323 97.6482 314.46 98.1641 314.46 98.7328C314.46 99.3014 314.323 99.8173 314.049 100.281C313.776 100.744 313.407 101.118 312.944 101.402C312.481 101.676 311.954 101.813 311.364 101.813ZM311.364 100.075C311.649 100.075 311.886 100.012 312.075 99.8858C312.265 99.7489 312.407 99.5804 312.502 99.3803C312.596 99.1697 312.644 98.9539 312.644 98.7328C312.644 98.5011 312.596 98.2852 312.502 98.0852C312.407 97.8851 312.265 97.7219 312.075 97.5955C311.886 97.4586 311.649 97.3902 311.364 97.3902C311.08 97.3902 310.843 97.4586 310.654 97.5955C310.464 97.7219 310.317 97.8851 310.211 98.0852C310.117 98.2852 310.069 98.5011 310.069 98.7328C310.069 98.9539 310.117 99.1697 310.211 99.3803C310.317 99.5804 310.464 99.7489 310.654 99.8858C310.843 100.012 311.08 100.075 311.364 100.075ZM319.53 107.799C318.941 107.799 318.409 107.662 317.935 107.388C317.472 107.104 317.103 106.73 316.829 106.267C316.556 105.804 316.419 105.288 316.419 104.719C316.419 104.15 316.556 103.634 316.829 103.171C317.103 102.697 317.472 102.323 317.935 102.05C318.409 101.776 318.941 101.639 319.53 101.639C320.12 101.639 320.646 101.776 321.11 102.05C321.573 102.323 321.942 102.697 322.215 103.171C322.489 103.634 322.626 104.15 322.626 104.719C322.626 105.288 322.489 105.804 322.215 106.267C321.942 106.73 321.573 107.104 321.11 107.388C320.646 107.662 320.12 107.799 319.53 107.799ZM319.53 106.061C319.815 106.061 320.051 105.998 320.241 105.872C320.431 105.735 320.573 105.567 320.667 105.367C320.762 105.156 320.81 104.94 320.81 104.719C320.81 104.487 320.762 104.271 320.667 104.071C320.573 103.871 320.431 103.708 320.241 103.582C320.051 103.445 319.815 103.376 319.53 103.376C319.256 103.376 319.02 103.445 318.819 103.582C318.63 103.708 318.483 103.871 318.377 104.071C318.282 104.271 318.235 104.487 318.235 104.719C318.235 104.94 318.282 105.156 318.377 105.367C318.483 105.567 318.63 105.735 318.819 105.872C319.02 105.998 319.256 106.061 319.53 106.061Z" fill="#0F172A"/>
<path d="M332.105 99.1094L336.105 103.109L340.105 99.1094" stroke="black" stroke-width="1.33333" stroke-linecap="round" stroke-linejoin="round"/>
<path d="M294.129 117.609L296.252 113.345H293.901V112.903H296.776V113.345L294.659 117.609H294.129ZM297.976 117.609L299.612 115.468L299.707 115.411C299.644 115.512 299.57 115.592 299.486 115.651C299.402 115.71 299.309 115.752 299.208 115.777C299.107 115.802 298.995 115.815 298.873 115.815C298.599 115.815 298.353 115.752 298.134 115.626C297.915 115.495 297.74 115.318 297.61 115.095C297.483 114.867 297.42 114.608 297.42 114.318C297.42 114.031 297.485 113.777 297.616 113.553C297.751 113.33 297.932 113.153 298.159 113.023C298.391 112.892 298.65 112.827 298.936 112.827C299.231 112.827 299.492 112.894 299.72 113.029C299.947 113.159 300.126 113.343 300.257 113.579C300.387 113.81 300.453 114.078 300.453 114.381C300.453 114.549 300.432 114.716 300.39 114.88C300.352 115.044 300.293 115.206 300.213 115.367C300.133 115.527 300.032 115.687 299.909 115.847L298.583 117.609H297.976ZM298.936 115.36C299.134 115.36 299.309 115.316 299.461 115.228C299.612 115.135 299.73 115.011 299.815 114.855C299.903 114.695 299.947 114.516 299.947 114.318C299.947 114.116 299.903 113.937 299.815 113.781C299.726 113.621 299.606 113.496 299.455 113.408C299.303 113.315 299.13 113.269 298.936 113.269C298.743 113.269 298.57 113.315 298.418 113.408C298.267 113.496 298.147 113.621 298.058 113.781C297.97 113.937 297.926 114.116 297.926 114.318C297.926 114.516 297.968 114.695 298.052 114.855C298.14 115.011 298.26 115.135 298.412 115.228C298.568 115.316 298.743 115.36 298.936 115.36ZM301.746 117.609L303.382 115.468L303.477 115.411C303.414 115.512 303.34 115.592 303.256 115.651C303.172 115.71 303.079 115.752 302.978 115.777C302.877 115.802 302.765 115.815 302.643 115.815C302.369 115.815 302.123 115.752 301.904 115.626C301.685 115.495 301.51 115.318 301.379 115.095C301.253 114.867 301.19 114.608 301.19 114.318C301.19 114.031 301.255 113.777 301.386 113.553C301.521 113.33 301.702 113.153 301.929 113.023C302.161 112.892 302.42 112.827 302.706 112.827C303.001 112.827 303.262 112.894 303.49 113.029C303.717 113.159 303.896 113.343 304.027 113.579C304.157 113.81 304.222 114.078 304.222 114.381C304.222 114.549 304.201 114.716 304.159 114.88C304.121 115.044 304.062 115.206 303.982 115.367C303.902 115.527 303.801 115.687 303.679 115.847L302.352 117.609H301.746ZM302.706 115.36C302.904 115.36 303.079 115.316 303.231 115.228C303.382 115.135 303.5 115.011 303.584 114.855C303.673 114.695 303.717 114.516 303.717 114.318C303.717 114.116 303.673 113.937 303.584 113.781C303.496 113.621 303.376 113.496 303.224 113.408C303.073 113.315 302.9 113.269 302.706 113.269C302.512 113.269 302.34 113.315 302.188 113.408C302.036 113.496 301.916 113.621 301.828 113.781C301.74 113.937 301.695 114.116 301.695 114.318C301.695 114.516 301.737 114.695 301.822 114.855C301.91 115.011 302.03 115.135 302.182 115.228C302.338 115.316 302.512 115.36 302.706 115.36ZM306.457 117.685C306.213 117.685 305.987 117.643 305.781 117.559C305.575 117.475 305.393 117.355 305.238 117.199C305.086 117.043 304.97 116.858 304.89 116.643L305.294 116.453C305.391 116.697 305.543 116.891 305.749 117.034C305.956 117.173 306.192 117.243 306.457 117.243C306.668 117.243 306.855 117.203 307.019 117.123C307.184 117.039 307.312 116.919 307.405 116.763C307.497 116.607 307.544 116.417 307.544 116.194C307.544 115.971 307.495 115.781 307.398 115.626C307.306 115.47 307.177 115.352 307.013 115.272C306.849 115.192 306.661 115.152 306.451 115.152C306.396 115.152 306.335 115.154 306.267 115.158C306.204 115.162 306.152 115.169 306.11 115.177L306.008 114.956L307.278 113.345H305.111V112.903H307.847V113.345L306.659 114.842L306.596 114.76C306.878 114.768 307.129 114.836 307.348 114.962C307.567 115.084 307.737 115.251 307.86 115.461C307.986 115.672 308.049 115.916 308.049 116.194C308.049 116.472 307.982 116.725 307.847 116.952C307.712 117.176 307.525 117.355 307.285 117.489C307.045 117.62 306.769 117.685 306.457 117.685ZM308.949 117.609L311.071 113.345H308.721V112.903H311.596V113.345L309.479 117.609H308.949ZM312.278 117.609V116.914H312.783V117.609H312.278ZM315.343 117.685C315.098 117.685 314.871 117.643 314.66 117.559C314.454 117.475 314.273 117.355 314.117 117.199C313.961 117.043 313.843 116.858 313.763 116.643L314.149 116.453C314.245 116.697 314.403 116.891 314.622 117.034C314.846 117.173 315.086 117.243 315.343 117.243C315.549 117.243 315.732 117.195 315.892 117.098C316.057 117.001 316.185 116.87 316.278 116.706C316.37 116.537 316.417 116.35 316.417 116.144C316.417 115.929 316.368 115.739 316.271 115.575C316.179 115.411 316.052 115.282 315.892 115.19C315.732 115.093 315.551 115.044 315.349 115.044C315.143 115.044 314.951 115.093 314.774 115.19C314.601 115.282 314.475 115.396 314.395 115.531L313.997 115.455L314.351 112.903H316.733V113.345H314.534L314.73 113.174L314.446 115.183L314.25 115.095C314.397 114.914 314.57 114.785 314.768 114.709C314.966 114.629 315.168 114.589 315.374 114.589C315.678 114.589 315.945 114.661 316.177 114.804C316.408 114.943 316.589 115.131 316.72 115.367C316.855 115.598 316.922 115.857 316.922 116.144C316.922 116.434 316.853 116.697 316.714 116.933C316.579 117.165 316.391 117.348 316.151 117.483C315.916 117.618 315.646 117.685 315.343 117.685ZM317.827 117.609L319.95 113.345H317.6V112.903H320.474V113.345L318.358 117.609H317.827ZM322.388 117.609V112.903H322.83L324.599 115.468H324.353L326.115 112.903H326.558V117.609H326.052V113.585L326.216 113.648L324.485 116.156H324.46L322.735 113.648L322.893 113.585V117.609H322.388ZM327.669 117.609V112.903H329.647C329.912 112.903 330.142 112.953 330.335 113.054C330.533 113.151 330.685 113.288 330.79 113.465C330.9 113.642 330.954 113.848 330.954 114.084C330.954 114.328 330.893 114.545 330.771 114.735C330.653 114.92 330.483 115.061 330.259 115.158L330.253 115.006C330.438 115.074 330.596 115.169 330.727 115.291C330.862 115.413 330.965 115.556 331.037 115.72C331.108 115.88 331.144 116.053 331.144 116.238C331.144 116.66 331.009 116.994 330.74 117.243C330.474 117.487 330.112 117.609 329.653 117.609H327.669ZM328.175 117.136H329.653C329.952 117.136 330.19 117.058 330.367 116.902C330.548 116.742 330.639 116.523 330.639 116.245C330.639 115.971 330.548 115.754 330.367 115.594C330.19 115.43 329.952 115.348 329.653 115.348H328.175V117.136ZM328.175 114.893H329.609C329.861 114.893 330.064 114.819 330.215 114.672C330.371 114.524 330.449 114.335 330.449 114.103C330.449 113.867 330.371 113.688 330.215 113.566C330.064 113.44 329.861 113.376 329.609 113.376H328.175V114.893ZM333.401 117.609V114.697H332.725V114.223H333.401V113.92C333.401 113.684 333.454 113.486 333.559 113.326C333.664 113.162 333.803 113.037 333.976 112.953C334.149 112.869 334.334 112.827 334.532 112.827C334.574 112.827 334.623 112.831 334.677 112.839C334.732 112.844 334.776 112.85 334.81 112.858V113.288C334.781 113.28 334.741 113.275 334.69 113.275C334.64 113.271 334.604 113.269 334.583 113.269C334.38 113.269 334.212 113.317 334.077 113.414C333.942 113.511 333.875 113.68 333.875 113.92V114.223H334.703V114.697H333.875V117.609H333.401ZM335.472 117.609V114.223H335.946V114.779L335.883 114.697C335.963 114.537 336.083 114.41 336.243 114.318C336.407 114.225 336.605 114.179 336.837 114.179H337.052V114.653H336.755C336.511 114.653 336.315 114.728 336.167 114.88C336.02 115.032 335.946 115.246 335.946 115.524V117.609H335.472ZM339.149 117.685C338.833 117.685 338.546 117.609 338.289 117.458C338.037 117.302 337.837 117.089 337.689 116.82C337.542 116.55 337.468 116.245 337.468 115.904C337.468 115.562 337.54 115.261 337.683 115C337.826 114.735 338.02 114.526 338.264 114.375C338.513 114.223 338.791 114.147 339.098 114.147C339.342 114.147 339.559 114.194 339.749 114.286C339.943 114.375 340.107 114.497 340.242 114.653C340.376 114.804 340.48 114.977 340.551 115.171C340.623 115.36 340.659 115.556 340.659 115.758C340.659 115.8 340.656 115.849 340.652 115.904C340.648 115.954 340.642 116.007 340.633 116.061H337.771V115.619H340.362L340.134 115.809C340.172 115.577 340.145 115.371 340.052 115.19C339.964 115.004 339.835 114.859 339.667 114.754C339.498 114.644 339.309 114.589 339.098 114.589C338.887 114.589 338.692 114.644 338.511 114.754C338.334 114.863 338.195 115.017 338.094 115.215C337.992 115.409 337.952 115.64 337.973 115.91C337.952 116.179 337.995 116.415 338.1 116.617C338.209 116.815 338.357 116.969 338.542 117.079C338.732 117.188 338.934 117.243 339.149 117.243C339.397 117.243 339.606 117.184 339.774 117.066C339.943 116.948 340.079 116.801 340.185 116.624L340.589 116.839C340.522 116.99 340.419 117.131 340.28 117.262C340.141 117.388 339.974 117.491 339.78 117.571C339.591 117.647 339.38 117.685 339.149 117.685ZM343.036 117.685C342.72 117.685 342.433 117.609 342.176 117.458C341.924 117.302 341.724 117.089 341.576 116.82C341.429 116.55 341.355 116.245 341.355 115.904C341.355 115.562 341.427 115.261 341.57 115C341.713 114.735 341.907 114.526 342.151 114.375C342.4 114.223 342.678 114.147 342.985 114.147C343.229 114.147 343.446 114.194 343.636 114.286C343.83 114.375 343.994 114.497 344.129 114.653C344.263 114.804 344.367 114.977 344.438 115.171C344.51 115.36 344.546 115.556 344.546 115.758C344.546 115.8 344.543 115.849 344.539 115.904C344.535 115.954 344.529 116.007 344.52 116.061H341.658V115.619H344.249L344.021 115.809C344.059 115.577 344.032 115.371 343.939 115.19C343.851 115.004 343.722 114.859 343.554 114.754C343.385 114.644 343.196 114.589 342.985 114.589C342.774 114.589 342.579 114.644 342.397 114.754C342.221 114.863 342.082 115.017 341.981 115.215C341.879 115.409 341.839 115.64 341.86 115.91C341.839 116.179 341.882 116.415 341.987 116.617C342.096 116.815 342.244 116.969 342.429 117.079C342.619 117.188 342.821 117.243 343.036 117.243C343.284 117.243 343.493 117.184 343.661 117.066C343.83 116.948 343.966 116.801 344.072 116.624L344.476 116.839C344.409 116.99 344.305 117.131 344.166 117.262C344.028 117.388 343.861 117.491 343.667 117.571C343.478 117.647 343.267 117.685 343.036 117.685Z" fill="#64748B"/>
<g clip-path="url(#clip2_4206_7794)">
<rect x="14.2188" y="128.031" width="330.676" height="6.31788" rx="3.15894" fill="#F1F5F9"/>
<rect x="14.2188" y="128.031" width="92" height="6.31788" fill="#22C55E"/>
<rect x="106.219" y="128.031" width="64" height="6.31788" fill="#F43F5E"/>
</g>
</g>
<defs>
<filter id="filter0_d_4206_7794" x="0.00170732" y="77.9188" width="359.106" height="71.1724" filterUnits="userSpaceOnUse" color-interpolation-filters="sRGB">
<feFlood flood-opacity="0" result="BackgroundImageFix"/>
<feColorMatrix in="SourceAlpha" type="matrix" values="0 0 0 0 0 0 0 0 0 0 0 0 0 0 0 0 0 0 127 0" result="hardAlpha"/>
<feOffset dy="0.52649"/>
<feGaussianBlur stdDeviation="0.52649"/>
<feComposite in2="hardAlpha" operator="out"/>
<feColorMatrix type="matrix" values="0 0 0 0 0 0 0 0 0 0 0 0 0 0 0 0 0 0 0.05 0"/>
<feBlend mode="normal" in2="BackgroundImageFix" result="effect1_dropShadow_4206_7794"/>
<feBlend mode="normal" in="SourceGraphic" in2="effect1_dropShadow_4206_7794" result="shape"/>
</filter>
<clipPath id="clip0_4206_7794">
<rect width="14.409" height="14.409" fill="white" transform="translate(124.43 29.7188)"/>
</clipPath>
<clipPath id="clip1_4206_7794">
<rect width="14.409" height="14.409" fill="white" transform="translate(305.434 29.7188)"/>
</clipPath>
<clipPath id="clip2_4206_7794">
<rect x="14.2188" y="128.031" width="330.676" height="6.31788" rx="3.15894" fill="white"/>
</clipPath>
</defs>
</svg>
