<svg width="610" height="554" viewBox="0 0 610 554" fill="none" xmlns="http://www.w3.org/2000/svg">
<rect width="610" height="554" rx="24" fill="#F7F7F7"/>
<rect x="0.5" y="0.5" width="609" height="553" rx="23.5" stroke="black" stroke-opacity="0.1"/>
<rect x="34" y="48" width="543" height="457" rx="16" fill="white"/>
<rect x="75" y="81" width="72" height="72" rx="36" fill="#F0F0F0"/>
<rect x="75.5" y="81.5" width="71" height="71" rx="35.5" stroke="black" stroke-opacity="0.1"/>
<g clip-path="url(#clip0_4194_4958)">
<path fill-rule="evenodd" clip-rule="evenodd" d="M104.715 96.5156C102.458 96.5156 100.294 97.412 98.6988 99.0075L91 106.706V110.23C91 112.72 92.0694 114.96 93.774 116.516C92.0694 118.071 91 120.311 91 122.801V126.325L98.6988 134.024C100.294 135.619 102.458 136.516 104.715 136.516C107.204 136.516 109.444 135.446 111 133.742C112.556 135.446 114.796 136.516 117.285 136.516C119.542 136.516 121.706 135.619 123.301 134.024L131 126.325V122.801C131 120.311 129.931 118.071 128.226 116.516C129.931 114.96 131 112.72 131 110.23V106.706L123.301 99.0075C121.706 97.412 119.542 96.5156 117.285 96.5156C114.796 96.5156 112.556 97.5851 111 99.2896C109.444 97.5851 107.204 96.5156 104.715 96.5156ZM116.759 116.516C116.663 116.428 116.569 116.338 116.477 116.246L111 110.769L105.523 116.246C105.431 116.338 105.337 116.428 105.241 116.516C105.337 116.603 105.431 116.693 105.523 116.785L111 122.262L116.477 116.785C116.569 116.693 116.663 116.603 116.759 116.516ZM113.222 126.325V128.008C113.222 130.252 115.041 132.071 117.285 132.071C118.363 132.071 119.397 131.643 120.159 130.881L126.556 124.484V122.801C126.556 120.557 124.736 118.738 122.492 118.738C121.415 118.738 120.381 119.166 119.619 119.928L113.222 126.325ZM108.778 126.325L102.381 119.928C101.619 119.166 100.585 118.738 99.5076 118.738C97.2636 118.738 95.4444 120.557 95.4444 122.801V124.484L101.842 130.881C102.604 131.643 103.637 132.071 104.715 132.071C106.959 132.071 108.778 130.252 108.778 128.008V126.325ZM108.778 105.023V106.706L102.381 113.103C101.619 113.865 100.585 114.293 99.5076 114.293C97.2636 114.293 95.4444 112.474 95.4444 110.23V108.547L101.842 102.15C102.604 101.388 103.637 100.96 104.715 100.96C106.959 100.96 108.778 102.779 108.778 105.023ZM119.619 113.103L113.222 106.706V105.023C113.222 102.779 115.041 100.96 117.285 100.96C118.363 100.96 119.397 101.388 120.159 102.15L126.556 108.547V110.23C126.556 112.474 124.736 114.293 122.492 114.293C121.415 114.293 120.381 113.865 119.619 113.103Z" fill="#FF630B"/>
</g>
<path d="M172.203 111.355H166.782L165.85 114H163.633L168.272 101.035H170.731L175.369 114H173.134L172.203 111.355ZM171.606 109.622L169.501 103.605L167.378 109.622H171.606ZM181.112 114.168C180.305 114.168 179.578 114.025 178.932 113.739C178.299 113.441 177.796 113.044 177.423 112.547C177.051 112.038 176.852 111.473 176.827 110.852H179.026C179.063 111.286 179.268 111.653 179.64 111.951C180.025 112.236 180.503 112.379 181.075 112.379C181.671 112.379 182.13 112.268 182.453 112.044C182.788 111.808 182.956 111.51 182.956 111.15C182.956 110.765 182.77 110.479 182.397 110.293C182.037 110.107 181.46 109.902 180.665 109.678C179.895 109.467 179.268 109.262 178.783 109.063C178.299 108.865 177.877 108.56 177.517 108.151C177.169 107.741 176.995 107.201 176.995 106.53C176.995 105.984 177.156 105.487 177.479 105.04C177.802 104.58 178.262 104.22 178.858 103.959C179.466 103.698 180.162 103.568 180.944 103.568C182.112 103.568 183.049 103.866 183.757 104.462C184.477 105.046 184.862 105.847 184.912 106.865H182.788C182.751 106.406 182.565 106.039 182.23 105.766C181.894 105.493 181.441 105.356 180.87 105.356C180.311 105.356 179.882 105.462 179.584 105.673C179.286 105.884 179.137 106.164 179.137 106.511C179.137 106.785 179.237 107.014 179.435 107.201C179.634 107.387 179.876 107.536 180.162 107.648C180.448 107.747 180.87 107.877 181.429 108.039C182.174 108.238 182.782 108.442 183.254 108.654C183.739 108.852 184.155 109.15 184.502 109.548C184.85 109.945 185.03 110.473 185.043 111.131C185.043 111.715 184.881 112.236 184.558 112.696C184.235 113.156 183.776 113.516 183.18 113.776C182.596 114.037 181.907 114.168 181.112 114.168ZM186.629 108.859C186.629 107.803 186.84 106.878 187.263 106.083C187.697 105.276 188.293 104.655 189.051 104.22C189.809 103.785 190.678 103.568 191.659 103.568C192.901 103.568 193.926 103.866 194.733 104.462C195.552 105.046 196.105 105.884 196.391 106.977H194.099C193.913 106.468 193.615 106.07 193.205 105.785C192.795 105.499 192.28 105.356 191.659 105.356C190.79 105.356 190.094 105.667 189.573 106.288C189.063 106.896 188.809 107.753 188.809 108.859C188.809 109.964 189.063 110.827 189.573 111.448C190.094 112.069 190.79 112.379 191.659 112.379C192.889 112.379 193.702 111.839 194.099 110.759H196.391C196.093 111.802 195.534 112.634 194.714 113.255C193.894 113.863 192.876 114.168 191.659 114.168C190.678 114.168 189.809 113.95 189.051 113.516C188.293 113.069 187.697 112.448 187.263 111.653C186.84 110.846 186.629 109.914 186.629 108.859ZM197.799 108.821C197.799 107.79 198.01 106.878 198.433 106.083C198.867 105.288 199.451 104.673 200.184 104.239C200.929 103.792 201.748 103.568 202.643 103.568C203.45 103.568 204.152 103.729 204.748 104.052C205.356 104.363 205.841 104.754 206.201 105.226V103.736H208.343V114H206.201V112.472C205.841 112.957 205.35 113.36 204.729 113.683C204.108 114.006 203.4 114.168 202.605 114.168C201.724 114.168 200.916 113.944 200.184 113.497C199.451 113.038 198.867 112.404 198.433 111.597C198.01 110.777 197.799 109.852 197.799 108.821ZM206.201 108.859C206.201 108.151 206.052 107.536 205.754 107.014C205.468 106.493 205.089 106.095 204.617 105.822C204.145 105.549 203.636 105.412 203.09 105.412C202.543 105.412 202.034 105.549 201.562 105.822C201.09 106.083 200.705 106.474 200.407 106.996C200.122 107.505 199.979 108.113 199.979 108.821C199.979 109.529 200.122 110.15 200.407 110.684C200.705 111.218 201.09 111.628 201.562 111.914C202.047 112.187 202.556 112.323 203.09 112.323C203.636 112.323 204.145 112.187 204.617 111.914C205.089 111.64 205.468 111.243 205.754 110.721C206.052 110.187 206.201 109.566 206.201 108.859ZM213.61 105.468V111.15C213.61 111.535 213.697 111.814 213.871 111.988C214.057 112.15 214.367 112.23 214.802 112.23H216.106V114H214.43C213.473 114 212.741 113.776 212.231 113.329C211.722 112.882 211.468 112.156 211.468 111.15V105.468H210.257V103.736H211.468V101.184H213.61V103.736H216.106V105.468H213.61ZM217.356 108.821C217.356 107.79 217.567 106.878 217.989 106.083C218.424 105.288 219.007 104.673 219.74 104.239C220.485 103.792 221.305 103.568 222.199 103.568C223.006 103.568 223.708 103.729 224.304 104.052C224.913 104.363 225.397 104.754 225.757 105.226V103.736H227.899V114H225.757V112.472C225.397 112.957 224.906 113.36 224.285 113.683C223.664 114.006 222.957 114.168 222.162 114.168C221.28 114.168 220.473 113.944 219.74 113.497C219.007 113.038 218.424 112.404 217.989 111.597C217.567 110.777 217.356 109.852 217.356 108.821ZM225.757 108.859C225.757 108.151 225.608 107.536 225.31 107.014C225.024 106.493 224.646 106.095 224.174 105.822C223.702 105.549 223.192 105.412 222.646 105.412C222.1 105.412 221.59 105.549 221.119 105.822C220.647 106.083 220.262 106.474 219.964 106.996C219.678 107.505 219.535 108.113 219.535 108.821C219.535 109.529 219.678 110.15 219.964 110.684C220.262 111.218 220.647 111.628 221.119 111.914C221.603 112.187 222.112 112.323 222.646 112.323C223.192 112.323 223.702 112.187 224.174 111.914C224.646 111.64 225.024 111.243 225.31 110.721C225.608 110.187 225.757 109.566 225.757 108.859ZM232.812 105.226C233.123 104.704 233.533 104.301 234.042 104.015C234.563 103.717 235.178 103.568 235.886 103.568V105.766H235.346C234.514 105.766 233.88 105.977 233.446 106.4C233.023 106.822 232.812 107.555 232.812 108.598V114H230.689V103.736H232.812V105.226ZM244.801 112.286H249.179V114H242.677V101.053H244.801V112.286ZM259.319 101.053V102.786H255.872V114H253.749V102.786H250.284V101.053H259.319ZM265.698 101.053C267.077 101.053 268.281 101.32 269.312 101.854C270.355 102.376 271.156 103.133 271.715 104.127C272.286 105.108 272.572 106.257 272.572 107.573C272.572 108.89 272.286 110.032 271.715 111.001C271.156 111.969 270.355 112.715 269.312 113.236C268.281 113.745 267.077 114 265.698 114H261.469V101.053H265.698ZM265.698 112.268C267.213 112.268 268.374 111.858 269.182 111.038C269.989 110.218 270.393 109.063 270.393 107.573C270.393 106.07 269.989 104.897 269.182 104.052C268.374 103.208 267.213 102.786 265.698 102.786H263.593V112.268H265.698Z" fill="black"/>
<path d="M166.49 131.42C166.903 131.42 167.277 131.51 167.61 131.69C167.943 131.863 168.203 132.127 168.39 132.48C168.583 132.833 168.68 133.263 168.68 133.77V137H167.78V133.9C167.78 133.353 167.643 132.937 167.37 132.65C167.097 132.357 166.723 132.21 166.25 132.21C165.77 132.21 165.387 132.36 165.1 132.66C164.82 132.96 164.68 133.397 164.68 133.97V137H163.77V129.6H164.68V132.3C164.86 132.02 165.107 131.803 165.42 131.65C165.74 131.497 166.097 131.42 166.49 131.42ZM175.166 134.05C175.166 134.223 175.156 134.407 175.136 134.6H170.756C170.79 135.14 170.973 135.563 171.306 135.87C171.646 136.17 172.056 136.32 172.536 136.32C172.93 136.32 173.256 136.23 173.516 136.05C173.783 135.863 173.97 135.617 174.076 135.31H175.056C174.91 135.837 174.616 136.267 174.176 136.6C173.736 136.927 173.19 137.09 172.536 137.09C172.016 137.09 171.55 136.973 171.136 136.74C170.73 136.507 170.41 136.177 170.176 135.75C169.943 135.317 169.826 134.817 169.826 134.25C169.826 133.683 169.94 133.187 170.166 132.76C170.393 132.333 170.71 132.007 171.116 131.78C171.53 131.547 172.003 131.43 172.536 131.43C173.056 131.43 173.516 131.543 173.916 131.77C174.316 131.997 174.623 132.31 174.836 132.71C175.056 133.103 175.166 133.55 175.166 134.05ZM174.226 133.86C174.226 133.513 174.15 133.217 173.996 132.97C173.843 132.717 173.633 132.527 173.366 132.4C173.106 132.267 172.816 132.2 172.496 132.2C172.036 132.2 171.643 132.347 171.316 132.64C170.996 132.933 170.813 133.34 170.766 133.86H174.226ZM177.278 129.6V137H176.368V129.6H177.278ZM179.739 129.6V137H178.829V129.6H179.739ZM183.68 137.09C183.166 137.09 182.7 136.973 182.28 136.74C181.866 136.507 181.54 136.177 181.3 135.75C181.066 135.317 180.95 134.817 180.95 134.25C180.95 133.69 181.07 133.197 181.31 132.77C181.556 132.337 181.89 132.007 182.31 131.78C182.73 131.547 183.2 131.43 183.72 131.43C184.24 131.43 184.71 131.547 185.13 131.78C185.55 132.007 185.88 132.333 186.12 132.76C186.366 133.187 186.49 133.683 186.49 134.25C186.49 134.817 186.363 135.317 186.11 135.75C185.863 136.177 185.526 136.507 185.1 136.74C184.673 136.973 184.2 137.09 183.68 137.09ZM183.68 136.29C184.006 136.29 184.313 136.213 184.6 136.06C184.886 135.907 185.116 135.677 185.29 135.37C185.47 135.063 185.56 134.69 185.56 134.25C185.56 133.81 185.473 133.437 185.3 133.13C185.126 132.823 184.9 132.597 184.62 132.45C184.34 132.297 184.036 132.22 183.71 132.22C183.376 132.22 183.07 132.297 182.79 132.45C182.516 132.597 182.296 132.823 182.13 133.13C181.963 133.437 181.88 133.81 181.88 134.25C181.88 134.697 181.96 135.073 182.12 135.38C182.286 135.687 182.506 135.917 182.78 136.07C183.053 136.217 183.353 136.29 183.68 136.29ZM192.686 130.59C193.426 130.59 194.069 130.73 194.616 131.01C195.163 131.29 195.583 131.683 195.876 132.19C196.169 132.69 196.316 133.27 196.316 133.93C196.316 134.457 196.229 134.963 196.056 135.45C195.883 135.93 195.629 136.32 195.296 136.62C194.969 136.92 194.586 137.07 194.146 137.07C193.813 137.07 193.556 136.987 193.376 136.82C193.196 136.653 193.093 136.427 193.066 136.14C192.859 136.427 192.596 136.653 192.276 136.82C191.963 136.987 191.629 137.07 191.276 137.07C190.769 137.07 190.369 136.917 190.076 136.61C189.789 136.297 189.646 135.877 189.646 135.35C189.646 134.85 189.749 134.383 189.956 133.95C190.169 133.517 190.463 133.17 190.836 132.91C191.209 132.643 191.633 132.51 192.106 132.51C192.739 132.51 193.166 132.75 193.386 133.23L193.496 132.61H194.286L193.786 135.5C193.766 135.627 193.756 135.743 193.756 135.85C193.756 136.25 193.933 136.45 194.286 136.45C194.553 136.45 194.783 136.323 194.976 136.07C195.176 135.817 195.326 135.5 195.426 135.12C195.526 134.733 195.576 134.353 195.576 133.98C195.576 133.107 195.313 132.43 194.786 131.95C194.266 131.47 193.529 131.23 192.576 131.23C191.783 131.23 191.066 131.423 190.426 131.81C189.793 132.19 189.296 132.713 188.936 133.38C188.576 134.047 188.396 134.783 188.396 135.59C188.389 136.47 188.653 137.147 189.186 137.62C189.719 138.1 190.459 138.34 191.406 138.34C192.033 138.34 192.586 138.227 193.066 138L193.186 138.62C192.593 138.867 191.939 138.99 191.226 138.99C190.513 138.99 189.883 138.853 189.336 138.58C188.796 138.313 188.376 137.927 188.076 137.42C187.783 136.92 187.636 136.337 187.636 135.67C187.636 134.73 187.853 133.873 188.286 133.1C188.719 132.32 189.319 131.707 190.086 131.26C190.859 130.813 191.726 130.59 192.686 130.59ZM191.546 136.36C191.846 136.36 192.123 136.273 192.376 136.1C192.629 135.92 192.829 135.68 192.976 135.38C193.123 135.073 193.196 134.74 193.196 134.38C193.196 134.033 193.099 133.753 192.906 133.54C192.719 133.32 192.453 133.21 192.106 133.21C191.786 133.21 191.503 133.307 191.256 133.5C191.016 133.687 190.829 133.937 190.696 134.25C190.563 134.557 190.496 134.877 190.496 135.21C190.496 135.563 190.586 135.843 190.766 136.05C190.946 136.257 191.206 136.36 191.546 136.36ZM197.473 134.24C197.473 133.68 197.586 133.19 197.813 132.77C198.04 132.343 198.35 132.013 198.743 131.78C199.143 131.547 199.586 131.43 200.073 131.43C200.553 131.43 200.97 131.533 201.323 131.74C201.676 131.947 201.94 132.207 202.113 132.52V131.52H203.033V137H202.113V135.98C201.933 136.3 201.663 136.567 201.303 136.78C200.95 136.987 200.536 137.09 200.063 137.09C199.576 137.09 199.136 136.97 198.743 136.73C198.35 136.49 198.04 136.153 197.813 135.72C197.586 135.287 197.473 134.793 197.473 134.24ZM202.113 134.25C202.113 133.837 202.03 133.477 201.863 133.17C201.696 132.863 201.47 132.63 201.183 132.47C200.903 132.303 200.593 132.22 200.253 132.22C199.913 132.22 199.603 132.3 199.323 132.46C199.043 132.62 198.82 132.853 198.653 133.16C198.486 133.467 198.403 133.827 198.403 134.24C198.403 134.66 198.486 135.027 198.653 135.34C198.82 135.647 199.043 135.883 199.323 136.05C199.603 136.21 199.913 136.29 200.253 136.29C200.593 136.29 200.903 136.21 201.183 136.05C201.47 135.883 201.696 135.647 201.863 135.34C202.03 135.027 202.113 134.663 202.113 134.25ZM206.511 137.09C206.091 137.09 205.714 137.02 205.381 136.88C205.047 136.733 204.784 136.533 204.591 136.28C204.397 136.02 204.291 135.723 204.271 135.39H205.211C205.237 135.663 205.364 135.887 205.591 136.06C205.824 136.233 206.127 136.32 206.501 136.32C206.847 136.32 207.121 136.243 207.321 136.09C207.521 135.937 207.621 135.743 207.621 135.51C207.621 135.27 207.514 135.093 207.301 134.98C207.087 134.86 206.757 134.743 206.311 134.63C205.904 134.523 205.571 134.417 205.311 134.31C205.057 134.197 204.837 134.033 204.651 133.82C204.471 133.6 204.381 133.313 204.381 132.96C204.381 132.68 204.464 132.423 204.631 132.19C204.797 131.957 205.034 131.773 205.341 131.64C205.647 131.5 205.997 131.43 206.391 131.43C206.997 131.43 207.487 131.583 207.861 131.89C208.234 132.197 208.434 132.617 208.461 133.15H207.551C207.531 132.863 207.414 132.633 207.201 132.46C206.994 132.287 206.714 132.2 206.361 132.2C206.034 132.2 205.774 132.27 205.581 132.41C205.387 132.55 205.291 132.733 205.291 132.96C205.291 133.14 205.347 133.29 205.461 133.41C205.581 133.523 205.727 133.617 205.901 133.69C206.081 133.757 206.327 133.833 206.641 133.92C207.034 134.027 207.354 134.133 207.601 134.24C207.847 134.34 208.057 134.493 208.231 134.7C208.411 134.907 208.504 135.177 208.511 135.51C208.511 135.81 208.427 136.08 208.261 136.32C208.094 136.56 207.857 136.75 207.551 136.89C207.251 137.023 206.904 137.09 206.511 137.09ZM209.455 134.25C209.455 133.683 209.569 133.19 209.795 132.77C210.022 132.343 210.335 132.013 210.735 131.78C211.142 131.547 211.605 131.43 212.125 131.43C212.799 131.43 213.352 131.593 213.785 131.92C214.225 132.247 214.515 132.7 214.655 133.28H213.675C213.582 132.947 213.399 132.683 213.125 132.49C212.859 132.297 212.525 132.2 212.125 132.2C211.605 132.2 211.185 132.38 210.865 132.74C210.545 133.093 210.385 133.597 210.385 134.25C210.385 134.91 210.545 135.42 210.865 135.78C211.185 136.14 211.605 136.32 212.125 136.32C212.525 136.32 212.859 136.227 213.125 136.04C213.392 135.853 213.575 135.587 213.675 135.24H214.655C214.509 135.8 214.215 136.25 213.775 136.59C213.335 136.923 212.785 137.09 212.125 137.09C211.605 137.09 211.142 136.973 210.735 136.74C210.335 136.507 210.022 136.177 209.795 135.75C209.569 135.323 209.455 134.823 209.455 134.25ZM215.53 134.24C215.53 133.68 215.643 133.19 215.87 132.77C216.096 132.343 216.406 132.013 216.8 131.78C217.2 131.547 217.643 131.43 218.13 131.43C218.61 131.43 219.026 131.533 219.38 131.74C219.733 131.947 219.996 132.207 220.17 132.52V131.52H221.09V137H220.17V135.98C219.99 136.3 219.72 136.567 219.36 136.78C219.006 136.987 218.593 137.09 218.12 137.09C217.633 137.09 217.193 136.97 216.8 136.73C216.406 136.49 216.096 136.153 215.87 135.72C215.643 135.287 215.53 134.793 215.53 134.24ZM220.17 134.25C220.17 133.837 220.086 133.477 219.92 133.17C219.753 132.863 219.526 132.63 219.24 132.47C218.96 132.303 218.65 132.22 218.31 132.22C217.97 132.22 217.66 132.3 217.38 132.46C217.1 132.62 216.876 132.853 216.71 133.16C216.543 133.467 216.46 133.827 216.46 134.24C216.46 134.66 216.543 135.027 216.71 135.34C216.876 135.647 217.1 135.883 217.38 136.05C217.66 136.21 217.97 136.29 218.31 136.29C218.65 136.29 218.96 136.21 219.24 136.05C219.526 135.883 219.753 135.647 219.92 135.34C220.086 135.027 220.17 134.663 220.17 134.25ZM223.737 132.27V135.5C223.737 135.767 223.794 135.957 223.907 136.07C224.021 136.177 224.217 136.23 224.497 136.23H225.167V137H224.347C223.841 137 223.461 136.883 223.207 136.65C222.954 136.417 222.827 136.033 222.827 135.5V132.27H222.117V131.52H222.827V130.14H223.737V131.52H225.167V132.27H223.737ZM225.93 134.24C225.93 133.68 226.043 133.19 226.27 132.77C226.497 132.343 226.807 132.013 227.2 131.78C227.6 131.547 228.043 131.43 228.53 131.43C229.01 131.43 229.427 131.533 229.78 131.74C230.133 131.947 230.397 132.207 230.57 132.52V131.52H231.49V137H230.57V135.98C230.39 136.3 230.12 136.567 229.76 136.78C229.407 136.987 228.993 137.09 228.52 137.09C228.033 137.09 227.593 136.97 227.2 136.73C226.807 136.49 226.497 136.153 226.27 135.72C226.043 135.287 225.93 134.793 225.93 134.24ZM230.57 134.25C230.57 133.837 230.487 133.477 230.32 133.17C230.153 132.863 229.927 132.63 229.64 132.47C229.36 132.303 229.05 132.22 228.71 132.22C228.37 132.22 228.06 132.3 227.78 132.46C227.5 132.62 227.277 132.853 227.11 133.16C226.943 133.467 226.86 133.827 226.86 134.24C226.86 134.66 226.943 135.027 227.11 135.34C227.277 135.647 227.5 135.883 227.78 136.05C228.06 136.21 228.37 136.29 228.71 136.29C229.05 136.29 229.36 136.21 229.64 136.05C229.927 135.883 230.153 135.647 230.32 135.34C230.487 135.027 230.57 134.663 230.57 134.25ZM233.938 132.41C234.098 132.097 234.324 131.853 234.618 131.68C234.918 131.507 235.281 131.42 235.708 131.42V132.36H235.468C234.448 132.36 233.938 132.913 233.938 134.02V137H233.028V131.52H233.938V132.41ZM237.048 137.06C236.875 137.06 236.728 137 236.608 136.88C236.488 136.76 236.428 136.613 236.428 136.44C236.428 136.267 236.488 136.12 236.608 136C236.728 135.88 236.875 135.82 237.048 135.82C237.215 135.82 237.355 135.88 237.468 136C237.588 136.12 237.648 136.267 237.648 136.44C237.648 136.613 237.588 136.76 237.468 136.88C237.355 137 237.215 137.06 237.048 137.06ZM238.518 134.25C238.518 133.683 238.631 133.19 238.858 132.77C239.085 132.343 239.398 132.013 239.798 131.78C240.205 131.547 240.668 131.43 241.188 131.43C241.861 131.43 242.415 131.593 242.848 131.92C243.288 132.247 243.578 132.7 243.718 133.28H242.738C242.645 132.947 242.461 132.683 242.188 132.49C241.921 132.297 241.588 132.2 241.188 132.2C240.668 132.2 240.248 132.38 239.928 132.74C239.608 133.093 239.448 133.597 239.448 134.25C239.448 134.91 239.608 135.42 239.928 135.78C240.248 136.14 240.668 136.32 241.188 136.32C241.588 136.32 241.921 136.227 242.188 136.04C242.455 135.853 242.638 135.587 242.738 135.24H243.718C243.571 135.8 243.278 136.25 242.838 136.59C242.398 136.923 241.848 137.09 241.188 137.09C240.668 137.09 240.205 136.973 239.798 136.74C239.398 136.507 239.085 136.177 238.858 135.75C238.631 135.323 238.518 134.823 238.518 134.25ZM247.322 137.09C246.809 137.09 246.342 136.973 245.922 136.74C245.509 136.507 245.182 136.177 244.942 135.75C244.709 135.317 244.592 134.817 244.592 134.25C244.592 133.69 244.712 133.197 244.952 132.77C245.199 132.337 245.532 132.007 245.952 131.78C246.372 131.547 246.842 131.43 247.362 131.43C247.882 131.43 248.352 131.547 248.772 131.78C249.192 132.007 249.522 132.333 249.762 132.76C250.009 133.187 250.132 133.683 250.132 134.25C250.132 134.817 250.005 135.317 249.752 135.75C249.505 136.177 249.169 136.507 248.742 136.74C248.315 136.973 247.842 137.09 247.322 137.09ZM247.322 136.29C247.649 136.29 247.955 136.213 248.242 136.06C248.529 135.907 248.759 135.677 248.932 135.37C249.112 135.063 249.202 134.69 249.202 134.25C249.202 133.81 249.115 133.437 248.942 133.13C248.769 132.823 248.542 132.597 248.262 132.45C247.982 132.297 247.679 132.22 247.352 132.22C247.019 132.22 246.712 132.297 246.432 132.45C246.159 132.597 245.939 132.823 245.772 133.13C245.605 133.437 245.522 133.81 245.522 134.25C245.522 134.697 245.602 135.073 245.762 135.38C245.929 135.687 246.149 135.917 246.422 136.07C246.695 136.217 246.995 136.29 247.322 136.29ZM257.919 131.42C258.345 131.42 258.725 131.51 259.059 131.69C259.392 131.863 259.655 132.127 259.849 132.48C260.042 132.833 260.139 133.263 260.139 133.77V137H259.239V133.9C259.239 133.353 259.102 132.937 258.829 132.65C258.562 132.357 258.199 132.21 257.739 132.21C257.265 132.21 256.889 132.363 256.609 132.67C256.329 132.97 256.189 133.407 256.189 133.98V137H255.289V133.9C255.289 133.353 255.152 132.937 254.879 132.65C254.612 132.357 254.249 132.21 253.789 132.21C253.315 132.21 252.939 132.363 252.659 132.67C252.379 132.97 252.239 133.407 252.239 133.98V137H251.329V131.52H252.239V132.31C252.419 132.023 252.659 131.803 252.959 131.65C253.265 131.497 253.602 131.42 253.969 131.42C254.429 131.42 254.835 131.523 255.189 131.73C255.542 131.937 255.805 132.24 255.979 132.64C256.132 132.253 256.385 131.953 256.739 131.74C257.092 131.527 257.485 131.42 257.919 131.42Z" fill="black"/>
<path d="M534 118C534.552 118 535 117.552 535 117C535 116.448 534.552 116 534 116C533.448 116 533 116.448 533 117C533 117.552 533.448 118 534 118Z" stroke="black" stroke-width="2" stroke-linecap="round" stroke-linejoin="round"/>
<path d="M541 118C541.552 118 542 117.552 542 117C542 116.448 541.552 116 541 116C540.448 116 540 116.448 540 117C540 117.552 540.448 118 541 118Z" stroke="black" stroke-width="2" stroke-linecap="round" stroke-linejoin="round"/>
<path d="M527 118C527.552 118 528 117.552 528 117C528 116.448 527.552 116 527 116C526.448 116 526 116.448 526 117C526 117.552 526.448 118 527 118Z" stroke="black" stroke-width="2" stroke-linecap="round" stroke-linejoin="round"/>
<mask id="path-12-inside-1_4194_4958" fill="white">
<path d="M75 190C75 181.163 82.1634 174 91 174H530C538.837 174 546 181.163 546 190V438C546 446.837 538.837 454 530 454H91C82.1635 454 75 446.837 75 438V190Z"/>
</mask>
<path d="M75 190C75 181.163 82.1634 174 91 174H530C538.837 174 546 181.163 546 190V438C546 446.837 538.837 454 530 454H91C82.1635 454 75 446.837 75 438V190Z" fill="white"/>
<path d="M91 174V174.667H530V174V173.333H91V174ZM546 190H545.333V438H546H546.667V190H546ZM530 454V453.333H91V454V454.667H530V454ZM75 438H75.6667V190H75H74.3333V438H75ZM91 454V453.333C82.5316 453.333 75.6667 446.468 75.6667 438H75H74.3333C74.3333 447.205 81.7953 454.667 91 454.667V454ZM546 438H545.333C545.333 446.468 538.468 453.333 530 453.333V454V454.667C539.205 454.667 546.667 447.205 546.667 438H546ZM530 174V174.667C538.468 174.667 545.333 181.532 545.333 190H546H546.667C546.667 180.795 539.205 173.333 530 173.333V174ZM91 174V173.333C81.7953 173.333 74.3333 180.795 74.3333 190H75H75.6667C75.6667 181.532 82.5316 174.667 91 174.667V174Z" fill="#E5E7EB" mask="url(#path-12-inside-1_4194_4958)"/>
<path d="M105.956 217.448C104.911 217.448 103.951 217.203 103.076 216.712C102.201 216.221 101.508 215.544 100.996 214.68C100.484 213.805 100.228 212.819 100.228 211.72C100.228 210.632 100.484 209.656 100.996 208.792C101.508 207.917 102.201 207.235 103.076 206.744C103.951 206.253 104.911 206.008 105.956 206.008C107.012 206.008 107.972 206.253 108.836 206.744C109.711 207.235 110.399 207.917 110.9 208.792C111.412 209.656 111.668 210.632 111.668 211.72C111.668 212.819 111.412 213.805 110.9 214.68C110.399 215.544 109.711 216.221 108.836 216.712C107.961 217.203 107.001 217.448 105.956 217.448ZM105.956 215.448C106.628 215.448 107.22 215.299 107.732 215C108.244 214.691 108.644 214.253 108.932 213.688C109.22 213.123 109.364 212.467 109.364 211.72C109.364 210.973 109.22 210.323 108.932 209.768C108.644 209.203 108.244 208.771 107.732 208.472C107.22 208.173 106.628 208.024 105.956 208.024C105.284 208.024 104.687 208.173 104.164 208.472C103.652 208.771 103.252 209.203 102.964 209.768C102.676 210.323 102.532 210.973 102.532 211.72C102.532 212.467 102.676 213.123 102.964 213.688C103.252 214.253 103.652 214.691 104.164 215C104.687 215.299 105.284 215.448 105.956 215.448ZM115.574 209.848C115.862 209.379 116.236 209.011 116.694 208.744C117.164 208.477 117.697 208.344 118.294 208.344V210.696H117.702C116.998 210.696 116.465 210.861 116.102 211.192C115.75 211.523 115.574 212.099 115.574 212.92V217.336H113.334V208.472H115.574V209.848ZM119.227 212.872C119.227 211.976 119.403 211.181 119.755 210.488C120.118 209.795 120.609 209.261 121.227 208.888C121.846 208.515 122.534 208.328 123.291 208.328C123.867 208.328 124.417 208.456 124.939 208.712C125.462 208.957 125.878 209.288 126.187 209.704V205.496H128.459V217.336H126.187V216.024C125.91 216.461 125.521 216.813 125.019 217.08C124.518 217.347 123.937 217.48 123.275 217.48C122.529 217.48 121.846 217.288 121.227 216.904C120.609 216.52 120.118 215.981 119.755 215.288C119.403 214.584 119.227 213.779 119.227 212.872ZM126.203 212.904C126.203 212.36 126.097 211.896 125.883 211.512C125.67 211.117 125.382 210.819 125.019 210.616C124.657 210.403 124.267 210.296 123.851 210.296C123.435 210.296 123.051 210.397 122.699 210.6C122.347 210.803 122.059 211.101 121.835 211.496C121.622 211.88 121.515 212.339 121.515 212.872C121.515 213.405 121.622 213.875 121.835 214.28C122.059 214.675 122.347 214.979 122.699 215.192C123.062 215.405 123.446 215.512 123.851 215.512C124.267 215.512 124.657 215.411 125.019 215.208C125.382 214.995 125.67 214.696 125.883 214.312C126.097 213.917 126.203 213.448 126.203 212.904ZM138.887 212.712C138.887 213.032 138.866 213.32 138.823 213.576H132.343C132.396 214.216 132.62 214.717 133.015 215.08C133.41 215.443 133.895 215.624 134.471 215.624C135.303 215.624 135.895 215.267 136.247 214.552H138.663C138.407 215.405 137.916 216.109 137.191 216.664C136.466 217.208 135.575 217.48 134.519 217.48C133.666 217.48 132.898 217.293 132.215 216.92C131.543 216.536 131.015 215.997 130.631 215.304C130.258 214.611 130.071 213.811 130.071 212.904C130.071 211.987 130.258 211.181 130.631 210.488C131.004 209.795 131.527 209.261 132.199 208.888C132.871 208.515 133.644 208.328 134.519 208.328C135.362 208.328 136.114 208.509 136.775 208.872C137.447 209.235 137.964 209.752 138.327 210.424C138.7 211.085 138.887 211.848 138.887 212.712ZM136.567 212.072C136.556 211.496 136.348 211.037 135.943 210.696C135.538 210.344 135.042 210.168 134.455 210.168C133.9 210.168 133.431 210.339 133.047 210.68C132.674 211.011 132.444 211.475 132.359 212.072H136.567ZM142.762 209.848C143.05 209.379 143.423 209.011 143.882 208.744C144.351 208.477 144.885 208.344 145.482 208.344V210.696H144.89C144.186 210.696 143.653 210.861 143.29 211.192C142.938 211.523 142.762 212.099 142.762 212.92V217.336H140.522V208.472H142.762V209.848ZM154.659 217.448C153.881 217.448 153.177 217.315 152.547 217.048C151.929 216.781 151.438 216.397 151.075 215.896C150.713 215.395 150.526 214.803 150.515 214.12H152.915C152.947 214.579 153.107 214.941 153.395 215.208C153.694 215.475 154.099 215.608 154.611 215.608C155.134 215.608 155.545 215.485 155.843 215.24C156.142 214.984 156.291 214.653 156.291 214.248C156.291 213.917 156.19 213.645 155.987 213.432C155.785 213.219 155.529 213.053 155.219 212.936C154.921 212.808 154.505 212.669 153.971 212.52C153.246 212.307 152.654 212.099 152.195 211.896C151.747 211.683 151.358 211.368 151.027 210.952C150.707 210.525 150.547 209.96 150.547 209.256C150.547 208.595 150.713 208.019 151.043 207.528C151.374 207.037 151.838 206.664 152.435 206.408C153.033 206.141 153.715 206.008 154.483 206.008C155.635 206.008 156.569 206.291 157.283 206.856C158.009 207.411 158.409 208.189 158.483 209.192H156.019C155.998 208.808 155.833 208.493 155.523 208.248C155.225 207.992 154.825 207.864 154.323 207.864C153.886 207.864 153.534 207.976 153.267 208.2C153.011 208.424 152.883 208.749 152.883 209.176C152.883 209.475 152.979 209.725 153.171 209.928C153.374 210.12 153.619 210.28 153.907 210.408C154.206 210.525 154.622 210.664 155.155 210.824C155.881 211.037 156.473 211.251 156.931 211.464C157.39 211.677 157.785 211.997 158.115 212.424C158.446 212.851 158.611 213.411 158.611 214.104C158.611 214.701 158.457 215.256 158.147 215.768C157.838 216.28 157.385 216.691 156.787 217C156.19 217.299 155.481 217.448 154.659 217.448ZM168.921 208.472V217.336H166.665V216.216C166.377 216.6 165.999 216.904 165.529 217.128C165.071 217.341 164.569 217.448 164.025 217.448C163.332 217.448 162.719 217.304 162.185 217.016C161.652 216.717 161.231 216.285 160.921 215.72C160.623 215.144 160.473 214.461 160.473 213.672V208.472H162.713V213.352C162.713 214.056 162.889 214.6 163.241 214.984C163.593 215.357 164.073 215.544 164.681 215.544C165.3 215.544 165.785 215.357 166.137 214.984C166.489 214.6 166.665 214.056 166.665 213.352V208.472H168.921ZM182.139 208.344C183.227 208.344 184.102 208.68 184.763 209.352C185.435 210.013 185.771 210.941 185.771 212.136V217.336H183.531V212.44C183.531 211.747 183.355 211.219 183.003 210.856C182.651 210.483 182.171 210.296 181.563 210.296C180.955 210.296 180.47 210.483 180.107 210.856C179.755 211.219 179.579 211.747 179.579 212.44V217.336H177.339V212.44C177.339 211.747 177.163 211.219 176.811 210.856C176.459 210.483 175.979 210.296 175.371 210.296C174.753 210.296 174.262 210.483 173.899 210.856C173.547 211.219 173.371 211.747 173.371 212.44V217.336H171.131V208.472H173.371V209.544C173.659 209.171 174.027 208.877 174.475 208.664C174.934 208.451 175.435 208.344 175.979 208.344C176.673 208.344 177.291 208.493 177.835 208.792C178.379 209.08 178.801 209.496 179.099 210.04C179.387 209.528 179.803 209.117 180.347 208.808C180.902 208.499 181.499 208.344 182.139 208.344ZM198.905 208.344C199.993 208.344 200.868 208.68 201.529 209.352C202.201 210.013 202.537 210.941 202.537 212.136V217.336H200.297V212.44C200.297 211.747 200.121 211.219 199.769 210.856C199.417 210.483 198.937 210.296 198.329 210.296C197.721 210.296 197.236 210.483 196.873 210.856C196.521 211.219 196.345 211.747 196.345 212.44V217.336H194.105V212.44C194.105 211.747 193.929 211.219 193.577 210.856C193.225 210.483 192.745 210.296 192.137 210.296C191.518 210.296 191.028 210.483 190.665 210.856C190.313 211.219 190.137 211.747 190.137 212.44V217.336H187.897V208.472H190.137V209.544C190.425 209.171 190.793 208.877 191.241 208.664C191.7 208.451 192.201 208.344 192.745 208.344C193.438 208.344 194.057 208.493 194.601 208.792C195.145 209.08 195.566 209.496 195.865 210.04C196.153 209.528 196.569 209.117 197.113 208.808C197.668 208.499 198.265 208.344 198.905 208.344ZM204.087 212.872C204.087 211.976 204.263 211.181 204.615 210.488C204.977 209.795 205.463 209.261 206.071 208.888C206.689 208.515 207.377 208.328 208.135 208.328C208.796 208.328 209.372 208.461 209.863 208.728C210.364 208.995 210.764 209.331 211.063 209.736V208.472H213.319V217.336H211.063V216.04C210.775 216.456 210.375 216.803 209.863 217.08C209.361 217.347 208.78 217.48 208.119 217.48C207.372 217.48 206.689 217.288 206.071 216.904C205.463 216.52 204.977 215.981 204.615 215.288C204.263 214.584 204.087 213.779 204.087 212.872ZM211.063 212.904C211.063 212.36 210.956 211.896 210.743 211.512C210.529 211.117 210.241 210.819 209.879 210.616C209.516 210.403 209.127 210.296 208.711 210.296C208.295 210.296 207.911 210.397 207.559 210.6C207.207 210.803 206.919 211.101 206.695 211.496C206.481 211.88 206.375 212.339 206.375 212.872C206.375 213.405 206.481 213.875 206.695 214.28C206.919 214.675 207.207 214.979 207.559 215.192C207.921 215.405 208.305 215.512 208.711 215.512C209.127 215.512 209.516 215.411 209.879 215.208C210.241 214.995 210.529 214.696 210.743 214.312C210.956 213.917 211.063 213.448 211.063 212.904ZM217.746 209.848C218.034 209.379 218.408 209.011 218.866 208.744C219.336 208.477 219.869 208.344 220.466 208.344V210.696H219.874C219.17 210.696 218.637 210.861 218.274 211.192C217.922 211.523 217.746 212.099 217.746 212.92V217.336H215.506V208.472H217.746V209.848ZM230.455 208.472L224.967 221.528H222.583L224.503 217.112L220.951 208.472H223.463L225.751 214.664L228.071 208.472H230.455Z" fill="#7108E8"/>
<mask id="path-15-inside-2_4194_4958" fill="white">
<path d="M100 243H519V298H100V243Z"/>
</mask>
<path d="M519 298V297.333H100V298V298.667H519V298Z" fill="#F3F4F6" mask="url(#path-15-inside-2_4194_4958)"/>
<path d="M105.81 258.458C104.718 258.458 103.799 258.257 103.052 257.856C102.315 257.445 101.759 256.862 101.386 256.106C101.013 255.35 100.826 254.449 100.826 253.404C100.826 252.359 101.022 251.458 101.414 250.702C101.815 249.946 102.385 249.363 103.122 248.952C103.869 248.541 104.765 248.336 105.81 248.336C106.529 248.336 107.154 248.439 107.686 248.644C108.218 248.84 108.694 249.129 109.114 249.512L108.596 250.646C108.297 250.394 108.008 250.193 107.728 250.044C107.448 249.895 107.159 249.787 106.86 249.722C106.561 249.647 106.211 249.61 105.81 249.61C104.681 249.61 103.822 249.941 103.234 250.604C102.646 251.267 102.352 252.205 102.352 253.418C102.352 254.65 102.632 255.588 103.192 256.232C103.761 256.876 104.653 257.198 105.866 257.198C106.286 257.198 106.701 257.161 107.112 257.086C107.523 257.002 107.919 256.881 108.302 256.722L108.022 257.408V254.174H105.586V253.082H109.24V257.744C108.811 257.959 108.283 258.131 107.658 258.262C107.042 258.393 106.426 258.458 105.81 258.458ZM111.303 258.332V253.026C111.303 252.737 111.294 252.447 111.275 252.158C111.266 251.859 111.247 251.565 111.219 251.276H112.591L112.745 253.096H112.521C112.614 252.657 112.773 252.293 112.997 252.004C113.221 251.715 113.492 251.5 113.809 251.36C114.136 251.22 114.476 251.15 114.831 251.15C114.98 251.15 115.106 251.159 115.209 251.178C115.312 251.187 115.414 251.206 115.517 251.234L115.503 252.494C115.344 252.429 115.204 252.391 115.083 252.382C114.971 252.363 114.831 252.354 114.663 252.354C114.252 252.354 113.902 252.447 113.613 252.634C113.324 252.811 113.104 253.054 112.955 253.362C112.806 253.67 112.731 254.001 112.731 254.356V258.332H111.303ZM119.537 258.458C118.837 258.458 118.23 258.313 117.717 258.024C117.203 257.725 116.807 257.305 116.527 256.764C116.247 256.213 116.107 255.56 116.107 254.804C116.107 254.048 116.247 253.399 116.527 252.858C116.807 252.307 117.203 251.887 117.717 251.598C118.23 251.299 118.837 251.15 119.537 251.15C120.237 251.15 120.843 251.299 121.357 251.598C121.879 251.887 122.281 252.307 122.561 252.858C122.85 253.399 122.995 254.048 122.995 254.804C122.995 255.56 122.85 256.213 122.561 256.764C122.281 257.305 121.879 257.725 121.357 258.024C120.843 258.313 120.237 258.458 119.537 258.458ZM119.537 257.352C120.153 257.352 120.643 257.137 121.007 256.708C121.371 256.279 121.553 255.644 121.553 254.804C121.553 253.964 121.371 253.334 121.007 252.914C120.643 252.485 120.153 252.27 119.537 252.27C118.93 252.27 118.445 252.485 118.081 252.914C117.717 253.334 117.535 253.964 117.535 254.804C117.535 255.644 117.712 256.279 118.067 256.708C118.431 257.137 118.921 257.352 119.537 257.352ZM126.442 258.332L123.768 251.276H125.238L127.324 257.156H126.96L129.102 251.276H130.194L132.322 257.156H131.972L134.058 251.276H135.472L132.784 258.332H131.496L129.284 252.34H129.942L127.758 258.332H126.442ZM139.669 258.458C138.903 258.458 138.325 258.253 137.933 257.842C137.541 257.422 137.345 256.797 137.345 255.966V252.368H135.973V251.276H137.345V249.414L138.759 249.036V251.276H140.719V252.368H138.759V255.84C138.759 256.363 138.852 256.736 139.039 256.96C139.225 257.184 139.496 257.296 139.851 257.296C140.028 257.296 140.182 257.282 140.313 257.254C140.453 257.217 140.579 257.175 140.691 257.128V258.276C140.551 258.332 140.387 258.374 140.201 258.402C140.014 258.439 139.837 258.458 139.669 258.458ZM142.011 258.332V248.028H143.425V252.774H143.229C143.434 252.242 143.765 251.841 144.223 251.57C144.68 251.29 145.207 251.15 145.805 251.15C146.645 251.15 147.27 251.383 147.681 251.85C148.091 252.307 148.297 253.003 148.297 253.936V258.332H146.883V254.02C146.883 253.413 146.761 252.975 146.519 252.704C146.285 252.424 145.912 252.284 145.399 252.284C144.801 252.284 144.321 252.471 143.957 252.844C143.602 253.208 143.425 253.693 143.425 254.3V258.332H142.011ZM154.168 258.332V248.462H158.354C159.409 248.462 160.216 248.719 160.776 249.232C161.345 249.736 161.63 250.436 161.63 251.332C161.63 252.228 161.345 252.933 160.776 253.446C160.216 253.959 159.409 254.216 158.354 254.216H155.624V258.332H154.168ZM155.624 253.054H158.2C158.863 253.054 159.362 252.905 159.698 252.606C160.034 252.307 160.202 251.883 160.202 251.332C160.202 250.791 160.034 250.371 159.698 250.072C159.362 249.773 158.863 249.624 158.2 249.624H155.624V253.054ZM163.257 258.332V248.028H164.671V258.332H163.257ZM169.445 258.458C168.82 258.458 168.274 258.313 167.807 258.024C167.34 257.735 166.976 257.315 166.715 256.764C166.463 256.213 166.337 255.56 166.337 254.804C166.337 254.039 166.463 253.385 166.715 252.844C166.976 252.303 167.34 251.887 167.807 251.598C168.274 251.299 168.82 251.15 169.445 251.15C170.061 251.15 170.598 251.304 171.055 251.612C171.512 251.92 171.816 252.34 171.965 252.872H171.811L171.951 251.276H173.323C173.295 251.565 173.267 251.855 173.239 252.144C173.22 252.424 173.211 252.699 173.211 252.97V258.332H171.797V256.764H171.951C171.802 257.287 171.494 257.702 171.027 258.01C170.57 258.309 170.042 258.458 169.445 258.458ZM169.795 257.352C170.402 257.352 170.887 257.137 171.251 256.708C171.624 256.279 171.811 255.644 171.811 254.804C171.811 253.964 171.624 253.334 171.251 252.914C170.887 252.485 170.402 252.27 169.795 252.27C169.179 252.27 168.684 252.485 168.311 252.914C167.947 253.334 167.765 253.964 167.765 254.804C167.765 255.644 167.947 256.279 168.311 256.708C168.675 257.137 169.17 257.352 169.795 257.352ZM175.274 258.332V252.97C175.274 252.699 175.26 252.424 175.232 252.144C175.214 251.855 175.19 251.565 175.162 251.276H176.534L176.66 252.76H176.492C176.707 252.237 177.038 251.841 177.486 251.57C177.934 251.29 178.452 251.15 179.04 251.15C179.871 251.15 180.496 251.379 180.916 251.836C181.346 252.293 181.56 253.003 181.56 253.964V258.332H180.146V254.048C180.146 253.423 180.02 252.975 179.768 252.704C179.526 252.424 179.152 252.284 178.648 252.284C178.051 252.284 177.575 252.471 177.22 252.844C176.866 253.208 176.688 253.703 176.688 254.328V258.332H175.274Z" fill="#111827"/>
<path d="M103.552 277.44C102.984 277.44 102.44 277.352 101.92 277.176C101.4 277 100.964 276.748 100.612 276.42L100.984 275.652C101.376 275.972 101.78 276.204 102.196 276.348C102.612 276.492 103.06 276.564 103.54 276.564C104.172 276.564 104.652 276.432 104.98 276.168C105.308 275.896 105.472 275.5 105.472 274.98C105.472 274.484 105.304 274.108 104.968 273.852C104.632 273.588 104.14 273.456 103.492 273.456H102.22V272.628H103.408C103.968 272.628 104.412 272.484 104.74 272.196C105.068 271.908 105.232 271.516 105.232 271.02C105.232 270.572 105.08 270.232 104.776 270C104.48 269.76 104.052 269.64 103.492 269.64C102.58 269.64 101.792 269.964 101.128 270.612L100.756 269.832C101.084 269.496 101.496 269.236 101.992 269.052C102.488 268.86 103.008 268.764 103.552 268.764C104.384 268.764 105.036 268.956 105.508 269.34C105.98 269.724 106.216 270.256 106.216 270.936C106.216 271.456 106.068 271.904 105.772 272.28C105.476 272.648 105.076 272.9 104.572 273.036V272.904C105.172 273 105.636 273.24 105.964 273.624C106.292 274 106.456 274.476 106.456 275.052C106.456 275.788 106.196 276.372 105.676 276.804C105.164 277.228 104.456 277.44 103.552 277.44ZM110.795 277.44C109.835 277.44 109.099 277.068 108.587 276.324C108.075 275.58 107.819 274.504 107.819 273.096C107.819 271.68 108.075 270.604 108.587 269.868C109.099 269.132 109.835 268.764 110.795 268.764C111.763 268.764 112.499 269.132 113.003 269.868C113.515 270.604 113.771 271.676 113.771 273.084C113.771 274.5 113.515 275.58 113.003 276.324C112.491 277.068 111.755 277.44 110.795 277.44ZM110.795 276.576C111.467 276.576 111.967 276.292 112.295 275.724C112.623 275.156 112.787 274.276 112.787 273.084C112.787 271.884 112.623 271.008 112.295 270.456C111.967 269.896 111.467 269.616 110.795 269.616C110.131 269.616 109.631 269.896 109.295 270.456C108.967 271.016 108.803 271.892 108.803 273.084C108.803 274.276 108.967 275.156 109.295 275.724C109.631 276.292 110.131 276.576 110.795 276.576ZM117.991 277.44C117.031 277.44 116.295 277.068 115.783 276.324C115.271 275.58 115.015 274.504 115.015 273.096C115.015 271.68 115.271 270.604 115.783 269.868C116.295 269.132 117.031 268.764 117.991 268.764C118.959 268.764 119.695 269.132 120.199 269.868C120.711 270.604 120.967 271.676 120.967 273.084C120.967 274.5 120.711 275.58 120.199 276.324C119.687 277.068 118.951 277.44 117.991 277.44ZM117.991 276.576C118.663 276.576 119.163 276.292 119.491 275.724C119.819 275.156 119.983 274.276 119.983 273.084C119.983 271.884 119.819 271.008 119.491 270.456C119.163 269.896 118.663 269.616 117.991 269.616C117.327 269.616 116.827 269.896 116.491 270.456C116.163 271.016 115.999 271.892 115.999 273.084C115.999 274.276 116.163 275.156 116.491 275.724C116.827 276.292 117.327 276.576 117.991 276.576ZM129.659 277.44C128.731 277.44 127.955 277.268 127.331 276.924C126.707 276.58 126.239 276.084 125.927 275.436C125.615 274.788 125.459 274.012 125.459 273.108C125.459 272.212 125.623 271.44 125.951 270.792C126.279 270.144 126.751 269.644 127.367 269.292C127.983 268.94 128.727 268.764 129.599 268.764C130.215 268.764 130.747 268.856 131.195 269.04C131.651 269.216 132.059 269.48 132.419 269.832L132.047 270.612C131.783 270.38 131.527 270.196 131.279 270.06C131.039 269.924 130.787 269.824 130.523 269.76C130.259 269.688 129.951 269.652 129.599 269.652C128.599 269.652 127.831 269.956 127.295 270.564C126.767 271.164 126.503 272.016 126.503 273.12C126.503 274.232 126.759 275.084 127.271 275.676C127.791 276.268 128.595 276.564 129.683 276.564C130.083 276.564 130.463 276.528 130.823 276.456C131.191 276.376 131.547 276.264 131.891 276.12L131.675 276.66V273.684H129.515V272.904H132.527V276.828C132.183 277.012 131.747 277.16 131.219 277.272C130.699 277.384 130.179 277.44 129.659 277.44ZM134.548 277.332V268.872H137.932C138.828 268.872 139.52 269.064 140.008 269.448C140.496 269.832 140.74 270.376 140.74 271.08C140.74 271.608 140.58 272.048 140.26 272.4C139.948 272.752 139.512 272.984 138.952 273.096V272.928C139.576 273 140.064 273.216 140.416 273.576C140.776 273.928 140.956 274.404 140.956 275.004C140.956 275.756 140.704 276.332 140.2 276.732C139.704 277.132 139 277.332 138.088 277.332H134.548ZM135.52 276.528H137.992C138.6 276.528 139.08 276.412 139.432 276.18C139.792 275.94 139.972 275.544 139.972 274.992C139.972 274.432 139.792 274.036 139.432 273.804C139.08 273.564 138.6 273.444 137.992 273.444H135.52V276.528ZM135.52 272.652H137.788C138.444 272.652 138.936 272.524 139.264 272.268C139.592 272.012 139.756 271.644 139.756 271.164C139.756 270.668 139.592 270.296 139.264 270.048C138.936 269.792 138.444 269.664 137.788 269.664H135.52V272.652ZM145.545 274.656V273.432H146.781V274.656H145.545ZM151.752 277.332V268.872H152.616L156.012 276.54H155.664L159.06 268.872H159.924V277.332H159.012V270.156H159.372L156.168 277.332H155.508L152.292 270.156H152.652V277.332H151.752ZM164.404 277.44C163.828 277.44 163.324 277.316 162.892 277.068C162.468 276.812 162.14 276.452 161.908 275.988C161.676 275.516 161.56 274.96 161.56 274.32C161.56 273.672 161.676 273.116 161.908 272.652C162.14 272.188 162.468 271.832 162.892 271.584C163.324 271.328 163.828 271.2 164.404 271.2C164.988 271.2 165.492 271.328 165.916 271.584C166.348 271.832 166.68 272.188 166.912 272.652C167.152 273.116 167.272 273.672 167.272 274.32C167.272 274.96 167.152 275.516 166.912 275.988C166.68 276.452 166.348 276.812 165.916 277.068C165.492 277.316 164.988 277.44 164.404 277.44ZM164.404 276.648C164.98 276.648 165.436 276.452 165.772 276.06C166.108 275.66 166.276 275.08 166.276 274.32C166.276 273.552 166.104 272.972 165.76 272.58C165.424 272.18 164.972 271.98 164.404 271.98C163.836 271.98 163.384 272.18 163.048 272.58C162.712 272.972 162.544 273.552 162.544 274.32C162.544 275.08 162.712 275.66 163.048 276.06C163.384 276.452 163.836 276.648 164.404 276.648ZM168.788 277.332V272.7C168.788 272.476 168.776 272.248 168.752 272.016C168.736 271.776 168.716 271.54 168.692 271.308H169.628L169.748 272.628H169.604C169.78 272.164 170.06 271.812 170.444 271.572C170.836 271.324 171.288 271.2 171.8 271.2C172.512 271.2 173.048 271.392 173.408 271.776C173.776 272.152 173.96 272.748 173.96 273.564V277.332H172.988V273.624C172.988 273.056 172.872 272.644 172.64 272.388C172.416 272.124 172.064 271.992 171.584 271.992C171.024 271.992 170.58 272.164 170.252 272.508C169.924 272.852 169.76 273.312 169.76 273.888V277.332H168.788ZM177.955 277.44C177.363 277.44 176.911 277.272 176.599 276.936C176.287 276.592 176.131 276.076 176.131 275.388V272.064H174.955V271.308H176.131V269.664L177.103 269.388V271.308H178.831V272.064H177.103V275.28C177.103 275.76 177.183 276.104 177.343 276.312C177.511 276.512 177.759 276.612 178.087 276.612C178.239 276.612 178.375 276.6 178.495 276.576C178.615 276.544 178.723 276.508 178.819 276.468V277.284C178.707 277.332 178.571 277.368 178.411 277.392C178.259 277.424 178.107 277.44 177.955 277.44ZM180.014 277.332V268.5H180.986V272.64H180.83C180.998 272.168 181.278 271.812 181.67 271.572C182.07 271.324 182.53 271.2 183.05 271.2C183.77 271.2 184.306 271.396 184.658 271.788C185.01 272.172 185.186 272.756 185.186 273.54V277.332H184.214V273.6C184.214 273.04 184.102 272.632 183.878 272.376C183.662 272.12 183.31 271.992 182.822 271.992C182.262 271.992 181.814 272.164 181.478 272.508C181.15 272.852 180.986 273.304 180.986 273.864V277.332H180.014ZM187.046 277.332V268.5H188.018V277.332H187.046ZM189.665 280.056L189.437 279.252C189.813 279.164 190.125 279.06 190.373 278.94C190.629 278.828 190.841 278.676 191.009 278.484C191.177 278.292 191.321 278.052 191.441 277.764L191.753 277.056L191.729 277.464L189.101 271.308H190.157L192.329 276.6H192.017L194.165 271.308H195.185L192.401 277.836C192.241 278.22 192.065 278.54 191.873 278.796C191.681 279.06 191.473 279.272 191.249 279.432C191.033 279.6 190.793 279.732 190.529 279.828C190.265 279.924 189.977 280 189.665 280.056ZM202.433 277.44C201.889 277.44 201.421 277.304 201.029 277.032C200.637 276.752 200.373 276.372 200.237 275.892H200.369V277.332H199.409V268.5H200.381V272.712H200.237C200.373 272.248 200.637 271.88 201.029 271.608C201.421 271.336 201.889 271.2 202.433 271.2C202.977 271.2 203.445 271.328 203.837 271.584C204.237 271.832 204.545 272.188 204.761 272.652C204.985 273.116 205.097 273.672 205.097 274.32C205.097 274.968 204.985 275.524 204.761 275.988C204.537 276.452 204.225 276.812 203.825 277.068C203.433 277.316 202.969 277.44 202.433 277.44ZM202.229 276.648C202.797 276.648 203.253 276.452 203.597 276.06C203.941 275.668 204.113 275.088 204.113 274.32C204.113 273.552 203.941 272.972 203.597 272.58C203.253 272.18 202.797 271.98 202.229 271.98C201.661 271.98 201.205 272.18 200.861 272.58C200.525 272.972 200.357 273.552 200.357 274.32C200.357 275.08 200.525 275.66 200.861 276.06C201.205 276.452 201.661 276.648 202.229 276.648ZM206.604 277.332V271.308H207.576V277.332H206.604ZM206.484 269.94V268.848H207.684V269.94H206.484ZM209.464 277.332V268.5H210.436V277.332H209.464ZM212.323 277.332V268.5H213.295V277.332H212.323ZM215.182 277.332V271.308H216.154V277.332H215.182ZM215.062 269.94V268.848H216.262V269.94H215.062ZM218.042 277.332V272.7C218.042 272.476 218.03 272.248 218.006 272.016C217.99 271.776 217.97 271.54 217.946 271.308H218.882L219.002 272.628H218.858C219.034 272.164 219.314 271.812 219.698 271.572C220.09 271.324 220.542 271.2 221.054 271.2C221.766 271.2 222.302 271.392 222.662 271.776C223.03 272.152 223.214 272.748 223.214 273.564V277.332H222.242V273.624C222.242 273.056 222.126 272.644 221.894 272.388C221.67 272.124 221.318 271.992 220.838 271.992C220.278 271.992 219.834 272.164 219.506 272.508C219.178 272.852 219.014 273.312 219.014 273.888V277.332H218.042ZM227.725 280.008C227.205 280.008 226.725 279.944 226.285 279.816C225.845 279.688 225.449 279.492 225.097 279.228L225.385 278.496C225.633 278.672 225.877 278.812 226.117 278.916C226.357 279.02 226.605 279.096 226.861 279.144C227.117 279.2 227.389 279.228 227.677 279.228C228.269 279.228 228.717 279.072 229.021 278.76C229.325 278.448 229.477 278.004 229.477 277.428V275.664H229.597C229.469 276.136 229.205 276.512 228.805 276.792C228.405 277.064 227.937 277.2 227.401 277.2C226.849 277.2 226.369 277.08 225.961 276.84C225.561 276.592 225.249 276.244 225.025 275.796C224.809 275.34 224.701 274.804 224.701 274.188C224.701 273.58 224.809 273.052 225.025 272.604C225.249 272.156 225.561 271.812 225.961 271.572C226.369 271.324 226.849 271.2 227.401 271.2C227.945 271.2 228.413 271.336 228.805 271.608C229.205 271.88 229.469 272.256 229.597 272.736L229.477 272.616L229.585 271.308H230.533C230.501 271.54 230.477 271.776 230.461 272.016C230.445 272.248 230.437 272.476 230.437 272.7V277.296C230.437 278.192 230.205 278.868 229.741 279.324C229.285 279.78 228.613 280.008 227.725 280.008ZM227.581 276.408C228.165 276.408 228.625 276.216 228.961 275.832C229.297 275.44 229.465 274.892 229.465 274.188C229.465 273.484 229.297 272.94 228.961 272.556C228.625 272.172 228.165 271.98 227.581 271.98C227.005 271.98 226.545 272.172 226.201 272.556C225.857 272.94 225.685 273.484 225.685 274.188C225.685 274.892 225.857 275.44 226.201 275.832C226.545 276.216 227.005 276.408 227.581 276.408Z" fill="#9CA3AF"/>
<path d="M491.711 258.404C491.711 258.991 491.556 259.535 491.247 260.036C490.948 260.527 490.5 260.932 489.903 261.252C489.316 261.561 488.617 261.732 487.807 261.764V263.06H486.783V261.748C485.652 261.652 484.74 261.316 484.047 260.74C483.353 260.153 482.985 259.359 482.943 258.356H485.855C485.919 258.996 486.228 259.407 486.783 259.588V257.06C485.951 256.847 485.284 256.639 484.783 256.436C484.292 256.233 483.86 255.908 483.487 255.46C483.113 255.012 482.927 254.399 482.927 253.62C482.927 252.649 483.284 251.871 483.999 251.284C484.724 250.697 485.652 250.367 486.783 250.292V248.996H487.807V250.292C488.927 250.377 489.812 250.703 490.463 251.268C491.113 251.833 491.476 252.617 491.551 253.62H488.623C488.559 253.044 488.287 252.671 487.807 252.5V254.98C488.692 255.225 489.375 255.444 489.855 255.636C490.335 255.828 490.761 256.148 491.135 256.596C491.519 257.033 491.711 257.636 491.711 258.404ZM485.823 253.492C485.823 253.759 485.903 253.983 486.063 254.164C486.233 254.345 486.473 254.505 486.783 254.644V252.42C486.484 252.473 486.249 252.591 486.079 252.772C485.908 252.943 485.823 253.183 485.823 253.492ZM487.807 259.636C488.127 259.583 488.377 259.455 488.559 259.252C488.751 259.049 488.847 258.799 488.847 258.5C488.847 258.223 488.756 257.999 488.575 257.828C488.404 257.647 488.148 257.492 487.807 257.364V259.636ZM493.186 252.532V249.988H497.618V261.668H494.77V252.532H493.186ZM499.49 255.668C499.49 253.833 499.842 252.388 500.546 251.332C501.26 250.276 502.407 249.748 503.986 249.748C505.564 249.748 506.706 250.276 507.41 251.332C508.124 252.388 508.482 253.833 508.482 255.668C508.482 257.524 508.124 258.98 507.41 260.036C506.706 261.092 505.564 261.62 503.986 261.62C502.407 261.62 501.26 261.092 500.546 260.036C499.842 258.98 499.49 257.524 499.49 255.668ZM505.794 255.668C505.794 254.591 505.676 253.764 505.442 253.188C505.207 252.601 504.722 252.308 503.986 252.308C503.25 252.308 502.764 252.601 502.53 253.188C502.295 253.764 502.178 254.591 502.178 255.668C502.178 256.393 502.22 256.996 502.306 257.476C502.391 257.945 502.562 258.329 502.818 258.628C503.084 258.916 503.474 259.06 503.986 259.06C504.498 259.06 504.882 258.916 505.138 258.628C505.404 258.329 505.58 257.945 505.666 257.476C505.751 256.996 505.794 256.393 505.794 255.668ZM509.927 255.668C509.927 253.833 510.279 252.388 510.983 251.332C511.698 250.276 512.844 249.748 514.423 249.748C516.002 249.748 517.143 250.276 517.847 251.332C518.562 252.388 518.919 253.833 518.919 255.668C518.919 257.524 518.562 258.98 517.847 260.036C517.143 261.092 516.002 261.62 514.423 261.62C512.844 261.62 511.698 261.092 510.983 260.036C510.279 258.98 509.927 257.524 509.927 255.668ZM516.231 255.668C516.231 254.591 516.114 253.764 515.879 253.188C515.644 252.601 515.159 252.308 514.423 252.308C513.687 252.308 513.202 252.601 512.967 253.188C512.732 253.764 512.615 254.591 512.615 255.668C512.615 256.393 512.658 256.996 512.743 257.476C512.828 257.945 512.999 258.329 513.255 258.628C513.522 258.916 513.911 259.06 514.423 259.06C514.935 259.06 515.319 258.916 515.575 258.628C515.842 258.329 516.018 257.945 516.103 257.476C516.188 256.996 516.231 256.393 516.231 255.668Z" fill="#111827"/>
<path d="M104.134 342.449C103.397 342.449 102.739 342.354 102.158 342.163C101.577 341.972 101.07 341.699 100.637 341.344L101.027 340.486C101.33 340.711 101.634 340.902 101.937 341.058C102.249 341.205 102.583 341.318 102.938 341.396C103.293 341.465 103.692 341.5 104.134 341.5C104.905 341.5 105.477 341.357 105.85 341.071C106.223 340.785 106.409 340.404 106.409 339.927C106.409 339.52 106.279 339.208 106.019 338.991C105.759 338.774 105.304 338.601 104.654 338.471L103.289 338.198C102.448 338.025 101.82 337.743 101.404 337.353C100.997 336.963 100.793 336.434 100.793 335.767C100.793 335.221 100.932 334.744 101.209 334.337C101.495 333.93 101.894 333.613 102.405 333.388C102.916 333.163 103.51 333.05 104.186 333.05C104.836 333.05 105.43 333.15 105.967 333.349C106.504 333.54 106.964 333.821 107.345 334.194L106.968 335.026C106.561 334.662 106.132 334.402 105.681 334.246C105.239 334.081 104.736 333.999 104.173 333.999C103.462 333.999 102.899 334.155 102.483 334.467C102.076 334.77 101.872 335.186 101.872 335.715C101.872 336.14 102.002 336.473 102.262 336.716C102.522 336.95 102.951 337.128 103.549 337.249L104.927 337.522C105.811 337.704 106.461 337.977 106.877 338.341C107.293 338.705 107.501 339.216 107.501 339.875C107.501 340.378 107.362 340.824 107.085 341.214C106.816 341.604 106.431 341.907 105.928 342.124C105.425 342.341 104.827 342.449 104.134 342.449ZM111.428 342.449C110.656 342.449 110.071 342.237 109.673 341.812C109.283 341.387 109.088 340.737 109.088 339.862V335.806H110.141V339.836C110.141 340.434 110.262 340.876 110.505 341.162C110.747 341.439 111.124 341.578 111.636 341.578C112.208 341.578 112.667 341.392 113.014 341.019C113.36 340.646 113.534 340.148 113.534 339.524V335.806H114.587V342.332H113.56V340.863H113.729C113.547 341.366 113.252 341.756 112.845 342.033C112.446 342.31 111.974 342.449 111.428 342.449ZM119.906 342.449C119.316 342.449 118.809 342.302 118.385 342.007C117.96 341.704 117.674 341.292 117.527 340.772H117.67V342.332H116.63V332.764H117.683V337.327H117.527C117.674 336.824 117.96 336.426 118.385 336.131C118.809 335.836 119.316 335.689 119.906 335.689C120.495 335.689 121.002 335.828 121.427 336.105C121.86 336.374 122.194 336.759 122.428 337.262C122.67 337.765 122.792 338.367 122.792 339.069C122.792 339.771 122.67 340.373 122.428 340.876C122.185 341.379 121.847 341.769 121.414 342.046C120.989 342.315 120.486 342.449 119.906 342.449ZM119.685 341.591C120.3 341.591 120.794 341.379 121.167 340.954C121.539 340.529 121.726 339.901 121.726 339.069C121.726 338.237 121.539 337.609 121.167 337.184C120.794 336.751 120.3 336.534 119.685 336.534C119.069 336.534 118.575 336.751 118.203 337.184C117.839 337.609 117.657 338.237 117.657 339.069C117.657 339.892 117.839 340.521 118.203 340.954C118.575 341.379 119.069 341.591 119.685 341.591ZM126.675 342.449C126.034 342.449 125.544 342.267 125.206 341.903C124.868 341.53 124.699 340.971 124.699 340.226V336.625H123.425V335.806H124.699V334.025L125.752 333.726V335.806H127.624V336.625H125.752V340.109C125.752 340.629 125.839 341.002 126.012 341.227C126.194 341.444 126.463 341.552 126.818 341.552C126.983 341.552 127.13 341.539 127.26 341.513C127.39 341.478 127.507 341.439 127.611 341.396V342.28C127.49 342.332 127.342 342.371 127.169 342.397C127.004 342.432 126.84 342.449 126.675 342.449ZM131.52 342.449C130.896 342.449 130.35 342.315 129.882 342.046C129.423 341.769 129.068 341.379 128.816 340.876C128.565 340.365 128.439 339.762 128.439 339.069C128.439 338.367 128.565 337.765 128.816 337.262C129.068 336.759 129.423 336.374 129.882 336.105C130.35 335.828 130.896 335.689 131.52 335.689C132.153 335.689 132.699 335.828 133.158 336.105C133.626 336.374 133.986 336.759 134.237 337.262C134.497 337.765 134.627 338.367 134.627 339.069C134.627 339.762 134.497 340.365 134.237 340.876C133.986 341.379 133.626 341.769 133.158 342.046C132.699 342.315 132.153 342.449 131.52 342.449ZM131.52 341.591C132.144 341.591 132.638 341.379 133.002 340.954C133.366 340.521 133.548 339.892 133.548 339.069C133.548 338.237 133.362 337.609 132.989 337.184C132.625 336.751 132.136 336.534 131.52 336.534C130.905 336.534 130.415 336.751 130.051 337.184C129.687 337.609 129.505 338.237 129.505 339.069C129.505 339.892 129.687 340.521 130.051 340.954C130.415 341.379 130.905 341.591 131.52 341.591ZM138.52 342.449C137.878 342.449 137.389 342.267 137.051 341.903C136.713 341.53 136.544 340.971 136.544 340.226V336.625H135.27V335.806H136.544V334.025L137.597 333.726V335.806H139.469V336.625H137.597V340.109C137.597 340.629 137.683 341.002 137.857 341.227C138.039 341.444 138.307 341.552 138.663 341.552C138.827 341.552 138.975 341.539 139.105 341.513C139.235 341.478 139.352 341.439 139.456 341.396V342.28C139.334 342.332 139.187 342.371 139.014 342.397C138.849 342.432 138.684 342.449 138.52 342.449ZM143.234 342.449C142.653 342.449 142.146 342.315 141.713 342.046C141.279 341.769 140.941 341.379 140.699 340.876C140.465 340.373 140.348 339.771 140.348 339.069C140.348 338.358 140.465 337.752 140.699 337.249C140.941 336.746 141.279 336.361 141.713 336.092C142.146 335.823 142.653 335.689 143.234 335.689C143.823 335.689 144.33 335.841 144.755 336.144C145.188 336.439 145.474 336.842 145.613 337.353H145.457L145.6 335.806H146.614C146.588 336.057 146.562 336.313 146.536 336.573C146.518 336.824 146.51 337.071 146.51 337.314V342.332H145.457V340.798H145.6C145.461 341.309 145.175 341.712 144.742 342.007C144.308 342.302 143.806 342.449 143.234 342.449ZM143.442 341.591C144.066 341.591 144.56 341.379 144.924 340.954C145.288 340.521 145.47 339.892 145.47 339.069C145.47 338.237 145.288 337.609 144.924 337.184C144.56 336.751 144.066 336.534 143.442 336.534C142.826 336.534 142.332 336.751 141.96 337.184C141.596 337.609 141.414 338.237 141.414 339.069C141.414 339.892 141.596 340.521 141.96 340.954C142.332 341.379 142.826 341.591 143.442 341.591ZM148.546 342.332V332.764H149.599V342.332H148.546Z" fill="#6B7280"/>
<path d="M469.2 343.827V342.163L469.447 342.397C468.823 342.388 468.234 342.297 467.679 342.124C467.124 341.942 466.639 341.673 466.223 341.318L466.639 340.356C467.055 340.685 467.493 340.937 467.952 341.11C468.42 341.275 468.962 341.357 469.577 341.357C470.296 341.357 470.829 341.218 471.176 340.941C471.523 340.664 471.696 340.308 471.696 339.875C471.696 339.52 471.57 339.238 471.319 339.03C471.068 338.813 470.652 338.644 470.071 338.523L468.745 338.237C467.956 338.064 467.371 337.778 466.99 337.379C466.609 336.98 466.418 336.456 466.418 335.806C466.418 335.303 466.539 334.853 466.782 334.454C467.033 334.055 467.38 333.739 467.822 333.505C468.273 333.271 468.793 333.141 469.382 333.115L469.2 333.297V331.672H470.188V333.297L469.98 333.115C470.457 333.132 470.933 333.232 471.41 333.414C471.887 333.596 472.29 333.865 472.619 334.22L472.216 335.143C471.878 334.796 471.497 334.545 471.072 334.389C470.647 334.224 470.175 334.142 469.655 334.142C469.022 334.142 468.515 334.294 468.134 334.597C467.761 334.892 467.575 335.282 467.575 335.767C467.575 336.148 467.692 336.452 467.926 336.677C468.16 336.902 468.546 337.076 469.083 337.197L470.409 337.47C471.25 337.643 471.869 337.921 472.268 338.302C472.675 338.675 472.879 339.177 472.879 339.81C472.879 340.304 472.753 340.737 472.502 341.11C472.259 341.483 471.917 341.777 471.475 341.994C471.042 342.211 470.539 342.341 469.967 342.384L470.188 342.15V343.827H469.2ZM475.071 342.332V341.305H477.216V334.194H477.827L475.266 335.78V334.597L477.554 333.167H478.425V341.305H480.44V342.332H475.071ZM485.154 342.449C484.105 342.449 483.299 342.046 482.736 341.24C482.173 340.425 481.891 339.26 481.891 337.743C481.891 336.2 482.173 335.035 482.736 334.246C483.299 333.449 484.105 333.05 485.154 333.05C486.211 333.05 487.017 333.449 487.572 334.246C488.135 335.035 488.417 336.196 488.417 337.73C488.417 339.255 488.135 340.425 487.572 341.24C487.009 342.046 486.203 342.449 485.154 342.449ZM485.154 341.422C485.847 341.422 486.363 341.123 486.701 340.525C487.048 339.927 487.221 338.995 487.221 337.73C487.221 336.465 487.048 335.542 486.701 334.961C486.363 334.372 485.847 334.077 485.154 334.077C484.469 334.077 483.954 334.372 483.607 334.961C483.26 335.542 483.087 336.465 483.087 337.73C483.087 338.995 483.26 339.927 483.607 340.525C483.954 341.123 484.469 341.422 485.154 341.422ZM492.949 342.449C491.9 342.449 491.094 342.046 490.531 341.24C489.967 340.425 489.686 339.26 489.686 337.743C489.686 336.2 489.967 335.035 490.531 334.246C491.094 333.449 491.9 333.05 492.949 333.05C494.006 333.05 494.812 333.449 495.367 334.246C495.93 335.035 496.212 336.196 496.212 337.73C496.212 339.255 495.93 340.425 495.367 341.24C494.803 342.046 493.997 342.449 492.949 342.449ZM492.949 341.422C493.642 341.422 494.158 341.123 494.496 340.525C494.842 339.927 495.016 338.995 495.016 337.73C495.016 336.465 494.842 335.542 494.496 334.961C494.158 334.372 493.642 334.077 492.949 334.077C492.264 334.077 491.748 334.372 491.402 334.961C491.055 335.542 490.882 336.465 490.882 337.73C490.882 338.995 491.055 339.927 491.402 340.525C491.748 341.123 492.264 341.422 492.949 341.422ZM497.546 343.06H496.545L499.938 332.595H500.952L497.546 343.06ZM500.866 342.332V337.34C500.866 337.089 500.857 336.833 500.84 336.573C500.823 336.313 500.797 336.053 500.762 335.793H501.906L502.036 337.197H501.88C502.053 336.712 502.331 336.339 502.712 336.079C503.093 335.81 503.548 335.676 504.077 335.676C504.614 335.676 505.056 335.806 505.403 336.066C505.75 336.317 505.984 336.716 506.105 337.262H505.91C506.075 336.777 506.365 336.391 506.781 336.105C507.197 335.819 507.682 335.676 508.237 335.676C508.956 335.676 509.498 335.888 509.862 336.313C510.226 336.729 510.408 337.379 510.408 338.263V342.332H509.225V338.328C509.225 337.73 509.121 337.301 508.913 337.041C508.705 336.772 508.376 336.638 507.925 336.638C507.396 336.638 506.98 336.82 506.677 337.184C506.374 337.539 506.222 338.025 506.222 338.64V342.332H505.039V338.328C505.039 337.73 504.935 337.301 504.727 337.041C504.528 336.772 504.198 336.638 503.739 336.638C503.21 336.638 502.794 336.82 502.491 337.184C502.196 337.539 502.049 338.025 502.049 338.64V342.332H500.866ZM515.098 342.449C514.457 342.449 513.902 342.315 513.434 342.046C512.966 341.769 512.602 341.379 512.342 340.876C512.082 340.365 511.952 339.758 511.952 339.056C511.952 338.363 512.082 337.765 512.342 337.262C512.602 336.751 512.966 336.361 513.434 336.092C513.902 335.815 514.457 335.676 515.098 335.676C515.74 335.676 516.294 335.815 516.762 336.092C517.239 336.361 517.603 336.751 517.854 337.262C518.114 337.765 518.244 338.363 518.244 339.056C518.244 339.758 518.114 340.365 517.854 340.876C517.603 341.379 517.239 341.769 516.762 342.046C516.294 342.315 515.74 342.449 515.098 342.449ZM515.098 341.513C515.688 341.513 516.16 341.305 516.515 340.889C516.871 340.473 517.048 339.862 517.048 339.056C517.048 338.25 516.871 337.643 516.515 337.236C516.16 336.829 515.688 336.625 515.098 336.625C514.5 336.625 514.024 336.829 513.668 337.236C513.322 337.643 513.148 338.25 513.148 339.056C513.148 339.862 513.322 340.473 513.668 340.889C514.024 341.305 514.5 341.513 515.098 341.513Z" fill="#374151"/>
<path d="M103.367 369.832V361.577H100.13V360.667H107.67V361.577H104.446V369.832H103.367ZM110.365 369.949C109.785 369.949 109.278 369.815 108.844 369.546C108.411 369.269 108.073 368.879 107.83 368.376C107.596 367.873 107.479 367.271 107.479 366.569C107.479 365.858 107.596 365.252 107.83 364.749C108.073 364.246 108.411 363.861 108.844 363.592C109.278 363.323 109.785 363.189 110.365 363.189C110.955 363.189 111.462 363.341 111.886 363.644C112.32 363.939 112.606 364.342 112.744 364.853H112.588L112.731 363.306H113.745C113.719 363.557 113.693 363.813 113.667 364.073C113.65 364.324 113.641 364.571 113.641 364.814V369.832H112.588V368.298H112.731C112.593 368.809 112.307 369.212 111.873 369.507C111.44 369.802 110.937 369.949 110.365 369.949ZM110.573 369.091C111.197 369.091 111.691 368.879 112.055 368.454C112.419 368.021 112.601 367.392 112.601 366.569C112.601 365.737 112.419 365.109 112.055 364.684C111.691 364.251 111.197 364.034 110.573 364.034C109.958 364.034 109.464 364.251 109.091 364.684C108.727 365.109 108.545 365.737 108.545 366.569C108.545 367.392 108.727 368.021 109.091 368.454C109.464 368.879 109.958 369.091 110.573 369.091ZM114.793 369.832L117.718 366.205V366.725L114.949 363.306H116.223L118.316 365.971H117.939L120.019 363.306H121.28L118.55 366.712V366.231L121.449 369.832H120.162L117.926 366.985H118.316L116.054 369.832H114.793Z" fill="#6B7280"/>
<path d="M488.298 371.327V369.663L488.545 369.897C487.921 369.888 487.331 369.797 486.777 369.624C486.222 369.442 485.737 369.173 485.321 368.818L485.737 367.856C486.153 368.185 486.59 368.437 487.05 368.61C487.518 368.775 488.059 368.857 488.675 368.857C489.394 368.857 489.927 368.718 490.274 368.441C490.62 368.164 490.794 367.808 490.794 367.375C490.794 367.02 490.668 366.738 490.417 366.53C490.165 366.313 489.749 366.144 489.169 366.023L487.843 365.737C487.054 365.564 486.469 365.278 486.088 364.879C485.706 364.48 485.516 363.956 485.516 363.306C485.516 362.803 485.637 362.353 485.88 361.954C486.131 361.555 486.478 361.239 486.92 361.005C487.37 360.771 487.89 360.641 488.48 360.615L488.298 360.797V359.172H489.286V360.797L489.078 360.615C489.554 360.632 490.031 360.732 490.508 360.914C490.984 361.096 491.387 361.365 491.717 361.72L491.314 362.643C490.976 362.296 490.594 362.045 490.17 361.889C489.745 361.724 489.273 361.642 488.753 361.642C488.12 361.642 487.613 361.794 487.232 362.097C486.859 362.392 486.673 362.782 486.673 363.267C486.673 363.648 486.79 363.952 487.024 364.177C487.258 364.402 487.643 364.576 488.181 364.697L489.507 364.97C490.347 365.143 490.967 365.421 491.366 365.802C491.773 366.175 491.977 366.677 491.977 367.31C491.977 367.804 491.851 368.237 491.6 368.61C491.357 368.983 491.015 369.277 490.573 369.494C490.139 369.711 489.637 369.841 489.065 369.884L489.286 369.65V371.327H488.298ZM496.457 369.949C495.408 369.949 494.602 369.546 494.039 368.74C493.475 367.925 493.194 366.76 493.194 365.243C493.194 363.7 493.475 362.535 494.039 361.746C494.602 360.949 495.408 360.55 496.457 360.55C497.514 360.55 498.32 360.949 498.875 361.746C499.438 362.535 499.72 363.696 499.72 365.23C499.72 366.755 499.438 367.925 498.875 368.74C498.311 369.546 497.505 369.949 496.457 369.949ZM496.457 368.922C497.15 368.922 497.666 368.623 498.004 368.025C498.35 367.427 498.524 366.495 498.524 365.23C498.524 363.965 498.35 363.042 498.004 362.461C497.666 361.872 497.15 361.577 496.457 361.577C495.772 361.577 495.256 361.872 494.91 362.461C494.563 363.042 494.39 363.965 494.39 365.23C494.39 366.495 494.563 367.427 494.91 368.025C495.256 368.623 495.772 368.922 496.457 368.922ZM501.145 369.832V368.389H502.588V369.832H501.145ZM507.286 369.949C506.237 369.949 505.431 369.546 504.868 368.74C504.304 367.925 504.023 366.76 504.023 365.243C504.023 363.7 504.304 362.535 504.868 361.746C505.431 360.949 506.237 360.55 507.286 360.55C508.343 360.55 509.149 360.949 509.704 361.746C510.267 362.535 510.549 363.696 510.549 365.23C510.549 366.755 510.267 367.925 509.704 368.74C509.14 369.546 508.334 369.949 507.286 369.949ZM507.286 368.922C507.979 368.922 508.495 368.623 508.833 368.025C509.179 367.427 509.353 366.495 509.353 365.23C509.353 363.965 509.179 363.042 508.833 362.461C508.495 361.872 507.979 361.577 507.286 361.577C506.601 361.577 506.085 361.872 505.739 362.461C505.392 363.042 505.219 363.965 505.219 365.23C505.219 366.495 505.392 367.427 505.739 368.025C506.085 368.623 506.601 368.922 507.286 368.922ZM515.081 369.949C514.032 369.949 513.226 369.546 512.663 368.74C512.099 367.925 511.818 366.76 511.818 365.243C511.818 363.7 512.099 362.535 512.663 361.746C513.226 360.949 514.032 360.55 515.081 360.55C516.138 360.55 516.944 360.949 517.499 361.746C518.062 362.535 518.344 363.696 518.344 365.23C518.344 366.755 518.062 367.925 517.499 368.74C516.935 369.546 516.129 369.949 515.081 369.949ZM515.081 368.922C515.774 368.922 516.29 368.623 516.628 368.025C516.974 367.427 517.148 366.495 517.148 365.23C517.148 363.965 516.974 363.042 516.628 362.461C516.29 361.872 515.774 361.577 515.081 361.577C514.396 361.577 513.88 361.872 513.534 362.461C513.187 363.042 513.014 363.965 513.014 365.23C513.014 366.495 513.187 367.427 513.534 368.025C513.88 368.623 514.396 368.922 515.081 368.922Z" fill="#374151"/>
<mask id="path-24-inside-3_4194_4958" fill="white">
<path d="M100 383H519V428.667H100V383Z"/>
</mask>
<path d="M100 383V383.667H519V383V382.333H100V383Z" fill="#E5E7EB" mask="url(#path-24-inside-3_4194_4958)"/>
<path d="M108.16 402.078V403.758H105.235V412.668H103.12V403.758H100.21V402.078H108.16ZM113.164 404.253C113.974 404.253 114.699 404.423 115.339 404.763C115.989 405.103 116.499 405.598 116.869 406.248C117.239 406.888 117.424 407.643 117.424 408.513C117.424 409.383 117.239 410.138 116.869 410.778C116.499 411.418 115.989 411.913 115.339 412.263C114.699 412.603 113.974 412.773 113.164 412.773C112.354 412.773 111.624 412.603 110.974 412.263C110.334 411.913 109.829 411.418 109.459 410.778C109.089 410.138 108.904 409.383 108.904 408.513C108.904 407.643 109.089 406.888 109.459 406.248C109.829 405.598 110.334 405.103 110.974 404.763C111.624 404.423 112.354 404.253 113.164 404.253ZM113.164 406.083C112.574 406.083 112.074 406.293 111.664 406.713C111.254 407.123 111.049 407.723 111.049 408.513C111.049 409.303 111.254 409.908 111.664 410.328C112.074 410.738 112.574 410.943 113.164 410.943C113.754 410.943 114.254 410.738 114.664 410.328C115.074 409.908 115.279 409.303 115.279 408.513C115.279 407.723 115.074 407.123 114.664 406.713C114.254 406.293 113.754 406.083 113.164 406.083ZM123.359 410.853V412.668H122.249C121.319 412.668 120.604 412.443 120.104 411.993C119.614 411.543 119.369 410.793 119.369 409.743V406.143H118.214V404.358H119.369V402.303H121.484V404.358H123.344V406.143H121.484V409.773C121.484 410.173 121.564 410.453 121.724 410.613C121.884 410.773 122.154 410.853 122.534 410.853H123.359ZM128.136 404.253C128.836 404.253 129.436 404.418 129.936 404.748C130.436 405.078 130.791 405.523 131.001 406.083V404.358H133.101V412.668H131.001V410.928C130.791 411.488 130.436 411.938 129.936 412.278C129.436 412.608 128.836 412.773 128.136 412.773C127.436 412.773 126.806 412.603 126.246 412.263C125.686 411.923 125.246 411.433 124.926 410.793C124.616 410.143 124.461 409.383 124.461 408.513C124.461 407.643 124.616 406.888 124.926 406.248C125.246 405.598 125.686 405.103 126.246 404.763C126.806 404.423 127.436 404.253 128.136 404.253ZM128.796 406.098C128.136 406.098 127.606 406.313 127.206 406.743C126.806 407.173 126.606 407.763 126.606 408.513C126.606 409.263 126.806 409.853 127.206 410.283C127.606 410.703 128.136 410.913 128.796 410.913C129.436 410.913 129.961 410.698 130.371 410.268C130.791 409.828 131.001 409.243 131.001 408.513C131.001 407.773 130.791 407.188 130.371 406.758C129.961 406.318 129.436 406.098 128.796 406.098ZM137.133 401.568V412.668H135.018V401.568H137.133Z" fill="#111827"/>
<path d="M442.298 412.848C442.298 413.655 442.085 414.403 441.66 415.092C441.249 415.767 440.633 416.324 439.812 416.764C439.005 417.189 438.045 417.424 436.93 417.468V419.25H435.522V417.446C433.967 417.314 432.713 416.852 431.76 416.06C430.807 415.253 430.301 414.161 430.242 412.782H434.246C434.334 413.662 434.759 414.227 435.522 414.476V411C434.378 410.707 433.461 410.421 432.772 410.142C432.097 409.863 431.503 409.416 430.99 408.8C430.477 408.184 430.22 407.341 430.22 406.27C430.22 404.935 430.711 403.865 431.694 403.058C432.691 402.251 433.967 401.797 435.522 401.694V399.912H436.93V401.694C438.47 401.811 439.687 402.259 440.582 403.036C441.477 403.813 441.975 404.891 442.078 406.27H438.052C437.964 405.478 437.59 404.965 436.93 404.73V408.14C438.147 408.477 439.086 408.778 439.746 409.042C440.406 409.306 440.993 409.746 441.506 410.362C442.034 410.963 442.298 411.792 442.298 412.848ZM434.202 406.094C434.202 406.461 434.312 406.769 434.532 407.018C434.767 407.267 435.097 407.487 435.522 407.678V404.62C435.111 404.693 434.789 404.855 434.554 405.104C434.319 405.339 434.202 405.669 434.202 406.094ZM436.93 414.542C437.37 414.469 437.715 414.293 437.964 414.014C438.228 413.735 438.36 413.391 438.36 412.98C438.36 412.599 438.235 412.291 437.986 412.056C437.751 411.807 437.399 411.594 436.93 411.418V414.542ZM444.326 404.774V401.276H450.42V417.336H446.504V404.774H444.326ZM452.994 409.086C452.994 406.563 453.478 404.576 454.446 403.124C455.429 401.672 457.005 400.946 459.176 400.946C461.347 400.946 462.916 401.672 463.884 403.124C464.867 404.576 465.358 406.563 465.358 409.086C465.358 411.638 464.867 413.64 463.884 415.092C462.916 416.544 461.347 417.27 459.176 417.27C457.005 417.27 455.429 416.544 454.446 415.092C453.478 413.64 452.994 411.638 452.994 409.086ZM461.662 409.086C461.662 407.605 461.501 406.468 461.178 405.676C460.855 404.869 460.188 404.466 459.176 404.466C458.164 404.466 457.497 404.869 457.174 405.676C456.851 406.468 456.69 407.605 456.69 409.086C456.69 410.083 456.749 410.912 456.866 411.572C456.983 412.217 457.218 412.745 457.57 413.156C457.937 413.552 458.472 413.75 459.176 413.75C459.88 413.75 460.408 413.552 460.76 413.156C461.127 412.745 461.369 412.217 461.486 411.572C461.603 410.912 461.662 410.083 461.662 409.086ZM467.345 409.086C467.345 406.563 467.829 404.576 468.797 403.124C469.78 401.672 471.357 400.946 473.527 400.946C475.698 400.946 477.267 401.672 478.235 403.124C479.218 404.576 479.709 406.563 479.709 409.086C479.709 411.638 479.218 413.64 478.235 415.092C477.267 416.544 475.698 417.27 473.527 417.27C471.357 417.27 469.78 416.544 468.797 415.092C467.829 413.64 467.345 411.638 467.345 409.086ZM476.013 409.086C476.013 407.605 475.852 406.468 475.529 405.676C475.207 404.869 474.539 404.466 473.527 404.466C472.515 404.466 471.848 404.869 471.525 405.676C471.203 406.468 471.041 407.605 471.041 409.086C471.041 410.083 471.1 410.912 471.217 411.572C471.335 412.217 471.569 412.745 471.921 413.156C472.288 413.552 472.823 413.75 473.527 413.75C474.231 413.75 474.759 413.552 475.111 413.156C475.478 412.745 475.72 412.217 475.837 411.572C475.955 410.912 476.013 410.083 476.013 409.086Z" fill="#111827"/>
<path d="M481.271 417.996H480.431L483.575 408.36H484.415L481.271 417.996ZM484.374 417.336V412.704C484.374 412.48 484.362 412.252 484.338 412.02C484.322 411.78 484.302 411.544 484.278 411.312H485.214L485.334 412.632H485.19C485.35 412.176 485.602 411.824 485.946 411.576C486.298 411.328 486.722 411.204 487.218 411.204C487.722 411.204 488.13 411.324 488.442 411.564C488.762 411.804 488.978 412.176 489.09 412.68H488.91C489.062 412.224 489.33 411.864 489.714 411.6C490.098 411.336 490.546 411.204 491.058 411.204C491.722 411.204 492.222 411.396 492.558 411.78C492.894 412.156 493.062 412.752 493.062 413.568V417.336H492.09V413.628C492.09 413.06 491.99 412.648 491.79 412.392C491.59 412.128 491.27 411.996 490.83 411.996C490.326 411.996 489.926 412.172 489.63 412.524C489.342 412.868 489.198 413.332 489.198 413.916V417.336H488.226V413.628C488.226 413.06 488.126 412.648 487.926 412.392C487.726 412.128 487.406 411.996 486.966 411.996C486.462 411.996 486.066 412.172 485.778 412.524C485.49 412.868 485.346 413.332 485.346 413.916V417.336H484.374ZM497.381 417.444C496.805 417.444 496.301 417.32 495.869 417.072C495.445 416.816 495.117 416.456 494.885 415.992C494.653 415.52 494.537 414.964 494.537 414.324C494.537 413.676 494.653 413.12 494.885 412.656C495.117 412.192 495.445 411.836 495.869 411.588C496.301 411.332 496.805 411.204 497.381 411.204C497.965 411.204 498.469 411.332 498.893 411.588C499.325 411.836 499.657 412.192 499.889 412.656C500.129 413.12 500.249 413.676 500.249 414.324C500.249 414.964 500.129 415.52 499.889 415.992C499.657 416.456 499.325 416.816 498.893 417.072C498.469 417.32 497.965 417.444 497.381 417.444ZM497.381 416.652C497.957 416.652 498.413 416.456 498.749 416.064C499.085 415.664 499.253 415.084 499.253 414.324C499.253 413.556 499.081 412.976 498.737 412.584C498.401 412.184 497.949 411.984 497.381 411.984C496.813 411.984 496.361 412.184 496.025 412.584C495.689 412.976 495.521 413.556 495.521 414.324C495.521 415.084 495.689 415.664 496.025 416.064C496.361 416.456 496.813 416.652 497.381 416.652ZM501.764 417.336V412.704C501.764 412.48 501.752 412.252 501.728 412.02C501.712 411.78 501.692 411.544 501.668 411.312H502.604L502.724 412.632H502.58C502.756 412.168 503.036 411.816 503.42 411.576C503.812 411.328 504.264 411.204 504.776 411.204C505.488 411.204 506.024 411.396 506.384 411.78C506.752 412.156 506.936 412.752 506.936 413.568V417.336H505.964V413.628C505.964 413.06 505.848 412.648 505.616 412.392C505.392 412.128 505.04 411.996 504.56 411.996C504 411.996 503.556 412.168 503.228 412.512C502.9 412.856 502.736 413.316 502.736 413.892V417.336H501.764ZM510.932 417.444C510.34 417.444 509.888 417.276 509.576 416.94C509.264 416.596 509.108 416.08 509.108 415.392V412.068H507.932V411.312H509.108V409.668L510.08 409.392V411.312H511.808V412.068H510.08V415.284C510.08 415.764 510.16 416.108 510.32 416.316C510.488 416.516 510.736 416.616 511.064 416.616C511.216 416.616 511.352 416.604 511.472 416.58C511.592 416.548 511.7 416.512 511.796 416.472V417.288C511.684 417.336 511.548 417.372 511.388 417.396C511.236 417.428 511.084 417.444 510.932 417.444ZM512.991 417.336V408.504H513.963V412.644H513.807C513.975 412.172 514.255 411.816 514.647 411.576C515.047 411.328 515.507 411.204 516.027 411.204C516.747 411.204 517.283 411.4 517.635 411.792C517.987 412.176 518.163 412.76 518.163 413.544V417.336H517.191V413.604C517.191 413.044 517.079 412.636 516.855 412.38C516.639 412.124 516.287 411.996 515.799 411.996C515.239 411.996 514.791 412.168 514.455 412.512C514.127 412.856 513.963 413.308 513.963 413.868V417.336H512.991Z" fill="#9CA3AF"/>
<defs>
<clipPath id="clip0_4194_4958">
<rect width="40" height="41" fill="white" transform="translate(91 96)"/>
</clipPath>
</defs>
</svg>
