<svg width="246" height="186" viewBox="0 0 246 186" fill="none" xmlns="http://www.w3.org/2000/svg">
<g clip-path="url(#clip0_4206_7771)">
<path d="M129.479 186L109.5 179.94V119.738L129.479 125.798V186Z" fill="#DBDBDB"/>
<path d="M129.477 186L149.455 179.94V119.738L129.477 125.798V186Z" fill="url(#paint0_radial_4206_7771)"/>
<path d="M129.477 186L149.455 179.94V119.738L129.477 125.798V186Z" fill="#BFBFBF"/>
<path d="M129.479 113.215L109.5 119.741L129.479 125.801L149.457 119.741L129.479 113.215Z" fill="#EDEBEC"/>
<path d="M177.225 185.996L157.246 179.936V73.1172L177.225 79.1773V185.996Z" fill="#DBDBDB"/>
<path d="M177.223 185.996L197.201 179.936V73.1172L177.223 79.1773V185.996Z" fill="url(#paint1_radial_4206_7771)"/>
<path d="M177.223 185.996L197.201 179.936V73.1172L177.223 79.1773V185.996Z" fill="#BFBFBF"/>
<path d="M177.225 66.5938L157.246 73.1201L177.225 79.1802L197.203 73.1201L177.225 66.5938Z" fill="#EDEBEC"/>
<path d="M224.971 185.997L204.992 179.937V6.52344L224.971 12.5836V185.997Z" fill="#7C3AED"/>
<path d="M224.969 185.997L245.014 179.937V6.52344L224.969 12.5836V185.997Z" fill="url(#paint2_radial_4206_7771)"/>
<path d="M224.969 185.997L245.014 179.937V6.52344L224.969 12.5836V185.997Z" fill="#6909D6"/>
<path d="M224.971 0L204.992 6.52632L224.971 12.5865L245.016 6.52632L224.971 0Z" fill="#5C0CB5"/>
</g>
<path d="M107.854 162.854C108.049 162.658 108.049 162.342 107.854 162.146L104.672 158.964C104.476 158.769 104.16 158.769 103.964 158.964C103.769 159.16 103.769 159.476 103.964 159.672L106.793 162.5L103.964 165.328C103.769 165.524 103.769 165.84 103.964 166.036C104.16 166.231 104.476 166.231 104.672 166.036L107.854 162.854ZM0.146446 162.146C-0.0488129 162.342 -0.0488129 162.658 0.146446 162.854L3.32843 166.036C3.52369 166.231 3.84027 166.231 4.03554 166.036C4.2308 165.84 4.2308 165.524 4.03554 165.328L1.20711 162.5L4.03554 159.672C4.2308 159.476 4.2308 159.16 4.03554 158.964C3.84027 158.769 3.52369 158.769 3.32843 158.964L0.146446 162.146ZM107.5 162.5L107.5 162L0.5 162L0.5 162.5L0.5 163L107.5 163L107.5 162.5Z" fill="black"/>
<path d="M153.854 96.3536C154.049 96.1583 154.049 95.8417 153.854 95.6464L150.672 92.4645C150.476 92.2692 150.16 92.2692 149.964 92.4645C149.769 92.6597 149.769 92.9763 149.964 93.1716L152.793 96L149.964 98.8284C149.769 99.0237 149.769 99.3403 149.964 99.5355C150.16 99.7308 150.476 99.7308 150.672 99.5355L153.854 96.3536ZM0.146454 95.6464C-0.0488129 95.8417 -0.0488129 96.1583 0.146454 96.3536L3.32843 99.5355C3.5237 99.7308 3.84027 99.7308 4.03554 99.5355C4.2308 99.3403 4.2308 99.0237 4.03554 98.8284L1.20711 96L4.03554 93.1716C4.2308 92.9763 4.2308 92.6597 4.03554 92.4645C3.84027 92.2692 3.5237 92.2692 3.32843 92.4645L0.146454 95.6464ZM153.5 96V95.5L0.5 95.5V96V96.5L153.5 96.5V96Z" fill="black"/>
<path d="M204.854 36.3536C205.049 36.1583 205.049 35.8417 204.854 35.6464L201.672 32.4645C201.476 32.2692 201.16 32.2692 200.964 32.4645C200.769 32.6597 200.769 32.9763 200.964 33.1716L203.793 36L200.964 38.8284C200.769 39.0237 200.769 39.3403 200.964 39.5355C201.16 39.7308 201.476 39.7308 201.672 39.5355L204.854 36.3536ZM0.146439 35.6464C-0.0488129 35.8417 -0.0488129 36.1583 0.146439 36.3536L3.32843 39.5355C3.52368 39.7308 3.84027 39.7308 4.03554 39.5355C4.23079 39.3403 4.23079 39.0237 4.03554 38.8284L1.20711 36L4.03554 33.1716C4.23079 32.9763 4.23079 32.6597 4.03554 32.4645C3.84027 32.2692 3.52368 32.2692 3.32843 32.4645L0.146439 35.6464ZM204.5 36V35.5L0.5 35.5V36V36.5L204.5 36.5V36Z" fill="black"/>
<path d="M34.778 154.077C34.272 154.077 33.8173 153.989 33.414 153.813C33.018 153.63 32.7063 153.38 32.479 153.065C32.2517 152.742 32.1343 152.372 32.127 151.954H33.194C33.2307 152.313 33.3773 152.618 33.634 152.867C33.898 153.109 34.2793 153.23 34.778 153.23C35.2547 153.23 35.6287 153.113 35.9 152.878C36.1787 152.636 36.318 152.328 36.318 151.954C36.318 151.661 36.2373 151.422 36.076 151.239C35.9147 151.056 35.713 150.916 35.471 150.821C35.229 150.726 34.9027 150.623 34.492 150.513C33.986 150.381 33.579 150.249 33.271 150.117C32.9703 149.985 32.71 149.78 32.49 149.501C32.2773 149.215 32.171 148.834 32.171 148.357C32.171 147.939 32.2773 147.569 32.49 147.246C32.7027 146.923 32.9997 146.674 33.381 146.498C33.7697 146.322 34.2133 146.234 34.712 146.234C35.4307 146.234 36.0173 146.414 36.472 146.773C36.934 147.132 37.1943 147.609 37.253 148.203H36.153C36.1163 147.91 35.9623 147.653 35.691 147.433C35.4197 147.206 35.0603 147.092 34.613 147.092C34.195 147.092 33.854 147.202 33.59 147.422C33.326 147.635 33.194 147.935 33.194 148.324C33.194 148.603 33.271 148.83 33.425 149.006C33.5863 149.182 33.7807 149.318 34.008 149.413C34.2427 149.501 34.569 149.604 34.987 149.721C35.493 149.86 35.9 150 36.208 150.139C36.516 150.271 36.78 150.48 37 150.766C37.22 151.045 37.33 151.426 37.33 151.91C37.33 152.284 37.231 152.636 37.033 152.966C36.835 153.296 36.5417 153.564 36.153 153.769C35.7643 153.974 35.306 154.077 34.778 154.077ZM43.5221 146.333V147.147H41.4321V154H40.4311V147.147H38.3301V146.333H43.5221ZM49.2862 152.295H45.9422L45.3262 154H44.2702L47.0422 146.377H48.1972L50.9582 154H49.9022L49.2862 152.295ZM49.0002 151.481L47.6142 147.609L46.2282 151.481H49.0002ZM56.2033 154L54.3773 150.865H53.1673V154H52.1663V146.333H54.6413C55.2207 146.333 55.7083 146.432 56.1043 146.63C56.5077 146.828 56.8083 147.096 57.0063 147.433C57.2043 147.77 57.3033 148.155 57.3033 148.588C57.3033 149.116 57.1493 149.582 56.8413 149.985C56.5407 150.388 56.086 150.656 55.4773 150.788L57.4023 154H56.2033ZM53.1673 150.062H54.6413C55.184 150.062 55.591 149.93 55.8623 149.666C56.1337 149.395 56.2693 149.035 56.2693 148.588C56.2693 148.133 56.1337 147.781 55.8623 147.532C55.5983 147.283 55.1913 147.158 54.6413 147.158H53.1673V150.062ZM63.5777 146.333V147.147H61.4877V154H60.4867V147.147H58.3857V146.333H63.5777ZM65.8109 147.147V149.71H68.6049V150.535H65.8109V153.175H68.9349V154H64.8099V146.322H68.9349V147.147H65.8109ZM74.4865 154L72.6605 150.865H71.4505V154H70.4495V146.333H72.9245C73.5039 146.333 73.9915 146.432 74.3875 146.63C74.7909 146.828 75.0915 147.096 75.2895 147.433C75.4875 147.77 75.5865 148.155 75.5865 148.588C75.5865 149.116 75.4325 149.582 75.1245 149.985C74.8239 150.388 74.3692 150.656 73.7605 150.788L75.6855 154H74.4865ZM71.4505 150.062H72.9245C73.4672 150.062 73.8742 149.93 74.1455 149.666C74.4169 149.395 74.5525 149.035 74.5525 148.588C74.5525 148.133 74.4169 147.781 74.1455 147.532C73.8815 147.283 73.4745 147.158 72.9245 147.158H71.4505V150.062Z" fill="black"/>
<path d="M38.155 82.555C37.9423 82.1077 37.6343 81.763 37.231 81.521C36.8277 81.2717 36.3583 81.147 35.823 81.147C35.2877 81.147 34.8037 81.2717 34.371 81.521C33.9457 81.763 33.6083 82.115 33.359 82.577C33.117 83.0317 32.996 83.5597 32.996 84.161C32.996 84.7623 33.117 85.2903 33.359 85.745C33.6083 86.1997 33.9457 86.5517 34.371 86.801C34.8037 87.043 35.2877 87.164 35.823 87.164C36.571 87.164 37.187 86.9403 37.671 86.493C38.155 86.0457 38.4373 85.4407 38.518 84.678H35.46V83.864H39.585V84.634C39.5263 85.2647 39.3283 85.844 38.991 86.372C38.6537 86.8927 38.21 87.307 37.66 87.615C37.11 87.9157 36.4977 88.066 35.823 88.066C35.1117 88.066 34.4627 87.901 33.876 87.571C33.2893 87.2337 32.8237 86.768 32.479 86.174C32.1417 85.58 31.973 84.909 31.973 84.161C31.973 83.413 32.1417 82.742 32.479 82.148C32.8237 81.5467 33.2893 81.081 33.876 80.751C34.4627 80.4137 35.1117 80.245 35.823 80.245C36.637 80.245 37.3557 80.4467 37.979 80.85C38.6097 81.2533 39.068 81.8217 39.354 82.555H38.155ZM44.9455 88L43.1195 84.865H41.9095V88H40.9085V80.333H43.3835C43.9629 80.333 44.4505 80.432 44.8465 80.63C45.2499 80.828 45.5505 81.0957 45.7485 81.433C45.9465 81.7703 46.0455 82.1553 46.0455 82.588C46.0455 83.116 45.8915 83.5817 45.5835 83.985C45.2829 84.3883 44.8282 84.656 44.2195 84.788L46.1445 88H44.9455ZM41.9095 84.062H43.3835C43.9262 84.062 44.3332 83.93 44.6045 83.666C44.8759 83.3947 45.0115 83.0353 45.0115 82.588C45.0115 82.1333 44.8759 81.7813 44.6045 81.532C44.3405 81.2827 43.9335 81.158 43.3835 81.158H41.9095V84.062ZM51.0769 88.077C50.3656 88.077 49.7166 87.912 49.1299 87.582C48.5432 87.2447 48.0776 86.779 47.7329 86.185C47.3956 85.5837 47.2269 84.909 47.2269 84.161C47.2269 83.413 47.3956 82.742 47.7329 82.148C48.0776 81.5467 48.5432 81.081 49.1299 80.751C49.7166 80.4137 50.3656 80.245 51.0769 80.245C51.7956 80.245 52.4482 80.4137 53.0349 80.751C53.6216 81.081 54.0836 81.543 54.4209 82.137C54.7582 82.731 54.9269 83.4057 54.9269 84.161C54.9269 84.9163 54.7582 85.591 54.4209 86.185C54.0836 86.779 53.6216 87.2447 53.0349 87.582C52.4482 87.912 51.7956 88.077 51.0769 88.077ZM51.0769 87.208C51.6122 87.208 52.0926 87.0833 52.5179 86.834C52.9506 86.5847 53.2879 86.229 53.5299 85.767C53.7792 85.305 53.9039 84.7697 53.9039 84.161C53.9039 83.545 53.7792 83.0097 53.5299 82.555C53.2879 82.093 52.9542 81.7373 52.5289 81.488C52.1036 81.2387 51.6196 81.114 51.0769 81.114C50.5342 81.114 50.0502 81.2387 49.6249 81.488C49.1996 81.7373 48.8622 82.093 48.6129 82.555C48.3709 83.0097 48.2499 83.545 48.2499 84.161C48.2499 84.7697 48.3709 85.305 48.6129 85.767C48.8622 86.229 49.1996 86.5847 49.6249 86.834C50.0576 87.0833 50.5416 87.208 51.0769 87.208ZM65.8844 80.333L63.6624 88H62.5404L60.7584 81.829L58.9104 88L57.7994 88.011L55.6544 80.333H56.7214L58.3934 86.834L60.2414 80.333H61.3634L63.1234 86.812L64.8064 80.333H65.8844ZM71.6988 80.333V81.147H69.6088V88H68.6078V81.147H66.5068V80.333H71.6988ZM78.838 80.333V88H77.837V84.524H73.932V88H72.931V80.333H73.932V83.699H77.837V80.333H78.838Z" fill="black"/>
<path d="M36.186 24.051C36.4647 24.095 36.7177 24.2087 36.945 24.392C37.1797 24.5753 37.363 24.8027 37.495 25.074C37.6343 25.3453 37.704 25.635 37.704 25.943C37.704 26.3317 37.605 26.6837 37.407 26.999C37.209 27.307 36.9193 27.5527 36.538 27.736C36.164 27.912 35.7203 28 35.207 28H32.347V20.333H35.097C35.6177 20.333 36.0613 20.421 36.428 20.597C36.7947 20.7657 37.0697 20.9967 37.253 21.29C37.4363 21.5833 37.528 21.9133 37.528 22.28C37.528 22.7347 37.4033 23.1123 37.154 23.413C36.912 23.7063 36.5893 23.919 36.186 24.051ZM33.348 23.644H35.031C35.5003 23.644 35.8633 23.534 36.12 23.314C36.3767 23.094 36.505 22.7897 36.505 22.401C36.505 22.0123 36.3767 21.708 36.12 21.488C35.8633 21.268 35.493 21.158 35.009 21.158H33.348V23.644ZM35.119 27.175C35.6177 27.175 36.0063 27.0577 36.285 26.823C36.5637 26.5883 36.703 26.262 36.703 25.844C36.703 25.4187 36.5563 25.085 36.263 24.843C35.9697 24.5937 35.5773 24.469 35.086 24.469H33.348V27.175H35.119ZM40.0721 20.333V25.184C40.0721 25.866 40.2371 26.372 40.5671 26.702C40.9044 27.032 41.3701 27.197 41.9641 27.197C42.5508 27.197 43.0091 27.032 43.3391 26.702C43.6764 26.372 43.8451 25.866 43.8451 25.184V20.333H44.8461V25.173C44.8461 25.811 44.7178 26.35 44.4611 26.79C44.2044 27.2227 43.8561 27.5453 43.4161 27.758C42.9834 27.9707 42.4958 28.077 41.9531 28.077C41.4104 28.077 40.9191 27.9707 40.4791 27.758C40.0464 27.5453 39.7018 27.2227 39.4451 26.79C39.1958 26.35 39.0711 25.811 39.0711 25.173V20.333H40.0721ZM48.9469 28.077C48.4409 28.077 47.9863 27.989 47.5829 27.813C47.1869 27.6297 46.8753 27.3803 46.6479 27.065C46.4206 26.7423 46.3033 26.372 46.2959 25.954H47.3629C47.3996 26.3133 47.5463 26.6177 47.8029 26.867C48.0669 27.109 48.4483 27.23 48.9469 27.23C49.4236 27.23 49.7976 27.1127 50.0689 26.878C50.3476 26.636 50.4869 26.328 50.4869 25.954C50.4869 25.6607 50.4063 25.4223 50.2449 25.239C50.0836 25.0557 49.8819 24.9163 49.6399 24.821C49.3979 24.7257 49.0716 24.623 48.6609 24.513C48.1549 24.381 47.7479 24.249 47.4399 24.117C47.1393 23.985 46.8789 23.7797 46.6589 23.501C46.4463 23.215 46.3399 22.8337 46.3399 22.357C46.3399 21.939 46.4463 21.5687 46.6589 21.246C46.8716 20.9233 47.1686 20.674 47.5499 20.498C47.9386 20.322 48.3823 20.234 48.8809 20.234C49.5996 20.234 50.1863 20.4137 50.6409 20.773C51.1029 21.1323 51.3633 21.609 51.4219 22.203H50.3219C50.2853 21.9097 50.1313 21.653 49.8599 21.433C49.5886 21.2057 49.2293 21.092 48.7819 21.092C48.3639 21.092 48.0229 21.202 47.7589 21.422C47.4949 21.6347 47.3629 21.9353 47.3629 22.324C47.3629 22.6027 47.4399 22.83 47.5939 23.006C47.7553 23.182 47.9496 23.3177 48.1769 23.413C48.4116 23.501 48.7379 23.6037 49.1559 23.721C49.6619 23.8603 50.0689 23.9997 50.3769 24.139C50.6849 24.271 50.9489 24.48 51.1689 24.766C51.3889 25.0447 51.4989 25.426 51.4989 25.91C51.4989 26.284 51.3999 26.636 51.2019 26.966C51.0039 27.296 50.7106 27.5637 50.3219 27.769C49.9333 27.9743 49.4749 28.077 48.9469 28.077ZM53.973 20.333V28H52.972V20.333H53.973ZM61.707 28H60.706L56.68 21.895V28H55.679V20.322H56.68L60.706 26.416V20.322H61.707V28ZM64.4144 21.147V23.71H67.2084V24.535H64.4144V27.175H67.5384V28H63.4134V20.322H67.5384V21.147H64.4144ZM71.4841 28.077C70.9781 28.077 70.5234 27.989 70.1201 27.813C69.7241 27.6297 69.4124 27.3803 69.1851 27.065C68.9577 26.7423 68.8404 26.372 68.8331 25.954H69.9001C69.9367 26.3133 70.0834 26.6177 70.3401 26.867C70.6041 27.109 70.9854 27.23 71.4841 27.23C71.9607 27.23 72.3347 27.1127 72.6061 26.878C72.8847 26.636 73.0241 26.328 73.0241 25.954C73.0241 25.6607 72.9434 25.4223 72.7821 25.239C72.6207 25.0557 72.4191 24.9163 72.1771 24.821C71.9351 24.7257 71.6087 24.623 71.1981 24.513C70.6921 24.381 70.2851 24.249 69.9771 24.117C69.6764 23.985 69.4161 23.7797 69.1961 23.501C68.9834 23.215 68.8771 22.8337 68.8771 22.357C68.8771 21.939 68.9834 21.5687 69.1961 21.246C69.4087 20.9233 69.7057 20.674 70.0871 20.498C70.4757 20.322 70.9194 20.234 71.4181 20.234C72.1367 20.234 72.7234 20.4137 73.1781 20.773C73.6401 21.1323 73.9004 21.609 73.9591 22.203H72.8591C72.8224 21.9097 72.6684 21.653 72.3971 21.433C72.1257 21.2057 71.7664 21.092 71.3191 21.092C70.9011 21.092 70.5601 21.202 70.2961 21.422C70.0321 21.6347 69.9001 21.9353 69.9001 22.324C69.9001 22.6027 69.9771 22.83 70.1311 23.006C70.2924 23.182 70.4867 23.3177 70.7141 23.413C70.9487 23.501 71.2751 23.6037 71.6931 23.721C72.1991 23.8603 72.6061 23.9997 72.9141 24.139C73.2221 24.271 73.4861 24.48 73.7061 24.766C73.9261 25.0447 74.0361 25.426 74.0361 25.91C74.0361 26.284 73.9371 26.636 73.7391 26.966C73.5411 27.296 73.2477 27.5637 72.8591 27.769C72.4704 27.9743 72.0121 28.077 71.4841 28.077ZM77.9401 28.077C77.4341 28.077 76.9794 27.989 76.5761 27.813C76.1801 27.6297 75.8684 27.3803 75.6411 27.065C75.4138 26.7423 75.2964 26.372 75.2891 25.954H76.3561C76.3928 26.3133 76.5394 26.6177 76.7961 26.867C77.0601 27.109 77.4414 27.23 77.9401 27.23C78.4168 27.23 78.7908 27.1127 79.0621 26.878C79.3408 26.636 79.4801 26.328 79.4801 25.954C79.4801 25.6607 79.3994 25.4223 79.2381 25.239C79.0768 25.0557 78.8751 24.9163 78.6331 24.821C78.3911 24.7257 78.0648 24.623 77.6541 24.513C77.1481 24.381 76.7411 24.249 76.4331 24.117C76.1324 23.985 75.8721 23.7797 75.6521 23.501C75.4394 23.215 75.3331 22.8337 75.3331 22.357C75.3331 21.939 75.4394 21.5687 75.6521 21.246C75.8648 20.9233 76.1618 20.674 76.5431 20.498C76.9318 20.322 77.3754 20.234 77.8741 20.234C78.5928 20.234 79.1794 20.4137 79.6341 20.773C80.0961 21.1323 80.3564 21.609 80.4151 22.203H79.3151C79.2784 21.9097 79.1244 21.653 78.8531 21.433C78.5818 21.2057 78.2224 21.092 77.7751 21.092C77.3571 21.092 77.0161 21.202 76.7521 21.422C76.4881 21.6347 76.3561 21.9353 76.3561 22.324C76.3561 22.6027 76.4331 22.83 76.5871 23.006C76.7484 23.182 76.9428 23.3177 77.1701 23.413C77.4048 23.501 77.7311 23.6037 78.1491 23.721C78.6551 23.8603 79.0621 23.9997 79.3701 24.139C79.6781 24.271 79.9421 24.48 80.1621 24.766C80.3821 25.0447 80.4921 25.426 80.4921 25.91C80.4921 26.284 80.3931 26.636 80.1951 26.966C79.9971 27.296 79.7038 27.5637 79.3151 27.769C78.9264 27.9743 78.4681 28.077 77.9401 28.077Z" fill="black"/>
<defs>
<radialGradient id="paint0_radial_4206_7771" cx="0" cy="0" r="1" gradientUnits="userSpaceOnUse" gradientTransform="translate(161.626 28.2754) scale(306.128 306.128)">
<stop stop-color="#00FEFF"/>
<stop offset="0.1348" stop-color="#01CDE8"/>
<stop offset="0.2735" stop-color="#02A3D5"/>
<stop offset="0.415" stop-color="#0380C5"/>
<stop offset="0.5575" stop-color="#0465B8"/>
<stop offset="0.7014" stop-color="#0551AF"/>
<stop offset="0.8477" stop-color="#0546AA"/>
<stop offset="1" stop-color="#0542A8"/>
</radialGradient>
<radialGradient id="paint1_radial_4206_7771" cx="0" cy="0" r="1" gradientUnits="userSpaceOnUse" gradientTransform="translate(209.379 -82.677) scale(520.466 520.466)">
<stop stop-color="#00FEFF"/>
<stop offset="0.1348" stop-color="#01CDE8"/>
<stop offset="0.2735" stop-color="#02A3D5"/>
<stop offset="0.415" stop-color="#0380C5"/>
<stop offset="0.5575" stop-color="#0465B8"/>
<stop offset="0.7014" stop-color="#0551AF"/>
<stop offset="0.8477" stop-color="#0546AA"/>
<stop offset="1" stop-color="#0542A8"/>
</radialGradient>
<radialGradient id="paint2_radial_4206_7771" cx="0" cy="0" r="1" gradientUnits="userSpaceOnUse" gradientTransform="translate(257.133 -241.173) scale(827 827)">
<stop stop-color="#00FEFF"/>
<stop offset="0.1348" stop-color="#01CDE8"/>
<stop offset="0.2735" stop-color="#02A3D5"/>
<stop offset="0.415" stop-color="#0380C5"/>
<stop offset="0.5575" stop-color="#0465B8"/>
<stop offset="0.7014" stop-color="#0551AF"/>
<stop offset="0.8477" stop-color="#0546AA"/>
<stop offset="1" stop-color="#0542A8"/>
</radialGradient>
<clipPath id="clip0_4206_7771">
<rect width="135.521" height="186" fill="white" transform="translate(109.5)"/>
</clipPath>
</defs>
</svg>
