<svg width="89" height="89" viewBox="0 0 89 89" fill="none" xmlns="http://www.w3.org/2000/svg">
<rect width="88.9809" height="88.9809" rx="20.0925" fill="#7C3AED"/>
<g clip-path="url(#clip0_150_2009)">
<path d="M18.3797 19.5373C19.8453 19.4244 21.5291 19.4628 23.0133 19.4763C25.2397 21.5233 27.651 23.5658 29.9231 25.5766L46.5096 40.2263C50.3366 36.3402 55.4816 31.6408 59.5061 27.9512C52.2532 27.7931 44.6637 27.9286 37.3734 27.8925C34.4216 25.1112 30.9043 22.3209 27.8464 19.5509H28.1998C37.8079 19.4108 47.6737 19.5509 57.3026 19.5509H66.4263C67.977 19.5509 70.5713 19.4741 72.0556 19.7113C73.0906 19.8679 74.0518 20.3819 74.7975 21.1776C76.7661 23.3037 76.448 27.8224 76.448 30.667V38.8752L76.421 66.9976H66.3868V58.6831V34.7338C61.6867 38.638 57.0739 42.967 52.378 46.905C50.532 48.4527 48.7069 50.1834 46.8214 51.6633C46.0252 51.6633 45.3413 51.6633 44.5348 51.5955C39.3774 47.3818 34.1035 43.3059 28.9149 39.1351C26.9671 37.5693 24.9923 36.0171 22.9967 34.526C22.7888 42.018 22.9509 50.3528 22.9551 57.8991H42.1213L42.1338 66.9976H26.6657C24.0236 66.9976 21.2796 67.0699 18.6416 66.9456C18.0724 66.894 17.5197 66.7114 17.0202 66.4101C13.1994 64.135 13.9644 58.5905 13.9686 54.5101V44.3429V32.7659C13.9644 27.9987 13.029 20.9969 18.3797 19.5373Z" fill="white"/>
<path d="M51.8973 53.0346C53.3873 52.7877 54.9112 53.0264 56.2765 53.7204C57.6418 54.4144 58.7872 55.5327 59.5681 56.9339C60.349 58.3351 60.7302 59.9564 60.6637 61.593C60.5972 63.2296 60.0859 64.8081 59.1944 66.129C58.3029 67.4499 57.0713 68.454 55.655 69.0145C54.2387 69.575 52.7014 69.6667 51.2371 69.278C49.7729 68.8894 48.4476 68.0377 47.4284 66.8308C46.4093 65.6238 45.7422 64.1157 45.5113 62.4968C45.3582 61.4197 45.402 60.3203 45.6402 59.2616C45.8784 58.2029 46.3063 57.2056 46.8994 56.3267C47.4925 55.4479 48.2392 54.7048 49.0968 54.1399C49.9544 53.575 50.906 53.1994 51.8973 53.0346Z" fill="white"/>
</g>
<defs>
<clipPath id="clip0_150_2009">
<rect width="62.5647" height="50.0517" fill="white" transform="translate(13.9033 19.4644)"/>
</clipPath>
</defs>
</svg>
