<svg width="553" height="280" viewBox="0 0 553 280" fill="none" xmlns="http://www.w3.org/2000/svg">
<g clip-path="url(#clip0_4176_2519)">
<rect x="0.5" y="0.5" width="552" height="279" rx="9.5" stroke="#E4E4E4"/>
<g clip-path="url(#clip1_4176_2519)">
<rect width="553" height="280" fill="#FAFAFA"/>
<g filter="url(#filter0_d_4176_2519)">
<mask id="path-3-inside-1_4176_2519" fill="white">
<path d="M28.0547 40.2144C28.0547 30.9226 35.5871 23.3901 44.8789 23.3901H463.241C472.533 23.3901 480.065 30.9226 480.065 40.2144V66.0115C480.065 75.3033 472.533 82.8357 463.241 82.8357H44.8789C35.5871 82.8357 28.0547 75.3033 28.0547 66.0115V40.2144Z"/>
</mask>
<path d="M28.0547 40.2144C28.0547 30.9226 35.5871 23.3901 44.8789 23.3901H463.241C472.533 23.3901 480.065 30.9226 480.065 40.2144V66.0115C480.065 75.3033 472.533 82.8357 463.241 82.8357H44.8789C35.5871 82.8357 28.0547 75.3033 28.0547 66.0115V40.2144Z" fill="white" shape-rendering="crispEdges"/>
<path d="M44.8789 23.3901V24.5118H463.241V23.3901V22.2685H44.8789V23.3901ZM480.065 40.2144H478.944V66.0115H480.065H481.187V40.2144H480.065ZM463.241 82.8357V81.7141H44.8789V82.8357V83.9573H463.241V82.8357ZM28.0547 66.0115H29.1763V40.2144H28.0547H26.9331V66.0115H28.0547ZM44.8789 82.8357V81.7141C36.2066 81.7141 29.1763 74.6838 29.1763 66.0115H28.0547H26.9331C26.9331 75.9227 34.9677 83.9573 44.8789 83.9573V82.8357ZM480.065 66.0115H478.944C478.944 74.6838 471.913 81.7141 463.241 81.7141V82.8357V83.9573C473.152 83.9573 481.187 75.9227 481.187 66.0115H480.065ZM463.241 23.3901V24.5118C471.913 24.5118 478.944 31.542 478.944 40.2144H480.065H481.187C481.187 30.3031 473.152 22.2685 463.241 22.2685V23.3901ZM44.8789 23.3901V22.2685C34.9677 22.2685 26.9331 30.3032 26.9331 40.2144H28.0547H29.1763C29.1763 31.5421 36.2066 24.5118 44.8789 24.5118V23.3901Z" fill="#F3F4F6" mask="url(#path-3-inside-1_4176_2519)"/>
<path d="M49.3672 53.113C49.3672 49.3963 52.3802 46.3833 56.0969 46.3833V46.3833C59.8136 46.3833 62.8266 49.3963 62.8266 53.113V53.113C62.8266 56.8297 59.8136 59.8427 56.0969 59.8427V59.8427C52.3802 59.8427 49.3672 56.8297 49.3672 53.113V53.113Z" fill="#4338CA"/>
<path d="M84.6351 60.0308C83.7872 60.0308 83.0066 59.9231 82.2932 59.7078C81.5799 59.4924 80.9876 59.1896 80.5166 58.7993L81.1424 57.4062C81.6404 57.7831 82.1923 58.0658 82.7979 58.2542C83.4036 58.4426 84.0227 58.5368 84.6553 58.5368C85.3956 58.5368 85.9542 58.409 86.331 58.1532C86.7079 57.8841 86.8963 57.5206 86.8963 57.063C86.8963 56.7131 86.7752 56.4304 86.5329 56.2151C86.3041 55.9997 85.9205 55.8382 85.3821 55.7306L83.444 55.347C82.5826 55.1585 81.9298 54.8355 81.4856 54.3779C81.0415 53.9203 80.8194 53.3348 80.8194 52.6214C80.8194 52.0158 80.9809 51.4774 81.3039 51.0063C81.6404 50.5352 82.1115 50.1651 82.7172 49.8959C83.3363 49.6267 84.0564 49.4921 84.8774 49.4921C85.6311 49.4921 86.331 49.5998 86.9771 49.8152C87.6231 50.0305 88.1615 50.3401 88.5922 50.7439L87.9461 52.0965C87.5289 51.7466 87.0578 51.4774 86.5329 51.289C86.008 51.0871 85.4763 50.9861 84.938 50.9861C84.1842 50.9861 83.6257 51.1274 83.2623 51.4101C82.8989 51.6927 82.7172 52.0629 82.7172 52.5205C82.7172 52.8704 82.8249 53.1598 83.0402 53.3886C83.269 53.604 83.6257 53.7722 84.1102 53.8933L86.0484 54.2769C86.9636 54.4654 87.65 54.7749 88.1077 55.2056C88.5653 55.6363 88.7941 56.2151 88.7941 56.9419C88.7941 57.5745 88.6191 58.1263 88.2692 58.5974C87.9192 59.0685 87.4347 59.4252 86.8156 59.6674C86.1964 59.9097 85.4696 60.0308 84.6351 60.0308ZM94.8114 60.0308C93.5866 60.0308 92.6646 59.7011 92.0455 59.0416C91.4398 58.3686 91.137 57.3389 91.137 55.9526V49.6738H93.1761V55.9123C93.1761 56.7602 93.351 57.3861 93.701 57.7898C94.0509 58.1936 94.5826 58.3955 95.2959 58.3955C96.1035 58.3955 96.7562 58.1263 97.2542 57.5879C97.7522 57.0496 98.0012 56.3362 98.0012 55.4479V49.6738H100.04V59.8491H98.0618V57.6687H98.3243C98.0416 58.4224 97.5907 59.0079 96.9716 59.4252C96.3525 59.8289 95.6324 60.0308 94.8114 60.0308ZM103.027 64.21V52.1167C103.027 51.7264 103.007 51.3293 102.966 50.9256C102.94 50.5083 102.906 50.0911 102.866 49.6738H104.844L105.046 51.9754H104.824C105.039 51.2082 105.47 50.6025 106.116 50.1584C106.775 49.7142 107.556 49.4921 108.458 49.4921C109.36 49.4921 110.147 49.7075 110.82 50.1382C111.493 50.5554 112.011 51.1544 112.375 51.935C112.751 52.7157 112.94 53.6578 112.94 54.7615C112.94 55.8517 112.751 56.7938 112.375 57.5879C112.011 58.382 111.493 58.9877 110.82 59.405C110.147 59.8222 109.36 60.0308 108.458 60.0308C107.57 60.0308 106.796 59.8155 106.136 59.3848C105.49 58.9406 105.059 58.3417 104.844 57.5879H105.066V64.21H103.027ZM107.953 58.4359C108.842 58.4359 109.548 58.1263 110.073 57.5072C110.611 56.8881 110.881 55.9728 110.881 54.7615C110.881 53.5501 110.611 52.6416 110.073 52.036C109.548 51.4168 108.842 51.1073 107.953 51.1073C107.065 51.1073 106.352 51.4168 105.813 52.036C105.288 52.6416 105.026 53.5501 105.026 54.7615C105.026 55.9728 105.288 56.8881 105.813 57.5072C106.352 58.1263 107.065 58.4359 107.953 58.4359ZM115.33 64.21V52.1167C115.33 51.7264 115.31 51.3293 115.269 50.9256C115.242 50.5083 115.209 50.0911 115.168 49.6738H117.147L117.349 51.9754H117.127C117.342 51.2082 117.773 50.6025 118.419 50.1584C119.078 49.7142 119.859 49.4921 120.761 49.4921C121.662 49.4921 122.45 49.7075 123.123 50.1382C123.796 50.5554 124.314 51.1544 124.677 51.935C125.054 52.7157 125.243 53.6578 125.243 54.7615C125.243 55.8517 125.054 56.7938 124.677 57.5879C124.314 58.382 123.796 58.9877 123.123 59.405C122.45 59.8222 121.662 60.0308 120.761 60.0308C119.872 60.0308 119.098 59.8155 118.439 59.3848C117.793 58.9406 117.362 58.3417 117.147 57.5879H117.369V64.21H115.33ZM120.256 58.4359C121.144 58.4359 121.851 58.1263 122.376 57.5072C122.914 56.8881 123.183 55.9728 123.183 54.7615C123.183 53.5501 122.914 52.6416 122.376 52.036C121.851 51.4168 121.144 51.1073 120.256 51.1073C119.368 51.1073 118.654 51.4168 118.116 52.036C117.591 52.6416 117.328 53.5501 117.328 54.7615C117.328 55.9728 117.591 56.8881 118.116 57.5072C118.654 58.1263 119.368 58.4359 120.256 58.4359ZM131.993 60.0308C130.984 60.0308 130.109 59.8222 129.369 59.405C128.628 58.9743 128.056 58.3686 127.653 57.5879C127.249 56.7938 127.047 55.8517 127.047 54.7615C127.047 53.6713 127.249 52.7358 127.653 51.9552C128.056 51.1611 128.628 50.5554 129.369 50.1382C130.109 49.7075 130.984 49.4921 131.993 49.4921C133.003 49.4921 133.878 49.7075 134.618 50.1382C135.372 50.5554 135.95 51.1611 136.354 51.9552C136.771 52.7358 136.98 53.6713 136.98 54.7615C136.98 55.8517 136.771 56.7938 136.354 57.5879C135.95 58.3686 135.372 58.9743 134.618 59.405C133.878 59.8222 133.003 60.0308 131.993 60.0308ZM131.993 58.4359C132.882 58.4359 133.588 58.1263 134.113 57.5072C134.638 56.8881 134.901 55.9728 134.901 54.7615C134.901 53.5501 134.638 52.6416 134.113 52.036C133.588 51.4168 132.882 51.1073 131.993 51.1073C131.118 51.1073 130.419 51.4168 129.894 52.036C129.369 52.6416 129.106 53.5501 129.106 54.7615C129.106 55.9728 129.362 56.8881 129.873 57.5072C130.398 58.1263 131.105 58.4359 131.993 58.4359ZM139.323 59.8491V52.1975C139.323 51.7802 139.31 51.363 139.283 50.9457C139.269 50.515 139.242 50.0911 139.202 49.6738H141.18L141.403 52.2984H141.079C141.214 51.6658 141.443 51.1409 141.766 50.7237C142.089 50.3064 142.479 49.9969 142.937 49.795C143.408 49.5931 143.899 49.4921 144.411 49.4921C144.626 49.4921 144.808 49.5056 144.956 49.5325C145.104 49.546 145.252 49.5729 145.4 49.6133L145.38 51.4303C145.151 51.3361 144.949 51.2822 144.774 51.2688C144.613 51.2419 144.411 51.2284 144.168 51.2284C143.576 51.2284 143.071 51.363 142.654 51.6322C142.237 51.8879 141.921 52.2378 141.705 52.682C141.49 53.1262 141.382 53.604 141.382 54.1154V59.8491H139.323ZM151.483 60.0308C150.379 60.0308 149.545 59.7347 148.979 59.1425C148.414 58.5368 148.131 57.6351 148.131 56.4372V51.2486H146.153V49.6738H148.131V46.9887L150.171 46.4436V49.6738H152.997V51.2486H150.171V56.2555C150.171 57.0092 150.305 57.5476 150.574 57.8706C150.844 58.1936 151.234 58.3551 151.745 58.3551C152.001 58.3551 152.223 58.3349 152.412 58.2946C152.613 58.2407 152.795 58.1802 152.957 58.1129V59.7684C152.755 59.8491 152.519 59.9097 152.25 59.9501C151.981 60.0039 151.725 60.0308 151.483 60.0308ZM163.34 63.1601C162.02 63.1601 160.823 62.9515 159.746 62.5343C158.669 62.1305 157.74 61.5383 156.96 60.7576C156.193 59.9904 155.6 59.0752 155.183 58.0119C154.766 56.9352 154.557 55.7306 154.557 54.3981C154.557 53.0656 154.773 51.8475 155.203 50.7439C155.634 49.6402 156.253 48.6913 157.061 47.8972C157.882 47.1031 158.844 46.4974 159.948 46.0802C161.065 45.6495 162.303 45.4341 163.663 45.4341C165.278 45.4341 166.684 45.7437 167.882 46.3628C169.093 46.982 170.036 47.8568 170.709 48.9874C171.381 50.1045 171.718 51.4236 171.718 52.9445C171.718 54.102 171.55 55.1114 171.213 55.9728C170.89 56.8208 170.426 57.4803 169.82 57.9513C169.228 58.4224 168.528 58.658 167.721 58.658C166.913 58.658 166.287 58.4292 165.843 57.9715C165.412 57.5139 165.21 56.8813 165.237 56.0738L165.722 56.0536C165.372 56.9015 164.881 57.5476 164.248 57.9917C163.629 58.4359 162.949 58.658 162.209 58.658C161.132 58.658 160.298 58.3282 159.705 57.6687C159.127 57.0092 158.837 56.1007 158.837 54.9432C158.837 53.9472 159.026 53.0656 159.403 52.2984C159.78 51.5178 160.304 50.9121 160.977 50.4814C161.65 50.0372 162.411 49.8152 163.259 49.8152C164.012 49.8152 164.625 49.9969 165.096 50.3603C165.567 50.7237 165.877 51.2419 166.025 51.9148H165.742L166.105 49.9969H167.68L166.772 55.0643C166.745 55.2662 166.718 55.4546 166.691 55.6296C166.677 55.7911 166.671 55.9459 166.671 56.094C166.671 56.5247 166.765 56.8477 166.953 57.063C167.155 57.2784 167.451 57.3861 167.842 57.3861C168.34 57.3861 168.777 57.2044 169.154 56.841C169.531 56.4641 169.827 55.9459 170.042 55.2864C170.258 54.6134 170.365 53.8328 170.365 52.9445C170.365 51.6658 170.089 50.5689 169.538 49.6536C168.986 48.7249 168.205 48.0116 167.196 47.5136C166.2 47.0156 165.015 46.7666 163.642 46.7666C162.121 46.7666 160.789 47.0829 159.645 47.7155C158.501 48.3346 157.613 49.2229 156.98 50.3805C156.361 51.5245 156.051 52.8637 156.051 54.3981C156.051 55.9324 156.347 57.2582 156.94 58.3753C157.545 59.4924 158.393 60.3471 159.483 60.9393C160.574 61.5315 161.859 61.8276 163.34 61.8276C164.43 61.8276 165.412 61.6661 166.287 61.3431C167.175 61.0335 167.922 60.5827 168.528 59.9904L169.255 61.1412C168.595 61.7873 167.754 62.2853 166.731 62.6352C165.708 62.9852 164.578 63.1601 163.34 63.1601ZM162.471 57.3053C163.05 57.3053 163.562 57.1371 164.006 56.8006C164.463 56.4641 164.82 55.9997 165.076 55.4075C165.345 54.8019 165.48 54.1154 165.48 53.3482C165.48 52.6214 165.318 52.0831 164.995 51.7331C164.672 51.3697 164.174 51.188 163.501 51.188C162.936 51.188 162.418 51.3495 161.946 51.6726C161.489 51.9821 161.132 52.4195 160.876 52.9848C160.621 53.5501 160.493 54.1962 160.493 54.923C160.493 55.6902 160.661 56.2824 160.998 56.6996C161.348 57.1034 161.839 57.3053 162.471 57.3053Z" fill="#374151"/>
<path d="M362.379 59.8491V56.7602H355.595V55.5489L362.641 45.6158H364.014V55.4075H366.195V56.7602H364.014V59.8491H362.379ZM362.379 55.4075V47.5944H362.823L356.968 55.8315V55.4075H362.379ZM373.551 59.8491V52.0561C373.551 51.6793 373.53 51.2957 373.49 50.9054C373.463 50.5016 373.429 50.1045 373.389 49.7142H374.964L375.166 51.935H374.923C375.193 51.1678 375.617 50.5756 376.195 50.1584C376.788 49.7411 377.501 49.5325 378.335 49.5325C379.183 49.5325 379.87 49.7344 380.395 50.1382C380.933 50.542 381.296 51.1678 381.485 52.0158H381.182C381.438 51.2486 381.889 50.6429 382.535 50.1987C383.181 49.7546 383.934 49.5325 384.796 49.5325C385.913 49.5325 386.754 49.8555 387.32 50.5016C387.885 51.1342 388.167 52.1369 388.167 53.5098V59.8491H386.532V53.6107C386.532 52.6551 386.364 51.9619 386.027 51.5312C385.691 51.0871 385.153 50.865 384.412 50.865C383.564 50.865 382.891 51.1611 382.393 51.7533C381.909 52.3321 381.667 53.1127 381.667 54.0952V59.8491H380.031V53.6107C380.031 52.6551 379.863 51.9619 379.527 51.5312C379.19 51.0871 378.652 50.865 377.911 50.865C377.063 50.865 376.397 51.1611 375.913 51.7533C375.428 52.3321 375.186 53.1127 375.186 54.0952V59.8491H373.551ZM395.777 60.0308C394.189 60.0308 392.937 59.5732 392.022 58.658C391.107 57.7293 390.649 56.4439 390.649 54.8019C390.649 53.7386 390.851 52.8166 391.255 52.036C391.659 51.2419 392.224 50.6294 392.951 50.1987C393.678 49.7546 394.512 49.5325 395.454 49.5325C396.383 49.5325 397.164 49.7277 397.796 50.118C398.429 50.5083 398.913 51.0669 399.25 51.7937C399.586 52.507 399.755 53.355 399.755 54.3375V54.9432H391.901V53.9135H398.685L398.341 54.176C398.341 53.0992 398.099 52.258 397.615 51.6524C397.13 51.0467 396.41 50.7439 395.454 50.7439C394.445 50.7439 393.657 51.1005 393.092 51.8139C392.527 52.5138 392.244 53.4626 392.244 54.6605V54.8422C392.244 56.1074 392.554 57.0698 393.173 57.7293C393.806 58.3753 394.687 58.6983 395.818 58.6983C396.423 58.6983 396.989 58.6109 397.514 58.4359C398.052 58.2475 398.563 57.9446 399.048 57.5274L399.613 58.6782C399.169 59.1089 398.604 59.4453 397.917 59.6876C397.244 59.9164 396.531 60.0308 395.777 60.0308ZM402.257 59.8491V52.0561C402.257 51.6793 402.237 51.2957 402.196 50.9054C402.169 50.5016 402.136 50.1045 402.095 49.7142H403.67L403.872 51.935H403.63C403.899 51.1678 404.323 50.5756 404.902 50.1584C405.494 49.7411 406.207 49.5325 407.042 49.5325C407.89 49.5325 408.576 49.7344 409.101 50.1382C409.639 50.542 410.003 51.1678 410.191 52.0158H409.888C410.144 51.2486 410.595 50.6429 411.241 50.1987C411.887 49.7546 412.641 49.5325 413.502 49.5325C414.619 49.5325 415.461 49.8555 416.026 50.5016C416.591 51.1342 416.874 52.1369 416.874 53.5098V59.8491H415.238V53.6107C415.238 52.6551 415.07 51.9619 414.734 51.5312C414.397 51.0871 413.859 50.865 413.119 50.865C412.271 50.865 411.598 51.1611 411.1 51.7533C410.615 52.3321 410.373 53.1127 410.373 54.0952V59.8491H408.738V53.6107C408.738 52.6551 408.569 51.9619 408.233 51.5312C407.896 51.0871 407.358 50.865 406.618 50.865C405.77 50.865 405.104 51.1611 404.619 51.7533C404.134 52.3321 403.892 53.1127 403.892 54.0952V59.8491H402.257ZM425.069 60.0308C424.154 60.0308 423.366 59.802 422.707 59.3444C422.047 58.8733 421.603 58.234 421.375 57.4264H421.597V59.8491H419.981V44.99H421.617V52.0763H421.375C421.603 51.2957 422.047 50.6766 422.707 50.2189C423.366 49.7613 424.154 49.5325 425.069 49.5325C425.984 49.5325 426.772 49.7479 427.431 50.1786C428.104 50.5958 428.622 51.1947 428.986 51.9754C429.363 52.756 429.551 53.6915 429.551 54.7817C429.551 55.8719 429.363 56.8073 428.986 57.5879C428.609 58.3686 428.084 58.9743 427.411 59.405C426.752 59.8222 425.971 60.0308 425.069 60.0308ZM424.726 58.6983C425.682 58.6983 426.449 58.3686 427.027 57.7091C427.606 57.0496 427.896 56.0738 427.896 54.7817C427.896 53.4896 427.606 52.5138 427.027 51.8543C426.449 51.1813 425.682 50.8448 424.726 50.8448C423.77 50.8448 423.003 51.1813 422.424 51.8543C421.859 52.5138 421.576 53.4896 421.576 54.7817C421.576 56.0603 421.859 57.0361 422.424 57.7091C423.003 58.3686 423.77 58.6983 424.726 58.6983ZM436.589 60.0308C435.001 60.0308 433.749 59.5732 432.834 58.658C431.919 57.7293 431.461 56.4439 431.461 54.8019C431.461 53.7386 431.663 52.8166 432.067 52.036C432.471 51.2419 433.036 50.6294 433.763 50.1987C434.49 49.7546 435.324 49.5325 436.266 49.5325C437.195 49.5325 437.975 49.7277 438.608 50.118C439.241 50.5083 439.725 51.0669 440.062 51.7937C440.398 52.507 440.566 53.355 440.566 54.3375V54.9432H432.713V53.9135H439.496L439.153 54.176C439.153 53.0992 438.911 52.258 438.426 51.6524C437.942 51.0467 437.222 50.7439 436.266 50.7439C435.257 50.7439 434.469 51.1005 433.904 51.8139C433.339 52.5138 433.056 53.4626 433.056 54.6605V54.8422C433.056 56.1074 433.366 57.0698 433.985 57.7293C434.617 58.3753 435.499 58.6983 436.63 58.6983C437.235 58.6983 437.801 58.6109 438.325 58.4359C438.864 58.2475 439.375 57.9446 439.86 57.5274L440.425 58.6782C439.981 59.1089 439.416 59.4453 438.729 59.6876C438.056 59.9164 437.343 60.0308 436.589 60.0308ZM443.028 59.8491V52.1571C443.028 51.7533 443.015 51.3428 442.988 50.9256C442.975 50.5083 442.948 50.1045 442.907 49.7142H444.482L444.684 52.1773L444.401 52.1975C444.536 51.5918 444.771 51.0938 445.108 50.7035C445.444 50.3132 445.841 50.0238 446.299 49.8353C446.757 49.6335 447.234 49.5325 447.732 49.5325C447.934 49.5325 448.109 49.5392 448.257 49.5527C448.419 49.5662 448.567 49.5998 448.702 49.6536L448.681 51.1073C448.479 51.04 448.291 50.9996 448.116 50.9861C447.955 50.9592 447.766 50.9457 447.551 50.9457C446.959 50.9457 446.44 51.0871 445.996 51.3697C445.565 51.6524 445.236 52.0158 445.007 52.4599C444.792 52.9041 444.684 53.3752 444.684 53.8732V59.8491H443.028ZM453.676 60.0308C452.868 60.0308 452.115 59.9231 451.415 59.7078C450.715 59.479 450.136 59.1627 449.679 58.7589L450.244 57.6081C450.742 57.9985 451.28 58.2878 451.859 58.4763C452.451 58.6647 453.064 58.7589 453.696 58.7589C454.504 58.7589 455.109 58.6176 455.513 58.3349C455.931 58.0388 456.139 57.6351 456.139 57.1236C456.139 56.7333 456.005 56.4237 455.735 56.1949C455.48 55.9526 455.056 55.7642 454.463 55.6296L452.586 55.246C451.724 55.0576 451.078 54.7413 450.648 54.2971C450.217 53.8395 450.002 53.2608 450.002 52.5609C450.002 51.9687 450.156 51.4505 450.466 51.0063C450.776 50.5487 451.226 50.192 451.819 49.9363C452.411 49.6671 453.104 49.5325 453.898 49.5325C454.638 49.5325 455.318 49.6469 455.937 49.8757C456.57 50.0911 457.095 50.4074 457.512 50.8246L456.926 51.9552C456.523 51.5649 456.058 51.2755 455.533 51.0871C455.022 50.8852 454.49 50.7842 453.939 50.7842C453.144 50.7842 452.545 50.9457 452.142 51.2688C451.751 51.5783 451.556 51.9888 451.556 52.5003C451.556 52.8906 451.677 53.2136 451.92 53.4694C452.175 53.7116 452.566 53.8933 453.091 54.0145L454.968 54.3981C455.883 54.6 456.563 54.9163 457.007 55.347C457.465 55.7642 457.694 56.3295 457.694 57.0428C457.694 57.6485 457.525 58.1802 457.189 58.6378C456.852 59.0819 456.381 59.4252 455.776 59.6674C455.184 59.9097 454.484 60.0308 453.676 60.0308Z" fill="#6B7280"/>
</g>
<g filter="url(#filter1_d_4176_2519)">
<mask id="path-8-inside-2_4176_2519" fill="white">
<path d="M126.5 123.731C126.5 114.44 134.032 106.907 143.324 106.907H561.686C570.978 106.907 578.511 114.44 578.511 123.731V149.529C578.511 158.82 570.978 166.353 561.686 166.353H143.324C134.032 166.353 126.5 158.82 126.5 149.529V123.731Z"/>
</mask>
<path d="M126.5 123.731C126.5 114.44 134.032 106.907 143.324 106.907H561.686C570.978 106.907 578.511 114.44 578.511 123.731V149.529C578.511 158.82 570.978 166.353 561.686 166.353H143.324C134.032 166.353 126.5 158.82 126.5 149.529V123.731Z" fill="white" shape-rendering="crispEdges"/>
<path d="M143.324 106.907V108.029H561.686V106.907V105.786H143.324V106.907ZM578.511 123.731H577.389V149.529H578.511H579.632V123.731H578.511ZM561.686 166.353V165.231H143.324V166.353V167.474H561.686V166.353ZM126.5 149.529H127.622V123.731H126.5H125.378V149.529H126.5ZM143.324 166.353V165.231C134.652 165.231 127.622 158.201 127.622 149.529H126.5H125.378C125.378 159.44 133.413 167.474 143.324 167.474V166.353ZM578.511 149.529H577.389C577.389 158.201 570.359 165.231 561.686 165.231V166.353V167.474C571.598 167.474 579.632 159.44 579.632 149.529H578.511ZM561.686 106.907V108.029C570.359 108.029 577.389 115.059 577.389 123.731H578.511H579.632C579.632 113.82 571.598 105.786 561.686 105.786V106.907ZM143.324 106.907V105.786C133.413 105.786 125.378 113.82 125.378 123.731H126.5H127.622C127.622 115.059 134.652 108.029 143.324 108.029V106.907Z" fill="#F3F4F6" mask="url(#path-8-inside-2_4176_2519)"/>
<path d="M147.812 136.63C147.812 132.913 150.825 129.9 154.542 129.9V129.9C158.259 129.9 161.272 132.913 161.272 136.63V136.63C161.272 140.347 158.259 143.36 154.542 143.36V143.36C150.825 143.36 147.812 140.347 147.812 136.63V136.63Z" fill="#16A34A"/>
<path d="M179.588 143.367V133.191H181.627V143.367H179.588ZM179.426 131.072V128.952H181.788V131.072H179.426ZM184.615 143.367V135.634C184.615 135.244 184.595 134.847 184.555 134.443C184.528 134.026 184.494 133.609 184.454 133.191H186.432L186.614 135.331H186.372C186.681 134.578 187.159 134.006 187.805 133.615C188.451 133.212 189.198 133.01 190.046 133.01C191.244 133.01 192.146 133.339 192.751 133.999C193.371 134.658 193.68 135.681 193.68 137.068V143.367H191.641V137.189C191.641 136.287 191.459 135.641 191.096 135.251C190.746 134.847 190.208 134.645 189.481 134.645C188.619 134.645 187.933 134.914 187.422 135.453C186.91 135.978 186.654 136.691 186.654 137.593V143.367H184.615ZM197.189 143.367V134.766H195.21V133.191H197.754L197.189 133.716V132.101C197.189 130.903 197.491 129.995 198.097 129.376C198.703 128.743 199.591 128.427 200.762 128.427C201.045 128.427 201.341 128.447 201.65 128.487C201.96 128.528 202.216 128.595 202.417 128.689V130.345C202.256 130.277 202.054 130.224 201.812 130.183C201.583 130.129 201.347 130.102 201.105 130.102C200.715 130.102 200.378 130.183 200.096 130.345C199.813 130.493 199.591 130.722 199.429 131.031C199.281 131.341 199.207 131.738 199.207 132.222V133.595L198.905 133.191H201.973V134.766H199.228V143.367H197.189ZM207.765 143.548C206.756 143.548 205.881 143.34 205.141 142.923C204.401 142.492 203.828 141.886 203.425 141.106C203.021 140.311 202.819 139.369 202.819 138.279C202.819 137.189 203.021 136.253 203.425 135.473C203.828 134.679 204.401 134.073 205.141 133.656C205.881 133.225 206.756 133.01 207.765 133.01C208.775 133.01 209.65 133.225 210.39 133.656C211.144 134.073 211.722 134.679 212.126 135.473C212.543 136.253 212.752 137.189 212.752 138.279C212.752 139.369 212.543 140.311 212.126 141.106C211.722 141.886 211.144 142.492 210.39 142.923C209.65 143.34 208.775 143.548 207.765 143.548ZM207.765 141.953C208.654 141.953 209.36 141.644 209.885 141.025C210.41 140.406 210.673 139.49 210.673 138.279C210.673 137.068 210.41 136.159 209.885 135.554C209.36 134.934 208.654 134.625 207.765 134.625C206.891 134.625 206.191 134.934 205.666 135.554C205.141 136.159 204.878 137.068 204.878 138.279C204.878 139.49 205.134 140.406 205.646 141.025C206.17 141.644 206.877 141.953 207.765 141.953ZM223.615 146.678C222.296 146.678 221.098 146.469 220.021 146.052C218.944 145.648 218.016 145.056 217.235 144.275C216.468 143.508 215.876 142.593 215.458 141.529C215.041 140.453 214.833 139.248 214.833 137.916C214.833 136.583 215.048 135.365 215.479 134.261C215.909 133.158 216.529 132.209 217.336 131.415C218.157 130.621 219.119 130.015 220.223 129.598C221.34 129.167 222.579 128.952 223.938 128.952C225.553 128.952 226.96 129.261 228.157 129.88C229.369 130.5 230.311 131.374 230.984 132.505C231.657 133.622 231.993 134.941 231.993 136.462C231.993 137.62 231.825 138.629 231.489 139.49C231.166 140.338 230.701 140.998 230.096 141.469C229.503 141.94 228.803 142.176 227.996 142.176C227.188 142.176 226.562 141.947 226.118 141.489C225.688 141.031 225.486 140.399 225.513 139.591L225.997 139.571C225.647 140.419 225.156 141.065 224.523 141.509C223.904 141.953 223.225 142.176 222.484 142.176C221.408 142.176 220.573 141.846 219.981 141.186C219.402 140.527 219.113 139.618 219.113 138.461C219.113 137.465 219.301 136.583 219.678 135.816C220.055 135.035 220.58 134.43 221.253 133.999C221.926 133.555 222.686 133.333 223.534 133.333C224.288 133.333 224.9 133.514 225.371 133.878C225.842 134.241 226.152 134.759 226.3 135.432H226.017L226.381 133.514H227.956L227.047 138.582C227.02 138.784 226.993 138.972 226.966 139.147C226.953 139.309 226.946 139.463 226.946 139.612C226.946 140.042 227.04 140.365 227.229 140.581C227.431 140.796 227.727 140.904 228.117 140.904C228.615 140.904 229.052 140.722 229.429 140.359C229.806 139.982 230.102 139.463 230.318 138.804C230.533 138.131 230.641 137.35 230.641 136.462C230.641 135.183 230.365 134.086 229.813 133.171C229.261 132.243 228.48 131.529 227.471 131.031C226.475 130.533 225.291 130.284 223.918 130.284C222.397 130.284 221.064 130.6 219.92 131.233C218.776 131.852 217.888 132.741 217.255 133.898C216.636 135.042 216.327 136.381 216.327 137.916C216.327 139.45 216.623 140.776 217.215 141.893C217.821 143.01 218.669 143.865 219.759 144.457C220.849 145.049 222.134 145.345 223.615 145.345C224.705 145.345 225.688 145.184 226.562 144.861C227.451 144.551 228.198 144.1 228.803 143.508L229.53 144.659C228.871 145.305 228.03 145.803 227.007 146.153C225.984 146.503 224.853 146.678 223.615 146.678ZM222.747 140.823C223.326 140.823 223.837 140.655 224.281 140.318C224.739 139.982 225.095 139.517 225.351 138.925C225.62 138.319 225.755 137.633 225.755 136.866C225.755 136.139 225.593 135.601 225.27 135.251C224.947 134.887 224.449 134.706 223.776 134.706C223.211 134.706 222.693 134.867 222.222 135.19C221.764 135.5 221.408 135.937 221.152 136.502C220.896 137.068 220.768 137.714 220.768 138.441C220.768 139.208 220.936 139.8 221.273 140.217C221.623 140.621 222.114 140.823 222.747 140.823Z" fill="#374151"/>
<path d="M454.768 143.367V142.115L459.815 136.846C460.474 136.159 460.966 135.506 461.289 134.887C461.625 134.255 461.793 133.602 461.793 132.929C461.793 132.108 461.538 131.489 461.026 131.072C460.515 130.641 459.774 130.426 458.805 130.426C458.052 130.426 457.352 130.56 456.706 130.829C456.073 131.085 455.461 131.496 454.868 132.061L454.263 130.749C454.801 130.21 455.488 129.779 456.322 129.456C457.157 129.12 458.038 128.952 458.967 128.952C460.407 128.952 461.517 129.288 462.298 129.961C463.079 130.621 463.469 131.563 463.469 132.788C463.469 133.689 463.247 134.551 462.803 135.372C462.372 136.179 461.739 137.014 460.905 137.875L456.443 142.398V141.933H464.075V143.367H454.768ZM471.996 143.367V135.574C471.996 135.197 471.976 134.813 471.935 134.423C471.908 134.019 471.875 133.622 471.834 133.232H473.409L473.611 135.453H473.369C473.638 134.685 474.062 134.093 474.641 133.676C475.233 133.259 475.946 133.05 476.781 133.05C477.629 133.05 478.315 133.252 478.84 133.656C479.378 134.06 479.742 134.685 479.93 135.533H479.627C479.883 134.766 480.334 134.16 480.98 133.716C481.626 133.272 482.38 133.05 483.241 133.05C484.358 133.05 485.2 133.373 485.765 134.019C486.33 134.652 486.613 135.654 486.613 137.027V143.367H484.977V137.128C484.977 136.173 484.809 135.48 484.473 135.049C484.136 134.605 483.598 134.383 482.858 134.383C482.01 134.383 481.337 134.679 480.839 135.271C480.354 135.85 480.112 136.63 480.112 137.613V143.367H478.477V137.128C478.477 136.173 478.308 135.48 477.972 135.049C477.635 134.605 477.097 134.383 476.357 134.383C475.509 134.383 474.843 134.679 474.358 135.271C473.873 135.85 473.631 136.63 473.631 137.613V143.367H471.996ZM494.223 143.548C492.634 143.548 491.383 143.091 490.467 142.176C489.552 141.247 489.095 139.961 489.095 138.319C489.095 137.256 489.296 136.334 489.7 135.554C490.104 134.759 490.669 134.147 491.396 133.716C492.123 133.272 492.957 133.05 493.9 133.05C494.828 133.05 495.609 133.245 496.242 133.636C496.874 134.026 497.359 134.584 497.695 135.311C498.032 136.025 498.2 136.873 498.2 137.855V138.461H490.346V137.431H497.13L496.787 137.694C496.787 136.617 496.544 135.776 496.06 135.17C495.575 134.564 494.855 134.261 493.9 134.261C492.89 134.261 492.103 134.618 491.537 135.331C490.972 136.031 490.69 136.98 490.69 138.178V138.36C490.69 139.625 490.999 140.587 491.618 141.247C492.251 141.893 493.132 142.216 494.263 142.216C494.869 142.216 495.434 142.128 495.959 141.953C496.497 141.765 497.009 141.462 497.493 141.045L498.059 142.196C497.614 142.626 497.049 142.963 496.363 143.205C495.69 143.434 494.976 143.548 494.223 143.548ZM500.702 143.367V135.574C500.702 135.197 500.682 134.813 500.642 134.423C500.615 134.019 500.581 133.622 500.541 133.232H502.115L502.317 135.453H502.075C502.344 134.685 502.768 134.093 503.347 133.676C503.939 133.259 504.653 133.05 505.487 133.05C506.335 133.05 507.021 133.252 507.546 133.656C508.085 134.06 508.448 134.685 508.636 135.533H508.334C508.589 134.766 509.04 134.16 509.686 133.716C510.332 133.272 511.086 133.05 511.948 133.05C513.065 133.05 513.906 133.373 514.471 134.019C515.036 134.652 515.319 135.654 515.319 137.027V143.367H513.684V137.128C513.684 136.173 513.516 135.48 513.179 135.049C512.843 134.605 512.304 134.383 511.564 134.383C510.716 134.383 510.043 134.679 509.545 135.271C509.06 135.85 508.818 136.63 508.818 137.613V143.367H507.183V137.128C507.183 136.173 507.015 135.48 506.678 135.049C506.342 134.605 505.803 134.383 505.063 134.383C504.215 134.383 503.549 134.679 503.064 135.271C502.58 135.85 502.338 136.63 502.338 137.613V143.367H500.702ZM523.514 143.548C522.599 143.548 521.812 143.32 521.152 142.862C520.493 142.391 520.049 141.752 519.82 140.944H520.042V143.367H518.427V128.508H520.062V135.594H519.82C520.049 134.813 520.493 134.194 521.152 133.737C521.812 133.279 522.599 133.05 523.514 133.05C524.43 133.05 525.217 133.265 525.877 133.696C526.55 134.113 527.068 134.712 527.431 135.493C527.808 136.274 527.996 137.209 527.996 138.299C527.996 139.389 527.808 140.325 527.431 141.106C527.054 141.886 526.529 142.492 525.856 142.923C525.197 143.34 524.416 143.548 523.514 143.548ZM523.171 142.216C524.127 142.216 524.894 141.886 525.473 141.227C526.052 140.567 526.341 139.591 526.341 138.299C526.341 137.007 526.052 136.031 525.473 135.372C524.894 134.699 524.127 134.362 523.171 134.362C522.216 134.362 521.448 134.699 520.87 135.372C520.304 136.031 520.022 137.007 520.022 138.299C520.022 139.578 520.304 140.554 520.87 141.227C521.448 141.886 522.216 142.216 523.171 142.216ZM535.034 143.548C533.446 143.548 532.195 143.091 531.279 142.176C530.364 141.247 529.906 139.961 529.906 138.319C529.906 137.256 530.108 136.334 530.512 135.554C530.916 134.759 531.481 134.147 532.208 133.716C532.935 133.272 533.769 133.05 534.711 133.05C535.64 133.05 536.421 133.245 537.053 133.636C537.686 134.026 538.171 134.584 538.507 135.311C538.843 136.025 539.012 136.873 539.012 137.855V138.461H531.158V137.431H537.942L537.599 137.694C537.599 136.617 537.356 135.776 536.872 135.17C536.387 134.564 535.667 134.261 534.711 134.261C533.702 134.261 532.915 134.618 532.349 135.331C531.784 136.031 531.501 136.98 531.501 138.178V138.36C531.501 139.625 531.811 140.587 532.43 141.247C533.063 141.893 533.944 142.216 535.075 142.216C535.681 142.216 536.246 142.128 536.771 141.953C537.309 141.765 537.821 141.462 538.305 141.045L538.87 142.196C538.426 142.626 537.861 142.963 537.175 143.205C536.502 143.434 535.788 143.548 535.034 143.548ZM541.474 143.367V135.675C541.474 135.271 541.46 134.86 541.433 134.443C541.42 134.026 541.393 133.622 541.353 133.232H542.927L543.129 135.695L542.847 135.715C542.981 135.109 543.217 134.611 543.553 134.221C543.89 133.831 544.287 133.541 544.744 133.353C545.202 133.151 545.68 133.05 546.178 133.05C546.38 133.05 546.555 133.057 546.703 133.07C546.864 133.084 547.012 133.117 547.147 133.171L547.127 134.625C546.925 134.558 546.736 134.517 546.561 134.504C546.4 134.477 546.211 134.463 545.996 134.463C545.404 134.463 544.886 134.605 544.441 134.887C544.011 135.17 543.681 135.533 543.452 135.978C543.237 136.422 543.129 136.893 543.129 137.391V143.367H541.474ZM552.121 143.548C551.314 143.548 550.56 143.441 549.86 143.225C549.16 142.997 548.582 142.68 548.124 142.276L548.689 141.126C549.187 141.516 549.726 141.805 550.304 141.994C550.897 142.182 551.509 142.276 552.142 142.276C552.949 142.276 553.555 142.135 553.959 141.853C554.376 141.556 554.584 141.153 554.584 140.641C554.584 140.251 554.45 139.941 554.181 139.712C553.925 139.47 553.501 139.282 552.909 139.147L551.031 138.764C550.17 138.575 549.524 138.259 549.093 137.815C548.662 137.357 548.447 136.778 548.447 136.078C548.447 135.486 548.602 134.968 548.911 134.524C549.221 134.066 549.672 133.71 550.264 133.454C550.856 133.185 551.549 133.05 552.343 133.05C553.084 133.05 553.763 133.164 554.383 133.393C555.015 133.609 555.54 133.925 555.957 134.342L555.372 135.473C554.968 135.082 554.504 134.793 553.979 134.605C553.467 134.403 552.936 134.302 552.384 134.302C551.59 134.302 550.991 134.463 550.587 134.786C550.197 135.096 550.002 135.506 550.002 136.018C550.002 136.408 550.123 136.731 550.365 136.987C550.621 137.229 551.011 137.411 551.536 137.532L553.413 137.916C554.329 138.118 555.008 138.434 555.453 138.865C555.91 139.282 556.139 139.847 556.139 140.56C556.139 141.166 555.971 141.698 555.634 142.155C555.298 142.6 554.827 142.943 554.221 143.185C553.629 143.427 552.929 143.548 552.121 143.548Z" fill="#6B7280"/>
</g>
<g filter="url(#filter2_d_4176_2519)">
<mask id="path-13-inside-3_4176_2519" fill="white">
<path d="M173.5 203.769C173.5 194.477 181.032 186.945 190.324 186.945H608.686C617.978 186.945 625.511 194.477 625.511 203.769V229.566C625.511 238.858 617.978 246.39 608.686 246.39H190.324C181.032 246.39 173.5 238.858 173.5 229.566V203.769Z"/>
</mask>
<path d="M173.5 203.769C173.5 194.477 181.032 186.945 190.324 186.945H608.686C617.978 186.945 625.511 194.477 625.511 203.769V229.566C625.511 238.858 617.978 246.39 608.686 246.39H190.324C181.032 246.39 173.5 238.858 173.5 229.566V203.769Z" fill="white" shape-rendering="crispEdges"/>
<path d="M190.324 186.945V188.066H608.686V186.945V185.823H190.324V186.945ZM625.511 203.769H624.389V229.566H625.511H626.632V203.769H625.511ZM608.686 246.39V245.269H190.324V246.39V247.512H608.686V246.39ZM173.5 229.566H174.622V203.769H173.5H172.378V229.566H173.5ZM190.324 246.39V245.269C181.652 245.269 174.622 238.238 174.622 229.566H173.5H172.378C172.378 239.477 180.413 247.512 190.324 247.512V246.39ZM625.511 229.566H624.389C624.389 238.238 617.359 245.269 608.686 245.269V246.39V247.512C618.598 247.512 626.632 239.477 626.632 229.566H625.511ZM608.686 186.945V188.066C617.359 188.066 624.389 195.097 624.389 203.769H625.511H626.632C626.632 193.858 618.598 185.823 608.686 185.823V186.945ZM190.324 186.945V185.823C180.413 185.823 172.378 193.858 172.378 203.769H173.5H174.622C174.622 195.097 181.652 188.066 190.324 188.066V186.945Z" fill="#F3F4F6" mask="url(#path-13-inside-3_4176_2519)"/>
<path d="M194.812 216.668C194.812 212.951 197.825 209.938 201.542 209.938V209.938C205.259 209.938 208.272 212.951 208.272 216.668V216.668C208.272 220.384 205.259 223.397 201.542 223.397V223.397C197.825 223.397 194.812 220.384 194.812 216.668V216.668Z" fill="#9333EA"/>
<path d="M230.08 223.586C229.233 223.586 228.452 223.478 227.739 223.262C227.025 223.047 226.433 222.744 225.962 222.354L226.588 220.961C227.086 221.338 227.638 221.62 228.243 221.809C228.849 221.997 229.468 222.092 230.101 222.092C230.841 222.092 231.399 221.964 231.776 221.708C232.153 221.439 232.342 221.075 232.342 220.618C232.342 220.268 232.22 219.985 231.978 219.77C231.749 219.554 231.366 219.393 230.827 219.285L228.889 218.902C228.028 218.713 227.375 218.39 226.931 217.933C226.487 217.475 226.265 216.889 226.265 216.176C226.265 215.57 226.426 215.032 226.749 214.561C227.086 214.09 227.557 213.72 228.162 213.451C228.782 213.181 229.502 213.047 230.323 213.047C231.076 213.047 231.776 213.154 232.422 213.37C233.068 213.585 233.607 213.895 234.038 214.299L233.391 215.651C232.974 215.301 232.503 215.032 231.978 214.844C231.453 214.642 230.922 214.541 230.383 214.541C229.63 214.541 229.071 214.682 228.708 214.965C228.344 215.247 228.162 215.618 228.162 216.075C228.162 216.425 228.27 216.714 228.486 216.943C228.714 217.159 229.071 217.327 229.556 217.448L231.494 217.832C232.409 218.02 233.095 218.33 233.553 218.76C234.011 219.191 234.239 219.77 234.239 220.497C234.239 221.129 234.064 221.681 233.714 222.152C233.365 222.623 232.88 222.98 232.261 223.222C231.642 223.464 230.915 223.586 230.08 223.586ZM240.539 223.586C239.638 223.586 238.85 223.377 238.177 222.96C237.504 222.542 236.979 221.937 236.602 221.143C236.239 220.349 236.057 219.406 236.057 218.316C236.057 217.212 236.239 216.27 236.602 215.49C236.979 214.709 237.504 214.11 238.177 213.693C238.85 213.262 239.638 213.047 240.539 213.047C241.428 213.047 242.202 213.269 242.861 213.713C243.521 214.157 243.958 214.763 244.173 215.53H243.951L244.153 213.229H246.132C246.091 213.646 246.051 214.063 246.011 214.48C245.984 214.884 245.97 215.281 245.97 215.671V223.404H243.931V221.143H244.153C243.938 221.896 243.494 222.495 242.821 222.939C242.161 223.37 241.401 223.586 240.539 223.586ZM241.044 221.991C241.919 221.991 242.619 221.681 243.144 221.062C243.682 220.443 243.951 219.528 243.951 218.316C243.951 217.105 243.682 216.196 243.144 215.591C242.619 214.972 241.919 214.662 241.044 214.662C240.156 214.662 239.442 214.972 238.904 215.591C238.379 216.196 238.117 217.105 238.117 218.316C238.117 219.528 238.379 220.443 238.904 221.062C239.429 221.681 240.142 221.991 241.044 221.991ZM248.946 223.404V208.545H250.985V223.404H248.946ZM258.677 223.586C257.035 223.586 255.743 223.121 254.801 222.192C253.859 221.264 253.388 219.978 253.388 218.336C253.388 217.273 253.59 216.344 253.993 215.55C254.411 214.756 254.983 214.144 255.709 213.713C256.45 213.269 257.304 213.047 258.273 213.047C259.229 213.047 260.03 213.249 260.676 213.652C261.322 214.056 261.813 214.628 262.15 215.369C262.486 216.095 262.654 216.957 262.654 217.953V218.599H254.983V217.428H261.261L260.918 217.69C260.918 216.681 260.689 215.9 260.232 215.348C259.788 214.783 259.141 214.5 258.294 214.5C257.351 214.5 256.625 214.83 256.113 215.49C255.602 216.136 255.346 217.031 255.346 218.175V218.377C255.346 219.575 255.635 220.476 256.214 221.082C256.806 221.688 257.641 221.991 258.718 221.991C259.31 221.991 259.862 221.91 260.373 221.748C260.898 221.573 261.396 221.291 261.867 220.9L262.533 222.293C262.062 222.711 261.49 223.034 260.817 223.262C260.144 223.478 259.431 223.586 258.677 223.586ZM268.487 223.586C267.639 223.586 266.858 223.478 266.145 223.262C265.432 223.047 264.839 222.744 264.368 222.354L264.994 220.961C265.492 221.338 266.044 221.62 266.65 221.809C267.255 221.997 267.875 222.092 268.507 222.092C269.247 222.092 269.806 221.964 270.183 221.708C270.56 221.439 270.748 221.075 270.748 220.618C270.748 220.268 270.627 219.985 270.385 219.77C270.156 219.554 269.772 219.393 269.234 219.285L267.296 218.902C266.434 218.713 265.782 218.39 265.337 217.933C264.893 217.475 264.671 216.889 264.671 216.176C264.671 215.57 264.833 215.032 265.156 214.561C265.492 214.09 265.963 213.72 266.569 213.451C267.188 213.181 267.908 213.047 268.729 213.047C269.483 213.047 270.183 213.154 270.829 213.37C271.475 213.585 272.013 213.895 272.444 214.299L271.798 215.651C271.381 215.301 270.91 215.032 270.385 214.844C269.86 214.642 269.328 214.541 268.79 214.541C268.036 214.541 267.478 214.682 267.114 214.965C266.751 215.247 266.569 215.618 266.569 216.075C266.569 216.425 266.677 216.714 266.892 216.943C267.121 217.159 267.478 217.327 267.962 217.448L269.9 217.832C270.815 218.02 271.502 218.33 271.96 218.76C272.417 219.191 272.646 219.77 272.646 220.497C272.646 221.129 272.471 221.681 272.121 222.152C271.771 222.623 271.287 222.98 270.667 223.222C270.048 223.464 269.321 223.586 268.487 223.586ZM283.529 226.715C282.21 226.715 281.012 226.506 279.935 226.089C278.858 225.685 277.93 225.093 277.149 224.312C276.382 223.545 275.79 222.63 275.372 221.567C274.955 220.49 274.747 219.285 274.747 217.953C274.747 216.62 274.962 215.402 275.393 214.299C275.823 213.195 276.442 212.246 277.25 211.452C278.071 210.658 279.033 210.052 280.137 209.635C281.254 209.204 282.492 208.989 283.852 208.989C285.467 208.989 286.873 209.298 288.071 209.918C289.283 210.537 290.225 211.412 290.898 212.542C291.571 213.659 291.907 214.978 291.907 216.499C291.907 217.657 291.739 218.666 291.403 219.528C291.079 220.375 290.615 221.035 290.009 221.506C289.417 221.977 288.717 222.213 287.91 222.213C287.102 222.213 286.476 221.984 286.032 221.526C285.602 221.069 285.4 220.436 285.427 219.628L285.911 219.608C285.561 220.456 285.07 221.102 284.437 221.546C283.818 221.991 283.138 222.213 282.398 222.213C281.321 222.213 280.487 221.883 279.895 221.223C279.316 220.564 279.027 219.655 279.027 218.498C279.027 217.502 279.215 216.62 279.592 215.853C279.969 215.072 280.494 214.467 281.167 214.036C281.84 213.592 282.6 213.37 283.448 213.37C284.202 213.37 284.814 213.552 285.285 213.915C285.756 214.278 286.066 214.797 286.214 215.47H285.931L286.295 213.552H287.869L286.961 218.619C286.934 218.821 286.907 219.009 286.88 219.184C286.867 219.346 286.86 219.501 286.86 219.649C286.86 220.079 286.954 220.402 287.143 220.618C287.345 220.833 287.641 220.941 288.031 220.941C288.529 220.941 288.966 220.759 289.343 220.396C289.72 220.019 290.016 219.501 290.232 218.841C290.447 218.168 290.555 217.387 290.555 216.499C290.555 215.221 290.279 214.124 289.727 213.208C289.175 212.28 288.394 211.566 287.385 211.068C286.389 210.57 285.204 210.321 283.832 210.321C282.311 210.321 280.978 210.638 279.834 211.27C278.69 211.889 277.802 212.778 277.169 213.935C276.55 215.079 276.241 216.418 276.241 217.953C276.241 219.487 276.537 220.813 277.129 221.93C277.735 223.047 278.582 223.902 279.673 224.494C280.763 225.086 282.048 225.382 283.529 225.382C284.619 225.382 285.602 225.221 286.476 224.898C287.365 224.588 288.112 224.137 288.717 223.545L289.444 224.696C288.785 225.342 287.943 225.84 286.921 226.19C285.898 226.54 284.767 226.715 283.529 226.715ZM282.661 220.86C283.239 220.86 283.751 220.692 284.195 220.355C284.653 220.019 285.009 219.554 285.265 218.962C285.534 218.357 285.669 217.67 285.669 216.903C285.669 216.176 285.507 215.638 285.184 215.288C284.861 214.924 284.363 214.743 283.69 214.743C283.125 214.743 282.607 214.904 282.136 215.227C281.678 215.537 281.321 215.974 281.066 216.54C280.81 217.105 280.682 217.751 280.682 218.478C280.682 219.245 280.85 219.837 281.187 220.254C281.537 220.658 282.028 220.86 282.661 220.86Z" fill="#374151"/>
<path d="M506.552 223.586C504.83 223.586 503.497 222.98 502.555 221.768C501.626 220.544 501.162 218.834 501.162 216.64C501.162 214.998 501.397 213.612 501.868 212.482C502.34 211.337 503.013 210.469 503.887 209.877C504.762 209.285 505.819 208.989 507.057 208.989C507.797 208.989 508.544 209.144 509.298 209.453C510.052 209.749 510.671 210.167 511.155 210.705L510.55 211.997C510.038 211.472 509.48 211.088 508.874 210.846C508.268 210.59 507.656 210.463 507.037 210.463C505.664 210.463 504.607 210.954 503.867 211.936C503.14 212.905 502.777 214.366 502.777 216.317V218.195H502.595C502.689 217.428 502.918 216.768 503.282 216.217C503.659 215.651 504.15 215.221 504.755 214.924C505.361 214.628 506.034 214.48 506.774 214.48C507.636 214.48 508.396 214.669 509.056 215.046C509.715 215.422 510.233 215.954 510.61 216.64C510.987 217.313 511.176 218.087 511.176 218.962C511.176 219.851 510.98 220.645 510.59 221.345C510.2 222.044 509.655 222.596 508.955 223C508.255 223.39 507.454 223.586 506.552 223.586ZM506.431 222.172C507.05 222.172 507.595 222.044 508.066 221.789C508.551 221.519 508.921 221.149 509.177 220.678C509.446 220.194 509.581 219.642 509.581 219.023C509.581 218.404 509.446 217.859 509.177 217.387C508.921 216.916 508.551 216.546 508.066 216.277C507.595 216.008 507.05 215.873 506.431 215.873C505.812 215.873 505.267 216.008 504.796 216.277C504.325 216.546 503.955 216.916 503.685 217.387C503.43 217.859 503.302 218.404 503.302 219.023C503.302 219.642 503.43 220.194 503.685 220.678C503.955 221.149 504.325 221.519 504.796 221.789C505.267 222.044 505.812 222.172 506.431 222.172ZM518.996 223.404V215.611C518.996 215.234 518.976 214.85 518.935 214.46C518.908 214.056 518.875 213.659 518.834 213.269H520.409L520.611 215.49H520.369C520.638 214.723 521.062 214.13 521.641 213.713C522.233 213.296 522.946 213.087 523.781 213.087C524.629 213.087 525.315 213.289 525.84 213.693C526.378 214.097 526.742 214.723 526.93 215.57H526.627C526.883 214.803 527.334 214.198 527.98 213.753C528.626 213.309 529.38 213.087 530.241 213.087C531.358 213.087 532.2 213.41 532.765 214.056C533.33 214.689 533.613 215.692 533.613 217.064V223.404H531.977V217.165C531.977 216.21 531.809 215.517 531.473 215.086C531.136 214.642 530.598 214.42 529.858 214.42C529.01 214.42 528.337 214.716 527.839 215.308C527.354 215.887 527.112 216.667 527.112 217.65V223.404H525.477V217.165C525.477 216.21 525.308 215.517 524.972 215.086C524.635 214.642 524.097 214.42 523.357 214.42C522.509 214.42 521.843 214.716 521.358 215.308C520.873 215.887 520.631 216.667 520.631 217.65V223.404H518.996ZM541.223 223.586C539.634 223.586 538.383 223.128 537.467 222.213C536.552 221.284 536.095 219.999 536.095 218.357C536.095 217.293 536.296 216.371 536.7 215.591C537.104 214.797 537.669 214.184 538.396 213.753C539.123 213.309 539.957 213.087 540.9 213.087C541.828 213.087 542.609 213.282 543.242 213.673C543.874 214.063 544.359 214.622 544.695 215.348C545.032 216.062 545.2 216.91 545.2 217.892V218.498H537.346V217.468H544.13L543.787 217.731C543.787 216.654 543.544 215.813 543.06 215.207C542.575 214.601 541.855 214.299 540.9 214.299C539.89 214.299 539.103 214.655 538.537 215.369C537.972 216.068 537.69 217.017 537.69 218.215V218.397C537.69 219.662 537.999 220.624 538.618 221.284C539.251 221.93 540.132 222.253 541.263 222.253C541.869 222.253 542.434 222.166 542.959 221.991C543.497 221.802 544.009 221.499 544.493 221.082L545.059 222.233C544.614 222.664 544.049 223 543.363 223.242C542.69 223.471 541.976 223.586 541.223 223.586ZM547.702 223.404V215.611C547.702 215.234 547.682 214.85 547.642 214.46C547.615 214.056 547.581 213.659 547.541 213.269H549.115L549.317 215.49H549.075C549.344 214.723 549.768 214.13 550.347 213.713C550.939 213.296 551.653 213.087 552.487 213.087C553.335 213.087 554.021 213.289 554.546 213.693C555.085 214.097 555.448 214.723 555.636 215.57H555.334C555.589 214.803 556.04 214.198 556.686 213.753C557.332 213.309 558.086 213.087 558.948 213.087C560.065 213.087 560.906 213.41 561.471 214.056C562.036 214.689 562.319 215.692 562.319 217.064V223.404H560.684V217.165C560.684 216.21 560.516 215.517 560.179 215.086C559.843 214.642 559.304 214.42 558.564 214.42C557.716 214.42 557.043 214.716 556.545 215.308C556.06 215.887 555.818 216.667 555.818 217.65V223.404H554.183V217.165C554.183 216.21 554.015 215.517 553.678 215.086C553.342 214.642 552.803 214.42 552.063 214.42C551.215 214.42 550.549 214.716 550.064 215.308C549.58 215.887 549.338 216.667 549.338 217.65V223.404H547.702ZM570.514 223.586C569.599 223.586 568.812 223.357 568.152 222.899C567.493 222.428 567.049 221.789 566.82 220.981H567.042V223.404H565.427V208.545H567.062V215.631H566.82C567.049 214.85 567.493 214.231 568.152 213.774C568.812 213.316 569.599 213.087 570.514 213.087C571.43 213.087 572.217 213.303 572.877 213.733C573.55 214.15 574.068 214.749 574.431 215.53C574.808 216.311 574.996 217.246 574.996 218.336C574.996 219.427 574.808 220.362 574.431 221.143C574.054 221.923 573.529 222.529 572.856 222.96C572.197 223.377 571.416 223.586 570.514 223.586ZM570.171 222.253C571.127 222.253 571.894 221.923 572.473 221.264C573.052 220.604 573.341 219.628 573.341 218.336C573.341 217.044 573.052 216.068 572.473 215.409C571.894 214.736 571.127 214.399 570.171 214.399C569.216 214.399 568.448 214.736 567.87 215.409C567.304 216.068 567.022 217.044 567.022 218.336C567.022 219.615 567.304 220.591 567.87 221.264C568.448 221.923 569.216 222.253 570.171 222.253ZM582.034 223.586C580.446 223.586 579.195 223.128 578.279 222.213C577.364 221.284 576.906 219.999 576.906 218.357C576.906 217.293 577.108 216.371 577.512 215.591C577.916 214.797 578.481 214.184 579.208 213.753C579.935 213.309 580.769 213.087 581.711 213.087C582.64 213.087 583.421 213.282 584.053 213.673C584.686 214.063 585.171 214.622 585.507 215.348C585.843 216.062 586.012 216.91 586.012 217.892V218.498H578.158V217.468H584.942L584.599 217.731C584.599 216.654 584.356 215.813 583.872 215.207C583.387 214.601 582.667 214.299 581.711 214.299C580.702 214.299 579.915 214.655 579.349 215.369C578.784 216.068 578.501 217.017 578.501 218.215V218.397C578.501 219.662 578.811 220.624 579.43 221.284C580.063 221.93 580.944 222.253 582.075 222.253C582.681 222.253 583.246 222.166 583.771 221.991C584.309 221.802 584.821 221.499 585.305 221.082L585.87 222.233C585.426 222.664 584.861 223 584.175 223.242C583.502 223.471 582.788 223.586 582.034 223.586ZM588.474 223.404V215.712C588.474 215.308 588.46 214.897 588.433 214.48C588.42 214.063 588.393 213.659 588.353 213.269H589.927L590.129 215.732L589.847 215.752C589.981 215.146 590.217 214.648 590.553 214.258C590.89 213.868 591.287 213.578 591.744 213.39C592.202 213.188 592.68 213.087 593.178 213.087C593.38 213.087 593.555 213.094 593.703 213.107C593.864 213.121 594.012 213.154 594.147 213.208L594.127 214.662C593.925 214.595 593.736 214.554 593.561 214.541C593.4 214.514 593.211 214.5 592.996 214.5C592.404 214.5 591.886 214.642 591.441 214.924C591.011 215.207 590.681 215.57 590.452 216.015C590.237 216.459 590.129 216.93 590.129 217.428V223.404H588.474ZM599.121 223.586C598.314 223.586 597.56 223.478 596.86 223.262C596.16 223.034 595.582 222.717 595.124 222.314L595.689 221.163C596.187 221.553 596.726 221.843 597.304 222.031C597.897 222.219 598.509 222.314 599.142 222.314C599.949 222.314 600.555 222.172 600.959 221.89C601.376 221.594 601.584 221.19 601.584 220.678C601.584 220.288 601.45 219.978 601.181 219.75C600.925 219.507 600.501 219.319 599.909 219.184L598.031 218.801C597.17 218.612 596.524 218.296 596.093 217.852C595.662 217.394 595.447 216.815 595.447 216.116C595.447 215.523 595.602 215.005 595.911 214.561C596.221 214.103 596.672 213.747 597.264 213.491C597.856 213.222 598.549 213.087 599.343 213.087C600.084 213.087 600.763 213.202 601.383 213.43C602.015 213.646 602.54 213.962 602.957 214.379L602.372 215.51C601.968 215.12 601.504 214.83 600.979 214.642C600.467 214.44 599.936 214.339 599.384 214.339C598.59 214.339 597.991 214.5 597.587 214.823C597.197 215.133 597.002 215.544 597.002 216.055C597.002 216.445 597.123 216.768 597.365 217.024C597.621 217.266 598.011 217.448 598.536 217.569L600.413 217.953C601.329 218.155 602.008 218.471 602.453 218.902C602.91 219.319 603.139 219.884 603.139 220.598C603.139 221.203 602.971 221.735 602.634 222.192C602.298 222.637 601.827 222.98 601.221 223.222C600.629 223.464 599.929 223.586 599.121 223.586Z" fill="#6B7280"/>
</g>
</g>
</g>
<defs>
<filter id="filter0_d_4176_2519" x="8.05469" y="4.39014" width="492.008" height="99.4458" filterUnits="userSpaceOnUse" color-interpolation-filters="sRGB">
<feFlood flood-opacity="0" result="BackgroundImageFix"/>
<feColorMatrix in="SourceAlpha" type="matrix" values="0 0 0 0 0 0 0 0 0 0 0 0 0 0 0 0 0 0 127 0" result="hardAlpha"/>
<feOffset dy="1"/>
<feGaussianBlur stdDeviation="10"/>
<feComposite in2="hardAlpha" operator="out"/>
<feColorMatrix type="matrix" values="0 0 0 0 0 0 0 0 0 0 0 0 0 0 0 0 0 0 0.03 0"/>
<feBlend mode="normal" in2="BackgroundImageFix" result="effect1_dropShadow_4176_2519"/>
<feBlend mode="normal" in="SourceGraphic" in2="effect1_dropShadow_4176_2519" result="shape"/>
</filter>
<filter id="filter1_d_4176_2519" x="106.5" y="87.9072" width="492.016" height="99.4458" filterUnits="userSpaceOnUse" color-interpolation-filters="sRGB">
<feFlood flood-opacity="0" result="BackgroundImageFix"/>
<feColorMatrix in="SourceAlpha" type="matrix" values="0 0 0 0 0 0 0 0 0 0 0 0 0 0 0 0 0 0 127 0" result="hardAlpha"/>
<feOffset dy="1"/>
<feGaussianBlur stdDeviation="10"/>
<feComposite in2="hardAlpha" operator="out"/>
<feColorMatrix type="matrix" values="0 0 0 0 0 0 0 0 0 0 0 0 0 0 0 0 0 0 0.03 0"/>
<feBlend mode="normal" in2="BackgroundImageFix" result="effect1_dropShadow_4176_2519"/>
<feBlend mode="normal" in="SourceGraphic" in2="effect1_dropShadow_4176_2519" result="shape"/>
</filter>
<filter id="filter2_d_4176_2519" x="153.5" y="167.945" width="492.016" height="99.4458" filterUnits="userSpaceOnUse" color-interpolation-filters="sRGB">
<feFlood flood-opacity="0" result="BackgroundImageFix"/>
<feColorMatrix in="SourceAlpha" type="matrix" values="0 0 0 0 0 0 0 0 0 0 0 0 0 0 0 0 0 0 127 0" result="hardAlpha"/>
<feOffset dy="1"/>
<feGaussianBlur stdDeviation="10"/>
<feComposite in2="hardAlpha" operator="out"/>
<feColorMatrix type="matrix" values="0 0 0 0 0 0 0 0 0 0 0 0 0 0 0 0 0 0 0.03 0"/>
<feBlend mode="normal" in2="BackgroundImageFix" result="effect1_dropShadow_4176_2519"/>
<feBlend mode="normal" in="SourceGraphic" in2="effect1_dropShadow_4176_2519" result="shape"/>
</filter>
<clipPath id="clip0_4176_2519">
<rect width="552.5" height="280" rx="10" fill="white"/>
</clipPath>
<clipPath id="clip1_4176_2519">
<rect width="553" height="280" fill="white"/>
</clipPath>
</defs>
</svg>
