<svg width="553" height="280" viewBox="0 0 553 280" fill="none" xmlns="http://www.w3.org/2000/svg">
<g clip-path="url(#clip0_4175_13570)">
<rect x="0.5" y="0.5" width="552" height="279" rx="9.5" stroke="#E4E4E4"/>
<g clip-path="url(#clip1_4175_13570)">
<rect width="553" height="280" fill="#FAFAFA"/>
<g clip-path="url(#clip2_4175_13570)">
<mask id="path-3-inside-1_4175_13570" fill="white">
<path d="M38 64.0052C38 52.6198 47.2297 43.3901 58.6151 43.3901H495.98C507.365 43.3901 516.595 52.6198 516.595 64.0053V386.775C516.595 398.16 507.365 407.39 495.98 407.39H58.6151C47.2297 407.39 38 398.16 38 386.775V64.0052Z"/>
</mask>
<path d="M38 64.0052C38 52.6198 47.2297 43.3901 58.6151 43.3901H495.98C507.365 43.3901 516.595 52.6198 516.595 64.0053V386.775C516.595 398.16 507.365 407.39 495.98 407.39H58.6151C47.2297 407.39 38 398.16 38 386.775V64.0052Z" fill="#F9FAFB"/>
<mask id="path-5-inside-2_4175_13570" fill="white">
<path d="M38.9688 44.3931H768.393V92.0239H38.9688V44.3931Z"/>
</mask>
<path d="M38.9688 44.3931H768.393V92.0239H38.9688V44.3931Z" fill="white"/>
<path d="M768.393 92.0239V91.0422H38.9688V92.0239V93.0056H768.393V92.0239Z" fill="#F3F4F6" mask="url(#path-5-inside-2_4175_13570)"/>
<path d="M56.2656 67.4571C56.2656 64.2725 58.8472 61.6909 62.0318 61.6909V61.6909C65.2164 61.6909 67.798 64.2725 67.798 67.4571V67.9578C67.798 71.1424 65.2164 73.724 62.0318 73.724V73.724C58.8472 73.724 56.2656 71.1424 56.2656 67.9578V67.4571Z" fill="#FF5F57" fill-opacity="0.6"/>
<path d="M76.4531 67.4571C76.4531 64.2725 79.0347 61.6909 82.2193 61.6909V61.6909C85.4039 61.6909 87.9855 64.2725 87.9855 67.4571V67.9578C87.9855 71.1424 85.4039 73.724 82.2193 73.724V73.724C79.0347 73.724 76.4531 71.1424 76.4531 67.9578V67.4571Z" fill="#FFBD2E" fill-opacity="0.6"/>
<path d="M96.625 67.4571C96.625 64.2725 99.2066 61.6909 102.391 61.6909V61.6909C105.576 61.6909 108.157 64.2725 108.157 67.4571V67.9578C108.157 71.1424 105.576 73.724 102.391 73.724V73.724C99.2066 73.724 96.625 71.1424 96.625 67.9578V67.4571Z" fill="#28C840" fill-opacity="0.6"/>
<path d="M133.041 73.0578C132.207 73.0578 131.456 72.9498 130.788 72.7339C130.121 72.5179 129.541 72.2136 129.051 71.8209L129.522 70.7313C129.865 70.9865 130.214 71.2025 130.567 71.3792C130.921 71.546 131.299 71.6737 131.701 71.762C132.113 71.8405 132.56 71.8798 133.041 71.8798C133.895 71.8798 134.523 71.7277 134.926 71.4233C135.338 71.1092 135.544 70.6969 135.544 70.1864C135.544 69.7447 135.402 69.406 135.117 69.1704C134.833 68.9348 134.337 68.7483 133.63 68.6108L132.054 68.2869C131.102 68.0906 130.391 67.7715 129.919 67.3298C129.458 66.8782 129.227 66.2696 129.227 65.5038C129.227 64.8854 129.389 64.3455 129.713 63.8841C130.047 63.4129 130.503 63.0497 131.083 62.7944C131.672 62.5392 132.359 62.4116 133.144 62.4116C133.871 62.4116 134.543 62.5196 135.161 62.7355C135.78 62.9515 136.3 63.2705 136.722 63.6927L136.251 64.7381C135.809 64.3357 135.333 64.0461 134.823 63.8694C134.322 63.6828 133.753 63.5896 133.115 63.5896C132.339 63.5896 131.726 63.7565 131.274 64.0902C130.822 64.424 130.597 64.8756 130.597 65.4449C130.597 65.8965 130.739 66.2548 131.024 66.5199C131.308 66.7751 131.78 66.9714 132.437 67.1089L134.013 67.4181C135.014 67.6144 135.746 67.9237 136.207 68.3458C136.678 68.7679 136.914 69.352 136.914 70.0981C136.914 70.6871 136.757 71.2074 136.443 71.6589C136.128 72.1007 135.682 72.4443 135.103 72.6897C134.523 72.9351 133.836 73.0578 133.041 73.0578ZM138.709 72.9253V67.2709C138.709 66.9862 138.699 66.6966 138.68 66.4021C138.66 66.1076 138.631 65.8131 138.591 65.5186H139.887L140.034 67.1089H139.858C140.084 66.5493 140.432 66.1223 140.903 65.8278C141.374 65.5333 141.924 65.386 142.552 65.386C143.426 65.386 144.084 65.6266 144.526 66.1076C144.967 66.5788 145.188 67.315 145.188 68.3163V72.9253H143.848V68.39C143.848 67.7126 143.716 67.2267 143.451 66.9322C143.186 66.6279 142.773 66.4757 142.214 66.4757C141.546 66.4757 141.016 66.6769 140.623 67.0794C140.241 67.4819 140.049 68.0267 140.049 68.7139V72.9253H138.709ZM150.208 73.0578C149.56 73.0578 148.99 72.9057 148.499 72.6013C148.009 72.297 147.626 71.8553 147.351 71.2761C147.076 70.6969 146.939 70.0097 146.939 69.2146C146.939 68.4194 147.076 67.7372 147.351 67.1678C147.626 66.5886 148.009 66.1468 148.499 65.8425C148.99 65.5382 149.56 65.386 150.208 65.386C150.865 65.386 151.435 65.5529 151.916 65.8867C152.406 66.2107 152.73 66.6573 152.887 67.2267H152.711L152.873 65.5186H154.169C154.139 65.8131 154.11 66.1076 154.08 66.4021C154.061 66.6966 154.051 66.9862 154.051 67.2709V72.9253H152.711V71.2319H152.873C152.716 71.7915 152.392 72.2381 151.901 72.5719C151.42 72.8958 150.855 73.0578 150.208 73.0578ZM150.517 71.9976C151.184 71.9976 151.719 71.762 152.122 71.2908C152.524 70.8196 152.726 70.1275 152.726 69.2146C152.726 68.3016 152.524 67.6144 152.122 67.1531C151.719 66.6917 151.184 66.461 150.517 66.461C149.849 66.461 149.309 66.6917 148.897 67.1531C148.494 67.6144 148.293 68.3016 148.293 69.2146C148.293 70.1275 148.494 70.8196 148.897 71.2908C149.299 71.762 149.839 71.9976 150.517 71.9976ZM159.123 73.0578C158.475 73.0578 157.906 72.9057 157.415 72.6013C156.924 72.297 156.541 71.8553 156.266 71.2761C155.992 70.6969 155.854 70.0097 155.854 69.2146C155.854 68.4194 155.992 67.7372 156.266 67.1678C156.541 66.5886 156.924 66.1468 157.415 65.8425C157.906 65.5382 158.475 65.386 159.123 65.386C159.781 65.386 160.35 65.5529 160.831 65.8867C161.322 66.2107 161.646 66.6573 161.803 67.2267H161.626L161.788 65.5186H163.084C163.055 65.8131 163.025 66.1076 162.996 66.4021C162.976 66.6966 162.966 66.9862 162.966 67.2709V72.9253H161.626V71.2319H161.788C161.631 71.7915 161.307 72.2381 160.816 72.5719C160.335 72.8958 159.771 73.0578 159.123 73.0578ZM159.432 71.9976C160.1 71.9976 160.635 71.762 161.037 71.2908C161.44 70.8196 161.641 70.1275 161.641 69.2146C161.641 68.3016 161.44 67.6144 161.037 67.1531C160.635 66.6917 160.1 66.461 159.432 66.461C158.765 66.461 158.225 66.6917 157.813 67.1531C157.41 67.6144 157.209 68.3016 157.209 69.2146C157.209 70.1275 157.41 70.8196 157.813 71.2908C158.215 71.762 158.755 71.9976 159.432 71.9976ZM165.197 72.9253V67.3298C165.197 67.0353 165.187 66.7358 165.167 66.4315C165.157 66.1174 165.133 65.8131 165.094 65.5186H166.389L166.551 67.3739L166.331 67.3887C166.429 66.9371 166.596 66.5641 166.831 66.2696C167.077 65.9652 167.366 65.7444 167.7 65.6069C168.044 65.4597 168.397 65.386 168.76 65.386C168.917 65.386 169.05 65.391 169.158 65.4008C169.266 65.4106 169.374 65.4351 169.482 65.4744L169.452 66.6671C169.305 66.6082 169.168 66.5739 169.04 66.5641C168.922 66.5444 168.775 66.5346 168.598 66.5346C168.166 66.5346 167.793 66.6328 167.479 66.8291C167.175 67.0254 166.939 67.2856 166.772 67.6095C166.615 67.9335 166.537 68.282 166.537 68.655V72.9253H165.197ZM170.661 76.1059V67.2709C170.661 66.9862 170.652 66.6966 170.632 66.4021C170.612 66.1076 170.583 65.8131 170.544 65.5186H171.839L172.001 67.2267H171.839C171.987 66.6573 172.301 66.2107 172.782 65.8867C173.263 65.5529 173.837 65.386 174.505 65.386C175.162 65.386 175.737 65.5382 176.228 65.8425C176.718 66.1468 177.096 66.5886 177.361 67.1678C177.636 67.7372 177.774 68.4194 177.774 69.2146C177.774 70.0097 177.636 70.6969 177.361 71.2761C177.096 71.8553 176.718 72.297 176.228 72.6013C175.737 72.9057 175.162 73.0578 174.505 73.0578C173.847 73.0578 173.278 72.8958 172.797 72.5719C172.325 72.2381 172.006 71.7915 171.839 71.2319H172.001V76.1059H170.661ZM174.195 71.9976C174.873 71.9976 175.413 71.762 175.815 71.2908C176.218 70.8196 176.419 70.1275 176.419 69.2146C176.419 68.3016 176.218 67.6144 175.815 67.1531C175.413 66.6917 174.873 66.461 174.195 66.461C173.518 66.461 172.978 66.6917 172.576 67.1531C172.183 67.6144 171.987 68.3016 171.987 69.2146C171.987 70.1275 172.183 70.8196 172.576 71.2908C172.978 71.762 173.518 71.9976 174.195 71.9976Z" fill="#9CA3AF"/>
<mask id="path-11-inside-3_4175_13570" fill="white">
<path d="M63.0078 129.808C63.0078 121.675 69.6005 115.083 77.7329 115.083H478.316C486.448 115.083 493.041 121.675 493.041 129.808V153.503C493.041 161.636 486.448 168.229 478.316 168.229H77.7329C69.6005 168.229 63.0078 161.636 63.0078 153.503V129.808Z"/>
</mask>
<path d="M63.0078 129.808C63.0078 121.675 69.6005 115.083 77.7329 115.083H478.316C486.448 115.083 493.041 121.675 493.041 129.808V153.503C493.041 161.636 486.448 168.229 478.316 168.229H77.7329C69.6005 168.229 63.0078 161.636 63.0078 153.503V129.808Z" fill="white"/>
<path d="M77.7329 115.083V116.064H478.316V115.083V114.101H77.7329V115.083ZM493.041 129.808H492.059V153.503H493.041H494.022V129.808H493.041ZM478.316 168.229V167.247H77.7329V168.229V169.21H478.316V168.229ZM63.0078 153.503H63.9895V129.808H63.0078H62.0261V153.503H63.0078ZM77.7329 168.229V167.247C70.1426 167.247 63.9895 161.094 63.9895 153.503H63.0078H62.0261C62.0261 162.178 69.0583 169.21 77.7329 169.21V168.229ZM493.041 153.503H492.059C492.059 161.094 485.906 167.247 478.316 167.247V168.229V169.21C486.99 169.21 494.022 162.178 494.022 153.503H493.041ZM478.316 115.083V116.064C485.906 116.064 492.059 122.217 492.059 129.808H493.041H494.022C494.022 121.133 486.99 114.101 478.316 114.101V115.083ZM77.7329 115.083V114.101C69.0583 114.101 62.0261 121.133 62.0261 129.808H63.0078H63.9895C63.9895 122.217 70.1426 116.064 77.7329 116.064V115.083Z" fill="#F3F4F6" mask="url(#path-11-inside-3_4175_13570)"/>
<path d="M81.6562 141.405C81.6562 138.22 84.2379 135.639 87.4225 135.639V135.639C90.607 135.639 93.1887 138.22 93.1887 141.405V141.906C93.1887 145.09 90.607 147.672 87.4225 147.672V147.672C84.2379 147.672 81.6562 145.09 81.6562 141.906V141.405Z" fill="#4338CA"/>
<path d="M114.982 147.274C113.71 147.274 112.626 147.015 111.731 146.497C110.836 145.978 110.146 145.242 109.663 144.288C109.192 143.322 108.957 142.185 108.957 140.878C108.957 139.57 109.192 138.439 109.663 137.485C110.146 136.531 110.836 135.795 111.731 135.276C112.626 134.758 113.71 134.499 114.982 134.499C115.866 134.499 116.655 134.628 117.35 134.888C118.045 135.147 118.652 135.524 119.17 136.018L118.534 137.485C117.968 137.002 117.415 136.655 116.873 136.442C116.343 136.23 115.724 136.124 115.017 136.124C113.675 136.124 112.65 136.537 111.943 137.361C111.236 138.186 110.883 139.358 110.883 140.878C110.883 142.397 111.236 143.575 111.943 144.412C112.65 145.236 113.675 145.649 115.017 145.649C115.724 145.649 116.343 145.543 116.873 145.331C117.415 145.119 117.968 144.765 118.534 144.27L119.17 145.737C118.652 146.232 118.045 146.615 117.35 146.886C116.655 147.145 115.866 147.274 114.982 147.274ZM121.318 147.115V134.11H123.103V147.115H121.318ZM125.718 147.115V138.21H127.503V147.115H125.718ZM125.577 136.354V134.499H127.644V136.354H125.577ZM134.236 147.274C132.799 147.274 131.668 146.868 130.843 146.055C130.018 145.242 129.606 144.117 129.606 142.68C129.606 141.749 129.783 140.937 130.136 140.242C130.501 139.547 131.002 139.011 131.638 138.634C132.286 138.245 133.034 138.05 133.882 138.05C134.719 138.05 135.42 138.227 135.985 138.581C136.551 138.934 136.981 139.435 137.275 140.083C137.57 140.719 137.717 141.473 137.717 142.344V142.91H131.002V141.885H136.498L136.197 142.115C136.197 141.231 135.997 140.548 135.596 140.065C135.208 139.57 134.642 139.323 133.9 139.323C133.075 139.323 132.439 139.611 131.992 140.189C131.544 140.754 131.32 141.537 131.32 142.539V142.715C131.32 143.764 131.573 144.553 132.08 145.083C132.598 145.613 133.329 145.878 134.271 145.878C134.789 145.878 135.272 145.808 135.72 145.666C136.179 145.513 136.615 145.266 137.028 144.924L137.611 146.143C137.198 146.509 136.698 146.791 136.109 146.992C135.52 147.18 134.895 147.274 134.236 147.274ZM139.765 147.115V140.348C139.765 140.006 139.747 139.658 139.712 139.305C139.688 138.94 139.659 138.575 139.623 138.21H141.355L141.514 140.083H141.302C141.573 139.423 141.991 138.922 142.557 138.581C143.122 138.227 143.776 138.05 144.518 138.05C145.566 138.05 146.356 138.339 146.886 138.916C147.428 139.494 147.699 140.389 147.699 141.602V147.115H145.914V141.708C145.914 140.919 145.755 140.353 145.437 140.012C145.131 139.658 144.659 139.482 144.023 139.482C143.269 139.482 142.668 139.717 142.221 140.189C141.773 140.648 141.549 141.272 141.549 142.062V147.115H139.765ZM153.702 147.274C152.736 147.274 152.006 147.015 151.511 146.497C151.017 145.967 150.769 145.177 150.769 144.129V139.588H149.038V138.21H150.769V135.859L152.554 135.382V138.21H155.028V139.588H152.554V143.97C152.554 144.63 152.672 145.101 152.907 145.384C153.143 145.666 153.484 145.808 153.932 145.808C154.156 145.808 154.35 145.79 154.515 145.755C154.692 145.708 154.851 145.655 154.992 145.596V147.045C154.816 147.115 154.609 147.168 154.374 147.204C154.138 147.251 153.914 147.274 153.702 147.274ZM159.715 147.274C158.973 147.274 158.29 147.18 157.665 146.992C157.041 146.803 156.523 146.538 156.111 146.196L156.658 144.977C157.094 145.307 157.577 145.554 158.107 145.719C158.637 145.884 159.179 145.967 159.733 145.967C160.381 145.967 160.87 145.855 161.2 145.631C161.529 145.395 161.694 145.077 161.694 144.677C161.694 144.37 161.588 144.123 161.376 143.935C161.176 143.746 160.84 143.605 160.369 143.511L158.673 143.175C157.919 143.01 157.347 142.727 156.959 142.327C156.57 141.926 156.376 141.414 156.376 140.789C156.376 140.259 156.517 139.788 156.8 139.376C157.094 138.963 157.506 138.639 158.037 138.404C158.578 138.168 159.209 138.05 159.927 138.05C160.587 138.05 161.2 138.145 161.765 138.333C162.33 138.522 162.802 138.793 163.179 139.146L162.613 140.33C162.248 140.024 161.836 139.788 161.376 139.623C160.917 139.446 160.451 139.358 159.98 139.358C159.321 139.358 158.832 139.482 158.514 139.729C158.196 139.977 158.037 140.3 158.037 140.701C158.037 141.007 158.131 141.261 158.319 141.461C158.52 141.649 158.832 141.797 159.256 141.903L160.952 142.238C161.753 142.403 162.354 142.674 162.754 143.051C163.155 143.428 163.355 143.935 163.355 144.571C163.355 145.124 163.202 145.607 162.896 146.02C162.59 146.432 162.165 146.744 161.624 146.956C161.082 147.168 160.446 147.274 159.715 147.274Z" fill="#374151"/>
<path d="M404.133 147.115V144.412H398.196V143.352L404.363 134.658H405.564V143.228H407.473V144.412H405.564V147.115H404.133ZM404.133 143.228V136.389H404.522L399.398 143.599V143.228H404.133ZM409.427 147.115V146.02L413.845 141.408C414.422 140.807 414.852 140.236 415.135 139.694C415.429 139.14 415.576 138.569 415.576 137.98C415.576 137.261 415.353 136.719 414.905 136.354C414.457 135.977 413.809 135.789 412.961 135.789C412.302 135.789 411.689 135.906 411.124 136.142C410.57 136.366 410.034 136.725 409.516 137.22L408.986 136.071C409.457 135.6 410.058 135.223 410.788 134.941C411.518 134.646 412.29 134.499 413.103 134.499C414.363 134.499 415.335 134.793 416.018 135.382C416.701 135.96 417.043 136.784 417.043 137.856C417.043 138.645 416.849 139.399 416.46 140.118C416.083 140.825 415.529 141.555 414.799 142.309L410.894 146.267V145.861H417.573V147.115H409.427ZM428.447 147.274C427.056 147.274 425.961 146.874 425.16 146.073C424.359 145.26 423.958 144.135 423.958 142.698C423.958 141.767 424.135 140.96 424.488 140.277C424.842 139.582 425.337 139.046 425.973 138.669C426.609 138.28 427.339 138.086 428.164 138.086C428.977 138.086 429.66 138.257 430.214 138.598C430.767 138.94 431.191 139.429 431.486 140.065C431.78 140.689 431.928 141.431 431.928 142.291V142.821H425.054V141.92H430.991L430.691 142.15C430.691 141.208 430.479 140.471 430.055 139.941C429.63 139.411 429 139.146 428.164 139.146C427.28 139.146 426.591 139.458 426.096 140.083C425.602 140.695 425.354 141.526 425.354 142.574V142.733C425.354 143.84 425.625 144.683 426.167 145.26C426.721 145.825 427.492 146.108 428.482 146.108C429.012 146.108 429.507 146.031 429.966 145.878C430.437 145.713 430.885 145.448 431.309 145.083L431.804 146.09C431.415 146.467 430.92 146.762 430.32 146.974C429.731 147.174 429.106 147.274 428.447 147.274ZM434.118 147.115V140.295C434.118 139.965 434.1 139.629 434.065 139.287C434.041 138.934 434.012 138.586 433.976 138.245H435.355L435.531 140.189H435.319C435.555 139.517 435.926 138.999 436.432 138.634C436.951 138.268 437.575 138.086 438.305 138.086C439.048 138.086 439.648 138.263 440.108 138.616C440.579 138.969 440.897 139.517 441.062 140.259H440.797C441.021 139.588 441.415 139.058 441.981 138.669C442.546 138.28 443.206 138.086 443.96 138.086C444.938 138.086 445.674 138.369 446.169 138.934C446.663 139.488 446.911 140.365 446.911 141.567V147.115H445.48V141.655C445.48 140.819 445.332 140.212 445.038 139.835C444.743 139.446 444.272 139.252 443.624 139.252C442.882 139.252 442.293 139.511 441.857 140.03C441.433 140.536 441.221 141.219 441.221 142.079V147.115H439.79V141.655C439.79 140.819 439.643 140.212 439.348 139.835C439.054 139.446 438.582 139.252 437.934 139.252C437.192 139.252 436.609 139.511 436.185 140.03C435.761 140.536 435.549 141.219 435.549 142.079V147.115H434.118ZM453.006 147.274C452.217 147.274 451.527 147.092 450.938 146.726C450.349 146.35 449.89 145.819 449.56 145.136C449.242 144.453 449.083 143.634 449.083 142.68C449.083 141.714 449.242 140.889 449.56 140.206C449.89 139.523 450.349 138.999 450.938 138.634C451.527 138.268 452.217 138.086 453.006 138.086C453.807 138.086 454.496 138.292 455.073 138.704C455.662 139.105 456.051 139.653 456.239 140.348H456.027L456.222 138.245H457.6C457.565 138.586 457.529 138.934 457.494 139.287C457.47 139.629 457.459 139.965 457.459 140.295V147.115H456.027V145.03H456.222C456.033 145.725 455.645 146.273 455.056 146.673C454.467 147.074 453.783 147.274 453.006 147.274ZM453.288 146.108C454.137 146.108 454.808 145.819 455.303 145.242C455.798 144.653 456.045 143.799 456.045 142.68C456.045 141.549 455.798 140.695 455.303 140.118C454.808 139.529 454.137 139.234 453.288 139.234C452.452 139.234 451.781 139.529 451.274 140.118C450.779 140.695 450.532 141.549 450.532 142.68C450.532 143.799 450.779 144.653 451.274 145.242C451.781 145.819 452.452 146.108 453.288 146.108ZM460.226 147.115V138.245H461.657V147.115H460.226ZM460.049 136.23V134.622H461.816V136.23H460.049ZM464.436 147.115V134.11H465.868V147.115H464.436ZM471.598 147.274C470.891 147.274 470.231 147.18 469.619 146.992C469.006 146.791 468.5 146.514 468.099 146.161L468.594 145.154C469.03 145.495 469.501 145.749 470.007 145.914C470.526 146.079 471.062 146.161 471.615 146.161C472.322 146.161 472.852 146.037 473.206 145.79C473.571 145.531 473.754 145.177 473.754 144.73C473.754 144.388 473.636 144.117 473.4 143.917C473.176 143.705 472.805 143.54 472.287 143.422L470.644 143.086C469.89 142.922 469.324 142.645 468.947 142.256C468.57 141.855 468.382 141.349 468.382 140.736C468.382 140.218 468.517 139.764 468.788 139.376C469.059 138.975 469.454 138.663 469.972 138.439C470.49 138.204 471.097 138.086 471.792 138.086C472.44 138.086 473.035 138.186 473.577 138.386C474.13 138.575 474.59 138.852 474.955 139.217L474.443 140.206C474.089 139.865 473.683 139.611 473.223 139.446C472.776 139.27 472.31 139.181 471.827 139.181C471.132 139.181 470.608 139.323 470.255 139.605C469.913 139.876 469.742 140.236 469.742 140.683C469.742 141.025 469.848 141.308 470.06 141.531C470.284 141.744 470.626 141.903 471.085 142.009L472.729 142.344C473.53 142.521 474.125 142.798 474.513 143.175C474.914 143.54 475.114 144.035 475.114 144.659C475.114 145.189 474.967 145.655 474.672 146.055C474.378 146.444 473.966 146.744 473.435 146.956C472.917 147.168 472.305 147.274 471.598 147.274Z" fill="#6B7280"/>
<mask id="path-16-inside-4_4175_13570" fill="white">
<path d="M63.0078 200.624C63.0078 192.492 69.6005 185.899 77.7329 185.899H478.316C486.448 185.899 493.041 192.492 493.041 200.624V224.32C493.041 232.452 486.448 239.045 478.316 239.045H77.7329C69.6005 239.045 63.0078 232.452 63.0078 224.32V200.624Z"/>
</mask>
<path d="M63.0078 200.624C63.0078 192.492 69.6005 185.899 77.7329 185.899H478.316C486.448 185.899 493.041 192.492 493.041 200.624V224.32C493.041 232.452 486.448 239.045 478.316 239.045H77.7329C69.6005 239.045 63.0078 232.452 63.0078 224.32V200.624Z" fill="white"/>
<path d="M77.7329 185.899V186.881H478.316V185.899V184.917H77.7329V185.899ZM493.041 200.624H492.059V224.32H493.041H494.022V200.624H493.041ZM478.316 239.045V238.063H77.7329V239.045V240.027H478.316V239.045ZM63.0078 224.32H63.9895V200.624H63.0078H62.0261V224.32H63.0078ZM77.7329 239.045V238.063C70.1426 238.063 63.9895 231.91 63.9895 224.32H63.0078H62.0261C62.0261 232.994 69.0583 240.027 77.7329 240.027V239.045ZM493.041 224.32H492.059C492.059 231.91 485.906 238.063 478.316 238.063V239.045V240.027C486.99 240.027 494.022 232.994 494.022 224.32H493.041ZM478.316 185.899V186.881C485.906 186.881 492.059 193.034 492.059 200.624H493.041H494.022C494.022 191.949 486.99 184.917 478.316 184.917V185.899ZM77.7329 185.899V184.917C69.0583 184.917 62.0261 191.949 62.0261 200.624H63.0078H63.9895C63.9895 193.034 70.1426 186.881 77.7329 186.881V185.899Z" fill="#F3F4F6" mask="url(#path-16-inside-4_4175_13570)"/>
<path d="M81.6562 212.221C81.6562 209.037 84.2379 206.455 87.4225 206.455V206.455C90.607 206.455 93.1887 209.037 93.1887 212.221V212.722C93.1887 215.907 90.607 218.488 87.4225 218.488V218.488C84.2379 218.488 81.6562 215.907 81.6562 212.722V212.221Z" fill="#EF4444"/>
<path d="M114.434 218.091C112.703 218.091 111.413 217.655 110.565 216.784C109.728 215.912 109.31 214.622 109.31 212.914V205.475H111.148V212.878C111.148 214.08 111.407 214.987 111.925 215.6C112.455 216.2 113.292 216.501 114.434 216.501C115.518 216.501 116.337 216.2 116.89 215.6C117.444 214.987 117.721 214.08 117.721 212.878V205.475H119.523V212.914C119.523 214.622 119.093 215.912 118.233 216.784C117.373 217.655 116.107 218.091 114.434 218.091ZM122.18 217.932V211.235C122.18 210.87 122.168 210.505 122.145 210.14C122.133 209.763 122.109 209.392 122.074 209.026H123.806L124 211.324H123.717C123.835 210.77 124.035 210.31 124.318 209.945C124.601 209.58 124.942 209.309 125.343 209.132C125.755 208.956 126.185 208.867 126.633 208.867C126.821 208.867 126.98 208.879 127.11 208.903C127.24 208.914 127.369 208.938 127.499 208.973L127.481 210.564C127.281 210.481 127.104 210.434 126.951 210.422C126.81 210.399 126.633 210.387 126.421 210.387C125.903 210.387 125.461 210.505 125.096 210.74C124.73 210.964 124.454 211.27 124.265 211.659C124.077 212.048 123.982 212.466 123.982 212.914V217.932H122.18ZM132.767 221.89C131.965 221.89 131.235 221.796 130.575 221.608C129.928 221.419 129.344 221.136 128.826 220.759L129.268 219.452C129.633 219.699 129.992 219.894 130.346 220.035C130.699 220.188 131.07 220.3 131.459 220.371C131.848 220.441 132.248 220.477 132.66 220.477C133.509 220.477 134.145 220.259 134.569 219.823C135.005 219.399 135.223 218.78 135.223 217.967V215.582H135.399C135.211 216.242 134.822 216.766 134.233 217.155C133.656 217.532 132.984 217.72 132.219 217.72C131.406 217.72 130.699 217.543 130.098 217.19C129.509 216.825 129.05 216.312 128.72 215.653C128.402 214.981 128.243 214.192 128.243 213.285C128.243 212.378 128.402 211.594 128.72 210.935C129.05 210.275 129.509 209.769 130.098 209.415C130.699 209.05 131.406 208.867 132.219 208.867C132.996 208.867 133.668 209.062 134.233 209.45C134.81 209.827 135.193 210.346 135.382 211.005L135.223 210.864L135.382 209.026H137.113C137.066 209.392 137.031 209.757 137.007 210.122C136.984 210.475 136.972 210.823 136.972 211.164V217.755C136.972 219.098 136.613 220.123 135.894 220.83C135.187 221.537 134.145 221.89 132.767 221.89ZM132.643 216.324C133.42 216.324 134.039 216.059 134.498 215.529C134.969 214.999 135.205 214.251 135.205 213.285C135.205 212.319 134.969 211.577 134.498 211.058C134.039 210.54 133.42 210.281 132.643 210.281C131.842 210.281 131.206 210.54 130.734 211.058C130.275 211.577 130.045 212.319 130.045 213.285C130.045 214.251 130.275 214.999 130.734 215.529C131.206 216.059 131.842 216.324 132.643 216.324ZM143.692 218.091C142.255 218.091 141.124 217.685 140.299 216.872C139.475 216.059 139.062 214.934 139.062 213.497C139.062 212.566 139.239 211.753 139.593 211.058C139.958 210.363 140.458 209.827 141.095 209.45C141.742 209.062 142.49 208.867 143.339 208.867C144.175 208.867 144.876 209.044 145.441 209.397C146.007 209.751 146.437 210.252 146.731 210.899C147.026 211.536 147.173 212.289 147.173 213.161V213.727H140.458V212.702H145.954L145.653 212.931C145.653 212.048 145.453 211.365 145.053 210.882C144.664 210.387 144.098 210.14 143.356 210.14C142.532 210.14 141.896 210.428 141.448 211.005C141 211.571 140.776 212.354 140.776 213.356V213.532C140.776 214.581 141.03 215.37 141.536 215.9C142.055 216.43 142.785 216.695 143.727 216.695C144.246 216.695 144.729 216.625 145.176 216.483C145.636 216.33 146.072 216.083 146.484 215.741L147.067 216.96C146.655 217.325 146.154 217.608 145.565 217.808C144.976 217.997 144.352 218.091 143.692 218.091ZM149.221 217.932V211.164C149.221 210.823 149.203 210.475 149.168 210.122C149.144 209.757 149.115 209.392 149.08 209.026H150.811L150.97 210.899H150.758C151.029 210.24 151.447 209.739 152.013 209.397C152.578 209.044 153.232 208.867 153.974 208.867C155.023 208.867 155.812 209.156 156.342 209.733C156.884 210.31 157.155 211.206 157.155 212.419V217.932H155.37V212.525C155.37 211.736 155.211 211.17 154.893 210.829C154.587 210.475 154.116 210.299 153.479 210.299C152.726 210.299 152.125 210.534 151.677 211.005C151.229 211.465 151.006 212.089 151.006 212.878V217.932H149.221ZM163.159 218.091C162.193 218.091 161.462 217.832 160.968 217.314C160.473 216.784 160.225 215.994 160.225 214.946V210.405H158.494V209.026H160.225V206.676L162.01 206.199V209.026H164.484V210.405H162.01V214.787C162.01 215.447 162.128 215.918 162.364 216.2C162.599 216.483 162.941 216.625 163.388 216.625C163.612 216.625 163.807 216.607 163.972 216.572C164.148 216.524 164.307 216.471 164.449 216.412V217.861C164.272 217.932 164.066 217.985 163.83 218.02C163.595 218.068 163.371 218.091 163.159 218.091Z" fill="#374151"/>
<path d="M412.933 218.091C412.097 218.091 411.296 217.962 410.53 217.702C409.765 217.443 409.123 217.072 408.604 216.589L409.152 215.458C409.729 215.93 410.324 216.271 410.937 216.483C411.549 216.695 412.209 216.801 412.916 216.801C413.846 216.801 414.553 216.607 415.036 216.218C415.519 215.818 415.761 215.234 415.761 214.469C415.761 213.738 415.513 213.185 415.019 212.808C414.524 212.419 413.799 212.225 412.845 212.225H410.972V211.005H412.721C413.546 211.005 414.2 210.793 414.683 210.369C415.166 209.945 415.407 209.368 415.407 208.638C415.407 207.978 415.183 207.477 414.736 207.136C414.3 206.782 413.67 206.606 412.845 206.606C411.502 206.606 410.342 207.083 409.364 208.037L408.816 206.888C409.299 206.394 409.906 206.011 410.636 205.74C411.367 205.457 412.132 205.316 412.933 205.316C414.159 205.316 415.119 205.598 415.814 206.164C416.509 206.729 416.856 207.513 416.856 208.514C416.856 209.28 416.638 209.939 416.202 210.493C415.767 211.035 415.178 211.406 414.435 211.606V211.412C415.319 211.553 416.002 211.907 416.485 212.472C416.968 213.026 417.21 213.727 417.21 214.575C417.21 215.659 416.827 216.519 416.061 217.155C415.307 217.779 414.265 218.091 412.933 218.091ZM428.242 218.091C426.852 218.091 425.756 217.691 424.955 216.89C424.154 216.077 423.754 214.952 423.754 213.515C423.754 212.584 423.93 211.777 424.284 211.094C424.637 210.399 425.132 209.863 425.768 209.486C426.404 209.097 427.135 208.903 427.959 208.903C428.772 208.903 429.455 209.074 430.009 209.415C430.563 209.757 430.987 210.246 431.281 210.882C431.576 211.506 431.723 212.248 431.723 213.108V213.638H424.849V212.737H430.786L430.486 212.967C430.486 212.024 430.274 211.288 429.85 210.758C429.426 210.228 428.796 209.963 427.959 209.963C427.076 209.963 426.387 210.275 425.892 210.899C425.397 211.512 425.15 212.342 425.15 213.391V213.55C425.15 214.657 425.421 215.5 425.963 216.077C426.516 216.642 427.288 216.925 428.277 216.925C428.807 216.925 429.302 216.848 429.762 216.695C430.233 216.53 430.68 216.265 431.105 215.9L431.599 216.907C431.211 217.284 430.716 217.579 430.115 217.791C429.526 217.991 428.902 218.091 428.242 218.091ZM433.913 217.932V211.111C433.913 210.782 433.895 210.446 433.86 210.104C433.837 209.751 433.807 209.403 433.772 209.062H435.15L435.327 211.005H435.115C435.35 210.334 435.721 209.816 436.228 209.45C436.746 209.085 437.371 208.903 438.101 208.903C438.843 208.903 439.444 209.079 439.903 209.433C440.375 209.786 440.693 210.334 440.857 211.076H440.592C440.816 210.405 441.211 209.875 441.776 209.486C442.342 209.097 443.001 208.903 443.755 208.903C444.733 208.903 445.469 209.185 445.964 209.751C446.459 210.305 446.706 211.182 446.706 212.384V217.932H445.275V212.472C445.275 211.636 445.128 211.029 444.833 210.652C444.539 210.263 444.068 210.069 443.42 210.069C442.678 210.069 442.089 210.328 441.653 210.846C441.229 211.353 441.017 212.036 441.017 212.896V217.932H439.585V212.472C439.585 211.636 439.438 211.029 439.143 210.652C438.849 210.263 438.378 210.069 437.73 210.069C436.988 210.069 436.405 210.328 435.981 210.846C435.556 211.353 435.344 212.036 435.344 212.896V217.932H433.913ZM452.801 218.091C452.012 218.091 451.323 217.909 450.734 217.543C450.145 217.166 449.685 216.636 449.356 215.953C449.038 215.27 448.878 214.451 448.878 213.497C448.878 212.531 449.038 211.706 449.356 211.023C449.685 210.34 450.145 209.816 450.734 209.45C451.323 209.085 452.012 208.903 452.801 208.903C453.602 208.903 454.291 209.109 454.869 209.521C455.458 209.922 455.846 210.469 456.035 211.164H455.823L456.017 209.062H457.395C457.36 209.403 457.325 209.751 457.289 210.104C457.266 210.446 457.254 210.782 457.254 211.111V217.932H455.823V215.847H456.017C455.829 216.542 455.44 217.09 454.851 217.49C454.262 217.891 453.579 218.091 452.801 218.091ZM453.084 216.925C453.932 216.925 454.604 216.636 455.098 216.059C455.593 215.47 455.84 214.616 455.84 213.497C455.84 212.366 455.593 211.512 455.098 210.935C454.604 210.346 453.932 210.051 453.084 210.051C452.248 210.051 451.576 210.346 451.07 210.935C450.575 211.512 450.327 212.366 450.327 213.497C450.327 214.616 450.575 215.47 451.07 216.059C451.576 216.636 452.248 216.925 453.084 216.925ZM460.021 217.932V209.062H461.453V217.932H460.021ZM459.845 207.047V205.439H461.612V207.047H459.845ZM464.232 217.932V204.927H465.663V217.932H464.232ZM471.393 218.091C470.686 218.091 470.027 217.997 469.414 217.808C468.802 217.608 468.295 217.331 467.895 216.978L468.389 215.971C468.825 216.312 469.296 216.566 469.803 216.731C470.321 216.895 470.857 216.978 471.411 216.978C472.118 216.978 472.648 216.854 473.001 216.607C473.366 216.348 473.549 215.994 473.549 215.547C473.549 215.205 473.431 214.934 473.196 214.734C472.972 214.522 472.601 214.357 472.082 214.239L470.439 213.903C469.685 213.738 469.12 213.462 468.743 213.073C468.366 212.672 468.177 212.166 468.177 211.553C468.177 211.035 468.313 210.581 468.584 210.193C468.855 209.792 469.249 209.48 469.768 209.256C470.286 209.021 470.893 208.903 471.588 208.903C472.236 208.903 472.83 209.003 473.372 209.203C473.926 209.392 474.385 209.668 474.751 210.034L474.238 211.023C473.885 210.681 473.478 210.428 473.019 210.263C472.571 210.087 472.106 209.998 471.623 209.998C470.928 209.998 470.404 210.14 470.05 210.422C469.709 210.693 469.538 211.053 469.538 211.5C469.538 211.842 469.644 212.125 469.856 212.348C470.08 212.56 470.421 212.719 470.881 212.825L472.524 213.161C473.325 213.338 473.92 213.615 474.309 213.992C474.709 214.357 474.91 214.852 474.91 215.476C474.91 216.006 474.762 216.471 474.468 216.872C474.173 217.261 473.761 217.561 473.231 217.773C472.713 217.985 472.1 218.091 471.393 218.091Z" fill="#6B7280"/>
<mask id="path-21-inside-5_4175_13570" fill="white">
<path d="M63.0078 271.44C63.0078 263.307 69.6005 256.715 77.7329 256.715H478.316C486.448 256.715 493.041 263.307 493.041 271.44V295.136C493.041 303.268 486.448 309.861 478.316 309.861H77.7329C69.6005 309.861 63.0078 303.268 63.0078 295.136V271.44Z"/>
</mask>
<path d="M63.0078 271.44C63.0078 263.307 69.6005 256.715 77.7329 256.715H478.316C486.448 256.715 493.041 263.307 493.041 271.44V295.136C493.041 303.268 486.448 309.861 478.316 309.861H77.7329C69.6005 309.861 63.0078 303.268 63.0078 295.136V271.44Z" fill="white"/>
<path d="M77.7329 256.715V257.697H478.316V256.715V255.733H77.7329V256.715ZM493.041 271.44H492.059V295.136H493.041H494.022V271.44H493.041ZM478.316 309.861V308.879H77.7329V309.861V310.843H478.316V309.861ZM63.0078 295.136H63.9895V271.44H63.0078H62.0261V295.136H63.0078ZM77.7329 309.861V308.879C70.1426 308.879 63.9895 302.726 63.9895 295.136H63.0078H62.0261C62.0261 303.81 69.0583 310.843 77.7329 310.843V309.861ZM493.041 295.136H492.059C492.059 302.726 485.906 308.879 478.316 308.879V309.861V310.843C486.99 310.843 494.022 303.81 494.022 295.136H493.041ZM478.316 256.715V257.697C485.906 257.697 492.059 263.85 492.059 271.44H493.041H494.022C494.022 262.765 486.99 255.733 478.316 255.733V256.715ZM77.7329 256.715V255.733C69.0583 255.733 62.0261 262.765 62.0261 271.44H63.0078H63.9895C63.9895 263.85 70.1426 257.697 77.7329 257.697V256.715Z" fill="#F3F4F6" mask="url(#path-21-inside-5_4175_13570)"/>
<path d="M81.6562 283.037C81.6562 279.853 84.2379 277.271 87.4225 277.271V277.271C90.607 277.271 93.1887 279.853 93.1887 283.037V283.538C93.1887 286.722 90.607 289.304 87.4225 289.304V289.304C84.2379 289.304 81.6562 286.722 81.6562 283.538V283.037Z" fill="#16A34A"/>
<path d="M109.381 288.748V276.29H111.218V288.748H109.381ZM113.984 288.748V281.98C113.984 281.638 113.967 281.291 113.931 280.937C113.908 280.572 113.878 280.207 113.843 279.842H115.575L115.734 281.715H115.522C115.793 281.055 116.211 280.555 116.776 280.213C117.342 279.859 117.995 279.683 118.738 279.683C119.786 279.683 120.575 279.971 121.105 280.549C121.647 281.126 121.918 282.021 121.918 283.234V288.748H120.133V283.341C120.133 282.551 119.974 281.986 119.656 281.644C119.35 281.291 118.879 281.114 118.243 281.114C117.489 281.114 116.888 281.35 116.44 281.821C115.993 282.28 115.769 282.905 115.769 283.694V288.748H113.984ZM126.988 288.748L123.171 279.842H125.079L128.083 287.281H127.571L130.628 279.842H132.448L128.613 288.748H126.988ZM137.525 288.907C136.641 288.907 135.875 288.724 135.227 288.359C134.58 287.982 134.079 287.452 133.726 286.769C133.372 286.073 133.195 285.249 133.195 284.295C133.195 283.341 133.372 282.522 133.726 281.839C134.079 281.144 134.58 280.613 135.227 280.248C135.875 279.871 136.641 279.683 137.525 279.683C138.408 279.683 139.174 279.871 139.822 280.248C140.481 280.613 140.988 281.144 141.341 281.839C141.707 282.522 141.889 283.341 141.889 284.295C141.889 285.249 141.707 286.073 141.341 286.769C140.988 287.452 140.481 287.982 139.822 288.359C139.174 288.724 138.408 288.907 137.525 288.907ZM137.525 287.511C138.302 287.511 138.921 287.24 139.38 286.698C139.839 286.156 140.069 285.355 140.069 284.295C140.069 283.234 139.839 282.439 139.38 281.909C138.921 281.367 138.302 281.096 137.525 281.096C136.759 281.096 136.146 281.367 135.687 281.909C135.227 282.439 134.998 283.234 134.998 284.295C134.998 285.355 135.222 286.156 135.669 286.698C136.129 287.24 136.747 287.511 137.525 287.511ZM143.975 288.748V279.842H145.76V288.748H143.975ZM143.834 277.986V276.131H145.901V277.986H143.834ZM152.281 288.907C151.385 288.907 150.602 288.724 149.93 288.359C149.271 287.982 148.758 287.446 148.393 286.751C148.04 286.044 147.863 285.208 147.863 284.242C147.863 283.287 148.046 282.469 148.411 281.786C148.776 281.102 149.288 280.584 149.948 280.231C150.608 279.865 151.385 279.683 152.281 279.683C152.858 279.683 153.417 279.783 153.959 279.983C154.501 280.172 154.949 280.443 155.302 280.796L154.719 282.051C154.389 281.733 154.018 281.497 153.606 281.344C153.193 281.179 152.793 281.096 152.404 281.096C151.556 281.096 150.89 281.367 150.407 281.909C149.925 282.451 149.683 283.234 149.683 284.259C149.683 285.296 149.925 286.091 150.407 286.645C150.89 287.198 151.556 287.475 152.404 287.475C152.781 287.475 153.176 287.405 153.588 287.263C154 287.11 154.377 286.869 154.719 286.539L155.302 287.793C154.937 288.147 154.478 288.424 153.924 288.624C153.382 288.812 152.834 288.907 152.281 288.907ZM161.138 288.907C159.701 288.907 158.57 288.5 157.745 287.687C156.921 286.875 156.508 285.75 156.508 284.312C156.508 283.382 156.685 282.569 157.038 281.874C157.404 281.179 157.904 280.643 158.54 280.266C159.188 279.877 159.936 279.683 160.784 279.683C161.621 279.683 162.322 279.859 162.887 280.213C163.453 280.566 163.883 281.067 164.177 281.715C164.472 282.351 164.619 283.105 164.619 283.977V284.542H157.904V283.517H163.4L163.099 283.747C163.099 282.863 162.899 282.18 162.498 281.697C162.11 281.202 161.544 280.955 160.802 280.955C159.977 280.955 159.341 281.244 158.894 281.821C158.446 282.386 158.222 283.17 158.222 284.171V284.348C158.222 285.396 158.476 286.185 158.982 286.715C159.5 287.246 160.231 287.511 161.173 287.511C161.691 287.511 162.174 287.44 162.622 287.299C163.082 287.145 163.517 286.898 163.93 286.556L164.513 287.776C164.1 288.141 163.6 288.424 163.011 288.624C162.422 288.812 161.797 288.907 161.138 288.907ZM169.724 288.907C168.982 288.907 168.298 288.812 167.674 288.624C167.05 288.435 166.531 288.17 166.119 287.829L166.667 286.609C167.103 286.939 167.586 287.187 168.116 287.352C168.646 287.517 169.188 287.599 169.741 287.599C170.389 287.599 170.878 287.487 171.208 287.263C171.538 287.028 171.703 286.71 171.703 286.309C171.703 286.003 171.597 285.755 171.385 285.567C171.184 285.378 170.849 285.237 170.377 285.143L168.681 284.807C167.927 284.642 167.356 284.359 166.967 283.959C166.578 283.558 166.384 283.046 166.384 282.422C166.384 281.892 166.525 281.42 166.808 281.008C167.103 280.596 167.515 280.272 168.045 280.036C168.587 279.801 169.217 279.683 169.936 279.683C170.595 279.683 171.208 279.777 171.773 279.966C172.339 280.154 172.81 280.425 173.187 280.778L172.622 281.962C172.256 281.656 171.844 281.42 171.385 281.255C170.925 281.079 170.46 280.99 169.989 280.99C169.329 280.99 168.84 281.114 168.522 281.361C168.204 281.609 168.045 281.933 168.045 282.333C168.045 282.64 168.139 282.893 168.328 283.093C168.528 283.282 168.84 283.429 169.264 283.535L170.961 283.871C171.762 284.036 172.362 284.306 172.763 284.683C173.163 285.06 173.364 285.567 173.364 286.203C173.364 286.757 173.211 287.24 172.904 287.652C172.598 288.064 172.174 288.376 171.632 288.589C171.09 288.801 170.454 288.907 169.724 288.907Z" fill="#374151"/>
<path d="M399.557 288.748V287.493H402.49V277.545H403.267L399.839 279.683V278.216L402.896 276.29H403.956V287.493H406.713V288.748H399.557ZM413.209 288.907C411.783 288.907 410.682 288.606 409.904 288.005C409.127 287.393 408.738 286.539 408.738 285.443C408.738 284.583 409.003 283.871 409.533 283.305C410.063 282.728 410.764 282.38 411.636 282.263V282.528C410.847 282.363 410.217 282.003 409.745 281.45C409.274 280.884 409.039 280.219 409.039 279.453C409.039 278.405 409.41 277.592 410.152 277.015C410.894 276.426 411.913 276.131 413.209 276.131C414.516 276.131 415.541 276.426 416.283 277.015C417.025 277.592 417.397 278.405 417.397 279.453C417.397 280.219 417.173 280.884 416.725 281.45C416.289 282.015 415.677 282.369 414.887 282.51V282.263C415.747 282.38 416.431 282.728 416.937 283.305C417.444 283.871 417.697 284.583 417.697 285.443C417.697 286.539 417.308 287.393 416.531 288.005C415.753 288.606 414.646 288.907 413.209 288.907ZM413.209 287.705C414.245 287.705 415.017 287.511 415.523 287.122C416.042 286.733 416.301 286.144 416.301 285.355C416.301 284.577 416.042 284 415.523 283.623C415.017 283.234 414.245 283.04 413.209 283.04C412.172 283.04 411.395 283.234 410.876 283.623C410.37 284 410.116 284.577 410.116 285.355C410.116 286.144 410.376 286.733 410.894 287.122C411.412 287.511 412.184 287.705 413.209 287.705ZM413.209 281.839C414.104 281.839 414.787 281.638 415.258 281.238C415.741 280.837 415.983 280.284 415.983 279.577C415.983 278.87 415.741 278.322 415.258 277.933C414.787 277.533 414.104 277.333 413.209 277.333C412.313 277.333 411.624 277.533 411.141 277.933C410.67 278.322 410.434 278.87 410.434 279.577C410.434 280.284 410.67 280.837 411.141 281.238C411.624 281.638 412.313 281.839 413.209 281.839ZM428.447 288.907C427.056 288.907 425.961 288.506 425.16 287.705C424.359 286.892 423.958 285.767 423.958 284.33C423.958 283.399 424.135 282.592 424.488 281.909C424.842 281.214 425.337 280.678 425.973 280.301C426.609 279.913 427.339 279.718 428.164 279.718C428.977 279.718 429.66 279.889 430.214 280.231C430.767 280.572 431.191 281.061 431.486 281.697C431.78 282.322 431.928 283.064 431.928 283.924V284.454H425.054V283.553H430.991L430.691 283.782C430.691 282.84 430.479 282.104 430.055 281.573C429.63 281.043 429 280.778 428.164 280.778C427.28 280.778 426.591 281.091 426.096 281.715C425.602 282.327 425.354 283.158 425.354 284.206V284.365C425.354 285.473 425.625 286.315 426.167 286.892C426.721 287.458 427.492 287.74 428.482 287.74C429.012 287.74 429.507 287.664 429.966 287.511C430.437 287.346 430.885 287.081 431.309 286.715L431.804 287.723C431.415 288.1 430.92 288.394 430.32 288.606C429.731 288.806 429.106 288.907 428.447 288.907ZM434.118 288.748V281.927C434.118 281.597 434.1 281.261 434.065 280.92C434.041 280.566 434.012 280.219 433.976 279.877H435.355L435.531 281.821H435.319C435.555 281.149 435.926 280.631 436.432 280.266C436.951 279.901 437.575 279.718 438.305 279.718C439.048 279.718 439.648 279.895 440.108 280.248C440.579 280.602 440.897 281.149 441.062 281.892H440.797C441.021 281.22 441.415 280.69 441.981 280.301C442.546 279.913 443.206 279.718 443.96 279.718C444.938 279.718 445.674 280.001 446.169 280.566C446.663 281.12 446.911 281.998 446.911 283.199V288.748H445.48V283.287C445.48 282.451 445.332 281.844 445.038 281.467C444.743 281.079 444.272 280.884 443.624 280.884C442.882 280.884 442.293 281.144 441.857 281.662C441.433 282.168 441.221 282.852 441.221 283.712V288.748H439.79V283.287C439.79 282.451 439.643 281.844 439.348 281.467C439.054 281.079 438.582 280.884 437.934 280.884C437.192 280.884 436.609 281.144 436.185 281.662C435.761 282.168 435.549 282.852 435.549 283.712V288.748H434.118ZM453.006 288.907C452.217 288.907 451.527 288.724 450.938 288.359C450.349 287.982 449.89 287.452 449.56 286.769C449.242 286.085 449.083 285.267 449.083 284.312C449.083 283.346 449.242 282.522 449.56 281.839C449.89 281.155 450.349 280.631 450.938 280.266C451.527 279.901 452.217 279.718 453.006 279.718C453.807 279.718 454.496 279.924 455.073 280.337C455.662 280.737 456.051 281.285 456.239 281.98H456.027L456.222 279.877H457.6C457.565 280.219 457.529 280.566 457.494 280.92C457.47 281.261 457.459 281.597 457.459 281.927V288.748H456.027V286.662H456.222C456.033 287.358 455.645 287.905 455.056 288.306C454.467 288.706 453.783 288.907 453.006 288.907ZM453.288 287.74C454.137 287.74 454.808 287.452 455.303 286.875C455.798 286.286 456.045 285.431 456.045 284.312C456.045 283.181 455.798 282.327 455.303 281.75C454.808 281.161 454.137 280.867 453.288 280.867C452.452 280.867 451.781 281.161 451.274 281.75C450.779 282.327 450.532 283.181 450.532 284.312C450.532 285.431 450.779 286.286 451.274 286.875C451.781 287.452 452.452 287.74 453.288 287.74ZM460.226 288.748V279.877H461.657V288.748H460.226ZM460.049 277.863V276.255H461.816V277.863H460.049ZM464.436 288.748V275.742H465.868V288.748H464.436ZM471.598 288.907C470.891 288.907 470.231 288.812 469.619 288.624C469.006 288.424 468.5 288.147 468.099 287.793L468.594 286.786C469.03 287.128 469.501 287.381 470.007 287.546C470.526 287.711 471.062 287.793 471.615 287.793C472.322 287.793 472.852 287.67 473.206 287.422C473.571 287.163 473.754 286.81 473.754 286.362C473.754 286.02 473.636 285.75 473.4 285.549C473.176 285.337 472.805 285.172 472.287 285.055L470.644 284.719C469.89 284.554 469.324 284.277 468.947 283.888C468.57 283.488 468.382 282.981 468.382 282.369C468.382 281.85 468.517 281.397 468.788 281.008C469.059 280.608 469.454 280.295 469.972 280.072C470.49 279.836 471.097 279.718 471.792 279.718C472.44 279.718 473.035 279.818 473.577 280.019C474.13 280.207 474.59 280.484 474.955 280.849L474.443 281.839C474.089 281.497 473.683 281.244 473.223 281.079C472.776 280.902 472.31 280.814 471.827 280.814C471.132 280.814 470.608 280.955 470.255 281.238C469.913 281.509 469.742 281.868 469.742 282.316C469.742 282.657 469.848 282.94 470.06 283.164C470.284 283.376 470.626 283.535 471.085 283.641L472.729 283.977C473.53 284.153 474.125 284.43 474.513 284.807C474.914 285.172 475.114 285.667 475.114 286.291C475.114 286.822 474.967 287.287 474.672 287.687C474.378 288.076 473.966 288.376 473.435 288.589C472.917 288.801 472.305 288.907 471.598 288.907Z" fill="#6B7280"/>
</g>
<path d="M58.6151 43.3901V44.3718H495.98V43.3901V42.4085H58.6151V43.3901ZM516.595 64.0053H515.613V386.775H516.595H517.576V64.0053H516.595ZM495.98 407.39V406.408H58.6151V407.39V408.372H495.98V407.39ZM38 386.775H38.9817V64.0052H38H37.0183V386.775H38ZM58.6151 407.39V406.408C47.7719 406.408 38.9817 397.618 38.9817 386.775H38H37.0183C37.0183 398.703 46.6875 408.372 58.6151 408.372V407.39ZM516.595 386.775H515.613C515.613 397.618 506.823 406.408 495.98 406.408V407.39V408.372C507.907 408.372 517.576 398.703 517.576 386.775H516.595ZM495.98 43.3901V44.3718C506.823 44.3718 515.613 53.162 515.613 64.0053H516.595H517.576C517.576 52.0777 507.907 42.4085 495.98 42.4085V43.3901ZM58.6151 43.3901V42.4085C46.6875 42.4085 37.0183 52.0777 37.0183 64.0052H38H38.9817C38.9817 53.162 47.7719 44.3718 58.6151 44.3718V43.3901Z" fill="#E5E7EB" mask="url(#path-3-inside-1_4175_13570)"/>
</g>
</g>
<defs>
<clipPath id="clip0_4175_13570">
<rect width="552.5" height="280" rx="10" fill="white"/>
</clipPath>
<clipPath id="clip1_4175_13570">
<rect width="553" height="280" fill="white"/>
</clipPath>
<clipPath id="clip2_4175_13570">
<path d="M38 64.0052C38 52.6198 47.2297 43.3901 58.6151 43.3901H495.98C507.365 43.3901 516.595 52.6198 516.595 64.0053V386.775C516.595 398.16 507.365 407.39 495.98 407.39H58.6151C47.2297 407.39 38 398.16 38 386.775V64.0052Z" fill="white"/>
</clipPath>
</defs>
</svg>
