<svg width="24" height="24" viewBox="0 0 24 24" fill="none" xmlns="http://www.w3.org/2000/svg">
<path d="M2.69141 16.9801C2.83274 15.5001 3.28274 14.1521 4.04141 12.9361C4.80007 11.7201 5.77941 10.7331 6.97941 9.97512L5.35941 7.26912C5.23541 7.07445 5.20441 6.86312 5.26641 6.63512C5.32841 6.40645 5.45707 6.23212 5.65241 6.11212C5.84707 5.98745 6.05841 5.95545 6.28641 6.01612C6.51507 6.07612 6.68941 6.20345 6.80941 6.39812L8.48241 9.20412C9.02641 8.97612 9.59307 8.80512 10.1824 8.69112C10.7711 8.57645 11.3764 8.51912 11.9984 8.51912C12.6204 8.51912 13.2257 8.57645 13.8144 8.69112C14.4037 8.80445 14.9704 8.97545 15.5144 9.20412L17.1864 6.39812C17.3071 6.20345 17.4814 6.07612 17.7094 6.01612C17.9381 5.95545 18.1497 5.98745 18.3444 6.11212C18.5391 6.23212 18.6667 6.40645 18.7274 6.63512C18.7874 6.86312 18.7574 7.07445 18.6374 7.26912L17.0194 9.97512C18.2181 10.7344 19.1971 11.7218 19.9564 12.9371C20.7157 14.1524 21.1657 15.5005 21.3064 16.9811L2.69141 16.9801ZM17.0794 13.7901C17.0981 13.5494 17.0347 13.3068 16.8894 13.0621C16.7447 12.8168 16.5581 12.6591 16.3294 12.5891C16.1007 12.5191 15.8914 12.5458 15.7014 12.6691C15.5114 12.7924 15.4054 12.9771 15.3834 13.2231C15.3634 13.4678 15.4257 13.7128 15.5704 13.9581C15.7151 14.2028 15.9027 14.3581 16.1334 14.4241C16.3634 14.4901 16.5737 14.4608 16.7644 14.3361C16.9557 14.2121 17.0607 14.0298 17.0794 13.7891M7.86941 14.4111C8.09674 14.3411 8.28307 14.1834 8.42841 13.9381C8.57307 13.7061 8.63641 13.4668 8.61841 13.2201C8.59907 12.9734 8.49407 12.7878 8.30341 12.6631C8.11207 12.5391 7.90141 12.5101 7.67141 12.5761C7.44141 12.6421 7.25374 12.7974 7.10841 13.0421C6.96374 13.2741 6.90174 13.5158 6.92241 13.7671C6.94241 14.0184 7.04807 14.2065 7.23941 14.3311C7.43074 14.4558 7.64074 14.4824 7.86941 14.4111Z" fill="#7108E8"/>
</svg>
