<svg width="24" height="24" viewBox="0 0 24 24" fill="none" xmlns="http://www.w3.org/2000/svg">
<path d="M20.64 5.396C20.471 4.952 20.066 4.327 19.492 3.883C19.155 3.63 18.772 3.383 18.232 3.225C17.649 3.056 16.928 3 16.05 3H7.95C7.067 3 6.352 3.056 5.773 3.23C5.233 3.394 4.833 3.636 4.508 3.889C4.00124 4.2873 3.60412 4.80796 3.354 5.402C3.006 6.296 3 7.309 3 7.95V16.05C3 16.691 3.006 17.704 3.354 18.604C3.57344 19.1212 3.90399 19.5838 4.32221 19.959C4.74043 20.3342 5.23608 20.6128 5.774 20.775C6.353 20.944 7.067 21 7.95 21H16.05C16.933 21 17.648 20.944 18.227 20.77C18.767 20.606 19.167 20.364 19.492 20.111C19.9988 19.7127 20.3959 19.192 20.646 18.598C21 17.704 21 16.686 21 16.044V7.944C21 7.304 20.994 6.291 20.646 5.391L20.64 5.396ZM6.566 15.375H5.896V11.375H6.566V15.375ZM6.234 10.701C6.12367 10.701 6.01786 10.6572 5.93984 10.5792C5.86183 10.5011 5.818 10.3953 5.818 10.285C5.818 10.1747 5.86183 10.0689 5.93984 9.99084C6.01786 9.91283 6.12367 9.869 6.234 9.869C6.34488 9.86846 6.45147 9.91179 6.53052 9.98954C6.60958 10.0673 6.65468 10.1731 6.656 10.284C6.65417 10.3949 6.60897 10.5006 6.53008 10.5786C6.45119 10.6566 6.3449 10.7005 6.234 10.701ZM10.256 15.476C8.49 15.476 7.376 14.216 7.376 12.208C7.376 10.2 8.49 8.934 10.256 8.934C12.023 8.934 13.136 10.2 13.136 12.208C13.136 14.216 12.023 15.476 10.256 15.476ZM16.084 15.476C14.756 15.476 13.823 14.745 13.761 13.654H14.363C14.43 14.414 15.144 14.931 16.14 14.931C17.09 14.931 17.771 14.413 17.771 13.699C17.771 13.109 17.361 12.754 16.421 12.518L15.634 12.315C14.458 12.017 13.935 11.522 13.935 10.684C13.935 9.66 14.857 8.929 16.106 8.929C17.344 8.929 18.244 9.66 18.283 10.667H17.681C17.625 9.953 16.989 9.474 16.089 9.474C15.212 9.474 14.559 9.964 14.559 10.661C14.559 11.207 14.953 11.528 15.887 11.764L16.573 11.938C17.85 12.258 18.384 12.748 18.384 13.631C18.384 14.745 17.49 15.476 16.084 15.476ZM12.524 12.208C12.524 13.868 11.646 14.919 10.256 14.919C8.866 14.919 7.995 13.867 7.995 12.209C7.995 10.543 8.867 9.491 10.256 9.491C11.645 9.491 12.523 10.543 12.523 12.208" fill="#7108E8"/>
</svg>
