<svg width="24" height="24" viewBox="0 0 24 24" fill="none" xmlns="http://www.w3.org/2000/svg">
<path d="M22.0909 17.4897C21.5389 18.7119 21.2749 19.2583 20.566 20.3383C19.5755 21.8466 18.1771 23.7288 16.4481 23.7417C14.9103 23.7546 14.5134 22.7383 12.4263 22.7549C10.3392 22.7651 9.90446 23.7602 8.36477 23.7445C6.63584 23.7288 5.31215 22.0331 4.32077 20.5276C1.54877 16.3045 1.25615 11.3549 2.96938 8.7214C4.18138 6.85401 6.09953 5.7574 7.90046 5.7574C9.73461 5.7574 10.8875 6.7654 12.4041 6.7654C13.8755 6.7654 14.7718 5.75463 16.8931 5.75463C18.4974 5.75463 20.194 6.62878 21.406 8.13709C17.4405 10.31 18.0848 15.974 22.0909 17.4897ZM15.2832 4.06909C16.0549 3.07863 16.6401 1.68109 16.4278 0.255859C15.1688 0.341706 13.6965 1.14571 12.8362 2.18694C12.0571 3.13494 11.4109 4.54355 11.6629 5.90601C13.0365 5.95032 14.458 5.13155 15.2832 4.06909Z" fill="#7108E8"/>
</svg>
