<svg width="203" height="40" viewBox="0 0 203 40" fill="none" xmlns="http://www.w3.org/2000/svg">
<g clip-path="url(#clip0_4240_4183)">
<path d="M23.548 7.51651L11.774 15.033L23.548 22.5495L11.774 30.066L0 22.5089L11.774 14.9924L0 7.51651L11.774 0L23.548 7.51651ZM11.7131 32.4835L23.4871 24.967L35.2611 32.4835L23.4871 40L11.7131 32.4835ZM23.548 22.5089L35.322 14.9924L23.548 7.51651L35.2611 0L47.0351 7.51651L35.2611 15.033L47.0351 22.5495L35.2611 30.066L23.548 22.5089Z" fill="#0061FF"/>
<path d="M56.2734 7.5182H65.7941C71.8638 7.5182 76.8779 11.0327 76.8779 19.0571V20.7432C76.8779 28.8285 72.1886 32.4649 65.9768 32.4649H56.2734V7.5182ZM61.592 12.0484V27.9143H65.6723C69.1233 27.9143 71.4375 25.6594 71.4375 20.6416V19.3211C71.4375 14.3034 69.0015 12.0484 65.4896 12.0484H61.592ZM79.6996 12.2922H83.9626L84.6528 16.9849C85.4648 13.7955 87.5354 12.0891 91.2909 12.0891H92.6104V17.4725H90.418C86.0941 17.4725 85.0385 18.9758 85.0385 23.2419V32.5258H79.7808V12.2922H79.6996ZM93.666 22.8153V22.2465C93.666 15.4816 97.9899 11.7843 103.877 11.7843C109.886 11.7843 114.088 15.4816 114.088 22.2465V22.8153C114.088 29.4583 110.008 33.0337 103.877 33.0337C97.3606 32.9728 93.666 29.4786 93.666 22.8153ZM108.708 22.7544V22.2465C108.708 18.4882 106.82 16.2333 103.816 16.2333C100.873 16.2333 98.9237 18.3054 98.9237 22.2465V22.7544C98.9237 26.3907 100.812 28.4628 103.816 28.4628C106.82 28.4019 108.708 26.3907 108.708 22.7544ZM116.849 12.2922H121.233L121.741 16.1114C122.797 13.5517 125.05 11.7843 128.379 11.7843C133.515 11.7843 136.905 15.4816 136.905 22.3277V22.8966C136.905 29.5395 133.15 33.054 128.379 33.054C125.192 33.054 123 31.6117 121.924 29.2958V39.5141H116.788L116.849 12.2922ZM131.566 22.7544V22.3074C131.566 18.2851 129.496 16.2942 126.735 16.2942C123.791 16.2942 121.842 18.5492 121.842 22.3074V22.6934C121.842 26.2688 123.73 28.5238 126.674 28.5238C129.699 28.4628 131.566 26.5329 131.566 22.7544ZM144.68 28.7879L144.233 32.4852H139.727V5.52734H144.863V15.8676C145.999 13.2267 148.253 11.7843 151.44 11.7843C156.271 11.8453 159.844 15.1769 159.844 21.8808V22.5106C159.844 29.2145 156.454 33.054 151.318 33.054C147.928 32.9727 145.736 31.4085 144.68 28.7879ZM154.444 22.5106V22.0027C154.444 18.3054 152.435 16.2333 149.613 16.2333C146.73 16.2333 144.721 18.5492 144.721 22.0637V22.5106C144.721 26.2688 146.669 28.4628 149.552 28.4628C152.638 28.4628 154.444 26.5329 154.444 22.5106ZM162.097 22.8153V22.2465C162.097 15.4816 166.421 11.7843 172.308 11.7843C178.317 11.7843 182.519 15.4816 182.519 22.2465V22.8153C182.519 29.4583 178.378 33.0337 172.308 33.0337C165.792 32.9728 162.097 29.4786 162.097 22.8153ZM177.18 22.7544V22.2465C177.18 18.4882 175.292 16.2333 172.288 16.2333C169.344 16.2333 167.396 18.3054 167.396 22.2465V22.7544C167.396 26.3907 169.284 28.4628 172.288 28.4628C175.313 28.4019 177.18 26.3907 177.18 22.7544ZM189.401 22.0027L182.316 12.2922H188.386L192.466 18.3663L196.607 12.2922H202.616L195.43 21.9418L203.002 32.4852H197.054L192.426 25.7813L187.919 32.4852H181.707L189.401 22.0027Z" fill="black"/>
</g>
<defs>
<clipPath id="clip0_4240_4183">
<rect width="203" height="40" fill="white"/>
</clipPath>
</defs>
</svg>
