<svg width="128" height="40" viewBox="0 0 128 40" fill="none" xmlns="http://www.w3.org/2000/svg">
<g clip-path="url(#clip0_4240_4174)">
<path d="M16.0114 14.2727V18.5455H26.3503C26.0758 20.9091 25.2523 22.7273 23.9714 23.9091C22.5075 25.3636 20.1287 27 16.0114 27C9.69836 27 4.75768 21.9091 4.75768 15.6364C4.75768 9.36364 9.60686 4.27273 16.0114 4.27273C19.3967 4.27273 21.9585 5.63636 23.7884 7.36364L26.8077 4.36364C24.2459 1.90909 20.7691 0 16.0114 0C7.31951 0 0 7 0 15.6364C0 24.2727 7.31951 31.2727 16.0114 31.2727C20.6776 31.2727 24.2459 29.7273 26.9907 26.9091C29.827 24.0909 30.742 20.0909 30.742 16.9091C30.742 15.9091 30.6505 15 30.559 14.2727H16.0114Z" fill="#4285F4"/>
<path d="M43.552 10.7266C37.9709 10.7266 33.3047 14.9993 33.3047 20.8175C33.3047 26.6357 37.8794 30.9084 43.552 30.9084C49.2246 30.9084 53.7993 26.7266 53.7993 20.9084C53.7993 14.9993 49.2246 10.7266 43.552 10.7266ZM43.552 26.9993C40.4412 26.9993 37.7879 24.4538 37.7879 20.9084C37.7879 17.272 40.4412 14.8175 43.552 14.8175C46.6628 14.8175 49.3161 17.272 49.3161 20.9084C49.3161 24.4538 46.6628 26.9993 43.552 26.9993Z" fill="#EA4335"/>
<path d="M93.5965 12.9993H93.4135C92.4071 11.8175 90.4857 10.7266 88.0154 10.7266C82.8917 10.7266 78.5 15.0902 78.5 20.8175C78.5 26.4538 82.8917 30.9084 88.0154 30.9084C90.4857 30.9084 92.4071 29.8175 93.4135 28.6357H93.5965V30.0902C93.5965 33.9084 91.4921 35.9993 88.1984 35.9993C85.4535 35.9993 83.8066 34.0902 83.0747 32.3629L79.2319 33.9993C80.3299 36.6357 83.3492 39.9993 88.2898 39.9993C93.505 39.9993 97.9882 36.9084 97.9882 29.4538V11.272H93.7795V12.9993H93.5965ZM88.4728 26.9993C85.362 26.9993 83.0747 24.3629 83.0747 20.9084C83.0747 17.3629 85.4535 14.8175 88.4728 14.8175C91.4921 14.8175 93.871 17.4538 93.871 20.9993C93.9625 24.4538 91.5836 26.9993 88.4728 26.9993Z" fill="#4285F4"/>
<path d="M66.3333 10.7266C60.7521 10.7266 56.0859 14.9993 56.0859 20.8175C56.0859 26.6357 60.6606 30.9084 66.3333 30.9084C72.0059 30.9084 76.5806 26.7266 76.5806 20.9084C76.5806 14.9993 72.0059 10.7266 66.3333 10.7266ZM66.3333 26.9993C63.2225 26.9993 60.5691 24.4538 60.5691 20.9084C60.5691 17.272 63.2225 14.8175 66.3333 14.8175C69.4441 14.8175 72.0974 17.272 72.0974 20.9084C72.0974 24.4538 69.4441 26.9993 66.3333 26.9993Z" fill="#FBBC05"/>
<path d="M101.375 0.453125H105.767V30.9986H101.375V0.453125Z" fill="#34A853"/>
<path d="M119.307 26.9993C117.019 26.9993 115.464 25.9993 114.366 23.9084L127.998 18.3629L127.541 17.1811C126.718 14.9084 124.064 10.7266 118.849 10.7266C113.634 10.7266 109.242 14.8175 109.242 20.8175C109.242 26.4538 113.542 30.9084 119.307 30.9084C123.973 30.9084 126.626 28.0902 127.815 26.4538L124.339 24.1811C123.149 25.9084 121.594 26.9993 119.307 26.9993ZM119.032 14.5447C120.862 14.5447 122.417 15.4538 122.875 16.7266L113.725 20.5447C113.634 16.3629 116.745 14.5447 119.032 14.5447Z" fill="#EA4335"/>
</g>
<defs>
<clipPath id="clip0_4240_4174">
<rect width="128" height="40" fill="white"/>
</clipPath>
</defs>
</svg>
