<svg width="188" height="40" viewBox="0 0 188 40" fill="none" xmlns="http://www.w3.org/2000/svg">
<g clip-path="url(#clip0_4240_4186)">
<path d="M66.3613 23.0406L65.2408 26.2034H65.1474C64.9607 25.4902 64.6183 24.4049 64.058 23.1026L58.0507 8.06383H52.168V32.0328H56.0587V17.2421C56.0587 16.3119 56.0587 15.2576 56.0276 13.9553C55.9964 13.3041 55.9342 12.808 55.9031 12.4359H55.9964C56.1832 13.3662 56.4011 14.0483 56.5567 14.4824L63.7779 31.9708H66.517L73.6759 14.3274C73.8315 13.9243 73.9872 13.1181 74.1428 12.4359H74.2362C74.1428 14.2034 74.0805 15.7848 74.0494 16.746V31.9398H78.1892V8.00182H72.5243L66.3613 23.0406ZM82.111 14.7615H86.1574V31.9398H82.111V14.7615ZM84.1653 7.50569C83.4805 7.50569 82.9203 7.75375 82.4534 8.18786C81.9865 8.62197 81.7375 9.18011 81.7375 9.86228C81.7375 10.5134 81.9865 11.0716 82.4534 11.5057C82.9203 11.9398 83.4805 12.1569 84.1653 12.1569C84.8501 12.1569 85.4415 11.9088 85.8772 11.5057C86.3441 11.0716 86.5931 10.5134 86.5931 9.86228C86.5931 9.21112 86.3441 8.65298 85.8772 8.18786C85.4726 7.75375 84.8812 7.50569 84.1653 7.50569ZM100.506 14.6065C99.7594 14.4514 98.9812 14.3584 98.2342 14.3584C96.3978 14.3584 94.717 14.7615 93.3163 15.5677C91.9156 16.3739 90.7951 17.4902 90.0792 18.8855C89.3322 20.3119 88.9587 21.9553 88.9587 23.8468C88.9587 25.4902 89.3322 26.9476 90.0481 28.2809C90.764 29.5832 91.76 30.6375 93.0984 31.3507C94.3746 32.0638 95.8686 32.4359 97.5494 32.4359C99.4792 32.4359 101.129 32.0328 102.436 31.2886L102.467 31.2576V27.5367L102.312 27.6607C101.72 28.0948 101.036 28.4669 100.351 28.684C99.6348 28.932 98.9812 29.0561 98.4209 29.0561C96.8024 29.0561 95.5262 28.591 94.6236 27.5677C93.6898 26.5755 93.2229 25.2111 93.2229 23.5057C93.2229 21.7383 93.6898 20.3429 94.6547 19.3196C95.6196 18.2964 96.8958 17.7693 98.4521 17.7693C99.7594 17.7693 101.098 18.2034 102.312 19.0716L102.467 19.1956V15.2576L102.436 15.2266C101.907 15.0096 101.316 14.7615 100.506 14.6065ZM113.859 14.4824C112.863 14.4824 111.93 14.7925 111.12 15.4437C110.436 16.0018 109.969 16.808 109.564 17.7693H109.533V14.7615H105.487V31.9398H109.533V23.1646C109.533 21.6762 109.844 20.4359 110.529 19.5367C111.214 18.6065 112.085 18.1414 113.143 18.1414C113.517 18.1414 113.89 18.2344 114.357 18.2964C114.793 18.4204 115.104 18.5445 115.322 18.6995L115.478 18.8235V14.7925L115.385 14.7615C115.104 14.5755 114.544 14.4824 113.859 14.4824ZM124.878 14.3894C122.045 14.3894 119.773 15.2266 118.186 16.87C116.567 18.5134 115.789 20.777 115.789 23.6297C115.789 26.2964 116.598 28.4669 118.155 30.0483C119.711 31.5987 121.828 32.4049 124.473 32.4049C127.243 32.4049 129.453 31.5677 131.041 29.8933C132.659 28.2189 133.438 25.9863 133.438 23.2266C133.438 20.4979 132.69 18.3274 131.165 16.746C129.702 15.1646 127.555 14.3894 124.878 14.3894ZM128.115 27.5987C127.368 28.56 126.185 29.0251 124.722 29.0251C123.259 29.0251 122.077 28.56 121.236 27.5367C120.396 26.5755 119.991 25.1801 119.991 23.4127C119.991 21.5832 120.427 20.1879 121.236 19.1956C122.077 18.2034 123.228 17.7072 124.691 17.7072C126.123 17.7072 127.243 18.1724 128.053 19.1336C128.862 20.0948 129.298 21.4902 129.298 23.3196C129.236 25.1801 128.893 26.6375 128.115 27.5987ZM142.464 21.8933C141.188 21.3662 140.379 20.9631 140.005 20.622C139.694 20.3119 139.538 19.8778 139.538 19.3196C139.538 18.8545 139.725 18.3894 140.192 18.0793C140.659 17.7693 141.188 17.6142 141.966 17.6142C142.651 17.6142 143.367 17.7382 144.051 17.9243C144.736 18.1103 145.359 18.3894 145.857 18.7615L146.012 18.8855V15.1026L145.919 15.0716C145.452 14.8855 144.83 14.6995 144.083 14.5445C143.336 14.4204 142.651 14.3584 142.09 14.3584C140.161 14.3584 138.573 14.8235 137.328 15.8468C136.083 16.808 135.492 18.1103 135.492 19.6297C135.492 20.4359 135.616 21.1491 135.896 21.7383C136.177 22.3274 136.581 22.8855 137.141 23.3507C137.702 23.7848 138.511 24.2809 139.632 24.746C140.565 25.1491 141.281 25.4592 141.717 25.7072C142.153 25.9553 142.433 26.2344 142.651 26.4514C142.806 26.6995 142.9 27.0096 142.9 27.4127C142.9 28.56 142.028 29.1181 140.254 29.1181C139.569 29.1181 138.853 28.9941 138.013 28.715C137.173 28.4359 136.394 28.0328 135.741 27.5677L135.585 27.4437V31.3817L135.679 31.4127C136.27 31.6917 136.986 31.8778 137.857 32.0948C138.729 32.2499 139.507 32.3739 140.192 32.3739C142.277 32.3739 143.989 31.9088 145.203 30.8855C146.448 29.8933 147.102 28.622 147.102 26.9786C147.102 25.8313 146.79 24.808 146.106 24.0328C145.203 23.2886 144.083 22.5134 142.464 21.8933ZM157.778 14.3894C154.945 14.3894 152.673 15.2266 151.086 16.87C149.498 18.5134 148.689 20.777 148.689 23.6297C148.689 26.2964 149.498 28.4669 151.055 30.0483C152.611 31.5987 154.728 32.4049 157.373 32.4049C160.143 32.4049 162.353 31.5677 163.941 29.8933C165.559 28.2189 166.338 25.9863 166.338 23.2266C166.338 20.4979 165.59 18.3274 164.065 16.746C162.602 15.1646 160.455 14.3894 157.778 14.3894ZM160.984 27.5987C160.237 28.56 159.054 29.0251 157.591 29.0251C156.097 29.0251 154.945 28.56 154.105 27.5367C153.265 26.5755 152.86 25.1801 152.86 23.4127C152.86 21.5832 153.296 20.1879 154.105 19.1956C154.945 18.2034 156.097 17.7072 157.56 17.7072C158.961 17.7072 160.112 18.1724 160.922 19.1336C161.731 20.0948 162.167 21.4902 162.167 23.3196C162.167 25.1801 161.762 26.6375 160.984 27.5987ZM187.97 18.0793V14.7615H183.892V9.67624L183.768 9.70724L179.908 10.8545L179.815 10.8855V14.7615H173.714V12.591C173.714 11.5987 173.963 10.8235 174.399 10.3274C174.835 9.83127 175.488 9.58321 176.298 9.58321C176.858 9.58321 177.449 9.70724 178.103 9.98631L178.259 10.0793V6.57546L178.165 6.54445C177.605 6.35841 176.858 6.23438 175.893 6.23438C174.679 6.23438 173.621 6.51344 172.656 6.97856C171.691 7.50569 170.975 8.21887 170.446 9.18011C169.917 10.1103 169.637 11.1646 169.637 12.3739V14.7615H166.804V18.0483H169.637V31.9398H173.714V18.0793H179.815V26.9165C179.815 30.5445 181.527 32.3739 184.951 32.3739C185.511 32.3739 186.102 32.2809 186.663 32.1879C187.254 32.0638 187.69 31.9088 187.939 31.7848L187.97 31.7538V28.4359L187.814 28.56C187.565 28.715 187.347 28.839 186.974 28.9321C186.663 29.0251 186.383 29.0561 186.165 29.0561C185.355 29.0561 184.795 28.87 184.39 28.4049C184.017 27.9708 183.83 27.2576 183.83 26.2034V18.0793H187.97Z" fill="#737373"/>
<path d="M0 0H19.0801V19.0078H0V0Z" fill="#F25022"/>
<path d="M21.0703 0H40.1504V19.0078H21.0703V0Z" fill="#7FBA00"/>
<path d="M0 20.9922H19.0801V39.9999H0V20.9922Z" fill="#00A4EF"/>
<path d="M21.0703 20.9922H40.1504V39.9999H21.0703V20.9922Z" fill="#FFB900"/>
</g>
<defs>
<clipPath id="clip0_4240_4186">
<rect width="188" height="40" fill="white"/>
</clipPath>
</defs>
</svg>
