<svg width="121" height="40" viewBox="0 0 121 40" fill="none" xmlns="http://www.w3.org/2000/svg">
<g clip-path="url(#clip0_4240_4203)">
<path d="M109.666 26.2866C106.31 26.2866 103.904 23.6199 103.904 20.1913C103.904 16.7628 106.31 14.0961 109.666 14.0961C113.022 14.0961 115.365 16.7628 115.365 20.1913C115.365 23.6199 113.022 26.2866 109.666 26.2866ZM109.096 29.9056C111.819 29.9056 114.162 28.8263 115.618 26.604C115.871 28.7628 117.454 29.5882 119.417 29.5882H121V26.1596H120.304C119.164 26.1596 118.911 25.5882 118.911 24.3183V10.731H115.302V13.5247C114.099 11.5564 111.756 10.4136 109.096 10.4136C104.348 10.4136 99.9787 14.4136 99.9787 20.1913C99.9787 25.9691 104.411 29.9056 109.096 29.9056ZM90.481 25.2072C90.481 28.3183 92.3806 29.5882 94.66 29.5882H99.0289V26.1596H95.7997C94.4701 26.1596 94.2168 25.6517 94.2168 24.3183V14.1596H99.0289V10.731H94.2168V4.44531H90.4177C90.481 4.44531 90.481 25.2072 90.481 25.2072ZM73.322 29.5882H77.121V21.5247H78.3874L84.8458 29.5882H89.5946L81.3633 19.3659L87.6951 10.7945H83.4528L78.3241 18.0326H77.1843V4.44531H73.3853C73.322 4.44531 73.322 29.5882 73.322 29.5882ZM61.0383 10.4136C55.783 10.4136 51.4141 14.4136 51.4141 20.1913C51.4141 25.9691 55.783 29.9691 61.0383 29.9691C66.2937 29.9691 70.6626 25.9691 70.6626 20.1913C70.6626 14.4136 66.2937 10.4136 61.0383 10.4136ZM61.0383 26.2866C57.6825 26.2866 55.2764 23.6199 55.2764 20.1913C55.2764 16.7628 57.6825 14.0961 61.0383 14.0961C64.3942 14.0961 66.8002 16.7628 66.8002 20.1913C66.8002 23.6199 64.3942 26.2866 61.0383 26.2866Z" fill="black"/>
<path fill-rule="evenodd" clip-rule="evenodd" d="M21.9079 0.253968L21.0848 10.4127C20.7049 10.3492 20.325 10.3492 19.8817 10.3492C19.3752 10.3492 18.8687 10.4127 18.4254 10.4762L17.9822 5.5873C17.9822 5.46032 18.1088 5.26984 18.2355 5.26984H19.0586L18.6787 0.31746C18.6787 0.190476 18.8053 0 18.932 0H21.6546C21.8446 0 21.9712 0.126984 21.9079 0.253968ZM15.0696 0.761905C15.0063 0.634921 14.8796 0.507937 14.753 0.571429L12.2203 1.52381C12.0303 1.5873 11.967 1.77778 12.0303 1.90476L14.1198 6.4127L13.36 6.73016C13.2334 6.79365 13.1701 6.92064 13.2334 7.11111L15.3229 11.5556C16.0827 11.1111 16.9058 10.7937 17.7923 10.6032L15.0696 0.761905ZM8.86447 3.61905L14.753 11.9365C13.9932 12.4444 13.36 13.0159 12.7902 13.6508L9.18106 10.1587C9.05442 10.0317 9.05442 9.84127 9.18106 9.77778L9.81423 9.26984L6.33176 5.71429C6.20513 5.5873 6.20513 5.39683 6.33176 5.33333L8.42124 3.61905C8.54788 3.42857 8.73783 3.49206 8.86447 3.61905ZM3.92569 8.38095C3.79906 8.31746 3.6091 8.31746 3.54579 8.44444L2.21612 10.7937C2.1528 10.9206 2.21612 11.1111 2.34275 11.1746L6.8383 13.3333L6.39508 14.0317C6.33176 14.1587 6.39508 14.3492 6.52172 14.4127L11.0173 16.4444C11.3339 15.619 11.7771 14.8571 12.2836 14.1587L3.92569 8.38095ZM0.569859 14.7937C0.569859 14.6667 0.759812 14.5397 0.886447 14.6032L10.7007 17.1429C10.4474 17.9683 10.3208 18.8571 10.2575 19.746L5.31868 19.3651C5.19205 19.3651 5.06541 19.2381 5.06541 19.0476L5.19205 18.2222L0.379906 17.7778C0.253271 17.7778 0.126635 17.6508 0.126635 17.4603L0.569859 14.7937ZM0.253271 21.4603C0.0633176 21.4603 0 21.5873 0 21.7778L0.506541 24.4444C0.506541 24.5714 0.696494 24.6984 0.823129 24.6349L5.63527 23.3651L5.7619 24.1905C5.7619 24.3175 5.95186 24.4444 6.07849 24.381L10.8273 23.0476C10.574 22.2222 10.3841 21.3333 10.3208 20.4444L0.253271 21.4603ZM1.83621 28.5079C1.77289 28.381 1.83621 28.1905 1.96285 28.127L11.1439 23.746C11.4605 24.5714 11.967 25.3333 12.5369 26.0317L8.54788 28.8889C8.42124 28.9524 8.23129 28.9524 8.16797 28.8254L7.59812 28.127L3.48247 30.9841C3.35583 31.0476 3.16588 31.0476 3.10256 30.9206L1.83621 28.5079ZM12.9168 26.6032L5.7619 33.8413C5.63527 33.9683 5.63527 34.1587 5.7619 34.2222L7.85139 35.9365C7.97802 36.0635 8.16797 36 8.23129 35.873L11.1439 31.8095L11.7771 32.381C11.9037 32.5079 12.0937 32.4444 12.157 32.3175L14.943 28.254C14.1831 27.8095 13.4867 27.2381 12.9168 26.6032ZM11.5238 38.1587C11.3972 38.0952 11.3339 37.9683 11.3972 37.7778L15.5761 28.5714C16.3359 28.9524 17.2224 29.2698 18.0455 29.4603L16.7792 34.2222C16.7159 34.3492 16.5892 34.4762 16.4626 34.4127L15.7028 34.0952L14.3731 38.9206C14.3098 39.0476 14.1831 39.1746 14.0565 39.1111L11.5238 38.1587ZM18.742 29.5873L17.9189 39.746C17.9189 39.873 18.0455 40.0635 18.1722 40.0635H20.8948C21.0215 40.0635 21.1481 39.9365 21.1481 39.746L20.7682 34.7937H21.5913C21.7179 34.7937 21.8446 34.6667 21.8446 34.4762L21.4014 29.5873C20.8948 29.6508 20.4516 29.7143 19.9451 29.7143C19.5651 29.6508 19.1219 29.6508 18.742 29.5873ZM28.5562 2.15873C28.6196 2.03175 28.5563 1.84127 28.4296 1.77778L25.8969 0.825397C25.7703 0.761905 25.5803 0.888889 25.5803 1.01587L24.2507 5.84127L23.4908 5.52381C23.3642 5.46032 23.1743 5.5873 23.1743 5.71429L21.9079 10.4762C22.7943 10.6667 23.6175 10.9841 24.3773 11.3651L28.5562 2.15873ZM34.1282 6.15873L26.9733 13.3968C26.4034 12.7619 25.707 12.1905 24.9471 11.746L27.7331 7.68254C27.7964 7.55556 27.9864 7.55556 28.113 7.61905L28.7462 8.19048L31.6588 4.12698C31.7221 4 31.9121 4 32.0387 4.06349L34.1282 5.77778C34.1915 5.90476 34.1915 6.09524 34.1282 6.15873ZM37.9273 11.873C38.0539 11.8095 38.1172 11.619 38.0539 11.4921L36.7242 9.14286C36.6609 9.01587 36.471 8.95238 36.3443 9.07937L32.2287 11.9365L31.7854 11.2381C31.7221 11.1111 31.5322 11.0476 31.4055 11.1746L27.4165 13.9683C27.9864 14.6667 28.4296 15.4286 28.8095 16.254L37.9273 11.873ZM39.3836 15.5556L39.8268 18.2222C39.8268 18.3492 39.7635 18.5397 39.5735 18.5397L29.506 19.4921C29.4427 18.6032 29.2527 17.7143 28.9995 16.8889L33.7483 15.5556C33.8749 15.4921 34.0649 15.619 34.0649 15.746L34.1915 16.5714L39.0037 15.3016C39.1936 15.3016 39.3202 15.4286 39.3836 15.5556ZM38.9403 25.3968C39.067 25.4603 39.2569 25.3333 39.2569 25.2064L39.7002 22.5397C39.7002 22.4127 39.6368 22.2222 39.4469 22.2222L34.5081 21.7778L34.6347 20.9524C34.6347 20.8254 34.5714 20.6349 34.3815 20.6349L29.4427 20.254C29.4427 21.1429 29.2527 22.0317 28.9995 22.8571L38.9403 25.3968ZM36.3443 31.4921C36.281 31.619 36.091 31.6825 35.9644 31.5556L27.6065 25.7778C28.113 25.0794 28.5562 24.3175 28.8728 23.4921L33.3684 25.5238C33.495 25.5873 33.5583 25.7778 33.495 25.9048L33.0518 26.6667L37.5474 28.8254C37.674 28.8889 37.7373 29.0794 37.674 29.2064L36.3443 31.4921ZM25.1371 28.0635L31.0256 36.381C31.089 36.5079 31.2789 36.5079 31.4055 36.4444L33.495 34.7302C33.6217 34.6032 33.6217 34.4762 33.495 34.3492L30.0126 30.7937L30.6457 30.2857C30.7724 30.1587 30.7724 30.0317 30.6457 29.9048L27.1633 26.4127C26.5934 27.0476 25.8969 27.619 25.1371 28.0635ZM25.1371 39.3651C25.0105 39.4286 24.8205 39.3016 24.8205 39.1746L22.1612 29.3968C23.0476 29.2063 23.8707 28.8889 24.6306 28.4444L26.72 32.8889C26.7834 33.0159 26.72 33.2064 26.5934 33.2698L25.8336 33.5873L27.9231 38.0952C27.9864 38.2222 27.9231 38.4127 27.7964 38.4762L25.1371 39.3651Z" fill="black"/>
</g>
<defs>
<clipPath id="clip0_4240_4203">
<rect width="121" height="40" fill="white"/>
</clipPath>
</defs>
</svg>
