<svg width="57" height="40" viewBox="0 0 57 40" fill="none" xmlns="http://www.w3.org/2000/svg">
<g clip-path="url(#clip0_4240_4195)">
<mask id="mask0_4240_4195" style="mask-type:luminance" maskUnits="userSpaceOnUse" x="0" y="0" width="57" height="40">
<path d="M0.0117188 0.105469H56.8246V39.9882H0.0117188V0.105469Z" fill="white"/>
</mask>
<g mask="url(#mask0_4240_4195)">
<path fill-rule="evenodd" clip-rule="evenodd" d="M23.6473 4.45667C25.4798 2.5417 28.0315 1.35343 30.8533 1.35343C34.6042 1.35343 37.8772 3.45144 39.6196 6.56641C41.1786 5.86768 42.8673 5.50755 44.5748 5.50966C51.3405 5.50966 56.8255 11.0592 56.8255 17.9053C56.8255 24.7513 51.3405 30.3011 44.5748 30.3011C43.7487 30.3011 42.9419 30.2177 42.1614 30.0598C40.627 32.8052 37.7018 34.6604 34.3453 34.6604C32.9877 34.6623 31.6476 34.3529 30.4274 33.7559C28.8719 37.4269 25.2464 40.0008 21.0224 40.0008C16.6225 40.0008 12.8726 37.2087 11.4342 33.2929C10.7932 33.4286 10.1397 33.4968 9.48455 33.4965C4.24619 33.4965 0 29.1928 0 23.8841C0 20.326 1.90752 17.2196 4.74269 15.5578C4.142 14.1704 3.83289 12.6737 3.83466 11.1612C3.83466 5.05542 8.77612 0.105469 14.8716 0.105469C18.4503 0.105469 21.6308 1.81186 23.6473 4.45667Z" fill="#00A1E0"/>
</g>
<path fill-rule="evenodd" clip-rule="evenodd" d="M8.23166 20.7932C8.19596 20.8866 8.2444 20.9061 8.25588 20.9226C8.36258 21.0001 8.47094 21.0562 8.58034 21.1193C9.15974 21.4269 9.7074 21.5172 10.2795 21.5172C11.4452 21.5172 12.1693 20.8956 12.1693 19.8946V19.8749C12.1693 18.9492 11.3518 18.6129 10.5858 18.3702L10.4858 18.3377C9.90805 18.1496 9.40945 17.9869 9.40945 17.6051V17.5857C9.40945 17.2587 9.70093 17.0185 10.1525 17.0185C10.6547 17.0185 11.2497 17.1859 11.6335 17.3984C11.6335 17.3984 11.7467 17.4717 11.7878 17.3622C11.8101 17.3029 12.0041 16.7789 12.0248 16.7222C12.0469 16.6608 12.0081 16.6146 11.9682 16.5907C11.5299 16.3228 10.9247 16.1406 10.2981 16.1406L10.1818 16.141C9.11485 16.141 8.36988 16.7882 8.36988 17.7142V17.7341C8.36988 18.71 9.19169 19.0273 9.9615 19.2479L10.0851 19.2864C10.6457 19.459 11.1299 19.6081 11.1299 20.0037V20.0233C11.1299 20.3857 10.8152 20.6548 10.3085 20.6548C10.112 20.6548 9.48483 20.6514 8.80709 20.2215C8.72504 20.1735 8.67827 20.139 8.615 20.1002C8.5816 20.0799 8.49808 20.0432 8.46175 20.153L8.23166 20.7932ZM25.2962 20.7932C25.2605 20.8866 25.3089 20.9061 25.3208 20.9226C25.4271 21.0001 25.5357 21.0562 25.6448 21.1193C26.2245 21.4269 26.7721 21.5172 27.344 21.5172C28.5097 21.5172 29.234 20.8956 29.234 19.8946V19.8749C29.234 18.9492 28.4168 18.6129 27.6505 18.3702L27.5505 18.3377C26.9728 18.1496 26.474 17.9869 26.474 17.6051V17.5857C26.474 17.2587 26.7656 17.0185 27.2175 17.0185C27.7194 17.0185 28.3142 17.1859 28.698 17.3984C28.698 17.3984 28.8112 17.4717 28.8525 17.3622C28.8746 17.3029 29.0688 16.7789 29.0893 16.7222C29.1116 16.6608 29.0726 16.6146 29.0329 16.5907C28.5944 16.3228 27.9894 16.1406 27.3628 16.1406L27.2463 16.141C26.1796 16.141 25.4346 16.7882 25.4346 17.7142V17.7341C25.4346 18.71 26.2562 19.0273 27.0262 19.2479L27.1496 19.2864C27.7104 19.459 28.1946 19.6081 28.1946 20.0037V20.0233C28.1946 20.3857 27.8797 20.6548 27.3734 20.6548C27.1765 20.6548 26.5493 20.6514 25.8718 20.2215C25.7897 20.1735 25.7417 20.1404 25.6795 20.1002C25.6584 20.0868 25.5601 20.0483 25.5265 20.153L25.2962 20.7932ZM36.9457 18.8321C36.9457 19.3976 36.8404 19.8441 36.6337 20.1588C36.4283 20.4709 36.1182 20.6227 35.6858 20.6227C35.2534 20.6227 34.945 20.4711 34.7429 20.1593C34.5389 19.8443 34.4354 19.3976 34.4354 18.8321C34.4354 18.2671 34.5389 17.8221 34.7429 17.5105C34.945 17.2016 35.2534 17.0516 35.6858 17.0516C36.1182 17.0516 36.4283 17.2018 36.6337 17.5107C36.8409 17.8221 36.9457 18.2671 36.9457 18.8321ZM37.9191 17.7836C37.8232 17.4592 37.6744 17.1737 37.4762 16.9356C37.2776 16.6969 37.0265 16.5048 36.7287 16.3658C36.4314 16.2265 36.0806 16.1559 35.6858 16.1559C35.291 16.1559 34.94 16.2265 34.6425 16.3658C34.3452 16.5048 34.0938 16.6969 33.8952 16.936C33.6973 17.1746 33.548 17.4596 33.4526 17.7836C33.3576 18.1054 33.3094 18.4583 33.3094 18.8321C33.3094 19.2062 33.3576 19.5593 33.4526 19.8807C33.548 20.2045 33.6969 20.4897 33.8954 20.7287C34.094 20.9679 34.346 21.1582 34.6429 21.2939C34.9407 21.4296 35.2914 21.4987 35.6858 21.4987C36.0804 21.4987 36.4308 21.4296 36.7283 21.2939C37.0256 21.1582 37.2772 20.9679 37.4762 20.7287C37.6744 20.4906 37.8232 20.2049 37.9191 19.8807C38.0138 19.5586 38.0621 19.2058 38.0621 18.8321C38.0621 18.4587 38.0138 18.1057 37.9191 17.7836ZM45.9089 20.4713C45.8769 20.3764 45.7846 20.4122 45.7846 20.4122C45.6433 20.4665 45.493 20.5168 45.3322 20.5419C45.1702 20.5674 44.9908 20.5802 44.7989 20.5802C44.3285 20.5802 43.9537 20.4397 43.6863 20.162C43.4176 19.8841 43.2666 19.4351 43.2683 18.8277C43.2697 18.2757 43.403 17.8598 43.6418 17.5427C43.8786 17.2277 44.2402 17.0661 44.7211 17.0661C45.1226 17.0661 45.4289 17.1128 45.7498 17.2137C45.7498 17.2137 45.826 17.247 45.8625 17.1463C45.9479 16.909 46.011 16.7402 46.102 16.4795C46.1279 16.4051 46.0644 16.3737 46.0412 16.3647C45.9151 16.3153 45.6172 16.2342 45.3923 16.2001C45.1821 16.1679 44.9363 16.1511 44.6622 16.1511C44.2536 16.1511 43.8892 16.2213 43.5777 16.3603C43.2668 16.4992 43.0031 16.691 42.7941 16.9295C42.5851 17.1685 42.426 17.4539 42.3208 17.7777C42.2154 18.0998 42.1621 18.4533 42.1621 18.8282C42.1621 19.6376 42.3799 20.2916 42.8094 20.7708C43.2403 21.2516 43.8867 21.4958 44.7305 21.4958C45.2288 21.4958 45.7402 21.3947 46.1085 21.2493C46.1085 21.2493 46.1786 21.2154 46.1481 21.1333L45.9089 20.4713ZM47.6114 18.2899C47.6579 17.9756 47.7437 17.7144 47.8776 17.5105C48.0795 17.2016 48.3868 17.0313 48.8192 17.0313C49.2518 17.0313 49.5368 17.2018 49.7423 17.5107C49.878 17.7149 49.9373 17.9869 49.9605 18.2904L47.6114 18.2899ZM50.8871 17.5995C50.8042 17.2866 50.6 16.9706 50.4657 16.8261C50.2538 16.597 50.0463 16.4365 49.8402 16.348C49.542 16.2208 49.2212 16.1555 48.8971 16.1559C48.486 16.1559 48.1125 16.2257 47.8095 16.3681C47.5061 16.5109 47.2512 16.7061 47.0514 16.9486C46.8511 17.1909 46.701 17.4793 46.6052 17.8064C46.5091 18.1316 46.4607 18.4862 46.4607 18.8606C46.4607 19.2414 46.511 19.5963 46.61 19.9155C46.71 20.2374 46.8706 20.5199 47.0873 20.7551C47.3038 20.9911 47.5825 21.1762 47.9156 21.3052C48.2469 21.434 48.6495 21.5008 49.1111 21.4994C50.0628 21.4962 50.5632 21.2835 50.7699 21.1689C50.8065 21.1484 50.8409 21.113 50.7979 21.011L50.5825 20.4062C50.5495 20.3159 50.4584 20.3486 50.4584 20.3486C50.2223 20.437 49.888 20.5947 49.1063 20.593C48.5956 20.5921 48.2173 20.4407 47.9795 20.2043C47.7362 19.9624 47.6168 19.6072 47.5965 19.1054L50.8896 19.108C50.8896 19.108 50.9764 19.1071 50.9854 19.0221C50.989 18.9869 51.0984 18.3436 50.8871 17.5995ZM21.2329 18.2899C21.2794 17.9756 21.3655 17.7144 21.4991 17.5105C21.7012 17.2016 22.0081 17.0313 22.4409 17.0313C22.8736 17.0313 23.1586 17.2018 23.364 17.5107C23.4995 17.7149 23.5588 17.9869 23.582 18.2904L21.2329 18.2899ZM24.5086 17.5995C24.4259 17.2866 24.2215 16.9706 24.0875 16.8261C23.8756 16.597 23.6682 16.4365 23.4619 16.348C23.1637 16.2209 22.8429 16.1556 22.5188 16.1559C22.1077 16.1559 21.7342 16.2257 21.4312 16.3681C21.1279 16.5109 20.8729 16.7061 20.6727 16.9486C20.4729 17.1909 20.3228 17.4793 20.2265 17.8064C20.1307 18.1316 20.0824 18.4862 20.0824 18.8606C20.0824 19.2414 20.1323 19.5963 20.2319 19.9155C20.3317 20.2374 20.4925 20.5199 20.7088 20.7551C20.9255 20.9911 21.2041 21.1762 21.5371 21.3052C21.8687 21.434 22.2708 21.5008 22.7328 21.4994C23.6843 21.4962 24.185 21.2835 24.3917 21.1689C24.428 21.1484 24.4627 21.113 24.4195 21.011L24.2042 20.4062C24.171 20.3159 24.08 20.3486 24.08 20.3486C23.844 20.437 23.5097 20.5947 22.7278 20.593C22.2173 20.5921 21.8388 20.4407 21.601 20.2043C21.3579 19.9624 21.2383 19.6072 21.2181 19.1054L24.5113 19.108C24.5113 19.108 24.5982 19.1071 24.6072 19.0221C24.6107 18.9869 24.7201 18.3436 24.5086 17.5995ZM14.1137 20.4533C13.9845 20.3498 13.9665 20.3245 13.9237 20.2573C13.8584 20.1561 13.825 20.012 13.825 19.8275C13.825 19.5375 13.921 19.3285 14.1189 19.1882C14.1169 19.1886 14.4029 18.9406 15.0742 18.9494C15.3736 18.9548 15.6724 18.9803 15.9684 19.0259V20.5274H15.9688C15.9688 20.5274 15.5502 20.6177 15.079 20.6462C14.4092 20.6866 14.1116 20.4527 14.1137 20.4533ZM15.4243 18.1316C15.2907 18.1218 15.1176 18.117 14.9101 18.117C14.628 18.117 14.3551 18.1521 14.0989 18.2213C13.8417 18.2908 13.6103 18.3984 13.4114 18.541C13.2125 18.6835 13.049 18.87 12.9334 19.086C12.8167 19.304 12.7572 19.5601 12.7572 19.8472C12.7572 20.1402 12.8079 20.394 12.9082 20.6014C13.0062 20.8069 13.1538 20.9847 13.3377 21.1186C13.5208 21.2522 13.7467 21.3503 14.0087 21.4102C14.2674 21.4694 14.5605 21.4994 14.8808 21.4994C15.2191 21.4994 15.5554 21.4709 15.8814 21.4158C16.159 21.3678 16.4355 21.3139 16.7109 21.2541C16.8207 21.2288 16.9418 21.1955 16.9418 21.1955C17.0232 21.1748 17.017 21.0874 17.017 21.0874L17.0151 18.0663C17.0151 17.4037 16.8389 16.9128 16.4917 16.6079C16.1461 16.3044 15.6373 16.1511 14.979 16.1511C14.7318 16.1511 14.3346 16.1846 14.0962 16.2326C14.0962 16.2326 13.3771 16.3725 13.081 16.6051C13.081 16.6051 13.0159 16.6453 13.0514 16.7364L13.2846 17.3647C13.3136 17.4462 13.3928 17.4183 13.3928 17.4183C13.3928 17.4183 13.4176 17.4085 13.4469 17.3911C14.0803 17.0455 14.8819 17.0558 14.8819 17.0558C15.2377 17.0558 15.5118 17.1281 15.6959 17.2694C15.8757 17.4079 15.967 17.6162 15.967 18.0566V18.1963C15.6845 18.1553 15.4243 18.1316 15.4243 18.1316ZM41.9899 16.4296C41.9946 16.4186 41.9971 16.4067 41.9972 16.3947C41.9972 16.3826 41.9949 16.3707 41.9903 16.3596C41.9857 16.3485 41.9789 16.3385 41.9703 16.3301C41.9617 16.3217 41.9515 16.3151 41.9404 16.3107C41.8842 16.2893 41.6042 16.23 41.3883 16.2166C40.9743 16.1907 40.7448 16.2606 40.539 16.3536C40.3348 16.446 40.1087 16.5953 39.9825 16.7655L39.9821 16.3626C39.9821 16.3073 39.9431 16.2627 39.8875 16.2627H39.0432C38.9885 16.2627 38.9488 16.3073 38.9488 16.3626V21.2908C38.9489 21.3174 38.9594 21.3429 38.9782 21.3617C38.9969 21.3805 39.0223 21.391 39.0488 21.3911H39.9143C39.9408 21.391 39.9661 21.3804 39.9848 21.3616C40.0036 21.3428 40.0141 21.3174 40.0141 21.2908V18.829C40.0141 18.4983 40.0504 18.1689 40.1228 17.9618C40.1943 17.7568 40.2913 17.5934 40.4116 17.4759C40.5256 17.3625 40.6651 17.2783 40.8183 17.2305C40.962 17.1891 41.1107 17.1681 41.2601 17.1681C41.4324 17.1681 41.622 17.2125 41.622 17.2125C41.6854 17.2196 41.7207 17.1806 41.7422 17.1232C41.7988 16.9722 41.9592 16.5197 41.9899 16.4296Z" fill="#FFFFFE"/>
<path fill-rule="evenodd" clip-rule="evenodd" d="M33.8665 14.1476C33.7597 14.1152 33.651 14.0893 33.541 14.0701C33.3931 14.0453 33.2433 14.0337 33.0934 14.0353C32.4977 14.0353 32.0281 14.2041 31.6984 14.5375C31.3711 14.8684 31.1483 15.3725 31.0366 16.0357L30.9963 16.2596H30.2486C30.2486 16.2596 30.1573 16.2558 30.1381 16.3557L30.0154 17.0426C30.0068 17.1084 30.035 17.1494 30.1227 17.149H30.8505L30.112 21.2837C30.0542 21.6167 29.988 21.8906 29.9147 22.0981C29.8425 22.303 29.7719 22.4565 29.6851 22.5679C29.6009 22.6757 29.5212 22.7551 29.3836 22.8014C29.27 22.8397 29.1393 22.8573 28.9961 22.8573C28.9163 22.8573 28.8102 22.8439 28.7319 22.8282C28.6536 22.8127 28.6129 22.7951 28.5543 22.7704C28.5543 22.7704 28.4689 22.7377 28.4352 22.8236C28.4079 22.8937 28.2139 23.4288 28.191 23.495C28.1676 23.5603 28.2004 23.6118 28.2417 23.6267C28.3386 23.6615 28.4106 23.6837 28.5426 23.7149C28.7259 23.7582 28.8804 23.761 29.0251 23.761C29.3282 23.761 29.6045 23.7182 29.8335 23.6353C30.064 23.5517 30.2647 23.4062 30.4421 23.2091C30.634 22.9966 30.7547 22.7739 30.8702 22.4703C30.9844 22.1693 31.0817 21.7957 31.1595 21.3603L31.9016 17.149H32.9865C32.9865 17.149 33.0779 17.1524 33.0969 17.0529L33.2197 16.366C33.2283 16.3002 33.2003 16.2592 33.1122 16.2596H32.0592C32.0644 16.2357 32.1123 15.8642 32.2332 15.5145C32.2847 15.3651 32.3818 15.2447 32.4641 15.162C32.5409 15.0832 32.6355 15.0242 32.7399 14.9899C32.8543 14.9544 32.9736 14.9371 33.0934 14.9388C33.1925 14.9388 33.2898 14.9507 33.364 14.9662C33.4661 14.988 33.5057 14.9995 33.5325 15.0075C33.6398 15.0403 33.6542 15.0085 33.6753 14.9564L33.9271 14.2627C33.953 14.1882 33.8899 14.1568 33.8665 14.1476ZM19.1522 21.2925C19.1522 21.3478 19.1129 21.3928 19.0578 21.3928H18.1844C18.1291 21.3928 18.0898 21.3478 18.0898 21.2925V14.2416C18.0898 14.1865 18.1291 14.1419 18.1844 14.1419H19.0578C19.1129 14.1419 19.1522 14.1865 19.1522 14.2416V21.2925Z" fill="#FFFFFE"/>
</g>
<defs>
<clipPath id="clip0_4240_4195">
<rect width="57" height="40" fill="white"/>
</clipPath>
</defs>
</svg>
