<svg width="176" height="40" viewBox="0 0 176 40" fill="none" xmlns="http://www.w3.org/2000/svg">
<g clip-path="url(#clip0_4240_4192)">
<path d="M36.9069 39.3846H5.61293C3.53692 39.3846 1.61468 38.3077 0.615116 36.4615C-0.461337 34.3077 -0.0768896 31.7692 1.61468 30.1538L23.3744 8.38462H7.76584C3.46003 8.38462 0 4.84615 0 0.615385H28.8336C30.9096 0.615385 32.8318 1.69231 33.8314 3.53846C34.9078 5.69231 34.5234 8.23077 32.8318 9.84615L11.0721 31.6154H29.1411C33.4469 31.6154 36.9069 35.1538 36.9069 39.3846ZM160.853 0C156.393 0 152.318 1.92308 149.55 5.07692C146.782 2 142.707 0 138.247 0C129.943 0 123.1 7.07692 123.1 15.3846V39.3846C127.406 39.3846 130.866 35.9231 130.866 31.6154V15.3077C130.866 11.3077 133.941 7.92308 137.94 7.76923C142.169 7.61539 145.629 11 145.629 15.1538V31.6154C145.629 35.9231 149.089 39.3846 153.394 39.3846V15.3077C153.394 11.3077 156.47 7.92308 160.468 7.76923C164.697 7.61539 168.157 11 168.157 15.1538V31.6154C168.157 35.9231 171.617 39.3846 175.923 39.3846V15.3846C176 7.07692 169.157 0 160.853 0ZM76.1206 20C76.1206 31 67.1245 40 56.1293 40C45.0572 40 36.1381 31 36.1381 20C36.1381 9 45.1341 0 56.1293 0C67.1245 0 76.1206 9 76.1206 20ZM68.3547 20C68.3547 13.2308 62.8956 7.76923 56.1293 7.76923C49.363 7.76923 43.9039 13.2308 43.9039 20C43.9039 26.7692 49.363 32.2308 56.1293 32.2308C62.8956 32.2308 68.3547 26.7692 68.3547 20ZM119.256 20C119.256 31 110.26 40 99.2643 40C88.1922 40 79.273 31 79.273 20C79.273 9 88.2691 0 99.2643 0C110.26 0 119.256 9 119.256 20ZM111.49 20C111.49 13.2308 106.031 7.76923 99.2643 7.76923C92.498 7.76923 87.0389 13.2308 87.0389 20C87.0389 26.7692 92.498 32.2308 99.2643 32.2308C106.031 32.2308 111.49 26.7692 111.49 20Z" fill="#0B5CFF"/>
</g>
<defs>
<clipPath id="clip0_4240_4192">
<rect width="176" height="40" fill="white"/>
</clipPath>
</defs>
</svg>
